<svg xmlns="http://www.w3.org/2000/svg" width="310.955" height="123" viewBox="0 0 310.955 123">
  <g id="Group_54905" data-name="Group 54905" transform="translate(-325.378 -606)">
    <g id="Group_23997" data-name="Group 23997" transform="translate(-8 -5.897)" opacity="0.07">
      <path id="Path_31" data-name="Path 31" d="M215.2,148.292h26.257V99.021L215.2,85.256Z" transform="translate(369.295 586.604)" fill="#4b63a2"/>
      <rect id="Rectangle_7636" data-name="Rectangle 7636" width="20.064" height="2.392" transform="translate(587.588 685.704)" fill="#ede3fc"/>
      <rect id="Rectangle_7637" data-name="Rectangle 7637" width="20.064" height="2.392" transform="translate(587.588 694.042)" fill="#fff"/>
      <rect id="Rectangle_7638" data-name="Rectangle 7638" width="20.064" height="2.392" transform="translate(587.588 702.381)" fill="#ede3fc"/>
      <rect id="Rectangle_7641" data-name="Rectangle 7641" width="20.064" height="2.392" transform="translate(587.588 711.604)" fill="#ede3fc"/>
      <rect id="Rectangle_7642" data-name="Rectangle 7642" width="20.064" height="2.392" transform="translate(587.588 719.604)" fill="#ede3fc"/>
      <rect id="Rectangle_7644" data-name="Rectangle 7644" width="20.064" height="2.392" transform="translate(587.588 727.604)" fill="#ede3fc"/>
      <rect id="Rectangle_7645" data-name="Rectangle 7645" width="10.168" height="63.036" transform="translate(558.877 671.86)" fill="#26448f"/>
      <path id="Path_34" data-name="Path 34" d="M129.962,148.292H103.705V70.419l26.257-13.765Z" transform="translate(329.145 586.604)" fill="#687fbc"/>
      <rect id="Rectangle_7671" data-name="Rectangle 7671" width="20.065" height="2.392" transform="translate(436.196 690.915)" fill="#ede3fc"/>
      <rect id="Rectangle_7676" data-name="Rectangle 7676" width="20.065" height="2.392" transform="translate(436.196 699.254)" fill="#fff"/>
      <rect id="Rectangle_7677" data-name="Rectangle 7677" width="20.065" height="2.392" transform="translate(436.196 657.561)" fill="#fff"/>
      <rect id="Rectangle_7679" data-name="Rectangle 7679" width="20.065" height="2.392" transform="translate(436.196 665.9)" fill="#ede3fc"/>
      <rect id="Rectangle_7680" data-name="Rectangle 7680" width="20.065" height="2.392" transform="translate(436.196 674.238)" fill="#fff"/>
      <rect id="Rectangle_7681" data-name="Rectangle 7681" width="20.065" height="2.392" transform="translate(436.196 682.577)" fill="#ede3fc"/>
      <rect id="Rectangle_7682" data-name="Rectangle 7682" width="20.065" height="2.392" transform="translate(436.196 708.635)" fill="#fff"/>
      <rect id="Rectangle_7683" data-name="Rectangle 7683" width="20.065" height="2.392" transform="translate(436.196 717.604)" fill="#fff"/>
      <rect id="Rectangle_7684" data-name="Rectangle 7684" width="20.065" height="2.392" transform="translate(436.196 725.604)" fill="#ede3fc"/>
      <rect id="Rectangle_7685" data-name="Rectangle 7685" width="10.168" height="91.638" transform="translate(464.433 643.258)" fill="#4b63a2"/>
      <path id="Path_36" data-name="Path 36" d="M184.513,153.189H147.971V50.706L184.513,30.19Z" transform="translate(343.03 581.707)" fill="#4b63a2"/>
      <rect id="Rectangle_7731" data-name="Rectangle 7731" width="5.353" height="5.995" transform="translate(491.918 662.909)" fill="#fff"/>
      <rect id="Rectangle_7732" data-name="Rectangle 7732" width="5.353" height="5.995" transform="translate(501.312 662.909)" fill="#c6bdd2"/>
      <rect id="Rectangle_7733" data-name="Rectangle 7733" width="5.353" height="5.995" transform="translate(510.706 662.909)" fill="#c6bdd2"/>
      <rect id="Rectangle_7735" data-name="Rectangle 7735" width="5.353" height="5.995" transform="translate(491.918 671.507)" fill="#c6bdd2"/>
      <rect id="Rectangle_7736" data-name="Rectangle 7736" width="5.353" height="5.995" transform="translate(501.312 671.507)" fill="#c6bdd2"/>
      <rect id="Rectangle_7737" data-name="Rectangle 7737" width="5.353" height="5.995" transform="translate(510.706 671.507)" fill="#fff"/>
      <rect id="Rectangle_7739" data-name="Rectangle 7739" width="5.353" height="5.995" transform="translate(491.918 680.105)" fill="#c6bdd2"/>
      <rect id="Rectangle_7740" data-name="Rectangle 7740" width="5.353" height="5.995" transform="translate(501.312 680.105)" fill="#fff"/>
      <rect id="Rectangle_7741" data-name="Rectangle 7741" width="5.353" height="5.995" transform="translate(510.706 680.105)" fill="#c6bdd2"/>
      <rect id="Rectangle_7743" data-name="Rectangle 7743" width="5.353" height="5.995" transform="translate(491.918 688.703)" fill="#c6bdd2"/>
      <rect id="Rectangle_7744" data-name="Rectangle 7744" width="5.353" height="5.995" transform="translate(501.312 688.703)" fill="#c6bdd2"/>
      <rect id="Rectangle_7745" data-name="Rectangle 7745" width="5.353" height="5.995" transform="translate(510.706 688.703)" fill="#fff"/>
      <rect id="Rectangle_7747" data-name="Rectangle 7747" width="5.353" height="5.995" transform="translate(491.918 697.299)" fill="#c6bdd2"/>
      <rect id="Rectangle_7748" data-name="Rectangle 7748" width="5.353" height="5.995" transform="translate(501.312 697.299)" fill="#c6bdd2"/>
      <rect id="Rectangle_7749" data-name="Rectangle 7749" width="5.353" height="5.995" transform="translate(510.706 697.299)" fill="#c6bdd2"/>
      <rect id="Rectangle_7751" data-name="Rectangle 7751" width="5.353" height="5.995" transform="translate(491.918 705.897)" fill="#c6bdd2"/>
      <rect id="Rectangle_7752" data-name="Rectangle 7752" width="5.353" height="5.995" transform="translate(501.312 705.897)" fill="#c6bdd2"/>
      <rect id="Rectangle_7753" data-name="Rectangle 7753" width="5.353" height="5.995" transform="translate(510.706 705.897)" fill="#fff"/>
      <rect id="Rectangle_7755" data-name="Rectangle 7755" width="5.353" height="5.995" transform="translate(491.918 715.098)" fill="#c6bdd2"/>
      <rect id="Rectangle_7756" data-name="Rectangle 7756" width="5.353" height="5.995" transform="translate(501.312 715.098)" fill="#fff"/>
      <rect id="Rectangle_7757" data-name="Rectangle 7757" width="5.353" height="5.995" transform="translate(510.706 715.098)" fill="#c6bdd2"/>
      <rect id="Rectangle_7759" data-name="Rectangle 7759" width="5.353" height="5.995" transform="translate(491.918 723.335)" fill="#c6bdd2"/>
      <rect id="Rectangle_7760" data-name="Rectangle 7760" width="5.353" height="5.995" transform="translate(501.312 723.335)" fill="#c6bdd2"/>
      <rect id="Rectangle_7761" data-name="Rectangle 7761" width="5.353" height="5.995" transform="translate(510.706 723.335)" fill="#c6bdd2"/>
      <rect id="Rectangle_7763" data-name="Rectangle 7763" width="5.353" height="5.995" transform="translate(491.918 637.116)" fill="#fff"/>
      <rect id="Rectangle_7764" data-name="Rectangle 7764" width="5.353" height="5.995" transform="translate(501.312 637.116)" fill="#c6bdd2"/>
      <rect id="Rectangle_7765" data-name="Rectangle 7765" width="5.353" height="5.995" transform="translate(510.706 637.116)" fill="#c6bdd2"/>
      <rect id="Rectangle_7767" data-name="Rectangle 7767" width="5.353" height="5.995" transform="translate(491.918 645.714)" fill="#c6bdd2"/>
      <rect id="Rectangle_7768" data-name="Rectangle 7768" width="5.353" height="5.995" transform="translate(501.312 645.714)" fill="#c6bdd2"/>
      <rect id="Rectangle_7769" data-name="Rectangle 7769" width="5.353" height="5.995" transform="translate(510.706 645.714)" fill="#fff"/>
      <rect id="Rectangle_7771" data-name="Rectangle 7771" width="5.353" height="5.995" transform="translate(491.918 654.312)" fill="#c6bdd2"/>
      <rect id="Rectangle_7772" data-name="Rectangle 7772" width="5.353" height="5.995" transform="translate(501.312 654.312)" fill="#c6bdd2"/>
      <rect id="Rectangle_7773" data-name="Rectangle 7773" width="5.353" height="5.995" transform="translate(510.706 654.312)" fill="#fff"/>
      <rect id="Rectangle_7775" data-name="Rectangle 7775" width="12.561" height="122.999" transform="translate(533.48 611.897)" fill="#687fbc"/>
      <rect id="Rectangle_7814" data-name="Rectangle 7814" width="16.641" height="78.029" transform="translate(344.598 656.868)" fill="#4b63a2"/>
      <rect id="Rectangle_7815" data-name="Rectangle 7815" width="35.729" height="78.029" transform="translate(361.238 656.868)" fill="#687fbc"/>
      <rect id="Rectangle_7816" data-name="Rectangle 7816" width="3.25" height="3.74" transform="translate(350.484 659.615)" fill="#ede3fc"/>
      <rect id="Rectangle_7817" data-name="Rectangle 7817" width="3.25" height="3.74" transform="translate(350.484 672.56)" fill="#ede3fc"/>
      <rect id="Rectangle_7818" data-name="Rectangle 7818" width="3.25" height="3.74" transform="translate(350.484 685.506)" fill="#ede3fc"/>
      <rect id="Rectangle_7819" data-name="Rectangle 7819" width="5.3" height="4.977" transform="translate(363.459 659.185)" fill="#fff"/>
      <rect id="Rectangle_7820" data-name="Rectangle 7820" width="5.3" height="4.977" transform="translate(370.195 659.185)" fill="#fff"/>
      <rect id="Rectangle_7821" data-name="Rectangle 7821" width="5.3" height="4.977" transform="translate(376.932 659.185)" fill="#d6cde4"/>
      <rect id="Rectangle_7822" data-name="Rectangle 7822" width="5.3" height="4.977" transform="translate(396.389 659.185)" fill="#fff"/>
      <rect id="Rectangle_7824" data-name="Rectangle 7824" width="5.3" height="4.977" transform="translate(363.459 671.943)" fill="#fff"/>
      <rect id="Rectangle_7825" data-name="Rectangle 7825" width="5.3" height="4.977" transform="translate(370.195 671.943)" fill="#d6cde4"/>
      <rect id="Rectangle_7826" data-name="Rectangle 7826" width="5.3" height="4.977" transform="translate(376.932 671.943)" fill="#fff"/>
      <rect id="Rectangle_7827" data-name="Rectangle 7827" width="5.3" height="4.977" transform="translate(396.389 671.943)" fill="#fff"/>
      <rect id="Rectangle_7829" data-name="Rectangle 7829" width="5.3" height="4.977" transform="translate(363.459 684.7)" fill="#fff"/>
      <rect id="Rectangle_7830" data-name="Rectangle 7830" width="5.3" height="4.977" transform="translate(370.195 684.7)" fill="#d6cde4"/>
      <rect id="Rectangle_7831" data-name="Rectangle 7831" width="5.3" height="4.977" transform="translate(376.932 684.7)" fill="#fff"/>
      <rect id="Rectangle_7832" data-name="Rectangle 7832" width="5.3" height="4.977" transform="translate(396.389 684.7)" fill="#d6cde4"/>
      <rect id="Rectangle_7834" data-name="Rectangle 7834" width="3.25" height="3.74" transform="translate(350.484 699.626)" fill="#ede3fc"/>
      <rect id="Rectangle_7835" data-name="Rectangle 7835" width="3.25" height="3.74" transform="translate(350.484 713.335)" fill="#ede3fc"/>
      <rect id="Rectangle_7836" data-name="Rectangle 7836" width="3.25" height="3.74" transform="translate(350.484 725.749)" fill="#ede3fc"/>
      <rect id="Rectangle_7837" data-name="Rectangle 7837" width="5.3" height="4.977" transform="translate(363.459 699.215)" fill="#d6cde4"/>
      <rect id="Rectangle_7838" data-name="Rectangle 7838" width="5.3" height="4.977" transform="translate(370.195 699.215)" fill="#fff"/>
      <rect id="Rectangle_7839" data-name="Rectangle 7839" width="5.3" height="4.977" transform="translate(376.932 699.215)" fill="#fff"/>
      <rect id="Rectangle_7840" data-name="Rectangle 7840" width="5.3" height="4.977" transform="translate(396.389 699.215)" fill="#d6cde4"/>
      <rect id="Rectangle_7842" data-name="Rectangle 7842" width="5.3" height="4.977" transform="translate(363.459 712.717)" fill="#fff"/>
      <rect id="Rectangle_7843" data-name="Rectangle 7843" width="5.3" height="4.977" transform="translate(370.195 712.717)" fill="#fff"/>
      <rect id="Rectangle_7844" data-name="Rectangle 7844" width="5.3" height="4.977" transform="translate(376.932 712.717)" fill="#d6cde4"/>
      <rect id="Rectangle_7845" data-name="Rectangle 7845" width="5.3" height="4.977" transform="translate(396.389 712.717)" fill="#fff"/>
      <rect id="Rectangle_7847" data-name="Rectangle 7847" width="5.3" height="4.977" transform="translate(363.459 724.946)" fill="#fff"/>
      <rect id="Rectangle_7848" data-name="Rectangle 7848" width="5.3" height="4.977" transform="translate(370.195 724.946)" fill="#fff"/>
      <rect id="Rectangle_7849" data-name="Rectangle 7849" width="5.3" height="4.977" transform="translate(376.932 724.946)" fill="#fff"/>
      <rect id="Rectangle_7850" data-name="Rectangle 7850" width="5.3" height="4.977" transform="translate(396.389 724.946)" fill="#fff"/>
      <g id="Group_23802" data-name="Group 23802" transform="translate(631.663 712.448)">
        <path id="Path_52" data-name="Path 52" d="M268.7,133.866l-6.335,10.874h12.67Z" transform="translate(-262.368 -125.844)" fill="#72b771"/>
        <path id="Path_53" data-name="Path 53" d="M268.7,129.378l-5.778,9.917h11.556Z" transform="translate(-262.368 -125.844)" fill="#72b771"/>
        <path id="Path_54" data-name="Path 54" d="M268.7,125.844l-4.736,8.129h9.472Z" transform="translate(-262.368 -125.844)" fill="#72b771"/>
        <path id="Path_55" data-name="Path 55" d="M268.7,128.4l-.766,19.888h1.532Z" transform="translate(-262.368 -125.844)" fill="#687fbc"/>
      </g>
      <g id="Group_23806" data-name="Group 23806" transform="translate(620.564 706.113)">
        <path id="Path_90" data-name="Path 90" d="M263.364,123.541a4.482,4.482,0,1,1-4.46-4.032,4.262,4.262,0,0,1,4.46,4.032" transform="translate(-251.269 -119.509)" fill="#75b775"/>
        <path id="Path_91" data-name="Path 91" d="M266.549,129.04c0,3.037-3.421,5.5-7.64,5.5s-7.64-2.462-7.64-5.5,3.421-5.5,7.64-5.5,7.64,2.462,7.64,5.5" transform="translate(-251.269 -119.509)" fill="#72b771"/>
        <path id="Path_92" data-name="Path 92" d="M252.585,127.434s4.515,1.473,5.9,1.928l.286-7.427.163,4.214,3.687-2.19s-2.843,2.574-3.645,3.293l.156,4.039,6.106-3.092-6.064,4.2.613,15.89h-2.031l.687-17.844c-.418-.209-5.854-3.015-5.854-3.015" transform="translate(-251.269 -119.509)" fill="#687fbc"/>
      </g>
      <g id="Group_23803" data-name="Group 23803" transform="translate(406.246 710.771)">
        <path id="Path_52-2" data-name="Path 52" d="M268.7,133.866l-6.335,10.874h12.67Z" transform="translate(-262.368 -125.844)" fill="#72b771"/>
        <path id="Path_53-2" data-name="Path 53" d="M268.7,129.378l-5.778,9.917h11.556Z" transform="translate(-262.368 -125.844)" fill="#72b771"/>
        <path id="Path_54-2" data-name="Path 54" d="M268.7,125.844l-4.736,8.129h9.472Z" transform="translate(-262.368 -125.844)" fill="#72b771"/>
        <path id="Path_55-2" data-name="Path 55" d="M268.7,128.4l-.766,19.888h1.532Z" transform="translate(-262.368 -125.844)" fill="#26448f"/>
      </g>
      <g id="Group_23805" data-name="Group 23805" transform="translate(333.378 711.996)">
        <g id="Group_23800" data-name="Group 23800">
          <path id="Path_82" data-name="Path 82" d="M431.5,139.087c0,2.211-2.56,4-5.718,4s-5.718-1.792-5.718-4,2.56-4,5.718-4,5.718,1.793,5.718,4" transform="translate(-418.947 -127.443)" fill="#72b771"/>
          <path id="Path_83" data-name="Path 83" d="M432.616,134.913c0,2.761-3.061,5-6.836,5s-6.833-2.238-6.833-5,3.06-5,6.833-5,6.836,2.238,6.836,5" transform="translate(-418.947 -127.443)" fill="#72b771"/>
          <path id="Path_84" data-name="Path 84" d="M429.757,130.351c0,1.606-1.78,2.908-3.976,2.908s-3.975-1.3-3.975-2.908,1.78-2.908,3.975-2.908,3.976,1.3,3.976,2.908" transform="translate(-418.947 -127.443)" fill="#72b771"/>
        </g>
        <path id="Path_85" data-name="Path 85" d="M421.049,136.945l4.2,2.064.179-4.629c-.25-.22-2.824-2.531-2.824-2.531s2.029,1.343,2.849,1.888l.205-5.333.13,3.386c.6-.354,2.2-1.3,2.2-1.3s-1.655,1.483-2.171,1.943l.139,3.61,4.134-2.086L426,137.3l.134,3.489c1.694-.858,4.289-2.167,4.289-2.167s-3.147,2.609-4.241,3.419l.241,6.253H424.89l.309-8.032c-.99-.732-4.15-3.315-4.15-3.315" transform="translate(-418.947 -127.443)" fill="#26448f"/>
      </g>
      <g id="Group_23807" data-name="Group 23807" transform="translate(470.174 705.996)">
        <path id="Path_90-2" data-name="Path 90" d="M263.364,123.541a4.482,4.482,0,1,1-4.46-4.032,4.262,4.262,0,0,1,4.46,4.032" transform="translate(-251.269 -119.509)" fill="#75b775"/>
        <path id="Path_91-2" data-name="Path 91" d="M266.549,129.04c0,3.037-3.421,5.5-7.64,5.5s-7.64-2.462-7.64-5.5,3.421-5.5,7.64-5.5,7.64,2.462,7.64,5.5" transform="translate(-251.269 -119.509)" fill="#72b771"/>
        <path id="Path_92-2" data-name="Path 92" d="M252.585,127.434s4.515,1.473,5.9,1.928l.286-7.427.163,4.214,3.687-2.19s-2.843,2.574-3.645,3.293l.156,4.039,6.106-3.092-6.064,4.2.613,15.89h-2.031l.687-17.844c-.418-.209-5.854-3.015-5.854-3.015" transform="translate(-251.269 -119.509)" fill="#687fbc"/>
      </g>
    </g>
  </g>
</svg>
