<svg id="Layer_1" data-name="Layer 1" xmlns="http://www.w3.org/2000/svg" viewBox="0 0 42.4 67.7"><defs><style>.cls-1{fill:#fff;}</style></defs><polygon class="cls-1" points="29.3 52.7 29.2 52.4 29.1 52.2 29.1 52.2 29 52 29 51.8 29 51.8 28.9 51.9 28.8 52.1 28.8 52.2 28.8 52.3 28.8 52.5 28.8 52.6 28.7 52.8 28.6 52.9 28.6 53 28.6 53 28.6 53.1 28.6 53.1 28.7 53.1 28.7 53.1 28.8 53.2 28.8 53.1 28.8 53.1 28.8 53.1 28.8 53.1 28.8 53 28.8 53 28.8 53 28.8 52.9 28.8 52.9 28.9 52.9 28.9 52.9 29 52.9 29 52.9 29 52.9 29.1 53 29.1 53 29.1 53 29.1 53.1 29.2 53.1 29.2 53.2 29.2 53.3 29.3 53.4 29.3 53.4 29.4 53.5 29.5 53.3 29.5 53.2 29.5 53 29.5 53 29.4 52.8 29.3 52.7"/><path class="cls-1" d="M30.27,52.34a.75.75,0,0,0-.1.5h.1a1.24,1.24,0,0,0,.2-.3c.1-.2.1-.6,0-.6A.76.76,0,0,0,30.27,52.34Z" transform="translate(-1.17 -1.44)"/><path class="cls-1" d="M30.47,50h-.2a3,3,0,0,0-.5.7c0,.1-.1.2-.1.3h.1a.1.1,0,0,0,.1-.1c.2-.1.3-.4.4-.6S30.37,50.14,30.47,50Z" transform="translate(-1.17 -1.44)"/><path class="cls-1" d="M30,48.64s-.1-.1-.2.1-.1.1,0,.2h.1a.55.55,0,0,0,.5-.3v-.1h0c0-.2-.2-.2-.4-.2h-.1a.52.52,0,0,0-.2.4c0,.1.1,0,.1,0s.1-.1.1-.2C30,48.24,30.17,48.54,30,48.64Z" transform="translate(-1.17 -1.44)"/><path class="cls-1" d="M30.27,51.84c0-.1.1-.1.1-.2a1.42,1.42,0,0,1,.2-.6c-.1.1-.2.3-.3.4a1.38,1.38,0,0,0-.3.4c0,.1-.1.2.1.2S30.17,51.94,30.27,51.84Z" transform="translate(-1.17 -1.44)"/><path class="cls-1" d="M30.07,48c0-.2-.2-.2-.4-.1h-.1c-.1.1-.4.2-.3.4.1,0,.2-.1.4-.1Z" transform="translate(-1.17 -1.44)"/><path class="cls-1" d="M26.77,48.54l-.1-.3-.2-.4-.4-.5-.2-.2-.3-.3-.4-.4-.1-.1-.2-.1h-.1l-.4-.2-.2-.1-.4-.1h-.3l-.3-.1H23l-.3-.1H22l-.6.1h-.2l-.3.1h-.1l-.2.1-.4.1h0l-.2.1-.3.2-.5.3h0l-.4.4-.4.5-.3.5h0l-.3.7-.2.6-.1.7v.7l.1.7.2.7.3.7.1.2.3.5.4.5.3.3h0l.4.3.3.2.2.1h.1l.4.1.2.1h.7l.7.2h1l.3-.1.3-.1.4-.1h.1l.5-.3h0l.3-.2a2.65,2.65,0,0,0,.6-.5l.1-.1.2-.2.5-.9v-.1l.2-.5h0l.1-.4.1-.4v-1.5l-.2-.7-.2-.5Zm-.4-.3h0v.2h0v.1l.1.1h.1v.1h-.1l-.8.2-.7.2-.3.1h-.1l-.6.1h-.3l-.3.1h0l.3-.2.4-.2h0l.4-.2.2-.1h.2l.2-.1.2-.1.4-.2.2-.1.2-.1.4-.2Zm-.7-1h0l.1.3v.1h0l.1.1h.3l-.3.1h-.1l-.2.1-.3.1-.2.1H25l-.2.2h-.1l-.3.2-.2.2h0l-.1.1H24l-.1.1-.1.1-.1.1h-.5l.2.3.2-.1.3-.2.4-.3.6-.5.1-.1.2-.2.1-.1Zm-.9-.8h.1v.3h.6v.1l-.4.2h0l-.3.2-.1.1-.2.2-.3.3v.5l-.2.2-.1.1-.2.2-.1.1-.2.2-.1.1-.2.2H23v-.1l.1-.3.1-.1.1-.2.1-.2.1-.1.2-.3V48l.2-.4.1-.1.1-.2.2-.4.5-.5Zm-1.2-.4h0l.1-.1h0V46h.2l-.4.5-.3.3V47l-.3.5-.3.5-.2.4-.2.5h0l.3-1.1.2-.8.1-.4Zm-1.1,2.3v-2.6h.4l-.1.3-.2.8-.2.5-.3,1.4L22,49h-.1v-.4Zm.1,1.1c.2,0,.3.1.4.3s.2.2.2.3a1.09,1.09,0,0,1,.1.5.75.75,0,0,1-.1.5.37.37,0,0,1-.1.3c-.1.1-.3.2-.4.3h-.5a1.23,1.23,0,0,1-.8-.4.52.52,0,0,1-.2-.4v-.6a.76.76,0,0,1,.2-.4,1.23,1.23,0,0,1,.8-.4h.1c.1-.1.2,0,.3,0Zm-1.1-3.6h.4l.1.1.3,1.8-.1,1.5-.7-3.4Zm-1.2.3h.1v-.2h.2l.6.4v.1l.1.3.1.4v.4l.1.4.1.4.1.4.1.4-.1.2-.4-.7-.2-.4-.3-.6h0v-.3l-.3-.6-.2-.6Zm-1,.7h.6v-.3H20l.1.4h0l.2.4.2.4h0l.2.4v.1l.1.3h0l.2.4.1.3.1.1.1.3.1.2h-.1l-.1-.6-.1-.1-.2-.3h0l-.1-.1-.1-.2-.1-.2-.1-.2-.3-.2-.1-.1-.1-.2-.1-.2-.3-.3-.3-.3ZM18,48.94h.1v-.7h.1v-.3h.3v-.4h.1l.6-.2.1.2.3.3.3.3.1.1.2.2h0l.3.3.1.1.2.2.1.1.1.1.1.1.3.3h0l-.3-.2-.3-.1-.1-.1-.2-.1-.2-.2h-.2l-.2-.1h0l-.2-.2-.2-.1-.3-.2h0l-.2-.1-.2-.1h-.2l.3.3.3.3h0l.3.2.3.2.2.1.1.1.1.1.3.2.1.1.2.2h0l.1.1.1.1h-.4l-.3-.1h-.1l-.2-.1h-.1l-.4-.1-.3-.4-.1-.1-.4-.1-.4-.1-.2-.1H18Zm-.3,1.4v-.2h.1v-.7l.2.1.2-.2.4.2.4.1.2.1.2.1.4.1.2.1.2.1h0l.4.1h0l.2.1h.1v0h-3.2Zm.1,1.3h0v-.1h0v-.2h0v-.2h0V51h0v-.1H21v.2h-.4l-.4.1h0l-.2.1h-.7l-.2.1-.4.1-.5.1h-.1l-.3.1Zm.3,1v-.4l-.1-.1c-.1-.1-.2-.2-.2-.3l.2-.1,1.1-.3.8-.2.2-.1.4-.1h.6v.3l-.2.1h-.1l-.3.1-.3.2-.2.1c-.1.1-.3.2-.4.3l-.4.2-1,.5Zm1,1.1-.1.1-.2-.5h-.1v-.2l.9-.5.8-.4.2-.1.4-.2.3-.1.1-.1-.2-.4h0v.1h0l-.3.4-.1.1-.3.3-.3.2-.1.1-.1.1-.1.1h0l-.1.2-.1.2-.3.2-.2.2-.1.1Zm.9.9h0a4.23,4.23,0,0,0-.7-.5h0l.8-.8.2-.3.4-.4.3-.3.1-.2.3-.4.2-.2h0l.2.2-.2.2-.2.3-.3.5-.1.2-.3.5-.4.9q-.3.15-.3.3Zm1.1.5L21,55l-.1-.1-.3-.1h-.4v-.1l.4-.6.3-.5.1-.2.3-.5.2-.3c.3-.4.5-.7.5-.6a7.49,7.49,0,0,1-.5,1.6c-.1.2-.1.5-.2.7a1.88,1.88,0,0,0-.2.8Zm3.1-.2h-.4c-.1,0-.1-.1-.2-.2v-.4l-.3-.9c-.1-.3-.1-.4-.2-.5l-.1-.2.1.3.2.9.3,1.3h-.5l-.5.1h0a22.6,22.6,0,0,0-.1-2.6c0-.2-.1,2.4-.1,2.6h0c-.3,0-.5-.1-.8-.1h-.1v-.1l.1-.4a10.15,10.15,0,0,1,.6-2.5.78.78,0,0,1,.4-.4h.1c.1.1.3.2.4.4l.2.3.3.4.3.4.4.5.3.6a1,1,0,0,0,.1.3A1.69,1.69,0,0,1,24.17,54.94Zm.9-.5h-.4a10.91,10.91,0,0,1-.6-1.1l-.4-.6h0l-.1-.4-.3-.4-.1-.2.1-.2h0l.3.3.3.3.4.4.6.6.1.1.2.1.6.6c-.2.1-.4.3-.7.5Zm.9-.8-.1-.1-.7-.6-.3-.2-.1-.1-.6-.5-.4-.3-.3-.3c-.1-.1-.1-.2,0-.2h.1l.2.1.4.2a2.09,2.09,0,0,1,.6.4h.1l.3.2.7.5.5.3v.1Zm.8-1.7h0V52h-.3v.3h0v.2h0v.2l-.6-.4-.7-.4-.3-.1h-.1l-.6-.4-.4-.2-.2-.1V51h.2l.4.1.6.1h.1l.1.1.2.1h.3l.3.1h.3l.3.1h.3l.1.1Zm.2-1.2v.1h0v.1h-.2v.2h0v.2h-.4l-.2-.1-.2.1h-.1l-.2-.1h-.8l-.7-.3-.4-.1-.2-.1v-.2H27v.2Zm-.1-1.3h0v.2h-.1v.1h0v.2h-3.1v-.1h.2l.4-.1h.1l.3-.1h.8l.3-.1h0l.3-.1.3-.1.2-.1h.1Z" transform="translate(-1.17 -1.44)"/><path class="cls-1" d="M23.07,58.54a.1.1,0,0,0,.1.1Z" transform="translate(-1.17 -1.44)"/><path class="cls-1" d="M22.17,50a.66.66,0,0,0-.4.5c0,.2.2.3.4.4h.1c.1,0,.2-.1.3-.2a.64.64,0,0,0,0-.6c-.1,0-.2-.1-.4-.1Z" transform="translate(-1.17 -1.44)"/><path class="cls-1" d="M18.17,58.54Z" transform="translate(-1.17 -1.44)"/><polygon class="cls-1" points="13.1 37 13.3 36.5 13.3 36.4 13.5 36.1 13.6 35.6 13.7 35.1 13.9 34.6 14 34.2 13.9 31 13.9 31 13.8 31.9 13.7 32.7 13.6 33.6 13.4 34.4 13.3 34.8 13.2 35.3 13.1 36.1 12.9 37 12.7 37.9 12.9 37.4 13.1 37"/><path class="cls-1" d="M25.17,6h0a.37.37,0,0,0-.3.1h-.1a1,1,0,0,0-.4.5c-.1.1-.1.3-.2.4v.1h.4l.3-.6v-.1h.3c.1,0,.2.1.3.2l.4.3L26,7a.37.37,0,0,0,.3-.1,2.18,2.18,0,0,0-.4-.5A.75.75,0,0,0,25.17,6Z" transform="translate(-1.17 -1.44)"/><path class="cls-1" d="M18.07,4.14h0c.1,0,.1.2.1.3a.1.1,0,0,0-.1.1l-.1.1a.1.1,0,0,1-.1.1h.2c.2,0,.5,0,.5-.2v-.4a.22.22,0,0,0-.2-.2c-.1,0-.2-.1-.3,0h0c-.2,0-.3,0-.2.2C17.77,4,18.07,4,18.07,4.14Z" transform="translate(-1.17 -1.44)"/><path class="cls-1" d="M37.77,12.14h0a.1.1,0,0,0-.1.1l.1.1a.68.68,0,0,1,.4.8c-.2.3,0,.4.3.4.1,0,.2-.1.3-.2C39.07,12.84,38.07,12.14,37.77,12.14Z" transform="translate(-1.17 -1.44)"/><path class="cls-1" d="M37.77,11.64c.3-.1.4-.7.7-.7s.3.4.3.6l-.6.4-.1.1.8.4c.2-.2-.2-.3,0-.6,0-.2.3-.2,0-.5.1-.3.4-.6.1-1-.1-.1-.3-.3-.5-.2h0a2.54,2.54,0,0,0-.8,1,1.42,1.42,0,0,0-.2.6c.1.1.1,0,.3-.1Z" transform="translate(-1.17 -1.44)"/><path class="cls-1" d="M28.17,59.34H32l.3-.1c.1,0,.2-.1.3-.2s.4-.3.6-.4a1.57,1.57,0,0,0,.3-1.6l.4-.1.5-.1c.2-.1.5-.2.7-.3l.4-.2c.2-.1.3-.2.5-.3h.1a4.35,4.35,0,0,0,.6-.7c.1-.1.1-.3.2-.5a2.37,2.37,0,0,0,.9-1.5l.3-1.5a.71.71,0,0,0,.7-.8c0-.7-.2-.9-.6-.9a1.8,1.8,0,0,0-.2-1,2.54,2.54,0,0,0-.2-1.2,1.21,1.21,0,0,0-.5-.5c-.2-.5-.3-.7-.4-.7a1.42,1.42,0,0,0-.2-.6l-.1-.1c-.2,0-.5-.3-.4-.5a1.4,1.4,0,0,0,.3-.9.71.71,0,0,0-.3-.6h-.1c-.2-.1-.3-.2-.5-.3a.76.76,0,0,1-.2-.5.76.76,0,0,0-.2-.4,1,1,0,0,0-.7-.4H34c-.1,0-.3.1-.4.1-.2-.2-.3-.2-.4-.3l-.3-.3a1.93,1.93,0,0,1-.3-1c-.1-.4-.2-.9-.3-1.3a1.91,1.91,0,0,0-.5-1,12.09,12.09,0,0,1,.5-1.8c.1-.3.1-.6.2-.8a2,2,0,0,0,.1-.8c.1-1.2,0-2.1.1-3.1.3-.3.5-.5.4-1l.1-.1c.2-.2.3-.4.2-.6a1,1,0,0,0,.5-.6,1.42,1.42,0,0,0,.2-.6l.3-.3a.78.78,0,0,0,.2-.8c.2-.1.3-.2.5-.3a2.09,2.09,0,0,0,.4-.6v-.5h0a2.18,2.18,0,0,0,.5-.8c0-.1,0-.1.1-.2a1.7,1.7,0,0,0,0-1c.5-.9.8-1.7.2-2.1a2.42,2.42,0,0,0-.1-1.7,1.32,1.32,0,0,0-.2-1.2v-.2c-.1-.1-.2-.2-.3-.2a2,2,0,0,0-.1-.7l-.1-.3c-.1-.2-.3-.3-.4-.5l-.1-.1a.6.6,0,0,1,.1-.4c.1-.1.2-.1.4,0l.1.1a1.42,1.42,0,0,0,.2.6c.1.1.1.2.2.3h.1a.86.86,0,0,0,.6.3.74.74,0,0,0,.8-.7c.2-.1.2-.2.3-.3s.1-.1.2-.2c.7-.2.7-1,1-1.5.4,0,.5-.4.7-.5s.2-.1.3-.3c.3,0,.4-.3.6-.5a1.83,1.83,0,0,0,.7-1c-.1-1.2-1.3-1.8-1.4-2.7,0-2.3-1-2-2-2.2a1.23,1.23,0,0,1-.8-.4,3.08,3.08,0,0,0-.3-1.3,3.39,3.39,0,0,0-.6-.6h-.1a2.18,2.18,0,0,0-.5-.4l-.4-.2c-.2-.1-.5-.1-.7-.2a2.89,2.89,0,0,0-1.8.3l-.3.2a2.58,2.58,0,0,0-.9.9h-.8c-.1,0-.3.1-.4.1s-.4.1-.5.3l-.1.1-.1-.1a2.84,2.84,0,0,0-.4-1.2l-.3-.3-.2-.2v-.2a1.67,1.67,0,0,0-.1-1.2v-.2a.55.55,0,0,0-.3-.5c-.1-.1-.1-.1-.2-.1a1.42,1.42,0,0,0-.1-1.1,1.45,1.45,0,0,0-1-.7h-1.1a1.42,1.42,0,0,0-.6-.2h-.4c-.1,0-.2.1-.3.1s-.2-.1-.3-.1-.2-.1-.4-.1h-.3a.37.37,0,0,0-.3.1l-.2.1h0a.85.85,0,0,0-.8,0l-.2.1a.6.6,0,0,0-.6-.3h-.2c-.1,0-.2.1-.3.1l-.1.1h0a.35.35,0,0,1-.2-.1h-.4c-.1,0-.2,0-.2.1a1.38,1.38,0,0,0-.4.3c-.1-.1-.2-.1-.4-.1a1.93,1.93,0,0,0-1,.3h-1.1l-.2.1a.86.86,0,0,0-.6.7,2,2,0,0,0-.1.8l.1.2a2.54,2.54,0,0,1,.2,1.2l-.1.2-.2.3h0l-.3.6a.6.6,0,0,0-.1.4l-.1.1c-.1-.1-.2-.1-.2-.2-.2-.1-.5-.2-.7-.3s-.5-.1-.7-.2a2.2,2.2,0,0,0-.8-.1.52.52,0,0,0-.2-.4,2.18,2.18,0,0,0-.8-.5,2.77,2.77,0,0,0-.9-.1c-.5.3-.6.4-.7.4a1.34,1.34,0,0,0-.7.6h-.7a.68.68,0,0,0-.6.4c0,.1-.1.1-.1.2a1.74,1.74,0,0,0-.6,1.1,1.58,1.58,0,0,1-.7.7c-.1.1-.3.1-.5.2l-.6.3c-.5.3-.8.7-.9,1.9-.3.6-1.3,1.2-1.4,2.2,0,.8.3,1,.7,1.1.1.2.3.8.4.8.3.5.7,0,.8.6a4.18,4.18,0,0,0,.4,1l.1.1c.1.1.1.3.3.4s.2,0,.2.1a.77.77,0,0,1,.2.3c0,.2.1.3.3.5a1,1,0,0,0,1.4,0v-.1h0l.3-.6c.2-.5.4-.3.3.2-.2.3.1.3-.1.6a2.23,2.23,0,0,0-.5,1c0,.1-.1.3-.1.4,0,.4-.8.6-.5,1.8a1.53,1.53,0,0,0-.2,2,1.94,1.94,0,0,0,.3,1.8,1,1,0,0,0,.3,1,1.61,1.61,0,0,0,.3.9,4.35,4.35,0,0,0,.6.7l.1.1h0c-.1.8.4,1.3.9,1.2-.1.9.1,1.3.3,1.4s.3.1.4.2h0v.1a3.79,3.79,0,0,0,0,1.5c.2,1.7.6,4,.6,4.8-.3.5-.1,2.9-.6,4.2a1,1,0,0,1-.4.5c-.1,0-.1.1-.2.1a2,2,0,0,0-1.1,0h-.1a1.1,1.1,0,0,0-.6,1v.2c-.1.2-.8.3-.9,1.3a2,2,0,0,0,.2,1.1,1.56,1.56,0,0,0-.8.6.9.9,0,0,0-.1.5h-.4a1.22,1.22,0,0,0-.5,1.2c-.1.1-.1.2-.2.2A2.88,2.88,0,0,0,6,49a1.7,1.7,0,0,0,0,1c-.3.1-.6.3-.6,1,0,.5.1.8.5.7.1.8.1,1.6.2,2.3a3,3,0,0,0,.4,1c.1.2.1.3.2.5a1.21,1.21,0,0,0,.5.5,2.46,2.46,0,0,0,1.5.5,1.27,1.27,0,0,1,.6.1h.1l.8.1a1.58,1.58,0,0,0,.6,2.1.76.76,0,0,0,.4.2,2.92,2.92,0,0,0,.9.2h.4l15.7.1Zm-21.9-7.8h0c-.3-.2-.3-1-.1-1.1h0C6.47,50.34,6.37,51.34,6.27,51.54Zm1,.6a4.67,4.67,0,0,1-.5,1l-.1.2L6.57,48h.1l.1.1c.2.3.3.7.5,1,3.2,0,5.7-1.6,5.7,1.5s-2.6,5.8-5.7,1.5ZM28,49.34c0-.1-.1-.2-.1-.3a9.68,9.68,0,0,1-.3-1.1c-.3-.3-.7-.7-.7-1.1v-.3h-.3c-.1-.1-.1-.2,0-.2h2.1c-.1,0,.1.4-.2.2h0a.1.1,0,0,0-.1.1l.1.1h.1v.6h-.1c-.1,0,0,.1,0,.2s.1,0,.1,0,.1-.2.2.1c-.1.1-.2.3-.3.4a1.1,1.1,0,0,0,0,.8.37.37,0,0,0-.1.3c-.1,0-.1.1-.2.2C28.07,49.24,28.07,49.44,28,49.34Zm-1.4-5.7c-.1-.1-.4-.2-.5,0-.5.4.3.7,0,1h-.2c-.1,0-.1-.1-.1-.3,0-.5-.2-.6-.5-.9v-.1c-.1,0-.1.1,0,.2a.1.1,0,0,0,.1.1,1.7,1.7,0,0,1-.1.7c0,.1-.1.1-.1.2h-.1c.1-.4.2-.7,0-.9l-.1-.1h-.1c-.2,0-.5.1-.3.5.1.1.1.3.2.5a.3.3,0,0,1-.4,0,.37.37,0,0,0,.1-.3v-.4c-.1-.3.2-.6.3-.9-.1-.2-.1-.1-.3-.1s0-.3,0-.4c.2-.3.2,0,.4.1l.1.1h.1v-.4A.31.31,0,0,0,25,42a.82.82,0,0,1-.1-.7c.3-.8-.2-1.5.1-2.2v-.2a.37.37,0,0,1,.1-.3l.3-.6.1-.2c-.1-.6.1-1.3-.1-1.5h0c-.1.3-.1.7-.2,1l-.1.3c-.1.5-.2.9-.3,1.3l-.6,2.3v.1a2.92,2.92,0,0,1-.2-.9,6.6,6.6,0,0,1,.1-1.4c0-.2.1-.3.1-.5a22.68,22.68,0,0,0,.6-2.5,1.27,1.27,0,0,1,.1-.6v-1.1a10.45,10.45,0,0,0,0-2.5,1.27,1.27,0,0,0-.1-.6c-.1-.2,0-.1,0-.2-.1-.5-.1-.6,0-.6h.1l.3-.1h0a.91.91,0,0,0,.7-.3l.7-.7h0l.1.1c.1.1.1.2.2.3a2.77,2.77,0,0,1,.3,1.3v1.1a4,4,0,0,1-.3,1.5c-.1.2-.1.4-.2.6a.37.37,0,0,1-.1.3l-.6,2.4c.2.9.4,1.9.6,2.8a3.81,3.81,0,0,1,.1,1.5,1,1,0,0,1-.1.3.1.1,0,0,1-.1-.1.61.61,0,0,0,.1.8c.1.1.1.1.2.1H27c.7.2.4.9.3,1.3s.1.3.2.1.2-.2.3-.2h0c.1,0,.1.1.2.1a.35.35,0,0,1,.1.2.9.9,0,0,1,.1.5.44.44,0,0,1-.1.3.48.48,0,0,1,0-.4c0-.2,0-.3-.3-.4h0c-.3.1-.3.3-.2.6s-.1.3-.2,0,0-.3-.1-.4l-.3.5c0-.3.2-.6,0-1a.37.37,0,0,1-.1-.3c-.1-.2-.1-.4-.2-.6s-.3-.6-.8-.4h0a6.6,6.6,0,0,0-.1-1.4,17.42,17.42,0,0,1-.5-2.2h-.1v.6a1.27,1.27,0,0,0,.1.6,5.28,5.28,0,0,1,0,2.5c0,.4,0,1,.3,1,.1-.3.3-.5.4-.8h.1c.4-.2.5.3.4.5s-.3.2-.4.3-.1.2,0,.2h0a.62.62,0,0,1,.7-.1c.1,0,.1.1.1.2h0c.1.1,0,.5,0,.8v.3c-.1.1-.2.1-.2-.2s.1-.6-.1-.9Zm-3.5-.8c0,.2.1.3.1.5l.1.1a1.18,1.18,0,0,1,.1,1h-2.2a1.14,1.14,0,0,0-.3-.8.85.85,0,0,1,0-.7h0v-.2a.75.75,0,0,0-.1-.5,1.28,1.28,0,0,1,0-1.2c.1-.6-.2-1.1-.1-2,.1-.2.1-.5.2-.7a1.48,1.48,0,0,0,.1-.7,14.82,14.82,0,0,0,.2-4.2,2.46,2.46,0,0,1-.1-1.2,1.88,1.88,0,0,1,.2-.8l.2-.3.1-.1c.3-.1.5-.8.6-1.3h0c.5.6,0,.6,0,1v.1a.85.85,0,0,0,0,.7c0,.1.1.2.3.2l.1.2A1.5,1.5,0,0,1,23,33v3.1c.1.4.1.8.2,1.1l.3,1.2a4.33,4.33,0,0,0,.1.5c0,.5-.1,1-.1,1.6a1.7,1.7,0,0,1-.1.7,1.42,1.42,0,0,0-.2.6,1.69,1.69,0,0,0-.2.5c-.1.1,0,.4.1.5Zm-3.9.6a.35.35,0,0,0-.1-.2c-.1-.3,0-.5-.1-.8h-.2c0,.5-.7.7-.5.9l.3.1a.92.92,0,0,1,.1,1c-.1.1-.2.1-.2,0a.45.45,0,0,0,0-.5c0-.2-.3-.3-.5-.2a.22.22,0,0,0-.2.2c-.1.3.1.4.1.6-.2.1-.3.1-.3-.3-.1-.6.2-.8.1-1,.2-.2.1-.7.3-1.1h0a.9.9,0,0,1,.5-.1c.2.2.3.2.4.1a3.55,3.55,0,0,1,.2-1h.1c.1.1.1.3.3.5s0,.4-.1.6-.1.3.1.3.2-.3.4-.1a6.89,6.89,0,0,0-.3.8c.1.1.2-.2.3-.2h0c.1,0,.2,0,.2.1h0c.1.1.1.3,0,.3h-.2c-.2,0-.3.1-.5.4a2.39,2.39,0,0,1-.2.9h0a.1.1,0,0,1-.1-.1.76.76,0,0,0,.1-.4A1.1,1.1,0,0,0,19.17,43.44Zm1-6.1c0,.1,0,.1-.1.2a10.28,10.28,0,0,1-.1-1.7v-.3a27.41,27.41,0,0,0-.5-2.8l-.3,1.5v1.5c.1,1.3.8,2.2.6,2.9-.1.1-.1-.4-.3-.4.1.7.2,1.3.3,2,0,.2,0,.6-.2.7l-.4-1.2h0c-.1.2-.2.4-.1.5a2.92,2.92,0,0,1-.2.9c-.2-.5-.2-1.5-.4-1.5a.64.64,0,0,0,0,.6,2.4,2.4,0,0,1-.4,1.6.1.1,0,0,1-.1.1c-.4.5-.3,1-.5,1.4.1.4-.2.5-.3.8v.3h-.5l.1-.8c-.1-.2-.3-.3-.4-.2s-.1.1-.2.1a.1.1,0,0,1-.1.1h0v.3c.1.1.1.3.2.4h-.5a1.43,1.43,0,0,1,.3-1.1h0c.1,0,.1-.1.2-.1h.2c.3,0,.3.6.4.7H17l.2-1.2H17c-.1,0-.2.1-.4,0s0-.5,0-.6.2-.2.3-.2h.2c.1,0,.2,0,.3-.2a2.62,2.62,0,0,0,.5-1.9c-.2-.1-.2,1.3-.8,1.7h-.2c-.1,0-.3.1-.3,0,.1-.3.2-.5.3-.8l.1-.1c0,.1.1.2.1.3s.1.1.1,0c0-1.7,0-3.4.1-5.1-.1-.3-.1-.7-.2-1s-.1-.8-.2-1.1a16.35,16.35,0,0,1-.2-2.2,11,11,0,0,1,.2-1.8h1.4c.4.6.7.5.9,1h0a1.93,1.93,0,0,1,.3,1c.3-.2,0-1.1.4-1.3h0l.2-.1h0c.1-.1.2.2.3.3s.2.1.3.2h.1c0,.2-.1.3-.1.5-.2,1.3,0,3-.3,4.3v.1A7.93,7.93,0,0,1,20.17,37.34Zm-3.5,9.3v.3c0,.1-.2.1-.2.1h0c-.1.1-.2.1-.3.2h0v-.1h0a.1.1,0,0,0-.1-.1c-.1.1-.1,0-.1.2s.1.1.1.2l-.3.3a.31.31,0,0,0-.1.2v-.1h-.1c-.1,0-.2,0-.2.1h-.1s-.2,0-.2.1,0,.2.1.2l.1-.1h.1c.1,0,.1,0,.1.1l-.1.1a1.09,1.09,0,0,0-.1.5,2.15,2.15,0,0,1,0,.8v.5h-.1l-.7-.2-.7-.2v-.2h-.1l-.1.1h-.1s-.1-.2-.2-.1a.31.31,0,0,0-.1.2H13c-.2.1-.3.1-.2,0s.1.1.1-.1-.1-.1-.2-.1h0a1.38,1.38,0,0,1-.3-.4v-.7c-.1,0-.1-.1-.2-.1a.1.1,0,0,0-.1-.1c0-.1-.1-.2-.1-.4h0l.2.1v-.6a.6.6,0,0,0-.1-.4l.2-.2-.1-.1h-.1a.6.6,0,0,1-.4-.1H17l-.1.1c-.3-.1-.3-.2-.2,0Zm1.1-34.7c0,.2,0,.2.1.2A2,2,0,0,0,18,11l.1.1a1.27,1.27,0,0,1,.1.6c.1.5-.2.5-.1,1v.2c-.1.4-.4.4-.6.7-.1-.1-.2-.2-.2-.3l-.2-.3a1.38,1.38,0,0,0-.3-.4h-.2a1.27,1.27,0,0,1-.1-.6v-.3h0c0-.1.4,0,.5-.1h.1l.1-.3.1-.1a2.09,2.09,0,0,0,.4-.6l-.1.2A3.59,3.59,0,0,0,17.77,11.94Zm1.4,2.6.2-.1h.1v.4c0,.1-.1.1-.2.2l-.3.1c-.4,0-.4.6-.4.9v.2a1.33,1.33,0,0,1-.5-.3,1.23,1.23,0,0,1-.4-.8c0-.4-.3-.4-.5-.6v-.1a.1.1,0,0,1-.1-.1,1.13,1.13,0,0,1-.3-1.1h0l.3.4.2.2.2.3h.1c.1-.2.3-.9.5-.9h0c.1.4.3.9.4,1.2h.1c.1,0,.1-.4.2-.5.3-.2.2.3.2.4C18.87,14.74,19,14.74,19.17,14.54Zm.3,1c.1.1.3-.1.3-.1a1.44,1.44,0,0,0,.2.3c.1.1.1.4.2.2h0c.1-.1.2-.2.2,0s0,.2.1.2a.1.1,0,0,0,.1-.1.35.35,0,0,0,.1-.2c0-.1.1-.1.1,0V16c0,.1-.1.2-.1.3s-.1.2-.2.3a.1.1,0,0,1-.1.1v.7c-.1.1-.2,0-.4,0l-.2-.1h0c-.4-.3-.3-.7-.5-.9l-.1-.3c-.1-.1-.2-.1-.2-.2a.57.57,0,0,1,.2-.7h.1c.3,0,.1.1.2.3Zm1.1-3.4h.2l.1.2.3.3v.1c.1.1.1.2.2.3a1.56,1.56,0,0,0,.8.6.6.6,0,0,0,.4.1h.6c.1,0,.2-.1.3-.1s.2-.1.3-.2a2.18,2.18,0,0,0,.4-.5l.1-.1c.1-.2.1-.3.4-.2,0-.1,0-.5.2-.5h0l.1.1a.64.64,0,0,0,0,.6,2.77,2.77,0,0,1,.1.9c0,.1-.1.3-.1.4l-.1.1a1.38,1.38,0,0,1-.4.3l-.2.1c-.1,0-.2.1-.4.1h-.6c-.1,0-.2,0-.2-.1h-.9a1.27,1.27,0,0,1-.6.1h-.4c-.1,0-.2-.1-.3-.1l-.1-.1h0c-.1-.1-.2-.2-.2-.3a.37.37,0,0,1-.1-.3,3.4,3.4,0,0,1,.1-1v-.8ZM23,13h0a.44.44,0,0,0,.3-.1l.1-.1.2-.2.3-.3h0c.1-.1.1-.1.1.1a.37.37,0,0,1-.1.3l-.3.3-.1.1c-.1,0-.1.1-.2.1l-.2.1h-.9a1,1,0,0,1-.7-.9.84.84,0,0,1,.7-.4c.2,0,.3,0,.3-.1s0-.2.1-.2h0c.1.2.2.2.4.3l.2.1.2.1c.1.1,0,.4-.1.4s-.1.1-.1.2-.1.1-.2.1h-.3c0-.1.1,0,.3.1Zm3.2,1.3c0-.3,0-.2.1-.1a.1.1,0,1,0,.2,0c0-.2,0-.5.1-.2l.1.1c.1.1.1.1.1.2a.85.85,0,0,1,0,.7c0,.1,0,.1.1.1s.1-.3.2-.4a.81.81,0,0,0-.3-.9l-.1-.1c0-.1,0-.1.1-.1h0c.2,0,.3.2.5-.1-.1-.1-.3-.1-.3-.4l.1-.1.7.6h0v.7a3.33,3.33,0,0,1-.3.6c-.3.4-.5.4-.7.7-.1.1-.1.2-.2.3h0a1.44,1.44,0,0,1-.3.2H26c-.2,0,.1-.2.2-.3s0-.3,0-.4c0-.4-.3-.4-.5-.7v-.3l.1.1c.1.1.4.4.4.1A.19.19,0,0,0,26.17,14.34Zm2.3,9.3h0a.54.54,0,0,0-.3-.4l-.3-.1-.1-.1.1-.1c.1-.1.2-.2.3-.2h.3a1.38,1.38,0,0,0,.4.3l.2.2a1.7,1.7,0,0,1-.1.7h0c-.1.1-.4.2-.3,0s.1-.2.2-.3-.3-.1-.4,0Zm0,19.6.3.3v.3h.4c.4.3,0,.6.2.9v.1c-.1,0-.2.1-.2-.1s0-.1-.1-.2A.9.9,0,0,1,29,44c.1-.2-.1-.1-.2,0h0c-.1,0-.1.2-.1.3l.1.1c.1.1.1.2.2.3s-.1.1-.2.1h-.3a4.1,4.1,0,0,0-.1-1.1l-.3-.6a1.45,1.45,0,0,1-.2-.7h.3c.3,0,.3.5.3.8Zm-.3-1.3h-.3c-.2,0-.3-.1-.5-.3a6.15,6.15,0,0,0-.2-1.9,10.62,10.62,0,0,1,.4-1.9h0c.1.3.1.5.2.8a5.08,5.08,0,0,1,.3,1.7v.2a6.6,6.6,0,0,1,.1,1.4Zm-1.3-15.1c0-.1-.1-.2-.2-.3a1.23,1.23,0,0,0-.8-.4h0v-.7c0-.4-.5-.8-.2-.8l.2.3c.1.1.1.2.2.3s.3.2.4.5a.37.37,0,0,0,.3-.1l.2-.2c0-.1,0-.1-.1-.2a.35.35,0,0,0-.1-.2c-.1-.2-.3-.3-.5-.5s-.3-.2-.3-.5v-.3a.82.82,0,0,0-.4-.6c-.1-.1,0-.4.2-.2a.76.76,0,0,0,.2.4c.1.2.4.2.5.5h.2c0-.1.1-.1.1-.2a.45.45,0,0,0-.3-.6.76.76,0,0,1-.5-.2l-.1-.1c0-.4.1-.8-.2-1.1-.1-.3.1-.4.2-.2s.1.2.1.3.4.3.5.6q.15,0,.3-.3h0v-.2a1,1,0,0,0-.8-.5h0l-.1-.2a1.39,1.39,0,0,0,0-.9H26l.1.1c.1,0,.1.4.4.4s.1.2.2.3h0c.1.1.1.1.2.1a1.38,1.38,0,0,1,.3.4c.2.2.2.3,0,.5a1.38,1.38,0,0,1-.4.3h-.2c-.1,0-.2,0-.2.1v.1c.1.1.1.2.2.2a.1.1,0,0,1,.1.1h.1c.1,0,.3,0,.3.1s-.1.1-.1.2,0,.5-.1.6h-.1c-.1,0-.1.1-.2.1s-.3.1-.3.2.1.2.3.2.1.1.2.1l.1.1a.79.79,0,0,1,.1,1.1c0,.1-.1.1-.2.2s-.1.1-.2.1-.1.1-.1.2l.1.1.2.2c.1.1.2.3.3.4s0,.5-.2.6-.1-.4,0-.5Zm-3.6,2.7c.1.1.2.2.3.2l.3.2H24c.2,0,.1.2.1.2s-.1.2-.1.3l-.3.3h0v-.2a.35.35,0,0,1,.1-.2c.1-.2,0-.3-.1-.3h-.6a2.09,2.09,0,0,1-.4-.6c-.1-.2,0-.5-.1-.7s-.1-.1-.2-.1a.22.22,0,0,0-.2-.2h0a1.6,1.6,0,0,1-.7.9v.1c-.1.1-.1.2-.2.3a.45.45,0,0,0,0,.5h-.4c-.1,0-.1-.1-.1-.2a1.7,1.7,0,0,1,.1-.7c0-.1.1-.1.1-.2l.1-.1h.5c.1,0,.4-.2.4-.3a.54.54,0,0,1,.3-.4c.2-.1.2,0,.3,0a.1.1,0,0,0,.1.1l.1.1a.76.76,0,0,1,.4.2c.1.1.2.1.2.2l.3.4v.2c0,.1.1,0,.3-.1l.1-.1a.64.64,0,0,0,0-.6l-.1-.1-.3-.3c-.1-.1-.2-.1-.3-.2l-.2-.1h0c-.1-.2-.1-.3,0-.4h0v-.2a.14.14,0,0,1-.2,0,.52.52,0,0,0-.2-.4v-.1c-.1-.1-.1,0-.2.1s-.1.2-.2.3h-.2a1.34,1.34,0,0,0-.7.6h0a.64.64,0,0,0,0,.6.1.1,0,0,0,.1.1l-.1.1h-.1c-.1-.1-.3-.2-.3-.3a.3.3,0,0,1,0-.4c0-.1.1-.1.1-.2a.35.35,0,0,0,.2-.1c.1-.1.1-.1.1-.2a.1.1,0,0,0,.1-.1v-.3c-.1-.3.2-.2.4-.3a.76.76,0,0,0,.4-.2l.2-.2h0l.2.2.4.4.2.2.3.3.1.1c.1.2-.1.4,0,.4l.2.2c.1.1.2.1.4.1s.2,0,.2.1a1.14,1.14,0,0,1-.3.8l-.1.1a.45.45,0,0,1-.5,0c-.1,0-.2-.1-.3-.2C23.07,29.34,23.17,29.44,23.27,29.54Zm-2.6-3.7h-.1c-.1,0-.2-.1-.3-.1l-.1-.1a1.1,1.1,0,0,1,0-.8v-.2a.78.78,0,0,1,.4-.4h0a.22.22,0,0,0,.2-.2,1.7,1.7,0,0,0,.1-.7H21l.2-.1h.2c.2,0,.3-.2.4-.3h0q.15,0,0,.3a.66.66,0,0,0,.2.7.35.35,0,0,0,.1.2,1.38,1.38,0,0,0,.4.3c.1.1.3.1.4.2l.2.1.1.1a.76.76,0,0,0,.2.5c.1.1.1.1.2.1l.1.1c.1.1.2.1.4.1h.2a.85.85,0,0,1,0,.7c-.1.1-.1.2-.2.3a1.38,1.38,0,0,1-.4.3c-.1,0-.1.1-.2.1.1-.1.2-.2.2-.3a.37.37,0,0,0,.1-.3c0-.1-.1-.2-.1-.3l-.3-.3h-.1l-.2-.1-.2-.1-.4-.2a.78.78,0,0,1-.4-.4c-.1-.1-.1-.3-.2-.4s-.5-.6-.5-.5a.9.9,0,0,1-.1.5c0,.1-.1.2-.2.3s-.2.1-.3.2a.1.1,0,0,1-.1.1l-.1.1-.1.1C20.57,25.34,20.57,25.64,20.67,25.84Zm-.5,2.6h0c-.1.1-.1.2-.2.3s-.3.2-.4.4c-.3.3-.3.7.2.7.1,0,.1-.1.2-.1h0c-.3.4-.5,0-.8,0h0a.75.75,0,0,1,0-.9l.1-.1c.5-.4.1-.4-.1-.3h-.1c-.5,0-.4-.5-.4-.8a.82.82,0,0,0,.5-.5h0c.2-.1.2-.3.2-.5l.6-.3h0a2.77,2.77,0,0,0-.1.9c-.2.1-.5.2-.6.4s-.3.4-.2.6.1.1.2.1a3,3,0,0,0,.8-.4l.2-.2h0a.35.35,0,0,1,.1.2c-.1,0-.1.1-.1.2A.37.37,0,0,0,20.17,28.44Zm-2.4.5a.37.37,0,0,1-.3.1.76.76,0,0,1-.4-.2c0-.1-.1-.1-.1-.2a1.7,1.7,0,0,1,.1-.7l.1-.2c.2,0,.4-.3.6-.5v.2a1.39,1.39,0,0,0-.5,1A.47.47,0,0,0,17.77,28.94Zm-.4-2.9h-.3l-.1-.1a.75.75,0,0,1-.1-.8l.1-.2.2-.4c.1-.2.3-.4.4-.6h0v.8a1.27,1.27,0,0,0-.4.6v.4h0a1.27,1.27,0,0,0,.6.1v.9a1.21,1.21,0,0,0-.5.5.37.37,0,0,0-.1.3c0-.1-.1-.2-.1-.3v-.4c0-.2.1-.3.2-.5l.1-.1C17.37,26.14,17.47,26,17.37,26Zm-.3-2.3H17a1,1,0,0,1-.3-1.2l.3-.3.2-.2a2.18,2.18,0,0,0,.5-.4h0v.6c0,.2-.1.3-.2.5-.1,0-.3.1-.3.2a.37.37,0,0,0-.1.3v.5Zm.1-3-.1.1a.64.64,0,0,0,0,.6H17c-.5-.2-.3-.8-.1-1.2l.1-.1.2-.2c.2-.2.5-.4.7-.6,0,.2.1.4.1.6l.1.3h-.2a3,3,0,0,0-.7.5Zm.9-2.2a.75.75,0,0,1-.5.1.55.55,0,0,0-.3.5.1.1,0,0,1-.1-.1.75.75,0,0,1-.1-.8c0-.1.1-.1.1-.2a2.19,2.19,0,0,1,.5-.3c.1-.1.3-.2.4-.3l.2-.2a1.41,1.41,0,0,1,.1.9c-.1.1-.2.3-.3.4Zm.2,4a4.28,4.28,0,0,1,.9-1.3.37.37,0,0,0,.1-.3h0c.2-.3.1.6.3.8a.67.67,0,0,1-.4.7l-.3.1a.61.61,0,0,0-.1.8c.2,0,.4.2,0,.2-.6-.1-.5-.6-.5-1Zm3.5-6.1.4-.3.1-.1c.1,0,.1,0,.1.1l-.2.1c-.2.1-.2.2-.2.4a.59.59,0,0,0,.2.5c.1,0,.2.1.3.1h.1a.35.35,0,0,0,.1-.2c0-.1.1,0,.3,0h.1c.1,0,.1,0,.2-.2a.73.73,0,0,0-.2-.6l-.2-.2H23l.1.1h0c0,.1.1,0,.2,0h.1a.22.22,0,0,1,.2.2c.1.1.1.2.2.2l.1-.1.2-.3c.1,0,.1.2.2.3h0a.62.62,0,0,1,.1.7l-.1.1c0,.1-.2.2-.3.2H23c-.2,0-.2-.1-.4-.1h0c-.1,0-.2.1-.3.1h-.1a.85.85,0,0,1-.7,0h-.1l-.1-.1a.85.85,0,0,1-.3-.5v-.4a1.38,1.38,0,0,1,.3-.4h.1s0,.4.1.4l.1-.1.2-.3c.1-.1-.2.4,0,.4Zm-.9,2.2.3-.3.1-.1h.9l-.3.9a1,1,0,0,1-.4.5l-.2.1c-.1,0-.2.1-.3.1l-.1.1-.1.1a.61.61,0,0,0,0,.8c-.1,0-.1.1-.2,0s-.3-.2-.4-.4h0v-.1a1.92,1.92,0,0,1,.4-1.2c.1-.1.2-.3.3-.4Zm-.1-.6c-.1.1-.2.2-.3.2s-.2.3-.4.4-.1.2-.2.3-.3.3-.4.4a.76.76,0,0,0,0,.8c-.1,0-.2-.1-.3-.1a.71.71,0,0,1-.3-1l.3-.3c.1-.1.1-.1.2-.1.2-.3.2-.6.4-.8h.8c0,.1.1.1.2.2Zm-2.3,7.2c.2-.6.7-.6.8-1.1v-.2h.2c0,.5.5.9.1,1.2l-.4.1a2.09,2.09,0,0,0-.6.4s0,.5-.2.2,0-.4.1-.6Zm6-2.2c-.1,0-.1.1-.2.1h-.5c-.1-.1,0-.2.1-.3h0v-.3l-.3-.3c-.1-.1-.2-.1-.3-.2l-.2-.1c-.1,0-.3-.1-.4-.1h0a.78.78,0,0,1-.4-.4,2.19,2.19,0,0,1-.3-.5c-.1.1.1.5-.1.8a.78.78,0,0,1-.4.4l-.2.2h-.1l-.3.2-.1.1c-.1.1-.2.1-.3.2l-.1.1c-.2.3,0,.4.1.5l.1.1-.1.1h-.4a.22.22,0,0,1-.2-.2h0a1.39,1.39,0,0,1,0-.9c0-.1.1-.1.2-.2h.1c.1,0,.2-.1.4-.1a1.38,1.38,0,0,0,.3-.4v-.5l.1-.1a.37.37,0,0,1,.3-.1l.2-.1h0a.75.75,0,0,0,.5-.1l.2-.1c.2-.1.3-.2.2-.5a2.2,2.2,0,0,1-.1-.8,9.2,9.2,0,0,0,.3.9,1,1,0,0,0,.4.5h0l.2.1c.1.1.2.1.3.2s.2.3.3.4v.3l.3.3h0c.7-.1.5.6.4.8Zm-.1-2.2c0-.2.3-.2.1-.7-.1-.1-.2-.2-.3-.2s-.2-.1-.4-.2l-.3-.2h-.1c-.1-.1-.2-.2-.2-.3s-.1-.4-.2-.6-.1-.2-.2-.3h.8a.35.35,0,0,1,.2.1c.2.2.2.5.3.7h0a1.17,1.17,0,0,0,.6.6l.1.1.1.1a2.2,2.2,0,0,1-.1.8l-.1.1-.1.1s-.3,0-.2-.1Zm.3-2.7c0-.1.1-.1.2-.1h.3c.1.2.3.4.4.6a1.38,1.38,0,0,0,.4.3c.2,0,.4.2.6.4s.2.8,0,.8-.2.1-.3.1c0-.4,0-.5-.3-.7h0a.91.91,0,0,1-.7-.3l-.3-.3c0-.1-.1-.1-.1-.2-.1-.4-.1-.5-.2-.6Zm.2,10.4h0c.1,0,.2.1.3.1s.1.1.1.2c.2.1.2-.1.3-.1,0-.2,0-.3-.1-.4a.78.78,0,0,1-.4-.4v-.2a.85.85,0,0,0,0-.7c-.1-.1-.1-.2-.2-.3-.2-.3,0-.3.1-.2h0c.1,0,.1.1.1.2.2.2.4.5.1.7,0,.4.3.1.5.6,0,.1.1.2.1.3,0,.3,0,.4-.1.5s-.3.2-.5.3h-.3c-.1,0-.2-.2-.3-.3.3-.2.3-.3.3-.3Zm2.4,4.4c.2-1,.3-2,.4-3h0a5.85,5.85,0,0,1,.2,1.3v.7c0,.6-.1,1.2-.1,2a22.21,22.21,0,0,1-.9,3.7l-.1.2a16.2,16.2,0,0,1,.1-2.2c.1-.9.3-1.8.4-2.7Zm.4-12.5a.82.82,0,0,1-.7.1c0-.1.1-.2.2-.3a.67.67,0,0,0-.3-.8l-.2-.1h0c.1,0,.1-.1.2-.1s.2-.1.3-.1.1-.1.3.2.5.7.2,1.1Zm-1.8-4.8v.2h-.1v.3a1,1,0,0,1-.3,1l-.3.2-.3.1h-.3c-.1,0-.4,0-.2-.2.2,0,.4-.3.4-.4,0-.4-.2-.4-.2-.8,0-.1,0-.3.2-.1l.1.1.1.1c.1.1.1,0,.1-.1s0-.4.1-.3l.1.1c0,.1.1.3.2.2s.1-.4.1-.7q.15,0,.3.3Zm-9.5,11.1h0c-.1.2-.1.3-.2.5h0a.52.52,0,0,1-.2-.4c.1-.1.1-.4.2-.6h0c.1-.1.1-.2.2-.2h0C16.67,26.14,16.77,26.24,16.37,26.74Zm.2.9a3.55,3.55,0,0,0-.2,1h0c-.1,0-.2-.2-.2-.4V28a.76.76,0,0,1,.2-.5c.1.1.1.1.2.1Zm-.2-9,.2.5-.2.2h0l-.2.2h0a1.38,1.38,0,0,0-.3.4c0,.1-.1.2-.1.3l-.1-.2c0-.3-.1-.5.1-.8l.1-.1c.1-.1.1-.2.2-.3h0l.3-.2Zm-.6,2.2.3-.3h0v.8c-.1.1-.3.2-.3.3a.6.6,0,0,0-.1.4c-.1.2-.1,0-.2-.1a2.28,2.28,0,0,1,.3-1.1Zm0,2.9.3-.3h0v.9a.37.37,0,0,0-.3.1.1.1,0,0,0-.1.1l-.3.6c-.1-.1,0-.7.1-1,0-.1.2-.2.3-.4Zm.2,6.6c0-.2.1-.3.2-.5h0c0-.1.1-.2.2-.3l.1.1a6.73,6.73,0,0,1,.1,2c0,.3-.1.6-.1.8v1.3h0a2.35,2.35,0,0,1-.2-.8v-.1a4.25,4.25,0,0,1-.3-2.5Zm.4,7.4a5,5,0,0,1,.2-1.7h0l.2.5a1.88,1.88,0,0,0-.2.8,5.7,5.7,0,0,0,.1,1.3c.1.8.6,1.9-.1,2.6a.1.1,0,0,1-.1.1c-.1,0-.1.1-.2.1H16c-.4.2-.4.9-.5,1.4h0c-.3.1-.6.2-.7.5a1.14,1.14,0,0,0-.3.8,2.44,2.44,0,0,1,0-1.2c-.1-.2-.2-.5.2-.4h.1c.4.2.6-.1.7-.5s.2-.7.3-1.1a2.19,2.19,0,0,0,.3-.5,5.66,5.66,0,0,0,.3-1.8v-.1h0a1.1,1.1,0,0,1,0-.8Zm-.8,6.8h-.2a.9.9,0,0,1,.1-.5.37.37,0,0,0-.2-.5h0c-.2-.1-.4.1-.5.3s0,.4,0,.7a1,1,0,0,1-.1-.9c.1-.3.3-.3.5-.3h.1a.75.75,0,0,0,.5-.7h0a.37.37,0,0,1,.1-.3.68.68,0,0,1,.3-.4h.5c0,.1-.1.3-.2.3a.54.54,0,0,0-.3.4l-.1.1h0c-.1.2-.2.2-.3.4l-.1.2c0,.4-.1.8-.1,1.2Zm8-9.4c0-.2-.1-.4-.1-.7-.1-1-.1-2.1-.1-3.2h.1a.37.37,0,0,0,.3-.1c.1,0,.2-.1.3-.2h0a10.1,10.1,0,0,0,.3,1.7,4.69,4.69,0,0,1-.3,3.3.76.76,0,0,1-.2.4c-.1-.2-.1-.4-.2-.5s0-.4-.1-.7ZM28.77,57h-.1a.22.22,0,0,1-.2-.2c-.1-.2-.1-.5-.2-.7l.2.1c.1,0,.2.1.4.2s.2.2.2.3a.32.32,0,0,1-.3.3Zm2.2-.4h0v.1h-.2v-.1h0v-.1h0v-.1h0v-.1h0l-.2-.2H31l.1.1h0Zm1.5-.3h0v.1h-.1v-.1h0v-.1h0V56h.1a.1.1,0,0,1,.1.1h0Zm.8-1.4c0,.1-.1.1-.1.2a.66.66,0,0,0-.1.6.6.6,0,0,0-.4.1h-.3q-.15,0,0-.3a2.19,2.19,0,0,1,.3-.5l.1-.1a3.13,3.13,0,0,1,.5-1l.2-.3c0-.1.3-.3.2-.4s-.2.1-.5.3l-.6.3V54c0,.1.1.1.1.2a.1.1,0,0,1-.1.1c-.1.1-.2,0-.2.2s.1.2.1.3-.1.2-.3.3a.76.76,0,0,0-.2.4.77.77,0,0,0-.3.2c-.1.1,0,.2-.1.2h-.4c0-.2,0-.2.2-.2,0-.5-.3.1-.3-.2,0-.1.1-.1.1-.2h.3c-.1-.1.1-.3-.2-.3-.1.1-.2.3-.2.2s.1-.4.1-.6a.72.72,0,0,0,.2-.8c-.1-.4.1-.3.4-.2.1,0,.2.1.3.1h.3a1.42,1.42,0,0,0,.6-.2l.2-.2a.76.76,0,0,0,.2-.5l-.2.2-.2.1a.37.37,0,0,1-.3.1h-.3c-.2,0-.4-.2-.5-.1a4.18,4.18,0,0,0,.4-1c.1-.4.2-.9-.1-1.2-.1-.2-.2-.1-.2.1a2.87,2.87,0,0,1-.7,1.8c0,.2-.1.3.1.3s-.1.3,0,.5,0,.4-.2.6c0,.3-.1.5-.1.7s.1.5-.1.6v.3H30c-.2,0,0-.1,0-.2s.1-.1.1-.2a.85.85,0,0,0,0-.7h0v-.2c-.1-.3-.3.6-.3.6s-.1,0-.2.1h0c-.1.1-.1.2-.1,0s-.1-.2.1-.2h0c0-.2.1-.3.1-.5s-.1-.1-.1,0h0a.32.32,0,0,1-.3.3c0,.2-.1.2-.2.2-.1.2-.1.4-.2.5s-.1.1-.1.2h-.7c0-.1.1-.1.2-.2h0a.37.37,0,0,1,.3-.4V55c0-.1.2-.2.2-.3s0-.1.1-.2.1-.2.2-.3a2.77,2.77,0,0,1,.1-.9.6.6,0,0,0,.4.1.22.22,0,0,0,.2-.2c.1-.1.1-.4-.1-.3s-.1.1-.2.1h0c-.1,0-.1,0-.3-.1s.2-.3.3-.5a.31.31,0,0,0,.1-.2h-.1c-.1,0-.1.1-.1.2-.3.2-.3.3-.6.1,0,0-.2-.2-.1-.2h.1s.2,0,.2-.1a1,1,0,0,1,.4-.5c.1-.1.2-.1.3-.2s.1-.2.1-.3-.3.2-.4.3l-.1.1c-.2.1-.3.3-.5.4h0c-.3,0-.3-.2-.3-.2a1,1,0,0,1,.3-.1h0a1.38,1.38,0,0,0,.3-.4.14.14,0,0,0,0-.2c-.1.1-.1.2-.2.3h-.4v-.1h0l.3-.1a.78.78,0,0,0,.4-.4c-.2-.1-.2.2-.3.1h-.4v-.1l.1-.1.2-.1c.2-.1.3-.2.3-.4a.37.37,0,0,0-.3.1c-.1.1-.3.1-.3,0v-.2h0a.37.37,0,0,1,.3-.1h.4c.2,0,.3-.2.5-.3-.1-.2-.2,0-.3-.1s-.1-.2-.2-.1,0,.2-.1.2h0c-.1,0-.2.1-.3,0h-.4a.22.22,0,0,1-.2-.2.1.1,0,0,1,.1-.1l.1.1c.1,0,.2.1.4.1H29a.19.19,0,0,0,0-.3c0-.2-.1-.2-.2-.3h-.4v-.1h.5v-.1l-.1-.1a.37.37,0,0,1-.1-.3.88.88,0,0,1,.1-.7l.2-.2v-.1a1.1,1.1,0,0,1-.1-1.1c0-.1.1-.1.1-.2a1.42,1.42,0,0,1,.6-.2v-.1c-.2-.1-.4.1-.5,0v-.1l-.3-.3c-.2-.2-.4-.3-.3-.4h.3a.37.37,0,0,1,.3.1c.1.1.3.2.4.3a2.19,2.19,0,0,1,.3.5v.3h-.1c-.2.1-.3.4-.4.6s0,.7.2.7h.3c.1-.1.3-.1.4-.2l.1-.1a.64.64,0,0,0,0-.6c-.1-.2-.1-.1-.1-.2s.1,0,.1,0l.1.1.3.3v.4c-.1.2.1.2.2.1.2.3.1.5-.1.6-.2.3.1.2.2.1s.1-.1.2-.1v-.5a3.18,3.18,0,0,1-.3-.9c.4,0,.8.1,1.1.1h.3c.1,0,.1,0,.2.1s.1.1.1.2h0v.2h0c.3.2.2-.1.4-.1s0,.3.2.3h0a.41.41,0,0,1,.5.2c0,.1-.1.3.1.4a.35.35,0,0,1,.2-.1c.1,0,.1,0,.1.2l.1,2.6-.2-.1h-.7c-.7-.1-.6-.5-.3-.8.1-.3-.2-.3-.2-.5H33c.1,0,.1-.2,0-.3s-.4-.1-.3.2h0l-.3-.3c-.2-.1-.3-.2-.5-.3.1-.1.2-.2.1-.3s-.2-.1-.3,0,0,.3,0,.3h-.2l-.2.1a.21.21,0,0,0-.3-.2,1.14,1.14,0,0,1-.3.8l-.1.1a.52.52,0,0,1-.4.2H30c-.1,0-.4,0-.3.1s.2.1.3.2c-.1.2-.2.3-.3.5s-.1.2-.1.3h.1a1.79,1.79,0,0,1,.5-.7.52.52,0,0,1,.4-.2l.2-.1c.2-.1.3-.4.5-.5a1.08,1.08,0,0,1,.7-.3.37.37,0,0,1,.3.1.76.76,0,0,1,.2.5c0,.1-.1.2-.2.3a1,1,0,0,0-.4.8l.4.6h0c.1,0,.2-.1.3-.2s.1-.1.2-.1h.4a1.7,1.7,0,0,1,.7.1,1,1,0,0,1,.5.4v.1c.1.2.1.3.2.5a1.1,1.1,0,0,1,0,.8.37.37,0,0,1-.1.3.76.76,0,0,1-.2.4l-.3.3a.76.76,0,0,1-.2.5h0c-.2.2-.5.3-.5.7Zm-4.6-5.4Zm1.3-2.6c-.1.1-.1.1-.1.2h-.1v-.6l.1-.1H30l.1.1c0,.2-.1.3-.1.4Zm4.6,9.4h0s0-.2-.1-.2a3980657295328.57,3980657295328.57,0,0,1-.2-.2c-.3,0,0,.3,0,.7-.1,0-.3,0-.3-.1a.35.35,0,0,0-.1-.2h0c-.2-.1,0-.7,0-.8v-.2h0c.1,0,.1-.2.2-.2h0v-.8c.1-.1.3-.1.4-.2h0V54l.1.3v1c-.1,0,0,.3-.1.3h0a.35.35,0,0,0,.1.2h.1l.2.1C34.77,56.44,34.87,56.34,34.57,56.34Zm1.8-9.4h0c.2.2,0,.2,0,.3v.1h.2c.2.1.1.2,0,.3l-.1.1a.1.1,0,0,0,.1.1c.1.1.2,0,.2.2-.2.4.1.4.1.6-.3.4.1.3.1.6s-.3.2-.2.3a.48.48,0,0,1,0,.7.47.47,0,0,1,.1.6.63.63,0,0,1,0,.6v.3a.45.45,0,0,1,0,.5c0,.3,0,.3-.1.4a.3.3,0,0,1,0,.4c0,.2.2.2,0,.5a2.2,2.2,0,0,1-.1.8c-.1.2-.1.4-.2.3a21.64,21.64,0,0,0,0-3.6c-.1-1,0-2-.1-3a3.4,3.4,0,0,1-.1-1ZM36,49a.9.9,0,0,0,.1.5,1.09,1.09,0,0,1,.1.5v1.5a8.6,8.6,0,0,1-.1,1.6c0,.2,0,.3-.1.4s0,.4-.1.5a1.7,1.7,0,0,1-.1.7c0,.2-.2.3-.2,0v-1c0-.1.1-.9-.2-.7h0c0,.1,0,.3-.1.3a7.57,7.57,0,0,1-.1,1.5c0,.2,0,.3-.2.2l-.1-1.2V53h-.2l-.1,1.5c-.2.1-.1-.3-.1-.4s-.1-.2-.1-.3.3-1.2.4-1.5v-.4a2.07,2.07,0,0,1-.6-1l-.1-.3V49a3.75,3.75,0,0,1,.1-1c0-.1.1-.1.2,0,0,.4.1.9.1,1.2a.52.52,0,0,1,.2.4.1.1,0,0,0,.1.1l-.1-2.5h.1c.1,0,.1,0,.2.1a1.42,1.42,0,0,1,.2.6,5.85,5.85,0,0,0,.2,1.3v-1.7h.2c.3.3.2.6.3,1.2a.37.37,0,0,1,.1.3Zm-2-6.6h.5a.1.1,0,0,1,.1.1c.3.2.1,1,.4,1.4l.2.2c.1,0,.3.1.4.1a.55.55,0,0,1,.4.5c0,.1,0,.6-.2.6l.1-.7c-.1,0-.2-.1-.3-.1a.27.27,0,0,0-.3.3h0a4.33,4.33,0,0,0,.1.5.22.22,0,0,1-.2.2c-.1,0-.2-.1-.1-.3.3-.3-.1-.8-.3-1.1-.1-.1-.2-.3-.3-.4a.1.1,0,0,0-.1-.1,1.23,1.23,0,0,0-.4-.8c-.1-.1-.2-.1-.3-.2s.1-.2.3-.2Zm-.8.3a.91.91,0,0,1,.7.3H34c.1.4-.1,1,.1,1.3-.1.2.1.6.1.9-.1,0-.3.1-.3,0v-.8c0-.1-.1-.2-.2-.3l-.6-.3a1.69,1.69,0,0,1-.3-1,.76.76,0,0,1,.4-.1Zm-1.1-9.1a10.24,10.24,0,0,1-.5,3.5,4.84,4.84,0,0,0,0,1.7,2.66,2.66,0,0,1,.3,1.2,8.33,8.33,0,0,0,.4,1.5c.1.2.1.4.2.6l-.1-.1h0c-.2-.1-.3-.5-.5-.7a1.16,1.16,0,0,0,.4,1l.1.1c.2.1.3.3,0,.2l-.2-.2A5.45,5.45,0,0,1,31,40l.1,1.5a1.49,1.49,0,0,0,1.3,1.3h.1c.2.2.1.5.2.8a1.56,1.56,0,0,0,.6.8h0c.4.1.4.3.3.5s-.1.3-.2.3h-.2c-.2,0-.4,0-.4-.2s.1-.1.2-.1.1.1.3.1h0q.15,0,0-.3c0-.1-.1-.1-.2-.1h-.2a.22.22,0,0,1-.2.2c0,.1-.1.1-.2.1l-.1-.1a.75.75,0,0,1,.1-.5c-.1-.2-.1-.5-.2-.7a.22.22,0,0,0-.2-.2c-.1.5-.4,1.2-.3,1.5a4.33,4.33,0,0,1-.5-.1,1.14,1.14,0,0,0-.7-.8v-.2a2.19,2.19,0,0,0-.3-.5h0a.9.9,0,0,1-.1-.5.91.91,0,0,0-.3-.7l-.1-.2a14.19,14.19,0,0,1-.5-2.2c0-.1-.1-.2-.1-.3a1.33,1.33,0,0,0-.3-.5,5.74,5.74,0,0,0-.4-.7l-.3-.9c0-.2-.1-.4-.1-.6a10.87,10.87,0,0,1,.1-1.8c.1-.6.2-1.1.3-1.7a8.08,8.08,0,0,0,0-3.1c-.1-.2-.1-.5-.2-.7.4-.3,0-.6,0-1.2.1,0,.1-.1.2-.2s.2-.3.4-.5.2-.3.3-.5-.1,0-.3-.1-.1-.1-.1-.2c.2-.5-.5-1-.1-1.5h0c.1.1.1.3.2.4a1.38,1.38,0,0,1,.3.4c.3.3.5.4.6.6s.2.2.1.3l-.1.1a1.13,1.13,0,0,0-.3,1.1c0,.1-.2.1-.3.2l-.3.3c0,.1-.1.2-.1.3a.78.78,0,0,0,.1.8c.1.1.2.2.3.2h0c.3,0,.2.2.3.4s.2.3.3.5a.55.55,0,0,0,.5.3h0c.1.3.3.7.4,1a7.61,7.61,0,0,1,.3,2.1c0,1.6-.2,3.1-.2,4.5a31.09,31.09,0,0,0,.6-4.4v-2.6c.2-.9.8,1,.7,1.9Zm.6-2.6c0,.2-.2.2-.3.1h-.2c-.8-.3-.3-1-.4-1.1a.92.92,0,0,1-1-.1.52.52,0,0,1-.2-.4V29h0c0-.2-.2,0-.3-.1h-.1c-.2,0-.2-.2-.3-.4s-.1-.4.1-.8a1.42,1.42,0,0,0,.2-.6.22.22,0,0,1,.2-.2c.1.2.1.5.2.6l-.3.3a.5.5,0,0,0,0,.8.52.52,0,0,0,.4.2h.2c.2-.1.3-.3.5-.4,0,.1.1.2.1.3s-.3.3-.4.4c-.3.3.1,1.1.6.8.3-.2.1-.4.6-.2.1,0,.1,0,.1-.1s.2-.3.3-.1a.91.91,0,0,1-.3.7c-.2.1-.2.2-.3.3-.2.3,0,.5.2.6a.76.76,0,0,0,.4-.1h0c-.1.1-.1,0,0,0Zm.8-3.1c-.1.1-.2.2-.2.3a.76.76,0,0,0-.2.5c0,.2,0,.5.2.6l.1.1h-.1a1.21,1.21,0,0,1-.5-.5l-.1-.1c-.1,0-.2-.1-.3-.1h0a1.23,1.23,0,0,1-.7-1.1l-.1-.1c-.3-.1-.4,0-.6-.3a2.92,2.92,0,0,1-.2-.9h-.3a.37.37,0,0,1-.3-.1c-.1,0-.1-.1-.2-.1-.4-.5,0-1,.1-1.5a.1.1,0,0,1,.1-.1,1.22,1.22,0,0,0,.3-.9c-.1-.4-.2-.1-.2,0l-.1.2a4.23,4.23,0,0,1-.5.7l-.1.2c-.1.3-.1.2-.3,0,.1-.1.3-.2.4-.3a.76.76,0,0,0,.2-.4.85.85,0,0,0,0-.7c-.1-.2.1-.4.2-.6v.1a.9.9,0,0,1-.1.5c0,.2,0,.4.1.3s.1-.1.1-.2a.76.76,0,0,0,.2-.5l.2.2.2.2c-.1.6.5.6.1,1.5l-.3.3c-.1.1-.2.3-.4.4h0V26a.52.52,0,0,0,.4.2c.1,0,.1,0,.1-.1.2-.1,0-.1.2-.3.1,0,.2-.3.3-.3l.3-.6h.1a1.85,1.85,0,0,0,.2.7.76.76,0,0,1-.2.4c-.2.3-.4.3-.5.7a.45.45,0,0,0,0,.5c0,.2.3.5.5.4.1-.3.5-.6.7-1a.37.37,0,0,0,.1-.3c.1,0,.1.1.2.1a.45.45,0,0,1,0,.5.76.76,0,0,1-.2.4h-.1a1.23,1.23,0,0,0-.2,1c0,.1.1.3.2.3a.35.35,0,0,1,.2.1h.1c.1,0,.1-.1.1-.3,0-.4.3-.6.5-.9a.44.44,0,0,0,.1-.5v-.2c0-.1.2.1.3.2s0,.7-.1.9Zm-3-13.7-.1.1a.66.66,0,0,1-.5-.4.19.19,0,0,1,0-.3v-.1c0-.3,0-.5.5-.6v-.1c0-.2.1-.2.3-.4h.1a1.14,1.14,0,0,0,.8-.3h0a.72.72,0,0,0,.9.5h.1l-.1.1a2.09,2.09,0,0,1-.6.4,2,2,0,0,1-1.1.3h-.2c-.1,0-.1,0-.2.1-.3.2-.3.4,0,.5h.4c.4,0,.9-.5.9-.2v.9c-.3.5-.7.2-.9.5a.37.37,0,0,0-.1.3c.3.4-.1.3-.3.1l-.1-.1c-.2-.5-.1-.7.1-.8s.2-.1.2-.3.2-.3-.1-.2Zm-.4-3.5c0-.1.1,0,.2.1a.52.52,0,0,0,.4.2H31c.3,0,.8-.5.9-1h0v.5c-.1.2-.3.9-.4,1.1s-.2.3-.4.3h-.4a.6.6,0,0,0-.4.1l-.1.1c-.1,0-.2.2-.2.3a.1.1,0,0,0,.1.1h-.4c-.1-.2-.2-.6,0-.8h.1s.1,0,.3-.2a1.07,1.07,0,0,0,0-.8Zm1.4,11.9a3.7,3.7,0,0,1,.5-1.1.57.57,0,0,1,.2.7,2.38,2.38,0,0,1-.6,1.1.85.85,0,0,0,.1.9c.1.1.3.2.4.3h.1c.1,0,0,0,0-.3h0V24a2.19,2.19,0,0,1,.3-.5l.1-.1a1.85,1.85,0,0,0,.2-.7.55.55,0,0,1,.3.5v.2a1.42,1.42,0,0,1-.2.6c-.1.2-.3.4-.4.6l-.1.2a1.27,1.27,0,0,0,.1.6,1.21,1.21,0,0,0,.5.5c-.2,0-.3-.1-.5-.1s-.2-.3-.3-.4v-.1c0-.2-.1-.6-.3-.6s-.2,0-.4-.2a2.3,2.3,0,0,1-.4-1.4c-.1,0-.2-.1-.3-.2l-.3-.3a1.42,1.42,0,0,1-.2-.6c0-.2.1-.3.2-.5a1.79,1.79,0,0,1,.5-.7.6.6,0,0,1,.3.6,1.46,1.46,0,0,0-.6.9.83.83,0,0,0,.8.3Zm3,4.2c.1.1.2.1.4.1h.2a.46.46,0,0,1-.5.3h-.1c-.3,0-.3-.5-.5-.5h-.1a.78.78,0,0,1-.4-.4,1.88,1.88,0,0,1-.2-.8V25c.2-.3.4-.7.6-1h0c.1,0,.1.3,0,.7v.1a4.05,4.05,0,0,1-.5.9,1.22,1.22,0,0,0,.4.9h.1c.1,0,.1-.1.2-.1a1.07,1.07,0,0,1,.2-.6l.1-.1a1,1,0,0,0,.3-.9c0-.2,0-.1.2-.1a.83.83,0,0,1-.2,1.2l-.3.3c-.1.1-.1.1-.1.2s0,.1.2.3Zm1.1-5.6v.2l-.3.6h0l-.4.3c-.2.2-.4.6-.1.8h.1a.27.27,0,0,0,.3-.3v-.1c.1-.1.2-.2.3-.2.2-.2.4-.4.5-.1h0c0,.1,0,.1.1.2v.1c0,.1,0,.1-.1.2a1,1,0,0,1-.5.4h0a.78.78,0,0,0-.4.4.3.3,0,0,0,0,.4l.1.1h.5c0,.2-.1.2-.2.2h-.1c-.1,0-.2-.1-.3-.1a.76.76,0,0,1-.3-.9l-.3-.1c-.1,0-.1,0-.2-.1-.3-.2-.2-.6-.5-.7h0c-.3-.1-.4-.6-.6-.8h0a2.09,2.09,0,0,1-.6-.4c-.1-.2-.2-.3-.3-.5s0-.2-.1-.2-.2-.1-.4-.2c0-.3-.6-.3-.4-1.4-.7-.4-.4-.7-.5-1.3l-.3-.3a1.41,1.41,0,0,1-.1-.9l.1-.1c.1,0,.2-.1.3-.2s.3-.4.1-.5-.3-.1,0-.2a2.35,2.35,0,0,0,.8-.2h0a.35.35,0,0,0,.2.1c.3.3-.2.9-.4,1-.4.2-.8.1-.8.8v.3c.2.1.1-.1.2-.1s.1-.3.2-.3a1.27,1.27,0,0,0,.6-.1c.3-.4.3-.1.4.1h0c0,.1.3.3.1.4h-.1a1,1,0,0,0-.3.1.66.66,0,0,0-.6.7c0,.1.1.3.2.3.1-.3.2-.4.5-.4h.2a.37.37,0,0,0,.3-.1c.1-.1.3-.2.4-.3H33a.81.81,0,0,1-.3.9h-.1c-.1,0-.2.1-.3.2a1.14,1.14,0,0,0-.3.8.76.76,0,0,0,.2.4h0c.1,0,.1-.1.1-.3s.1-.2.2-.3a2.09,2.09,0,0,1,.6-.4l.1-.1c.2-.2.3-.1.5.1a.52.52,0,0,1-.3.7c-.1.1-.1.3-.2.4a.76.76,0,0,0-.3.9c.1.1.2.3.3.3a.37.37,0,0,0,.3-.1,1.78,1.78,0,0,1,.4-1l.1-.1c.1-.1.2-.3.3-.2h.1c.3.3.5.2.2.7l-.2.1c-.2.1-.3.3-.5.4a.86.86,0,0,0-.3.6c0,.1.1.2.1.3a.1.1,0,0,0,.1.1c.1.1.2,0,.3-.1v-.3c0-.1.1-.1.1-.2l.7-.7c.1-.1.1-.2.2-.3a2.2,2.2,0,0,1,.5.6Zm-.4-1.4c.1.1.2.1.3.2s-.1.1-.3.1a1.79,1.79,0,0,1-.7-.5v-.1q-.15-.3,0-.3a.22.22,0,0,0,.2-.2.14.14,0,0,0,0-.2l-.2.1a.9.9,0,0,1-.5-.1.78.78,0,0,1-.4-.4,1.26,1.26,0,0,1,.2-1.3c0-.1.1-.3.2-.3s.3-.1.5-.2h0v.3c0,.1-.1.1-.1.2s-.3.3-.3.5a.45.45,0,0,0,0,.5v.1c0,.1.1.2.2.3a.19.19,0,0,0,.3,0,.52.52,0,0,0,.2-.4c.2,0,.3.3.3.4a1.08,1.08,0,0,0-.2.8,1.33,1.33,0,0,0,.3.5Zm3.3-3.4a.52.52,0,0,1-.4.2c-.2.1,0,.3,0,.4a.37.37,0,0,1-.3-.1c-.1-.1-.3-.2-.3-.3a1.21,1.21,0,0,0-.7-.7h-.1a1.27,1.27,0,0,1-.6-.1l-.1-.1v-.3l.1-.1h0a1.39,1.39,0,0,0,.5-1v-.1a.9.9,0,0,1,.6-.6c.1,0,.2,0,0,.2a5.36,5.36,0,0,0-.5,1.1h0a1.38,1.38,0,0,0-.3.4c-.1.4.1.4.3.4h0c.2,0,0-.4.1-.4a.4.4,0,0,1,.4.2c-.1,0-.1.1-.1.2s0,.1.1.1l.1-.2c.1,0,.2,0,.3.2-.1.1-.2.3,0,.2s.2-.2.2-.3.1-.3.3-.3a1.38,1.38,0,0,1,.3.4c-.1.1-.2.3-.3.3a.22.22,0,0,0-.2.2h0a.1.1,0,0,0,.1.1c.3,0,.3-.6.7-.5a1.06,1.06,0,0,0-.2.5Zm-.7-1.5c.1.1.1.1,0,.2h0c-.2-.3-.7-.3-.7-.4l.1-.1h0a.86.86,0,0,1,.6.3Zm-.3-.9.2-.1.2.1a.76.76,0,0,1,.2.5c-.1-.1-.1-.2-.2-.3-.3-.1-.4-.1-.4-.2Zm-1-5h.2c.3.1.7.3,1,.4h.1a3.49,3.49,0,0,1,1.3.5c.5.6.1,1.9.9,2.4.4.3.8,1,.7,1.3a.66.66,0,0,0-.5.4c-.3-.2-.2-.6-.8-.9-.2,0-.4.1-.4.2v.2c.3.3.6-.1,1,.7,0,.2.2.4-.1.5-.1-.2-.6-.8-.9-.8s-.1.1,0,.2.8.8.4.9c-.1-.1-.3-.6-.6-.6,0,.2.5,1,0,1a1.46,1.46,0,0,1-.6-.9c.1,0,.1,0,.2.1.3.1,0-.8-.5-1.3a.86.86,0,0,0-.6-.3.76.76,0,0,0-.5.2,1.81,1.81,0,0,0-.4,1.4l-.2.2h-.1l-.3.3v-.2a.1.1,0,0,0-.1.1c-.1.1-.1.1-.1.2a.88.88,0,0,0,.1.7.55.55,0,0,0,.5.3h.6c.2,0,.1-.1.2-.2s.2.2.2.3c-.4,0,0,.7.2.9.2.5-.3.5-.7.5h-.1c-.5-.1-.2-.7-.5-1l-.1-.1h0a.6.6,0,0,0-.4-.1h-.4l-.2-.6a2.78,2.78,0,0,0,0-1.8c.1,0,.2.1.3.1a.6.6,0,0,0,.4-.1,1.33,1.33,0,0,0,.5-.3h.1a1.79,1.79,0,0,0,.5-.7l-.5.2h-.1c-.2,0-.3.1-.5.1a.6.6,0,0,1-.4-.1h0V13a4.33,4.33,0,0,0,.1-.5c0-.2-.1-.3-.1-.5v-.3h0a1.38,1.38,0,0,1,.4-.3,4.33,4.33,0,0,1,.5-.1h.1a1.27,1.27,0,0,1,.6.1c.1.1.3.1.4.3.1,0,.3-.4,0-.4-.1,0-.3-.2-.4-.3a.43.43,0,0,0-.6-.1h0a.44.44,0,0,1-.5.1,1,1,0,0,1-.4-.5V10c0-.2.1-.3.2-.3h.2a1,1,0,0,0,.5-.4l.1-.1c-.1,0-.1-.1.1-.2Zm-7,0a.78.78,0,0,1,.4-.4h0a.85.85,0,0,1,.5-.3l.4-.2.6-.3.1.1c-.1.1-.3.1-.2.3a1.18,1.18,0,0,1,1,.1l.2-.6h0l.3-.6a1.58,1.58,0,0,1,1.2-.5h.1a.9.9,0,0,1,.5.1,1.16,1.16,0,0,1,.7.5.64.64,0,0,1,0,.6c0,.2.2,0,.3-.2l.2-.3s.1,0,0,.1c.1.4-.3.7,0,.8.1-.1.2-.3.3-.4h0c.2.1.1.7,0,1a.1.1,0,0,1-.1.1h0c-.1.1-.2.3-.4.3h-.2l-.2-.1c-.2-.1-.4-.1-.6.3v1l.3-.3c.1-.1.2-.1.2.1a.54.54,0,0,0-.3.4c0,.2,0,.5-.2.6h-.1c-.2,0-.3.1-.5.2a.22.22,0,0,0-.2.2.83.83,0,0,0-.2.8c.1.1.2.2.3.2v-.5a2.18,2.18,0,0,1,.5-.4.37.37,0,0,1,.3-.1l.1.1c-.1.4-.4.6-.3,1.1,0,.1-.1.2-.1.3a1,1,0,0,1-.5.4.9.9,0,0,1-.5.1l-.3.1c-.3.1-.5.3-.5.5s.3.2.5.2h.7a1.21,1.21,0,0,0,.5-.5h0c.2-.1.1.6.1.8l-.1.3-.3.6h-.2a.91.91,0,0,0-.7.3l-.3.3c-.1.2.1.4.3.6v.1c.1.1.1.1,0,.1H33a.47.47,0,0,1-.5-.5V16h0a1.34,1.34,0,0,1,.6-.7c.2-.1.4-.2.4-.4s.3-.4-.2-.4c-.1,0-.2.1-.3.1a.76.76,0,0,1-.5.2h-.1l-.3-.3a1.41,1.41,0,0,1-.1-.9c0-.1.1-.3.1-.4s.2-.3.3-.4h0a1.61,1.61,0,0,0,.7.4.57.57,0,0,0,.7-.2h0c.1-.1.1-.1.1-.3l-.1-.1h-.3a.76.76,0,0,1-.4-.2,2.19,2.19,0,0,1-.3-.5v-.6h.4a4.35,4.35,0,0,0,.7-.4.91.91,0,0,0,.4-.8v-.3c-.1-.1-.1-.1-.2.1s-.1.2-.2.3-.1.1-.2.1a.9.9,0,0,0-.5.1,1.38,1.38,0,0,0-.4.3,1.41,1.41,0,0,0-.1.9.1.1,0,0,1-.1.1h-.3c-.1,0-.2-.1-.3-.1-.3-.1-.1-.7.1-1l.2-.4.3-.6.1-.2c0-.2,0-.3-.1-.3s-.2.2-.2.3-.1.1-.1.2v.1c-.1-.2-.4-.6-.2-.8,0-.2-.1-.4-.3-.4,0,.4-.3.7-.1,1.1-.2.1-.1.1-.2.3a1,1,0,0,1-.8.4h-.4a.46.46,0,0,0-.4.5c0,.1,0,.1.1.2s-.1.1-.2.1h-.1l-.4-.4a.75.75,0,0,0-.1-.5c-.2-.5,0-.8.3-1.2Zm-.6,2.8c.1-.2.2-.5.3-.7h0c0-.2.1.1.1.1a1.42,1.42,0,0,1-.2.6c0,.1-.1.2-.1.3-.2.3.1.4,0,.6s-.2.2-.2.3a.37.37,0,0,0-.1.3c-.1.2,0,.1.1,0l.2-.2h.1v.1a.6.6,0,0,0-.1.4,1,1,0,0,1-.2.7l-.2.2-.2.2a1.16,1.16,0,0,0-.2,1c.1.1.1.3.2.3h0a1.31,1.31,0,0,1,.3-1.2l.3-.3h0c.1-.1.3.1.3.2-.2.3-.1.5-.2.9a.76.76,0,0,1-.2.4l-.3.3a.84.84,0,0,0-.2.7v.4c0,.1.1-.1.2-.3a.37.37,0,0,0,.1-.3c.1,0,.1-.1.2-.1a1.76,1.76,0,0,0,.4-.5c.4-.1,0,1.1-.2,1.2s-.2.2-.2.3a1.08,1.08,0,0,0,0,1.1h0c.3-.5.6-.4.6-.9h0c.2-.1.4.1.2.3s-.1.4-.2.5-.3.5-.5.7a1.39,1.39,0,0,0,.2,1.1c0,.1.1.2.2,0-.2-.3-.2-.2,0-.8.1,0,.1-.1.2-.2a2.09,2.09,0,0,0,.4-.6h.1a.6.6,0,0,1,.1.4c0,.1-.1.2-.1.4s-.1.2-.2.3a1.38,1.38,0,0,0-.3.4,2.2,2.2,0,0,0-.4,1.3c0,.1.1.2.1.3s-.1.2-.1.3a1.42,1.42,0,0,0-.2-.6c0-.1-.1-.1-.2-.1.1-.1.1-.3.2-.4v-.6a1.85,1.85,0,0,0-.2-.7h-.1c-.1-.1,0-.4,0-.4a1.44,1.44,0,0,0-.3-1.3l-.2-.2c-.1-.1.1-.5.1-.8a2.35,2.35,0,0,0-.2-.8.82.82,0,0,1-.1-.7.52.52,0,0,0-.2-.4.45.45,0,0,1,0-.5.76.76,0,0,1,.2-.4c.1-.3,0-.6.1-.9a.22.22,0,0,1,.2-.2c0-.1.1-.1.1-.2l.3-.9c0,.1.1-.1.2-.4Zm-3-9.1h0a2,2,0,0,1,.8-.1h.2c.2.1.6.6.2,1-.1,0-.1,0-.2.1h0c-.1,0-.1,0-.2.1l-.3.3c-.1,0-.3-.1-.3,0a.63.63,0,0,0,.5.6l.2.1.1.1c.1.1.1.1.2.1,0-.2-.4-.7-.2-.9,0-.2.2-.1.3-.1s.2.4.2.5a.76.76,0,0,0,.2.4c.1.1.1.2.2.3a.75.75,0,0,1,.1.5c0,.1,0,.1-.1.2a2.09,2.09,0,0,0-.4.6c0,.4,0,.1.1.1s.3-.1.2,0,0,.3.1.4l.1.1.2.2a2.19,2.19,0,0,1,.3.5c0,.1,0,.1.1.2a1.09,1.09,0,0,1-.2,1.1c-.1.3-.1.4.1.3h0a1,1,0,0,1,.1.9c-.1.2.2.6,0,.9s.1.7-.1.9h-.1c-.1.1,0,.5-.3.6h0l-.3-.5v-.1h-.1a4.33,4.33,0,0,0,.1.5v.1a1.39,1.39,0,0,1,0,.9h0l-.5-.9c.1-.4-.2-.5-.2-1.2,0-.2-.1-.8.2-.6.1.1.3.3.1-.1a1.18,1.18,0,0,1-.1-.8c.2-.3.5-.4.5-.8,0-.1.1-.2.1-.3v-.6c-.1-.4-.4-.6-.8-1.3-.2-.6.1-.6.1-1.1a1.61,1.61,0,0,0-.4-.7l-.2-.2c-.1,0-.2-.1-.3-.1a.55.55,0,0,1-.5-.3c-.1-.1-.2-.2-.3-.2a.55.55,0,0,1,.3-.7h.2c.2.1.4.1.4-.1s-.1-.3-.2-.3a.6.6,0,0,0-.4.1,1.7,1.7,0,0,0-.6.6c0,.2-.1.2-.1.3h0a.6.6,0,0,1,0-.8A1.63,1.63,0,0,1,25.87,2.74Zm-1.7.4a.37.37,0,0,1,.1-.3,1.21,1.21,0,0,1,.5-.5h.4a.37.37,0,0,1,.3.1c-.1,0-.2.1-.3.2s-.1.2-.2.3l-.1.3-.1.2a1.61,1.61,0,0,1-.4.7,1.42,1.42,0,0,1-.2-.6Zm-2.9,1.1.2-.1h0v-.3h0c0-.1-.1-.2-.2-.3-.2-.3-.4-.8-.1-1l.1-.1h.2a.43.43,0,0,1,.4.4,2.46,2.46,0,0,1-.1,1.2.19.19,0,0,0,0,.3h.4c.1,0,.2-.1.4-.1.1-.2-.2-.4-.2-.8s0-.8.3-.8c.1,0,.2,0,.2.1.1.3.2,1.2,0,1.4v.2h.6c.1-.1.2-.1-.1-.7v-.1a1.39,1.39,0,0,1,0-.9c0-.1.1-.1.2-.1h.1a.37.37,0,0,1,.3.1c.1.1.1.2,0,.4v.5a1.27,1.27,0,0,1-.1.6c-.1.3-.2.3.1.4h.1l.1-.2.3.1.3.1h.1l.2.1h.1a2.51,2.51,0,0,1,.7.4c.2.1.4.3.6.4,0,.2.1.3.2.5s.1.2.2.3v.5c0,.1.1.2.1.3a5.94,5.94,0,0,0,.4.8c.1.2.1.5-.1.6s-.1.1-.2.1l-.2.1-.2.1c-.1.1-.2.2-.2.3s-.1.4-.1.5-.2-.2-.2-.3a1,1,0,0,1-.4-.5.52.52,0,0,0-.2-.4c-.2-.1-.3-.1-.5-.2h.1a1.27,1.27,0,0,0,.6-.1l.1-.1a2.65,2.65,0,0,0,.5-.6c.2-.1.2-.1.2-.2a1.42,1.42,0,0,0-.6.2l-.1.1a1.08,1.08,0,0,1-.7.3h-.3l-.7-.1h-.3a2,2,0,0,1,.2-1.3,1.47,1.47,0,0,1,.6-.5H25a.91.91,0,0,1,.7.3c.1.1.3.2.3.4s.1.1.2.1-.3-.7-.3-.7l-.2-.1a2.09,2.09,0,0,0-.6-.4h-.4a.76.76,0,0,0-.5.2h-.1a1.38,1.38,0,0,1-.4.3l-.3.3a.76.76,0,0,0-.2.4.45.45,0,0,0,0,.5,1.88,1.88,0,0,1,.2.8V8c.1.3.1.4,0,.4l-.2.1H22v-.2a1.54,1.54,0,0,1,.2-1.1.6.6,0,0,0,.1-.4c0-.1-.1-.2-.1-.4a2.54,2.54,0,0,0-.8-1l-.1-.1h-1.2l-.1.1c-.3.2-.5.5-.8.7l-.4.4c.1.1.1.1.3-.1l.1-.1a5.55,5.55,0,0,1,.8-.6c.1,0,.1-.1.2-.1h.5l.2.1.1.1a1.38,1.38,0,0,1,.3.4.9.9,0,0,1,.1.5h-.2a.76.76,0,0,1-.2-.4c0-.1-.1-.1-.1-.2l-.1-.1a.1.1,0,0,1-.1-.1h-.4c-.1,0-.1,0-.2.1h0c-.3.2-.5.4-.8.6l-.4.3c.1.1.2.2.4.1s.2-.1.3-.1a1,1,0,0,1,.5-.4c.1,0,.1-.1.2-.1a.76.76,0,0,1,.4.1l.1.1c.1.1.1.2.1.4a.1.1,0,0,0,.1.1h.3a.1.1,0,0,1,.1.1h-.2c-.1,0-.2.1-.3.1h-.1c-.1,0-.2.1-.3.1H20c-.3-.1-.5-.3-.8-.3h-.4c-.3,0-.3,0-.2.1a.86.86,0,0,1,.6.3,2.19,2.19,0,0,1,.5.3h.8c-.1.1-.2.1-.4.2h0l-.2.1a1,1,0,0,0-.4.7c-.1,0-.3.1-.3.2a.91.91,0,0,0,0,1h0v.4a1.56,1.56,0,0,0,.6.8h.3c.1,0,.2-.1.4-.1l.1-.1-.1-.1h-.3a.35.35,0,0,1-.2-.1c-.3-.1-.6-.4-.5-.6l.5.3.2.1.4.1h.3l.3-.1.2-.1a4.88,4.88,0,0,0,.7-.3h.1c.2-.1.3-.2.1-.3l-.1.1a2,2,0,0,1-.8.4l-.2.1h-.7c-.1,0-.2-.1-.4-.1l-.1-.1a1,1,0,0,1-.5-.8c0-.1,0-.1.1-.2a2.18,2.18,0,0,0,.4.5c.1.1.1.2.2.2s.2.1.4.2a.37.37,0,0,1,.3.1h.4l.2-.1c.3-.1.6-.2.5-.4a1.09,1.09,0,0,1-.5.1h-.6l-.3-.1c-.1-.1-.3-.2-.4-.3S20,9.24,20,9s0-.3.1-.3h.1a4.88,4.88,0,0,0,.3.7c.1.1.2.2.3.2l.1.1c.1,0,.1.1.2.1h.3a.6.6,0,0,0,.4-.1c0-.2,0-.1-.1-.1h-.3l-.2-.1-.3-.3c-.1-.1-.1-.1-.1-.2a.6.6,0,0,1-.1-.4v-.3c0-.1,0-.2.1-.2a.1.1,0,0,1,.1-.1c.1-.1.1-.1.2-.1-.1.1-.1.3-.2.4v.6a1.38,1.38,0,0,0,.3.4l.2.1h.2a.6.6,0,0,1,.4.1.1.1,0,0,0,.1.1.85.85,0,0,0,.8,0l.2-.1c.1-.1.2-.1.3-.2h0l.3-.1a.76.76,0,0,0,.4-.2h0a2,2,0,0,0,.1-.8c.1,0,.2,0,.2.1.5.3.1,1-.4,1.2h-.4c-.1,0-.2-.1-.2.1H24a1.42,1.42,0,0,0,.6-.2l.1-.1h0a.52.52,0,0,0,.2-.4v-.3c0-.1.1-.2.2-.1s.3.4.2.6a1,1,0,0,1-.4.7l-.3.1h-.1l-.2.1h-.4c-.1,0-.2-.1-.4-.1s-.2-.1-.3-.1l-.1-.1c-.1-.1-.1-.1-.2,0h0c.1.1.2.2.3.2a.37.37,0,0,0,.3.1c.1,0,.2.1.4.1h1a1.21,1.21,0,0,0,.7-.7c0-.1.1-.1.1,0a.88.88,0,0,1-.1.7,1,1,0,0,1-1,.4h-.7a.76.76,0,0,1-.4-.1l-.3-.1c-.1,0-.2-.1-.3-.2l-.2-.1h0c-.1-.1-.1-.2-.2-.1.1.1.1.2.2.3l.2.2c.1.1.2.1.3.2l.3.1.4.1c.2,0,.3.1.5.1h.5a.91.91,0,0,0,.7-.3,1.46,1.46,0,0,0,.6-.9c0,.1.1.2.2.3h.1c0,.1.1.1.1.2v.2c-.1.1-.1.2-.2.3v.2c-.1.5.1.9,0,1.3s-.3.3-.7.4h0c-.3.1-.1.5-.4.9h-.1c0-.1,0-.4-.1-.5-.1-.3-.2-.3.2-.5.1-.1.2-.1.4-.2a1.5,1.5,0,0,0,.4-1.1c0-.1.1-.2.1-.4s.5-.5.1-.4c-.1.1-.2.2-.2.3-.2.1-.3.3-.4.4a.31.31,0,0,1-.2.1c-.2.1-.3.1-.5.2h-.4a1.27,1.27,0,0,1-.6-.1h-.1l-.3-.1c-.1-.1-.2-.1-.3-.2a1,1,0,0,1-.4-.5c-.1-.1-.1-.2-.2-.3h0c-.1.2-.3.3-.4.5a5.55,5.55,0,0,1-.8.6h-.2l-.3.1h-.1l-.3.1h-.3c-.1,0-.2,0-.2-.1s-.1-.1-.2-.1a2.65,2.65,0,0,1-.5-.6l-.6-.4c-.1,0-.3,0-.3.1s.2.2.3.4v.6c0,.4-.1.4.1.8l.2.2a.76.76,0,0,1,.4.2c.2-.1.3,0,.4.1s.1.2.2.2c.1.3-.1.5-.1.8h-.1c-.1,0-.1,0-.1-.1-.3-.2-.1-.8-.6-.8h0c-.4,0-.6.1-.7-.6,0-.5.1-.6.1-.9s-.3-.4-.4-.8.7-.3.7-1-.5-.8-.9-1.1l-.2-.2a.91.91,0,0,1,.2-1.1,1.1,1.1,0,0,0,.3-1.2,1.56,1.56,0,0,1,.6-.8l.3-.1a5.94,5.94,0,0,1,.8-.4l.2-.1.4-.1.2-.1h.1ZM24,8.64a.1.1,0,0,0-.1.1h-.1a.6.6,0,0,1,.1-.4h0c.1,0,.1.3.1.3Zm-2.6-.4h.1c.1.1.1.2,0,.2l-.1.1a.1.1,0,0,1-.1-.1c0-.1,0-.2.1-.2Zm-5.1.2.1-.1h.1a.78.78,0,0,1,.4.4h-.1a.6.6,0,0,0,.1.4c.1.1.2.1.2.2v.1c0,.1.1,0,.2,0l.1-.1c.2-.2,0-.5-.1-.7h0c-.1-.1-.1-.2-.2-.2l-.1-.1a1.56,1.56,0,0,1-.6-.8,1.1,1.1,0,0,1,0-.8h0a2,2,0,0,1,.4-.8c.1-.1.2-.3.2-.2s.1,0,.1.1.1.1.1.2.1.3.1.5-.1.4.2,0a.76.76,0,0,0,.2-.5c.1-.6-.4-.8-.3-1.3,0-.1.2-.3.3-.5s0-.2-.1-.2-.3.3-.4.3-.1,0-.1-.3v-.5c0-.1.1-.1.1-.2a.92.92,0,0,1,.9-.3.6.6,0,0,1,.4.1c.3,0,.2-.4.3-.4a.3.3,0,0,1,.4,0c.3.2.5.4.8.6l.1.1h.1a2.2,2.2,0,0,1-.1-.8l.1-.1h.3a1.42,1.42,0,0,1,.2.6v1a.1.1,0,0,1-.1.1c-.1,0-.1,0-.1-.1s-.2-.4-.4-.4h0v.7c-.1,0-.1,0-.2-.1s-.2-.3-.3-.4a.68.68,0,0,0-.4-.6h-.1c-.1,0-.1,0-.1.2.1,0,.1,0,.2.1a1.8,1.8,0,0,1,.4.9l-.4-.4-.2-.2a.76.76,0,0,0-.5-.2c-.1,0-.1.1,0,.2a.78.78,0,0,1,.4.4v.3a.87.87,0,0,1-.6.8l-.3.3a1,1,0,0,0-.2.9v.5a1.94,1.94,0,0,0-.3,1.8c.1.4.5.8.4,1.3s-.1.1-.2,0-.2.3-.2.3l-.3.3-.2.1a.3.3,0,0,1-.4,0h-.2c-.2-.1-.2-.2-.2-.4a.1.1,0,0,0,.1-.1h0c.2,0,.1-.5.1-.6l-.1-.1c-.1-.2-.2-.3-.2-.5a1.55,1.55,0,0,1,.2-.8Zm-.2,6.3h0a1.7,1.7,0,0,0,0,1h0v.1h0a2.19,2.19,0,0,0-.3.5l-.1.2a1.48,1.48,0,0,0-.1.7c-.1,0-.3.3-.3.3l-.1.1a1.15,1.15,0,0,0-.1,1,.52.52,0,0,1-.2.4,1.21,1.21,0,0,0-.3,1.3l-.1.1a.85.85,0,0,0-.3.5.88.88,0,0,0,.1.7c.1.4-.5.1-.2,1.5l.2.3c0-.2-.1-.1-.1-.1l-.2-.4c-.1-.2,0-.4,0-.5h-.3a.1.1,0,0,1-.1-.1c.1,0,.1-.1.2-.2s.2-.3.1-.4-.1-.3-.1-.4l-.2-.2a.6.6,0,0,0-.1-.4c0-.1.1-.2.2-.3s.1,0,.1.1h0c0,.2.3,0,.3,0l-.4-1.7c0-.1.1-.1.2-.2s.1.2.1.4l.2.2h.1v-.7c-.1-.3,0-.6-.1-1-.1-.1-.1-.1-.2-.1.1-.1.2-.1.3-.2a.6.6,0,0,0,.1-.4c0-.1.1-.2.1-.1a.6.6,0,0,1-.1.4c0,.3.3.5.3.9h.1a2.2,2.2,0,0,0,.1-.8c-.1-.4-.2-.9-.3-1.3a.22.22,0,0,1,.2-.2h0c.1.2.3.4.3.5s.1.1.1.2.1,0,.1,0a1.67,1.67,0,0,0-.1-1.2l-.1-.1c-.2-.1-.2-.4-.1-.6s-.4-.6-.1-.8a.76.76,0,0,1,.2-.4.6.6,0,0,0,.1.4c.1.1.2.3.3.4s.1.3.2.4a.1.1,0,0,0,.1-.1v-.6c.1.1.2.2.2.3Zm-2.3,13c0-.2-.1-.5,0-.6h0c0-.1.2.1.2.1s.1.2.1.3a.66.66,0,0,1-.2.7l-.2.2c-.1.1-.3.2-.4.1-.3,0,.2-.2.2-.2a.55.55,0,0,0,.3-.5v-.1Zm.3-1c.2-.3-.1-.4-.1-.7v-.6c0-.2-.1-.4-.2-.3v.1a1.19,1.19,0,0,1-.4,1.1.19.19,0,0,1-.3,0c0-.1.2,0,.2-.1a.63.63,0,0,0,.1-.9.35.35,0,0,0-.2-.1.6.6,0,0,0-.4-.1h0v-.2c0-.1,0-.1.1-.2s.6.3.8.2l.1-.1a1.42,1.42,0,0,0,.2-.6h0c.1-.1.2.5.3.5s-.2.2-.3.6,0,.3.2.7c.2.2.1.4.2.7C14.57,27.34,14,26.94,14.07,26.74ZM12,22.34c.3.4.6.6.3,1.2l-.3.3c-.2.1-.3,0-.5.1V24c.2.1.3.2.5.3a.52.52,0,0,1,.2.4.62.62,0,0,1-.2.7h-.1a2.07,2.07,0,0,1-.6.2s-.1-.1,0-.1a.43.43,0,0,0,.4-.4c.1-.5-.3-.7-.7-.9-.1-.1-.2-.1-.4-.2h0a.1.1,0,0,0-.1-.1c-.1-.3-.3-.9.1-.9h0a1.38,1.38,0,0,0,.4.3h0a.14.14,0,0,1,0,.2l.1.1c.2-.1.6-.1.6-.6s-.2-.4-.5-.5c-.1,0-.2-.1-.3-.2s-.2-.3-.2-.5l.2-.2.1-.1c.1-.1.1.1.2.1a.71.71,0,0,0,.6.3H12a.8.8,0,0,0-.1-.8l-.1-.1a2.7,2.7,0,0,1-.8-.7l.6-.7c.1.1.1.2.2.3l.1.1c.4.5.6.2.7.1a.68.68,0,0,0-.4-.6l-.3-.2a.71.71,0,0,1-.3-.6l.3-.3a.52.52,0,0,0,.2-.4c.1-.1.3.1.5.4l.1.2c.1.1.3-.2.3-.5,0-.1-.2-.3-.4-.4s-.2-.1-.3-.2c-.3-.1-.2-.8-.5-1.1a.45.45,0,0,1,.3-.3h.1c.1.2.2.5.4.6a6.37,6.37,0,0,0,.7.2c.3.1.1.2.3.1h0v-.4c0-.1-.1-.1-.1-.2l-.9-.3a.91.91,0,0,1-.3-.7c-.1-.3-.2-.7-.3-1.1a2.39,2.39,0,0,0,.5-1.4.76.76,0,0,0,.2.4,1.7,1.7,0,0,0,1,.6V14c.1.3.5.4.7.5h.1c.2.1.2.4.2.5a.55.55,0,0,1-.3.5.37.37,0,0,1-.3.1c-.3,0-.2.2,0,.2s.2.4.2.6a.86.86,0,0,1-.6.7h0c-.1,0-.3-.1-.3,0s.2.2.3.4,0,.2,0,.3v.3a.58.58,0,0,1-.6.6h0c-.2,0-.3,0-.4-.2a.35.35,0,0,0-.2-.1c0,.2,0,.3.2.4a.76.76,0,0,0,.4.2c.1.3.3.6.1,1a.32.32,0,0,1-.3.3.37.37,0,0,1-.3.1c-.3,0-.6-.2-.6.1a2.65,2.65,0,0,0,.6.5.76.76,0,0,1,.2.5.52.52,0,0,1-.2.4c-.1.1-.2.2-.3.2,0,.2-.2.1-.3.2Zm-.8-5.8c-.1-.1-.2-.3-.4-.4l-.1-.1c-.3-.3-.7-1-.4-1.3a.1.1,0,0,1,.1.1c.2.2.3.3.4.3a.78.78,0,0,1,.4.4c.1.1,0,.5.1.4a1.08,1.08,0,0,0,.4-.5c.1-.3-.3-.6-.5-.8l-.1-.1-.2-.2-.1-.1c-.4-.4-.8-1.2-.6-1.4h0c.1.2.2.3.3.5a.37.37,0,0,1,.3.1.6.6,0,0,0,.4.1h.2c-.2.3.1.7.3.9h.2c0,.2.2.4.2.5V15h0c0,.4,0,.7-.4.9-.1.1-.3,0-.4,0,0,.4.5.3.7.3a2.44,2.44,0,0,1,0,1.2,1.4,1.4,0,0,1-.4.4.37.37,0,0,1-.3.1c-.1,0-.2-.1-.3-.2l.3-.3a.76.76,0,0,0,.2-.5C11.37,16.84,11.27,16.64,11.17,16.54Zm1.7-5.7h0a.48.48,0,0,1,.2.6.75.75,0,0,0,.7.6h0c.3,0,.1.3.2.5a.55.55,0,0,0,.5.3h.2a.63.63,0,0,1-.2.8h0s-.4.3-.4.1h.1a.51.51,0,0,0-.3-.7.6.6,0,0,0-.4-.1c-.3-.1-.5-.1-.6-.5v-.1h0a2,2,0,0,0,0-1.5Zm2.4-3.4a2.18,2.18,0,0,1,.5.8c0,.1.1.2.1.3h-.1v-.1c-.1-.1-.2-.3-.3-.4l-.2-.1a1.58,1.58,0,0,1-.6-.9,2.09,2.09,0,0,1,.6.4Zm-2-.5c.2,0,.3.1.5.2s.4.3.6.4v.1h-1.2C13.17,7.34,13.07,7,13.27,6.94Zm-.2,1.8a2.35,2.35,0,0,0,.2-.8c0-.1.3-.1.5,0a1.45,1.45,0,0,1,.7.2h0a1.61,1.61,0,0,1,.7.4c.3.2.5.4.5.5a1.7,1.7,0,0,0,0,1,.1.1,0,0,0,.1.1.37.37,0,0,1-.1.3c-.1.1-.1.2-.1,1,0,.1.1.1.1.2v.3a.1.1,0,0,1-.1.1v.4c-.1-.4-.3-.8-.4-1.1s-.4-.6-.7-.6h0a.19.19,0,0,0,0,.3c.1.1.2.1.3.2a1.39,1.39,0,0,1,0,.9c-.1.1-.2.1-.3.2h-.2c-.1,0,0-.1,0-.1a.6.6,0,0,0,.1-.4.43.43,0,0,0-.4-.4h-.2c-.7-.3-.6-.7-1-.6v-.1l.2-.2a1.09,1.09,0,0,0-.2-1.1h0A4.88,4.88,0,0,1,13.07,8.74Zm-4.4-1.2h0a.63.63,0,0,1,.6-.5h.1c.1,0,.1.1.2.1s.2.4.2.1-.2-.3-.4-.4l-.1-.1v-.2h.1a2,2,0,0,1,.8.4h.1a1.76,1.76,0,0,1,.4-.5.76.76,0,0,1,.4-.2c.1,0,.2-.1.4-.1h0a.9.9,0,0,1,.5.1.92.92,0,0,1,.4.6c.1.4.3.9.4,1.3v.6a.52.52,0,0,1-.2.4h-.2c-.1.2.2.4.2.6s0,.4-.3.2-.1.2.1.4.2.3.1.5,0,.9-.3.8l-.1-.1c-.2-.1-.4-.4-.7-.3v.2c.2,0,.6.6.6.8v.1a1.39,1.39,0,0,1,0,.9c0,.1-.1.2-.2.3s-.6.3-.4,0c.1-.1.2-.2.2-.3a.44.44,0,0,0-.4-.6h-.5c-.2,0-.4-.1-.4-.5,0-.1,0-.3.1-.3s.2.1.3.1a.35.35,0,0,0,.2.1c.1,0,.2,0,.2-.1s.1-.1.1-.2.2-.4,0-.5a.76.76,0,0,0-.4-.2c-.2-.1-.4-.1-.6-.2s0-.2.1-.2a1.27,1.27,0,0,0,.6-.1.76.76,0,0,0,.4-.2,1.05,1.05,0,0,0,.5-.9,1.66,1.66,0,0,0-.5-1.3c-.1-.1-.3-.2-.4-.3l-.1-.1c-.1-.1-.7.1-.4.1a.76.76,0,0,1,.5.2.92.92,0,0,1,.4.6v.7h0a2.09,2.09,0,0,1-.4.6c-.3.3-.7.4-.7.3V10c0-.2.6-.5.6-.9s-.7-.6-1.1-.7h-.5c-.2,0-.4-.3-.5-.5Zm-1.9,8.8c-.3.1-.3.2-.3-.1s.2-.1.1-.3c-.1,0-.1-.1-.2-.1s-.1-.2-.2-.3a.76.76,0,0,1-.2-.4h.2v.2c0,.1.1.2.2.3s.2.1.2,0,.2-.1,0-.2a.4.4,0,0,1-.2-.4c0-.1,0-.5.2-.3l.3.6c0,.1.1.2.1.3h.1v-.4c-.1-.2.1-.1.2,0s.1,0,.1,0h0c.3-.1.1-.2,0-.3h0c0-.1.1-.1.2-.1a.22.22,0,0,1,.2.2c.2.2-.5.4-.3.6.4-.3.8-.4,1-.6a.88.88,0,0,0-.1-.7.75.75,0,0,1-.5-.7c-.1-.1-.3,0-.5,0h0c-.1-.1-.1-.2,0-.2s.1-.1.2-.1h0a.55.55,0,0,1,.5.3,4.67,4.67,0,0,0,.5,1l.1.1v.4c-.1.1-.2.1-.2.2s.2-.3-.1-.3a.27.27,0,0,1-.3.3,2.76,2.76,0,0,0-.9.7,1.38,1.38,0,0,1-.4.3Zm2.1.1c-.1.1-.1.2-.2.4V17c0,.1-.1.1-.1.2,0-.2.1-.3-.2-.3a.62.62,0,0,1-.4.6c-.1,0-.6.1-.6-.1a.73.73,0,0,1,.2-.6c.1-.3,0-.2-.3-.1l-.4.1c0-.1.2-.2.3-.3h0c.4-.1.4-.9,1.4-.8l.1-.1c.2-.1.5-.2.5-.5a1,1,0,0,0-.4-1l-.1-.1c-.3-.3-.3-.6-.5-.9a.65.65,0,0,0-.9-.2h0c-.2.2-.4.4-.4.6h0c-.1.1-.1.2-.2.2a1.61,1.61,0,0,0-.4.7c0,.1-.1.2-.2.3h-.2c0-.2.2-.4.3-.6v-.2H6c-.2.2-.3.5-.5.7-.1,0-.1,0-.1-.1a1.37,1.37,0,0,1,.5-.8c.1-.1,0-.1-.1-.1a2.65,2.65,0,0,0-.6.5c0,.1,0,.1-.1.1a1,1,0,0,1,.5-.8,1.42,1.42,0,0,1,.6-.2.35.35,0,0,0,.2-.1c.1-.1.3-.3.4-.3H7l.3-.1a1.27,1.27,0,0,1,.6-.1c-.1,0-.2.1-.3.1s-.1.2.1.2c.4-.1.5.4,1,.3h0a1,1,0,0,0,.6-.8h0c.1-.2.1-.3,0-.2l-.1.1-.3.4h-.5c-.1-.1.2-.1.2-.4-.4.1-.8-.1-1.3,0l-.1-.2c-.1,0-.3.1-.4.1a2.65,2.65,0,0,1-.6.5h0c-.1.1-.2.1-.2-.1s.1-.2.2-.3h.3l.3-.3c0-.1.1-.1.1-.2,0-.3-.2-.4,0-.6a1.38,1.38,0,0,1,.4-.3,1.27,1.27,0,0,1,.6-.1.1.1,0,0,1,.1-.1,2.7,2.7,0,0,0-.7-.8c-.1,0-.2-.1-.3-.1h-.2l-.1-.1h-.1c-.1.3-.3.2-.4.3v.1c0,.4-.3.2,0,1a.1.1,0,0,0,.1.1h.1c.1,0,.1-.1.1-.2s.3-.3.2.1a1.88,1.88,0,0,0-.2.8.22.22,0,0,1-.2.2h-.1a1.17,1.17,0,0,0-.8,1.1c-.1,0-.3.3-.5.3a1,1,0,0,0-.4-.5c-.1-.2,0-.3.1-.6a4,4,0,0,1,1-1.2c.2-.2.2-.4.2-1.2a.72.72,0,0,1,.4-.6l.6-.3h0l.4-.1a1.6,1.6,0,0,0,.9-.7h.1a2.65,2.65,0,0,0,.6.5l.6.3h.1c.2.1.3.1.4.4-.1.2-.2.3-.4.3h-.3c-.2,0-.3.1-.5.1s-.7.2-.6.4h.6c.2,0,.3.1.5.1l.2.1.1.1c.3.2.2.5.4.6.4.2.2.9,0,1a4.48,4.48,0,0,0-.1,1.1.91.91,0,0,0,.3.7,1.88,1.88,0,0,0-.4.9c-.1.4.2.8,0,1h-.3a.82.82,0,0,0-.5.5Zm-2.1-5.9c-.1,0-.4,0-.4-.1s.1-.1.2-.2h.1a.43.43,0,0,1,.4.4h0c0,.2-.1.1-.3-.1Zm1.8,11.4c0-.1.1-.1.2-.1a.55.55,0,0,1,.3.5c.3.3,0,.5.2.6h.2c.1,0,.2-.1.3-.2s.2-.3,0-.5a1.38,1.38,0,0,1-.3-.4l-.1-.1a1.23,1.23,0,0,1-.4-.8c0-.2-.1-.7.1-.8.1.1.2.3.3.4l.1.1c.1.1.1.2.2.2v.1c0,.2.3.2.4.1.3-.2,0-.7-.2-1a1,1,0,0,1-.4-.7v-.4a.1.1,0,0,1,.1-.1.94.94,0,0,1,.6.8c.2,0,.3,0,.4-.1s.1,0,.1-.1V19c-.1-.3-.4-.4-.6-.5a1.09,1.09,0,0,1-.2-1.1c0-.3.2-.6.3-.6h0c.1,0,.4.3.5.5v.3c0,.1-.1,0-.1,0a1.44,1.44,0,0,0-.2-.3.82.82,0,0,0,.4,1c.1.1.3.2.4.3h0c.2.1.2.4.2.6a.76.76,0,0,1-.2.5c-.1.1-.1.1-.2.1l-.2.1c-.4.1-.3-.1-.5.1.1.1.2.3.3.4l.2.1c.2.1.2.3.3.5a.55.55,0,0,1-.3.5c-.1.2-.4.2-.6.1s-.3-.2-.5-.3c-.4,0,.4.6.4.7.2.2.4.6.1.8s-.2.3-.4.3-.4-.1-.3.1a.86.86,0,0,1,.3.6c0,.2-.1.3-.3.4h-.2l-.1.1c-.1,0-.2,0-.1-.1s.2-.1.3-.2l.1-.1v-.2c0-.1-.1-.1-.1-.2-.2-.2-.6-.4-.7-.6h0A1.18,1.18,0,0,1,8.57,21.94Zm.5,3.8a.37.37,0,0,1-.3-.1.1.1,0,0,1-.1-.1s0-.1.1,0h.1c.2.1.3-.1.3-.2a1.23,1.23,0,0,0-.4-.8l-.1-.1a.52.52,0,0,1-.2-.4c-.1-.2-.1-.5.2-.3l.1.1a.37.37,0,0,1,.1.3.66.66,0,0,0,.4.5c.1,0,.1.1.1.2a.37.37,0,0,1,.1.3v.4c0,.1-.1.1-.1.2-.1-.1-.2,0-.3,0Zm1.6,1.4c-.2,0-.1.2-.1.3v.4q0,.15-.3.3c-.1.1-.7.2-.4-.1.2,0,.4-.3.4-.5s0-.3-.1-.3a1.78,1.78,0,0,1-.7-.8v-.2h0c.2,0,.5.6.7.7a1.27,1.27,0,0,0,.6.1c.1,0,.1-.1.2-.1s.1-.1.1-.2a.55.55,0,0,0-.3-.5l-.3-.2a1.68,1.68,0,0,1-.3-1.5l.5.5c-.2.1-.1.3,0,.4l.4.4c0,.1.1.1.1.2a.75.75,0,0,1,.1.5c.1.1,0,.3-.1.4-.1-.1-.1-.1-.2-.1l-.1.1c0,.1-.1.1-.2.2Zm.6,2.8h-.1c-.2,0-.3-.1-.3-.2s.3-.1.3-.2l.1-.1a.19.19,0,0,0,0-.3c-.1-.2-.4-.3-.2-.4h.1a1.38,1.38,0,0,1,.3.4c-.2.2.2.6-.2.8Zm.4-2.4c.1-.1.2,0,.3.2s.4.5.5.4.1,0,.1,0a1,1,0,0,0,.1-.3v-.1c.1-.1.1-.2,0-.4a2.18,2.18,0,0,0-.4-.5l-.3-.3-.1-.2a.1.1,0,0,1,.1-.1c.1-.1.2-.1.4-.1a2.09,2.09,0,0,0,.4.6l.3.3a1.1,1.1,0,0,1,0,.8l-.3.3c-.1.1-.3.2-.3.4s0,.3-.1.4a1.38,1.38,0,0,1-.4.3h-.2c-.1,0,.1-.2.2-.2a.64.64,0,0,0,0-.6c-.1-.1-.2-.3-.3-.3a1.15,1.15,0,0,1,0-.6Zm0,4.3a4.87,4.87,0,0,1,.1-1.2H12c0,.1,0,.1.1.2a5.87,5.87,0,0,1,.4,2.3,22.86,22.86,0,0,0-.2,2.5c-.1-.2-.1-.4-.2-.6a12.19,12.19,0,0,1-.4-3.2Zm-.5,10.6h0a2.39,2.39,0,0,0,.9.3h.1c.2,0,.4-.2.6-.3s.1-.2.2-.3c.1-.4.2-.8.3-1.3,0-.2.1-.2-.1-.2a1.61,1.61,0,0,1-.3.9c0,.1-.1.1-.1.2a.76.76,0,0,1-.5.2c.1,0,.2-.2.3-.7a1.39,1.39,0,0,0,0-.9c-.2-.1-.1.4-.1.7a3,3,0,0,1-.4,1c-.1.1-.2.1-.2-.1a2.35,2.35,0,0,0,.2-.8,5.28,5.28,0,0,0,.1-1.3h-.1v.1c-.1.5-.2,1.3-.4,1.1a11.78,11.78,0,0,1,.4-2.5c.2-1,.5-1.8.7-2.8v-.1c.1-.9,0-1.7.1-2.6,0-.2-.1-.3-.1-.5-.1-.5-.1-1-.3-1.8,0-.2.1-.4.3-.4a.76.76,0,0,0,.5-.2c.4-.3.2-.5.4-.7h.1a1.21,1.21,0,0,0,.7-.7,1.13,1.13,0,0,0,.1-.8h0l.3.3a1.72,1.72,0,0,0,.2,1.2l.3.3a6.61,6.61,0,0,0,0,2.8q.15.9.3,1.5c.1.4.2.8.3,1.3h0v.1c-.1.6-.2,1.2-.3,1.7l-.1.1a3.7,3.7,0,0,0-.5,1.1,5.73,5.73,0,0,0-.4,1.4c-.1,0-.2,0-.2-.1a2.08,2.08,0,0,0,0-.8c-.1.1-.1.3-.2.5a18.92,18.92,0,0,0-.5,2.3.52.52,0,0,0-.2.4,2.89,2.89,0,0,1-.9,1.6l-.1.2-.1.1H13c.1,0,.1-.4.4-.4a2,2,0,0,1-.4.8h-.3a.84.84,0,0,0-.7.2h0c-.3.4-.4.4-.6.3l-.3.3h-.3l.3-.6v-.2c0-.1,0-.1-.1-.2h-.1a.75.75,0,0,1-.1.5c0,.1,0,.1-.1.2a.31.31,0,0,1-.2-.1c0-.3-.1-.8.2-.9h.6l-.2-.2a.37.37,0,0,1-.1-.3A1.34,1.34,0,0,1,11.17,42.44Zm-1.2.4a1.79,1.79,0,0,1,.5-.7h.3a.35.35,0,0,1,.2.1c-.1.1-.2.2-.2.3a1.42,1.42,0,0,0-.2.6c.1.2.2.3-.1.4a.78.78,0,0,0-.3,1c-.1.2-.3.7-.6.5-.1-.2.1-.5.2-.8-.1-.2-.2-.4-.3-.1h0a.6.6,0,0,1-.1.4h0c-.2-.2,0-.5,0-.5-.1-.3-.1-.3,0-.3h.1c.3,0,.4.5.5-.1v-.3c0-.1-.2-.3,0-.5Zm-1.9,1.6v-.2c.1.2.1.4.2.6s.3.3.4,0,0-.3.1-.4.1-.1.1-.2,0-.1-.1-.2h0c-.2-.1-.4-.2-.2.1v.6a.62.62,0,0,1-.4-.6c0-.2.1-.1.2-.2a.37.37,0,0,1,.1-.3c0-.1.1,0,.2,0h.2c0-.5.4-.8.4-1.1a.6.6,0,0,1,.1-.4l.1-.1a.19.19,0,0,1,.3,0,1.42,1.42,0,0,0-.2.6v.5l-.1.2v.1a1.67,1.67,0,0,0-.4,1.5.55.55,0,0,1-.3.5h-.2a1.59,1.59,0,0,1-.5-1Zm.2,8h0v-.1l.3-.5H9l-.2.9h-.5Zm8.1,3.9c-.1.3,0,.6-.2.8h-.1c-.1,0-.2,0-.2-.1a.37.37,0,0,1-.1-.3c0-.1.1-.1.1-.2s.2-.2.3-.2h.2Zm.6-.6h-.7a.37.37,0,0,1,.1-.3c0-.1.1-.1.2-.2s.1-.1,0-.1h0c0-.1-.1-.2-.1-.3s-.2-.3-.2-.4h0A1.38,1.38,0,0,1,16,54c-.2-.1-.3-.3-.5-.4a.76.76,0,0,0-.4-.2c-.1,0-.2-.1-.3-.1h-.9a3.59,3.59,0,0,1-1-.7l-.1-.1c-.2,0-.1.2-.2.3a.76.76,0,0,1-.4.2H12c0-.1.3-.2,0-.3a1.79,1.79,0,0,1-.7-.5c-.1-.1-.3-.2-.4-.4l-.1-.1c0-.1,0-.2-.1-.1v.9a1,1,0,0,1-.4.5,1.61,1.61,0,0,1-.7.4h-.3c-.1-.1-.1,0-.1-.1s-.2.1-.3.2-.1.2,0,.4a1.49,1.49,0,0,0,.2.9.2.2,0,0,0,.2-.2c0-.2-.3-.5,0-.7h.1c.1,0,0,.1.1.2a.14.14,0,0,0,.2,0,4.33,4.33,0,0,0,.1-.5c.1-.3.3,0,.4,0,.3,0,.1-.4.3-.5,0-.1.1-.1.2-.1h.2l.2.1a2.77,2.77,0,0,0,.9.1h.9a.35.35,0,0,1,.1.2c0,.1,0,.4.3.2.2.1.3.1.5.2a.76.76,0,0,1,.5.2c0,.2.1.3.2.2a.35.35,0,0,0,.1-.2l.1.1c0,.1.1.1.2.1h0l.1.2c-.3.2-.2.5.1.2v.3c-.1.2-.2.1-.3.3s.1.3,0,.3.1.4.2,0l.1-.1c.2-.1.3-.4.4-.6a.91.91,0,0,0-.4-.8.35.35,0,0,1-.2-.1l-.5-.3-.2-.1h.4a1.61,1.61,0,0,1,.7.4,1,1,0,0,1,.5.4.85.85,0,0,1,.3.5h0v.3h0c-.1.1-.2.3-.3.4h-.1a.9.9,0,0,1-.5.1h-.1c-.1.4-.6.2-.4.6.1.1.1.2.2.4-.2,0-.3,0-.4-.1h0c-.2-.1-.3-.2-.3-.4s.2-.3.1-.3-.4.2-.4.3a1.47,1.47,0,0,0,.2.4.49.49,0,0,1-.3-.1l-.3-.3c-.2-.3.2-.1.3-.3h0v-.2a.1.1,0,0,0-.1-.1c-.1-.1-.5,0-.2.1a.22.22,0,0,1-.2.2c-.1.2-.2.3-.1.5h0c.1.1.1.1.1.2-.2,0-.4,0-.5-.2s-.1-.1-.1-.2a.1.1,0,0,1,.1-.1h.1l.2-.2c.4-.1.1-.3-.2-.1l-.1.1-.1.1c-.2.1-.5.2-.2.5,0,0,.1.2-.1.2a.19.19,0,0,1-.3,0,.78.78,0,0,1-.4-.4v-.1l.4-.1.3-.1c.2-.1-.1-.3-.3-.2h0c-.1.1-.2.3-.3,0s-.2.1-.2.1a.1.1,0,0,1,.1.1c-.2.1-.4.3-.2.4s.1.2.1.2a.62.62,0,0,1-.4-.2l-.2-.2c-.1-.1,0-.2.1-.2h.1c.1,0,.2,0,.1-.2h-.9v-.2c0-.2.1-.4-.2-.4s-.4.4-.4-.1c0-.2.2-.7-.1-.7h-.2a.64.64,0,0,0,0,.6V55a.76.76,0,0,1,.2.5c-.1,0-.2,0-.2-.1h-.2c-.1-.1-.2-.1-.2-.2a.37.37,0,0,1-.3-.1h0c-.3-.3-.2-.4-.2-.8,0-.2-.1-.5-.1-.8s.1-.2.3-.3.1-.1.2-.1.2-.3.5-.1h0a.35.35,0,0,0,.1-.2l.1-.1c0-.1,0-.1-.1-.2l-.1-.1-.1-.1c-.1,0,0-.4,0-.5a1.7,1.7,0,0,1,.1-.7c0-.1.1-.1.1-.2s.1-.1.1-.2c.3-.3,0-.3,0-.2s-.1,0-.1,0h0a3.79,3.79,0,0,1,0-1.5c0-.3.1-.5.1-.8a2.2,2.2,0,0,0-.1-.8c0-.1-.1-.1-.1-.2h0c-.1,0,0,.1,0,.4a.6.6,0,0,1,.1.4v.2c0,.1,0,.1-.1.2v.1l-.2.2c-.1.1.2.7-.3.4l-.2-.2h0c-.2-.4-.1-.5,0-.5a.19.19,0,0,0,0-.3c0-.1.1-.3.1-.4-.3-.4.1-.3.1-.6-.2-.3,0-.4.1-.5s0-.2,0-.4.1,0,.2,0h0c0-.1.1-.1.1-.2a.37.37,0,0,1,.3-.1h.6a.55.55,0,0,1,.3.5h.1c.1,0,.2-.2.2-.2a.1.1,0,0,1,.1.1c-.1.1,0,.4,0,.5h0s.3-.3.3-.1v.2c0,.1-.3.4-.2.5s.3-.3.4-.1c.1.4-.3.5-.3.7.1-.1.2-.1.4-.2.2.2,0,.4,0,.5s.2,0,.3,0a.56.56,0,0,1-.2.6c-.1.1.2.1.3,0h0l.1.1a.37.37,0,0,1-.1.3l-.1.1c-.1.1-.3.3,0,.2H12c.1-.1.2-.3.2,0a.31.31,0,0,1-.1.2c-.1.1-.1.1-.2.1h-.2c0,.1,0,.2.1.2h.1c.2,0,.4-.2.6.1.1.1.1.1.2.1h.1a1.22,1.22,0,0,1,.9-.3l.6.2h.1a1.7,1.7,0,0,0,.7.1c.1,0,.2-.1.3-.2s.1-.3.2-.4a3.55,3.55,0,0,0-.2-1c-.1-.4,0-.5.2-.8,0-.1.1-.1.1-.2s.1-.2.2-.3h0l.2-.2a1.46,1.46,0,0,0,.6-.9h.1a.61.61,0,0,1,0,.8h-.1c-.2.1-.5.2-.5.4.1,0,.2.1.3.1s.1.2.1.2a1.44,1.44,0,0,1-.2.3c-.1.1-.2,0-.3.2.1,0,.3-.1.4,0s-.5.4-.3.6h.2c-.1.3,0,.3-.2.4,0,.1,0,.1-.1.1l-.1.1h.1c.1,0,.2-.2.2.1,0,.1-.1.2-.2.3L16,50c0,.2,0,.1.1.1h.1c0,.1,0,.2-.1.2s-.1.2-.2.2h0c-.1,0-.1.1-.2.1l-.1.1a.9.9,0,0,1-.5.1c-.1,0-.2,0-.2-.1a.22.22,0,0,0-.2.2c0,.1-.3-.1-.3,0v.4c0,.1,0,.1.1.2s.1.2.2.3a.85.85,0,0,0,0,.7c.1,0,.1-.2.2-.1s-.1.5.1.6l.1.1a1.76,1.76,0,0,0,.5.4.37.37,0,0,0,.3.1h.3c.1,0,.1,0,.1.1v.2l-.1.1c0,.2,0,.3.1.3s.1,0,.2-.2a3,3,0,0,0,.5.7c.1.4.2.7,0,.9Zm10.5,2.4h0c0,.1,0,.5-.1.5h0a.35.35,0,0,0-.2.1H27a.1.1,0,0,1-.1-.1.35.35,0,0,1-.1-.2v-.3h-.1v.1h0a.37.37,0,0,1-.1.3c-.1.1-.4,0-.4,0h0v-.1h0c-.1,0,0-.3-.1-.3H26v.2a.37.37,0,0,1-.1.3h-.5v-.1h0v-.2h-.1v.2h0c-.1,0-.3.1-.4,0h-.8v-.2H24v.1a.37.37,0,0,1-.1.3h-.7a.35.35,0,0,1-.1-.2h0c0-.1-.1-.1-.1-.2h-.1v.1h0v.4h-.3a.1.1,0,0,0-.1-.1h0v-.1h0v-.1c0-.1-.1-.2-.1-.3h-.1v.2h0v.1h0a.31.31,0,0,1-.1.2h0c-.1.1-.3-.1-.4-.1h0v-.1c0-.1,0-.3-.1-.3h0v-.1s-.2-.1-.2,0,0,.4-.1.5h-.9a.1.1,0,0,1-.1-.1h0v-.1l-.1-.2c0-.1,0-.1-.1-.1h0a.37.37,0,0,0-.1.3h0v.1H20c-.2,0-.3-.1-.5-.2h0V58c0-.1-.1,0-.2,0h-.1a.1.1,0,0,0-.1.1h0v.2h0v.2h0a.37.37,0,0,1-.3-.1h0l-.2-.1h0v-.2h0c0,.1-.1.2-.3.2-.1.2-.1.1-.1,0h0v-.1h0v-.1H18v.5h0v.1h-.7v-.2h0v-.2h0v-.1h9.6l.6-.1Zm-8.7-1.6c.1-.1.3-.3.4-.3h.3c-.1,0-.3.3-.3.2h0a1.09,1.09,0,0,0-.1.5h-.3l-.1-.1A.37.37,0,0,1,18.77,56.54Zm1.4.4h0v-.3h.5v.1l-.1.1v.3h0v.1h-.4Zm2-.4h0v.4h-.5l-.1-.1v-.1h0v-.1h.2l.4-.1Zm1.9-.1h0v.1h0s.1.1,0,.1h0v.2h-.5v-.5h0a.1.1,0,0,0,.1-.1h.4Zm1.6-.2H26a2.19,2.19,0,0,1,.5.3v.4l-.1.1h-.3a1.27,1.27,0,0,0-.1-.6.1.1,0,0,1-.1-.1Zm1.2-2.6-.2.3a3,3,0,0,1-.8.8,4.35,4.35,0,0,1-.7.6l-.3.1h-.1l-.6.3-.4.1-.3.1h-1.3a2.2,2.2,0,0,1-.8-.1h-.2l-.3-.1h-.1l-.3-.1h-.3l-.2-.1c-.3-.1-.5-.3-.8-.4a5.24,5.24,0,0,1-1.1-1,3.77,3.77,0,0,1-.9-1.5c-.1-.2-.1-.4-.2-.6a7.72,7.72,0,0,1-.2-1.5A7.72,7.72,0,0,1,17,49c.1-.2.1-.4.2-.6a6,6,0,0,1,.9-1.5,7,7,0,0,1,1.9-1.5l.2-.1.4-.1.3-.1H21l.3-.1h.2c.3,0,.5-.1.8-.1h1l.3.1.3.1.3.2.6.3h.1l.3.2a4.23,4.23,0,0,1,.7.5,6,6,0,0,1,.8.8l.2.3a5.79,5.79,0,0,1,0,6.2Z" transform="translate(-1.17 -1.44)"/><path class="cls-1" d="M22.17,12.64h0c-.1,0-.2-.2-.2-.2a.44.44,0,0,0,.3.4c.3.1.3.1.3,0s.1-.5,0-.6S22.47,12.74,22.17,12.64Z" transform="translate(-1.17 -1.44)"/><polygon class="cls-1" points="12.9 14 12.9 13.9 12.9 13.9 12.9 13.8 12.9 13.8 12.9 13.7 12.9 13.7 12.9 13.6 12.9 13.5 12.6 13.4 12.6 13.4 12.4 13.3 12.1 13.2 11.9 13.1 11.7 13 11.6 12.9 11.6 12.9 11.4 12.6 11.4 12.4 11.3 12.7 11.4 12.9 11.4 13.1 11.5 13.2 11.6 13.4 11.6 13.5 11.6 13.5 11.8 13.7 11.9 13.8 12 13.8 12.1 13.9 12.3 13.9 12.4 13.9 12.6 14 12.6 14 12.7 14 12.9 14"/><path class="cls-1" d="M13.47,9.94c.1.1.2.1.3.2a1.7,1.7,0,0,0,.7.1h.3a1.07,1.07,0,0,0-.2-.6l-.1-.1a1.7,1.7,0,0,0-.7-.1h-.1c-.4-.1-.5-.2-.6-.5C12.77,9,13.17,9.84,13.47,9.94Z" transform="translate(-1.17 -1.44)"/><path class="cls-1" d="M19.17,63.34h-.5l-2.1-2.7-.6.7,1.9,2H1.17v.8h2.3v1.7h-.2c-.2,0-.4-.1-.4-.3l-.4-.8-.8.6.2.5.5.8,1.2,1.8a1.17,1.17,0,0,0,.6.6h.1l.6-.5-.3-.3-.5-.6-.3-.3-.4-.7h.2c.1-.1.3-.1.4-.3a1.38,1.38,0,0,0,.3-.4h0l.2.4h1.3V69h.9v-4.9h4.5l.2.3a.37.37,0,0,1,.1.3h0c0,.1.1.2.1.3,0,.5-.2.7-.7.7H11V65H8.57a.67.67,0,0,0-.7.4,1.08,1.08,0,0,0-.2.8,3.55,3.55,0,0,0,.2,1c.1.2.2.3.3.5a5.5,5.5,0,0,0,.7.9l.6.5.5-.8-.3-.1c-.1,0-.1-.1-.2-.1l-.4-.6a2.2,2.2,0,0,1-.6-1.5c0-.3.1-.3.2-.4h1.7v.1a2,2,0,0,0,.1.8,1.83,1.83,0,0,0,1.9,1.2,1.69,1.69,0,0,0,1-.3v1.4h.9v-4.9h1.6v1.5h-.2l-.2.1-.3.3V66h0c0,.1.1.2.1.3a1.38,1.38,0,0,0,.3.4l.4.4c.1.1.2.1.4.2h.2l.1-.1a.35.35,0,0,0,.1-.2v-.7h1.4v2.6h.9V64h3.4v2.5l-.1.2a1.23,1.23,0,0,1-.8.4h-.4a.22.22,0,0,1-.2-.2,1.42,1.42,0,0,1-.2-.6V66c.2-.4.4-.5.6-.5h.2l.3.1.5.3-.2-1h-.3l-.4-.1h-.2a.75.75,0,0,0-.5.1,1,1,0,0,0-.5.4,1.5,1.5,0,0,0-.4,1.1,1.27,1.27,0,0,0,.1.6c.1.1.1.2.2.3a1.51,1.51,0,0,0,1.4.7h.3l.3-.1.2-.2v1.4h.8v-4.9h1v-.9Zm-13.3,2.2H4.37v-1.4h1.5Zm7.6.9-.2.3a1.62,1.62,0,0,1-.9.5.87.87,0,0,1-.9-.6l-.1-.3h.2l.3-.1a1.22,1.22,0,0,0,.6-1.2l-.1-.3c0-.2-.1-.3-.2-.5v-.1h1.3Zm4.7-.8h-1.5v-1.5h1.5Z" transform="translate(-1.17 -1.44)"/><path class="cls-1" d="M42.67,63.34l-2.1-2.7-.5.7,1.9,2H27.27v.8h5v1h-2.7l.4.3.1.1.3.4c.1.2.2.3.3.5a.9.9,0,0,1,.1.5v.3l-.1.2a.48.48,0,0,1-.7,0,1,1,0,0,1-.4-.5,3.38,3.38,0,0,1-.6-1.2l-.2-.6v-.5l-.8.6.1.3.2.5.2.5c0,.1.1.2.1.3a2.09,2.09,0,0,0,.4.6,1.6,1.6,0,0,0,1.4.8,1.27,1.27,0,0,0,.6-.1,1.44,1.44,0,0,0,.8-1.3v-.3l-.1-.4-.2-.4h1.1v3.2h.6V64H35l.2.3a.37.37,0,0,1,.1.3h0c0,.1.1.2,0,.3,0,.5-.2.7-.7.7h-.1l-.3-.1v.3a1.08,1.08,0,0,0,.2.8,1.83,1.83,0,0,0,1.9,1.2,1.69,1.69,0,0,0,1-.3v1.4h.9V64h3.9v.7h-2a.91.91,0,0,0-.8.4,1.61,1.61,0,0,0-.3.9,2.2,2.2,0,0,0,.1.8c.1.3.2.5.3.8l.3.5.4.5.3.3h0c.1,0,.1.1.2.1h.1l.7-.7H41c-.1,0-.2-.1-.4-.3a5.92,5.92,0,0,1-.4-.6,2.84,2.84,0,0,1-.4-1.3v-.2c0-.1.1-.2.2-.3h1.9V69h.8v-4.9h.9v-.8Zm-5.4,3.1-.1.3a1.62,1.62,0,0,1-.9.5.87.87,0,0,1-.9-.6l-.2-.3h.2l.3-.1a1.52,1.52,0,0,0,.7-1.2l-.2-.4c0-.2-.1-.3-.2-.5l-.1-.1h1.3Z" transform="translate(-1.17 -1.44)"/></svg>