<svg xmlns="http://www.w3.org/2000/svg" xmlns:xlink="http://www.w3.org/1999/xlink" width="299" height="299" viewBox="0 0 299 299">
  <defs>
    <linearGradient id="linear-gradient" x1="0.5" y1="1" x2="0.475" gradientUnits="objectBoundingBox">
      <stop offset="0" stop-color="#a5dede" stop-opacity="0"/>
      <stop offset="1" stop-color="#a5dede"/>
    </linearGradient>
  </defs>
  <g id="Group_54916" data-name="Group 54916" transform="translate(-6566.95 6840.196)">
    <g id="Group_54915" data-name="Group 54915" transform="translate(489 92)">
      <g id="Group_54913" data-name="Group 54913" transform="translate(6077.95 -6932.196)">
        <g id="Group_757" data-name="Group 757" transform="translate(0 0)">
          <g id="Ellipse_1280" data-name="Ellipse 1280" transform="translate(29 29)" fill="none" stroke="#8ccfcf" stroke-width="1">
            <circle cx="120.5" cy="120.5" r="120.5" stroke="none"/>
            <circle cx="120.5" cy="120.5" r="120" fill="none"/>
          </g>
          <g id="Ellipse_1282" data-name="Ellipse 1282" transform="translate(58 58)" fill="none" stroke="#8ccfcf" stroke-width="1">
            <circle cx="91.5" cy="91.5" r="91.5" stroke="none"/>
            <circle cx="91.5" cy="91.5" r="91" fill="none"/>
          </g>
          <circle id="Ellipse_1283" data-name="Ellipse 1283" cx="69.5" cy="69.5" r="69.5" transform="translate(80 80)" fill="url(#linear-gradient)"/>
          <g id="Ellipse_1285" data-name="Ellipse 1285" fill="none" stroke="#8ccfcf" stroke-width="1">
            <circle cx="149.5" cy="149.5" r="149.5" stroke="none"/>
            <circle cx="149.5" cy="149.5" r="149" fill="none"/>
          </g>
        </g>
      </g>
      <g id="Group_54914" data-name="Group 54914" transform="translate(6096.95 -6887.748)">
        <path id="Path_66769" data-name="Path 66769" d="M34.326,24.008a37.226,37.226,0,0,0-9.986,9.4c-2.113.6-7.594-1.493-8-6.171a11.258,11.258,0,0,1,2.453-8.131l0,0c1.737-2.009,4.488-3.381,8.6-3.14s5.914,1.963,6.654,3.755a7.45,7.45,0,0,1,.286,4.29" transform="translate(-4.823 -4.717)" fill="#8e8e8e"/>
        <path id="Path_66770" data-name="Path 66770" d="M27.948,259.44v1.1a2.671,2.671,0,0,1-1.734.3l-.173-1.126a8.5,8.5,0,0,1-6.068,6.414c-5.244,1.452-4.815-2.014-4.815-2.014s10.146-4.639,10.536-6.719,1.56-1.664,1.56-1.5.693,3.55.693,3.55" transform="translate(-4.484 -75.695)" fill="#14141c"/>
        <path id="Path_66771" data-name="Path 66771" d="M26.587,248a1.874,1.874,0,0,1,1.365,2.02V257.1a1.249,1.249,0,0,1-1.365.57s-.22-1.58-.283-2.882c0,0-.507,7.067-7.606,8.334s-1.386-5.565-.975-8.724A14.319,14.319,0,0,1,20,247.843Z" transform="translate(-4.487 -73.356)" fill="#272732"/>
        <path id="Path_66772" data-name="Path 66772" d="M64.587,263.259a2.745,2.745,0,0,1-1.188,3.188c-1.907,1.343-10.836.434-13.393-4.291v1.517s-2.109.505-2.918-.39l-.172-.751s.045-3.467,1.481-3.583a3.007,3.007,0,0,1,2.765.867c.375.549,7.765,8.749,13.425,3.443" transform="translate(-13.886 -76.638)" fill="#14141c"/>
        <path id="Path_66773" data-name="Path 66773" d="M55.126,252.357a13.415,13.415,0,0,1,5.125,3.771c2.282,2.739,5.932,4.449,3.422,6.161s-10.952,1.932-14.374-4.966v3.084a2.709,2.709,0,0,1-2.482-.342s-1.155-5.419,1.69-9.469c0,0,1.55,4.549,6.618,1.762" transform="translate(-13.788 -74.171)" fill="#272732"/>
        <path id="Path_66774" data-name="Path 66774" d="M20.678,121.349a45.153,45.153,0,0,1-3.505,15.991l.135.052q.79.3,1.578.576a46.567,46.567,0,0,0,9.6,2.292,37.727,37.727,0,0,0,9.4.025,36.56,36.56,0,0,0,9.468-2.513c.322-.132.643-.27.964-.413l.044-.019a50.092,50.092,0,0,1-1.682-6.147,69.272,69.272,0,0,1-1.33-10.858l.006,0a.515.515,0,0,0-.009-.063c-.01-.215-.019-.429-.025-.646-.006-.09-.007-.137-.007-.137q-.138-3.622.015-7.52c.042-.321.088-.643.142-.966.116-.69.262-1.383.444-2.07.092-.344.191-.685.3-1.022q.218-.665.491-1.309a18.338,18.338,0,0,0,1.231-4.322,21.889,21.889,0,0,0-.334-8.257c-.077-.32-.149-.6-.213-.825q.441-2.6.971-5.279a2.516,2.516,0,0,0-.886-1.887,2.79,2.79,0,0,0-.3-.232h0a2.438,2.438,0,0,0-.379-.225,3.3,3.3,0,0,0-1.449-.333H20.195a3.3,3.3,0,0,0-1.45.333,2.964,2.964,0,0,0-.717.487,2.506,2.506,0,0,0-.855,1.857c.766,3.848,1.459,7.645,2.028,11.359a108.886,108.886,0,0,1,1.477,22.07" transform="translate(-5.083 -25.23)" fill="#00604e"/>
        <path id="Path_66775" data-name="Path 66775" d="M55,224.38s-.9,1.643-4.566,1.047A3.207,3.207,0,0,1,48.3,224.38s.046-37.764-1.479-54.007c-.061-.639-.125-1.242-.2-1.807-.012-.1-.026-.2-.038-.3v-9.026h9.443l.007.139c.04.714.225,4.119.439,9.138C57.1,183.192,56.8,209.081,55,224.38" transform="translate(-13.788 -47.132)" fill="#fab188"/>
        <path id="Path_66776" data-name="Path 66776" d="M28.023,224.38s-.9,1.643-4.566,1.047a3.207,3.207,0,0,1-2.138-1.047s.046-37.764-1.479-54.007c-.061-.639-.125-1.242-.2-1.807-.012-.1-.026-.2-.038-.3v-9.026h9.443l.007.139c.039.714.225,4.119.439,9.138.624,14.673.324,40.562-1.472,55.861" transform="translate(-5.803 -47.132)" fill="#fab188"/>
        <path id="Path_66777" data-name="Path 66777" d="M48.857,168.98a55.307,55.307,0,0,1-6.749,1.55q-1.485.244-2.905.4c-1.593.174-3.122.269-4.58.3h0a51.284,51.284,0,0,1-6.351-.251,45.93,45.93,0,0,1-8.119-1.548,24.888,24.888,0,0,1-2.786-.955v-9.23H48.412l.007.146Z" transform="translate(-5.139 -47.132)" fill="#242932"/>
        <path id="Path_66778" data-name="Path 66778" d="M29.237,85.243a8.941,8.941,0,0,0,7.868,6.229c6.252.434,8.08-6.229,8.08-6.229Z" transform="translate(-8.653 -25.23)" fill="#ff8b6f"/>
        <path id="Path_66779" data-name="Path 66779" d="M43.31,83.5a8.743,8.743,0,0,1-9.619,0V75.678H43.31Z" transform="translate(-9.972 -22.399)" fill="#ff8b6f"/>
        <path id="Path_66780" data-name="Path 66780" d="M44.26,78.591h0c-.144.024-.291.044-.439.06.395-.088.527-.1.443-.06" transform="translate(-12.969 -23.255)" fill="#fab188"/>
        <path id="Path_66781" data-name="Path 66781" d="M33.691,76.712v2.96a13.023,13.023,0,0,0,9.618.289V77.705s-6.7.034-9.618-.993" transform="translate(-9.972 -22.705)" fill="#ff6e5e"/>
        <path id="Path_66782" data-name="Path 66782" d="M6.591,178.814a51.649,51.649,0,0,0,.39,6.859,48.2,48.2,0,0,0,23.5,6.808,34.783,34.783,0,0,0,22.165-7.767,33.5,33.5,0,0,0,.421-6.109c-.179-9.882-4.116-20.5-7.836-29.644a41.042,41.042,0,0,1-2.082-8.628c-.222-1.458-.4-2.883-.536-4.166-.322-2.994-.437-5.2-.437-5.2s-23.867-8.177-23.454-6.792c.229.768-.071,4.176-1.466,9.882q-.572,2.351-1.407,5.211c-1.076,3.662-2.5,7.936-4.358,12.775a75.564,75.564,0,0,0-4.9,26.773" transform="translate(-1.951 -36.706)" fill="#00604e"/>
        <path id="Path_66783" data-name="Path 66783" d="M53.574,95.9a20.937,20.937,0,0,1,5.131,6.523,45.067,45.067,0,0,1,4.12,12.725,106.5,106.5,0,0,1,1.212,24.154c-.084,1.382-.162,2.174-.162,2.174l3.967.75s.009-.062.025-.182c.266-1.878,2.468-17.91,1.9-30.081-.008-.236-.007-.468-.032-.7C67.674,92.361,61.316,87.455,58.243,86.18a5.26,5.26,0,0,0-1.7-.444l-1.723,5.9h0Z" transform="translate(-15.857 -25.376)" fill="#fab188"/>
        <path id="Path_66784" data-name="Path 66784" d="M65.157,170.444c-.038.128-1.721,5.572-.593,6.018.792.31,1.761-1.333,2.321-3.081a9.847,9.847,0,0,0,.439-2.03c0-.038.007-.075.008-.109,0,.03,0,.065-.008.109-.03.435-.118,1.534-.289,2.533a5.8,5.8,0,0,1-.458,1.633c-.569,1.03-.716,1.823-.12,2.263.281.208.832-.2,1.359-1.067a8.965,8.965,0,0,0,1.062-2.839,14.2,14.2,0,0,0-.132,2.378c.109.946,1.418.988,2.063-1.125.6-1.952.853-6.475-.251-11.245q-.135-.587-.3-1.179l-3.013-3.2h0l-.515,1.633,0,.006v0l-.5,1.6s-.907,1.536-1.8,3.339a30.367,30.367,0,0,0-1.26,2.833c-1.8,4.853,1.931,1.585,2,1.526" transform="translate(-18.548 -47.209)" fill="#fab188"/>
        <path id="Path_66785" data-name="Path 66785" d="M17.9,95.9a20.939,20.939,0,0,0-5.132,6.523,45.066,45.066,0,0,0-4.119,12.725A106.418,106.418,0,0,0,7.44,139.306c.083,1.382.161,2.174.161,2.174l-3.967.75s-.008-.062-.025-.182c-.265-1.878-2.468-17.91-1.9-30.081.008-.236.007-.468.033-.7C3.8,92.361,10.159,87.455,13.233,86.18a5.26,5.26,0,0,1,1.7-.444l1.723,5.9h0Z" transform="translate(-0.477 -25.376)" fill="#fab188"/>
        <path id="Path_66786" data-name="Path 66786" d="M9.528,170.444c.038.128,1.721,5.572.593,6.018-.792.31-1.761-1.333-2.321-3.081a9.848,9.848,0,0,1-.439-2.03c0-.038-.007-.075-.008-.109,0,.03,0,.065.008.109.03.435.118,1.534.289,2.533a5.8,5.8,0,0,0,.458,1.633c.569,1.03.716,1.823.12,2.263-.281.208-.832-.2-1.359-1.067a8.931,8.931,0,0,1-1.063-2.839,14.2,14.2,0,0,1,.132,2.378c-.109.946-1.418.988-2.063-1.125-.6-1.952-.853-6.475.251-11.245q.135-.587.3-1.179l3.013-3.2h0l.515,1.633,0,.006v0l.5,1.6s.907,1.536,1.8,3.339a30.368,30.368,0,0,1,1.26,2.833c1.8,4.853-1.931,1.585-2,1.526" transform="translate(-0.995 -47.209)" fill="#fab188"/>
        <path id="Path_66787" data-name="Path 66787" d="M58.937,57.783h-.759a3.423,3.423,0,1,1,0-6.847h.759a3.423,3.423,0,1,1,0,6.847" transform="translate(-16.206 -15.076)" fill="#ff8b6f"/>
        <path id="Path_66788" data-name="Path 66788" d="M59.6,56.881h-.414a1.867,1.867,0,0,1,0-3.735H59.6a1.867,1.867,0,0,1,0,3.735" transform="translate(-16.964 -15.73)" fill="#ff6464"/>
        <path id="Path_66789" data-name="Path 66789" d="M23.395,57.783h-.759a3.423,3.423,0,1,1,0-6.847h.759a3.423,3.423,0,0,1,0,6.847" transform="translate(-5.686 -15.076)" fill="#ff8b6f"/>
        <path id="Path_66790" data-name="Path 66790" d="M24.053,56.881h-.414a1.867,1.867,0,0,1,0-3.735h.414a1.867,1.867,0,0,1,0,3.735" transform="translate(-6.444 -15.73)" fill="#ff6464"/>
        <path id="Path_66791" data-name="Path 66791" d="M49.845,41.813v8.317a14.312,14.312,0,0,1-1.086,5.492l-.01.02a13.053,13.053,0,0,1-9.977,8.039h0l-.033.006h0c-.106.019-.214.034-.322.046h0c-.271.031-.544.056-.82.07-.2.01-.4.013-.6.013-6.876,0-12.534-5.823-12.841-13.067h0c-.008-.2-.013-.411-.013-.619V41.813a14.29,14.29,0,0,1,1.026-5.336,13.822,13.822,0,0,1,1.759-3.139v0l.035-.045q.294-.393.617-.762c.17-.2.346-.385.524-.57h0a12.21,12.21,0,0,1,16.938-.8,12.765,12.765,0,0,1,1.034.986A13.356,13.356,0,0,1,47.592,34.1q.269.411.5.843a14.258,14.258,0,0,1,1.748,6.871" transform="translate(-7.143 -8.324)" fill="#fab188"/>
        <path id="Path_66792" data-name="Path 66792" d="M47.23,63.581c-.031.092-.068.2-.108.3a11.7,11.7,0,0,1-1.814,3.271,6.711,6.711,0,0,1-1.324,1.267c-.131.1-.266.179-.408.263a.017.017,0,0,1-.012.006,4.453,4.453,0,0,1-1.291.5,4.314,4.314,0,0,1-4.573-1.8,8.881,8.881,0,0,1-1.069-1.868l-.018-.044c-.1-.229-.18-.458-.254-.672s-.139-.413-.194-.6c-.065-.218-.118-.41-.158-.567v-.008a.322.322,0,0,1,.358-.392A40.323,40.323,0,0,0,42,63.7a28.707,28.707,0,0,0,4.856-.536.323.323,0,0,1,.37.42" transform="translate(-10.654 -18.693)" fill="#f1aa82"/>
        <path id="Path_66796" data-name="Path 66796" d="M40.893,58.342h4.892s-2.17-3.6-4.892,0" transform="translate(-12.103 -16.795)" fill="#ff6c6e"/>
        <path id="Path_66797" data-name="Path 66797" d="M51.789,49.472a14.234,14.234,0,0,1,3.379.38,6.979,6.979,0,0,0-2.86.569s-.924-.144-.519-.949" transform="translate(-15.298 -14.643)" fill="#3f190a"/>
        <path id="Path_66798" data-name="Path 66798" d="M49,45.433a1.124,1.124,0,0,0-.753,1.051c-.065.867,1.013.8,2.023.8a9.547,9.547,0,0,1,4.977,1.083s-.326-1.355-1.193-1.739A50.517,50.517,0,0,0,49,45.433" transform="translate(-14.28 -13.447)" fill="#ff8b6f"/>
        <path id="Path_66799" data-name="Path 66799" d="M34.23,45.433a1.124,1.124,0,0,1,.753,1.051c.065.867-1.013.8-2.023.8a9.547,9.547,0,0,0-4.977,1.083s.326-1.355,1.193-1.739a50.517,50.517,0,0,1,5.054-1.2" transform="translate(-8.282 -13.447)" fill="#ff8b6f"/>
        <path id="Path_66800" data-name="Path 66800" d="M55.333,47.875l0,0a8.833,8.833,0,0,0-3.209-1.124c-1.723-.2-4.185-.037-3.49-1.087a1.524,1.524,0,0,1,.965-.508h0a6.934,6.934,0,0,1,1.6-.111c3.708.265,4.131,2.837,4.131,2.837" transform="translate(-14.357 -13.328)" fill="#8e8e8e"/>
        <path id="Path_66801" data-name="Path 66801" d="M55.328,47.921A8.841,8.841,0,0,0,52.119,46.8c-1.723-.2-4.185-.036-3.49-1.087A1.525,1.525,0,0,1,49.6,45.2a.617.617,0,0,0-.106.627c.251.453.812.188,2.432.318a7.2,7.2,0,0,1,3.407,1.773" transform="translate(-14.357 -13.379)" fill="#6d6d6d"/>
        <path id="Path_66804" data-name="Path 66804" d="M49.222,120.073a8.125,8.125,0,0,0,5.728.461c.116-.69.262-1.383.444-2.07.092-.344.191-.685.3-1.022a3.609,3.609,0,0,1-.52.591,8.344,8.344,0,0,1-5.953,2.039" transform="translate(-14.568 -34.761)" fill="#003d2e"/>
        <path id="Path_66805" data-name="Path 66805" d="M57.194,217.1l-.136,3.9a14.993,14.993,0,0,1-8.153,2.212l-.146-3.606a33.766,33.766,0,0,0,8.435-2.5" transform="translate(-14.431 -64.256)" fill="#ff8b6f"/>
        <path id="Path_66806" data-name="Path 66806" d="M30.119,220l-.128,3.34s-4.666.867-8.188-1.039l-.067-4.161A51.839,51.839,0,0,0,30.119,220" transform="translate(-6.433 -64.565)" fill="#ff8b6f"/>
        <path id="Path_66807" data-name="Path 66807" d="M55.723,251.765s3.257,2.408,2.905,4.168c-.387,1.939-7.4-.13-9.609-4.168Z" transform="translate(-14.508 -74.517)" fill="#fab188"/>
        <path id="Path_66808" data-name="Path 66808" d="M57.492,251.486a3.738,3.738,0,0,0-2.494.527s-.108-1.012,2.57-1.191Z" transform="translate(-16.278 -74.238)" fill="#ff8b6f"/>
        <path id="Path_66809" data-name="Path 66809" d="M28.492,250.474a14.871,14.871,0,0,1-4.939,3.572c-2.485.856-2.89-2.112-1.765-5.529,1.107-3.36,6.7,1.956,6.7,1.956" transform="translate(-6.273 -73.227)" fill="#fab188"/>
        <path id="Path_66810" data-name="Path 66810" d="M6.591,201.766a51.649,51.649,0,0,0,.39,6.859,48.2,48.2,0,0,0,23.5,6.808,34.78,34.78,0,0,0,22.165-7.767,33.441,33.441,0,0,0,.422-6.109c-.248.363-6.108,8.658-24.24,8.772-12.43.078-19.154-5.126-22.234-8.562" transform="translate(-1.951 -59.656)" fill="#003d2e"/>
        <path id="Path_66811" data-name="Path 66811" d="M28.106,47.875l0,0a8.833,8.833,0,0,1,3.21-1.124c1.723-.2,4.185-.037,3.49-1.087a1.527,1.527,0,0,0-.966-.508h0a6.934,6.934,0,0,0-1.6-.111c-3.708.265-4.131,2.837-4.131,2.837" transform="translate(-8.319 -13.328)" fill="#8e8e8e"/>
        <path id="Path_66812" data-name="Path 66812" d="M28.113,47.921A8.841,8.841,0,0,1,31.322,46.8c1.723-.2,4.185-.036,3.49-1.087a1.525,1.525,0,0,0-.965-.508.618.618,0,0,1,.106.627c-.251.453-.812.188-2.432.318a7.2,7.2,0,0,0-3.407,1.773" transform="translate(-8.321 -13.379)" fill="#6d6d6d"/>
        <path id="Path_66813" data-name="Path 66813" d="M19.739,143.487c2.911,1.833,15.378,8.738,27.3,1.066-.222-1.458-.4-2.883-.536-4.166-.958.479-13.815,6.638-25.358-2.111q-.572,2.351-1.406,5.211" transform="translate(-5.842 -40.927)" fill="#003d2e"/>
        <path id="Path_66814" data-name="Path 66814" d="M32.974,49.472a14.239,14.239,0,0,0-3.38.38,6.977,6.977,0,0,1,2.86.569s.924-.144.52-.949" transform="translate(-8.759 -14.643)" fill="#3f190a"/>
        <path id="Path_66815" data-name="Path 66815" d="M46.62,50.894a4.573,4.573,0,1,1,4.572,4.573,4.578,4.578,0,0,1-4.572-4.573m1.265,0a3.307,3.307,0,1,0,3.307-3.307,3.311,3.311,0,0,0-3.307,3.307" transform="translate(-13.798 -13.71)" fill="#272732"/>
        <path id="Path_66816" data-name="Path 66816" d="M27.843,50.894a4.573,4.573,0,1,1,4.573,4.573,4.578,4.578,0,0,1-4.573-4.573m1.265,0a3.307,3.307,0,1,0,3.307-3.307,3.311,3.311,0,0,0-3.307,3.307" transform="translate(-8.241 -13.71)" fill="#272732"/>
        <path id="Path_66817" data-name="Path 66817" d="M39.9,51.79a2.929,2.929,0,0,1,4.614-.113l.964-.82a4.182,4.182,0,0,0-6.473.038Z" transform="translate(-11.545 -14.605)" fill="#272732"/>
        <path id="Path_66818" data-name="Path 66818" d="M26.088,51.894a.559.559,0,0,0,.41-.939,5.974,5.974,0,0,0-3.824-1.883,3.38,3.38,0,0,0-2.552,1.294.56.56,0,0,0,.848.73,2.28,2.28,0,0,1,1.721-.905,4.872,4.872,0,0,1,2.986,1.526.559.559,0,0,0,.41.178" transform="translate(-5.916 -14.524)" fill="#272732"/>
        <path id="Path_66819" data-name="Path 66819" d="M58.343,51.795a.537.537,0,0,0,.453-.246,2.517,2.517,0,0,1,1.45-1.1,1.122,1.122,0,0,1,.915.406.539.539,0,1,0,.762-.762,2.164,2.164,0,0,0-1.795-.715,3.545,3.545,0,0,0-2.239,1.588.539.539,0,0,0,.453.831" transform="translate(-17.109 -14.611)" fill="#272732"/>
        <path id="Path_66820" data-name="Path 66820" d="M35.859,50.936s1.155,3.759-3.319,3.712a5.2,5.2,0,0,0,3.319-3.712" transform="translate(-9.631 -15.076)" fill="#ff8b6f"/>
        <path id="Path_66821" data-name="Path 66821" d="M49.161,50.936S48.006,54.7,52.48,54.648a5.2,5.2,0,0,1-3.319-3.712" transform="translate(-14.511 -15.076)" fill="#ff8b6f"/>
        <path id="Path_66822" data-name="Path 66822" d="M25.342,92.358c-.653,10.817-2.13,31.3-2.69,39.015-.139,1.912-.222,3.039-.222,3.039a13.527,13.527,0,0,1-11.408-9.742,21.3,21.3,0,0,0,.558-2.28c1.477-7.482,1.833-22.084,1.833-22.084s-.8.423-3.434,8.024C7.453,115.607,7.6,129.555,7.8,135.62c.059,1.826.126,2.936.126,2.936-1.6,2.7-4.942,1.521-4.942,1.521q-.331-1.394-.622-2.737h0C-2.289,115.815.895,103.858,3.652,95.169c4.7-14.816,20.067-14.254,20.067-14.254a39.83,39.83,0,0,0,1.623,11.442" transform="translate(0 -23.949)" fill="#46291e"/>
        <path id="Path_66823" data-name="Path 66823" d="M66,140.192s-3.719.774-5.318-1.923c0,0,1.3-20.47-1.988-29.937-2.638-7.6-2.486-6.4-2.486-6.4s.669,13.236,2.2,20.457c.182.855.376,1.626.582,2.28a13.527,13.527,0,0,1-11.409,9.742s-.087-1.172-.23-3.153c-.567-7.8-2.032-28.138-2.682-38.9a39.808,39.808,0,0,0,1.623-11.442S61.66,80.353,66.36,95.169c2.871,9.051,5.179,21.765-.363,45.022" transform="translate(-13.221 -23.949)" fill="#46291e"/>
        <path id="Path_66824" data-name="Path 66824" d="M8.925,161.555c-1.6,2.7-4.942,1.52-4.942,1.52q-.331-1.393-.622-2.737v0s3.561.694,5.436-1.717h0c.06,1.826.127,2.936.127,2.936" transform="translate(-0.995 -46.948)" fill="#633e32"/>
        <path id="Path_66825" data-name="Path 66825" d="M67.4,161.153c1.6,2.7,5.318,1.923,5.318,1.923.22-.929.439-1.958.632-2.853h0s-3.561.694-5.436-1.718l-.379-.272c-.059,1.826-.136,2.921-.136,2.921" transform="translate(-19.947 -46.833)" fill="#633e32"/>
        <path id="Path_66826" data-name="Path 66826" d="M27.285,148.812c-.139,1.912-.222,3.039-.222,3.039a13.527,13.527,0,0,1-11.408-9.742,21.421,21.421,0,0,0,.558-2.28s4.024,6.961,11.072,8.983" transform="translate(-4.633 -41.387)" fill="#633e32"/>
        <path id="Path_66827" data-name="Path 66827" d="M60.118,142.109A13.527,13.527,0,0,1,48.71,151.85s-.087-1.171-.23-3.153a17.785,17.785,0,0,0,11.056-8.869c.182.855.376,1.626.582,2.28" transform="translate(-14.349 -41.387)" fill="#633e32"/>
        <path id="Path_66828" data-name="Path 66828" d="M32.112,76.712h0a6.536,6.536,0,0,0-3.5,7.712,10.234,10.234,0,0,0,5.121,6.691,73.364,73.364,0,0,1-1.623-14.4" transform="translate(-8.392 -22.705)" fill="#633e32"/>
        <path id="Path_66829" data-name="Path 66829" d="M49.809,84.708a10.235,10.235,0,0,1-5.121,6.69,76.084,76.084,0,0,0,1.627-13.364s.565-.163,1.11-.365a6.516,6.516,0,0,1,2.385,7.04" transform="translate(-13.227 -22.988)" fill="#633e32"/>
        <path id="Path_66830" data-name="Path 66830" d="M35.892,51.378a2.018,2.018,0,0,0-4.033,0Z" transform="translate(-9.429 -14.637)" fill="#3f190a"/>
        <path id="Path_66831" data-name="Path 66831" d="M53.059,51.378a2.018,2.018,0,0,0-4.033,0Z" transform="translate(-14.51 -14.637)" fill="#3f190a"/>
        <path id="Path_66836" data-name="Path 66836" d="M48.48,108.24s4.322-.36,5.945-1.9c0,0,.819,1.913.5,2.763,0,0-4.338,1.89-6.191,1.8a11.7,11.7,0,0,0-.256-2.666" transform="translate(-14.349 -31.476)" fill="#633e32"/>
        <path id="Path_66837" data-name="Path 66837" d="M29.761,32.793s-.014.378-.1,1.01c-.314,2.379-1.61,8.345-6.844,11.264,0,0-4.851-3.141-.768-10.165.06-.1.119-.2.179-.3,3.184-5.076,7.531-1.813,7.531-1.813" transform="translate(-6.043 -9.4)" fill="#8e8e8e"/>
        <path id="Path_66838" data-name="Path 66838" d="M47.434,28.171s-.633,3.847-7.808,4.239-11.273-3.141-11.273-3.141a8.916,8.916,0,0,1,1.783-2.56h0a11.41,11.41,0,0,1,8.1-3.362c5.136-.177,7.527,2.079,8.54,3.567a5.349,5.349,0,0,1,.656,1.258" transform="translate(-8.392 -6.907)" fill="#8e8e8e"/>
        <path id="Path_66839" data-name="Path 66839" d="M58.739,43.841a33.966,33.966,0,0,1-5.624-11.371l0,0V30.66a9.039,9.039,0,0,1,4.924,2.382c3.852,3.946.7,10.8.7,10.8" transform="translate(-15.72 -9.075)" fill="#8e8e8e"/>
        <path id="Path_66840" data-name="Path 66840" d="M47.434,29.588s-.633,3.847-7.808,4.239-11.273-3.141-11.273-3.141a8.916,8.916,0,0,1,1.783-2.56h0s.665,4.044,8.529,3.818,8.111-3.614,8.111-3.614a5.348,5.348,0,0,1,.656,1.258" transform="translate(-8.392 -8.325)" fill="#6d6d6d"/>
        <path id="Path_66841" data-name="Path 66841" d="M29.663,34.663c-.315,2.379-1.611,8.344-6.844,11.264,0,0-4.852-3.142-.768-10.165.059-.1.119-.2.179-.3a1.834,1.834,0,0,0,1.214,1.359c2.5,1.081,6.123-2.077,6.219-2.162" transform="translate(-6.043 -10.26)" fill="#6d6d6d"/>
        <path id="Path_66842" data-name="Path 66842" d="M58.741,44.6a33.966,33.966,0,0,1-5.624-11.371c.058.108,1.576,2.882,3.581,2.527,1.049-.187,1.369-1.026,1.34-1.956,3.852,3.946.7,10.8.7,10.8" transform="translate(-15.721 -9.836)" fill="#6d6d6d"/>
        <path id="Path_66843" data-name="Path 66843" d="M34.326,25.341a37.226,37.226,0,0,0-9.986,9.4c-2.113.6-7.594-1.493-8-6.171a11.258,11.258,0,0,1,2.453-8.131c-1.616,3.013,1.217,5.837,6.766,2.856s8.485-2.245,8.485-2.245a7.45,7.45,0,0,1,.286,4.29" transform="translate(-4.823 -6.05)" fill="#6d6d6d"/>
        <path id="Path_66844" data-name="Path 66844" d="M297.36,224.2s3.245-.324,7.066-.976c.955-.165,1.945-.347,2.93-.552,0,0-1.835-42.636-.244-60.414q.094-1.05.2-1.978c.013-.111.027-.221.039-.327v-9.879H297.51l-.007.151c-.042.781-.235,4.509-.458,10-.651,16.062-1.558,47.226.315,63.972" transform="translate(-87.682 -44.419)" fill="#46291e"/>
        <path id="Path_66845" data-name="Path 66845" d="M329.18,224.2s3.338-.332,7.231-1.005q.7-.119,1.414-.255c.448-.084.9-.173,1.352-.268,0,0,0-.045-.006-.134-.115-2.753-1.941-47.047.006-62.585v-9.879H328.064s-.141,4.848-.258,12.234c-.268,16.549-.422,45.842,1.374,61.891" transform="translate(-96.976 -44.419)" fill="#46291e"/>
        <path id="Path_66846" data-name="Path 66846" d="M297.383,160.227a57.341,57.341,0,0,0,7.037,1.616q1.548.256,3.029.414c1.661.181,3.256.28,4.776.313h0a53.717,53.717,0,0,0,6.621-.263,47.813,47.813,0,0,0,8.465-1.614,25.828,25.828,0,0,0,2.905-1v-9.625H297.848l-.007.152Z" transform="translate(-88.019 -44.419)" fill="#46291e"/>
        <path id="Path_66847" data-name="Path 66847" d="M328.882,73.263a3.435,3.435,0,0,0-1.512-.347H301.156a3.434,3.434,0,0,0-1.511.347,2.538,2.538,0,0,0-.4.235h0a2.685,2.685,0,0,0-1.236,2.209c1.708,10.9,2.7,17.319,2.5,27.115a81.736,81.736,0,0,0-2.5,24.415c10.432,4.645,21.3,4.32,32.513,0V75.707a2.767,2.767,0,0,0-1.64-2.444" transform="translate(-88.18 -21.582)" fill="#00604e"/>
        <path id="Path_66848" data-name="Path 66848" d="M338.647,252.975l.541,4.133-6.6.669-.632-3.958Z" transform="translate(-98.253 -74.876)" fill="#fab188"/>
        <path id="Path_66849" data-name="Path 66849" d="M306.808,252.975l.541,4.133-6.6.669-.632-3.958Z" transform="translate(-88.829 -74.876)" fill="#fab188"/>
        <path id="Path_66850" data-name="Path 66850" d="M337.5,84.074c5.322,4.353,8.169,12.089,9.646,20.07a112.831,112.831,0,0,1,1.095,27.452l4.136.782s2.638-18.056,2.01-31.555a6.389,6.389,0,0,0-.033-.728c-3.539-23.564-13.757-26.625-13.757-26.625Z" transform="translate(-99.892 -21.746)" fill="#00604e"/>
        <path id="Path_66851" data-name="Path 66851" d="M352.293,143.1l4.136.782s2.639-18.056,2.01-31.555l-7.241,3.321a112.827,112.827,0,0,1,1.095,27.452" transform="translate(-103.947 -33.245)" fill="#fab188"/>
        <path id="Path_66852" data-name="Path 66852" d="M352.221,151.618l-1.709,3.108a50.738,50.738,0,0,0-4.394,5.684c-2.861,4.636,1.734,1.966,1.734,1.966s-2.915,5.34-1.839,6.033,3.364-2.7,3.919-4.855c0,0-.876,3.364-1.669,4.3s-1.105,1.716-.586,2.289,2.861-1.457,3.8-5.046a28.411,28.411,0,0,0-1.144,3.953c-.08.988,1.248,1.3,2.34-.728s2.393-7.216,1.977-12.815" transform="translate(-102.166 -44.876)" fill="#fab188"/>
        <path id="Path_66853" data-name="Path 66853" d="M283.347,153.812c-1.507,5.408-1.248,10.75-.575,12.953s2.037,2.159,2.152,1.174a28.381,28.381,0,0,0-.347-4.1c.215,3.7,2.111,6.151,2.734,5.692s.469-1.285-.125-2.358-.793-4.544-.793-4.544c.122,2.218,1.7,6,2.891,5.529s-.62-6.276-.62-6.276,3.982,3.519,2.086-1.588a50.776,50.776,0,0,0-3.194-6.435l-1.066-3.384Z" transform="translate(-83.536 -44.537)" fill="#fab188"/>
        <path id="Path_66854" data-name="Path 66854" d="M358.439,112.323l.1,2.913-6.929,2.849-.408-2.442Z" transform="translate(-103.947 -33.245)" fill="#ff8b6f"/>
        <path id="Path_66855" data-name="Path 66855" d="M297.4,84.16c-5.322,4.353-8.169,12.089-9.646,20.07a112.828,112.828,0,0,0-1.095,27.452l-4.136.782s-2.638-18.056-2.01-31.555a6.389,6.389,0,0,1,.033-.728C284.085,76.618,294.3,73.557,294.3,73.557Z" transform="translate(-82.997 -21.771)" fill="#00604e"/>
        <path id="Path_66856" data-name="Path 66856" d="M286.659,143.182l-4.136.782s-2.639-18.056-2.01-31.555l7.241,3.321a112.789,112.789,0,0,0-1.095,27.452" transform="translate(-82.997 -33.271)" fill="#fab188"/>
        <path id="Path_66857" data-name="Path 66857" d="M280.513,112.409l-.1,2.913,6.929,2.849.408-2.442Z" transform="translate(-82.997 -33.271)" fill="#ff8b6f"/>
        <path id="Path_66858" data-name="Path 66858" d="M326.283,72.916s-2.2,6.043-10.727,6.5-11.017-6.5-11.017-6.5Z" transform="translate(-90.137 -21.582)" fill="#085345"/>
        <path id="Path_66859" data-name="Path 66859" d="M334.817,44.561h1.029a4.64,4.64,0,0,0,0-9.28h-1.029a4.64,4.64,0,0,0,0,9.28" transform="translate(-97.725 -10.443)" fill="#ff8b6f"/>
        <path id="Path_66860" data-name="Path 66860" d="M335.893,43.338h.561a2.531,2.531,0,1,0,0-5.061h-.561a2.531,2.531,0,1,0,0,5.061" transform="translate(-98.668 -11.329)" fill="#ff6464"/>
        <path id="Path_66861" data-name="Path 66861" d="M297.118,44.561h1.029a4.64,4.64,0,1,0,0-9.28h-1.029a4.64,4.64,0,0,0,0,9.28" transform="translate(-86.567 -10.443)" fill="#ff8b6f"/>
        <path id="Path_66862" data-name="Path 66862" d="M298.195,43.338h.561a2.531,2.531,0,1,0,0-5.061h-.561a2.531,2.531,0,1,0,0,5.061" transform="translate(-87.51 -11.329)" fill="#ff6464"/>
        <path id="Path_66863" data-name="Path 66863" d="M312.756,71.1a9.115,9.115,0,0,0,10.029,0V62.942h-10.03Z" transform="translate(-92.569 -18.63)" fill="#ff8b6f"/>
        <path id="Path_66864" data-name="Path 66864" d="M298.117,27.63V36.3a14.364,14.364,0,0,0,1.184,5.727l.011.022a14.117,14.117,0,0,0,10.872,8.383h0l.037,0h0c.116.02.233.037.351.049h0c.295.033.594.058.893.073.217.011.434.015.654.015A14.171,14.171,0,0,0,326.12,36.948h0c.008-.213.014-.429.014-.646V27.63a14.345,14.345,0,0,0-3.035-8.838v0l-.038-.047c-.213-.272-.437-.539-.672-.795-.184-.2-.376-.4-.571-.595h0a13.854,13.854,0,0,0-19.584.2,14.11,14.11,0,0,0-1.659,2.037q-.293.428-.55.878a14.362,14.362,0,0,0-1.905,7.164" transform="translate(-88.236 -3.954)" fill="#fab188"/>
        <path id="Path_66865" data-name="Path 66865" d="M315.777,65.979h0q.226.037.458.063c-.412-.092-.549-.1-.461-.063" transform="translate(-93.456 -19.522)" fill="#fab188"/>
        <path id="Path_66866" data-name="Path 66866" d="M294.871,25.494a7.761,7.761,0,0,0,2.23,5.215c4.993-10.767,2.739-12.233,2.739-12.233a5.574,5.574,0,0,0-2.385.973,6.064,6.064,0,0,0-2.441,4.044,8.854,8.854,0,0,0-.144,2" transform="translate(-87.273 -5.469)" fill="#6d6d6d"/>
        <path id="Path_66867" data-name="Path 66867" d="M322.786,64.02v3.086a13.582,13.582,0,0,1-10.03.3V65.056s6.992.036,10.03-1.036" transform="translate(-92.569 -18.949)" fill="#ff6e5e"/>
        <path id="Path_66868" data-name="Path 66868" d="M306.657,48.976c.037.111.082.235.131.368a14.086,14.086,0,0,0,2.185,3.943,8.136,8.136,0,0,0,1.6,1.528c.158.115.321.215.491.318a.022.022,0,0,0,.014.007,5.384,5.384,0,0,0,1.556.6,5.2,5.2,0,0,0,5.513-2.169,10.7,10.7,0,0,0,1.289-2.252l.022-.054c.115-.277.217-.553.306-.81s.167-.5.234-.72c.079-.262.142-.495.19-.683v-.009a.388.388,0,0,0-.432-.473,48.568,48.568,0,0,1-6.8.544,34.654,34.654,0,0,1-5.854-.646.389.389,0,0,0-.446.505" transform="translate(-90.758 -14.344)" fill="#f1aa82"/>
        <path id="Path_66872" data-name="Path 66872" d="M299.814,51.968a14.114,14.114,0,0,0,10.872,8.382h0l.036.006h0c.115.02.233.036.351.049h0c.295.032.593.058.893.073.217.011.434.014.654.014a14.17,14.17,0,0,0,13.993-13.624c-.3.689-4.154,10.75-12.681,12.15-8.983,1.474-13.884-6.578-14.126-7.049" transform="translate(-88.738 -13.872)" fill="#ff8b6f"/>
        <path id="Path_66873" data-name="Path 66873" d="M294.871,25.9c.866-.058,1.847-.741,2.733-2.14a3.622,3.622,0,0,0-.146-3.9h0a6.064,6.064,0,0,0-2.441,4.044,8.854,8.854,0,0,0-.144,2" transform="translate(-87.273 -5.878)" fill="#8e8e8e"/>
        <path id="Path_66874" data-name="Path 66874" d="M317.632,42.79h-6.08s2.7-4.474,6.08,0" transform="translate(-92.213 -12.076)" fill="#ff6c6e"/>
        <path id="Path_66875" data-name="Path 66875" d="M329.7,29.165a3.931,3.931,0,0,1-1.333,1.983.757.757,0,0,1-.991-.142,3.849,3.849,0,0,0-3.593-1.227.548.548,0,0,1-.454-.144c-.35-.339-.893-1.193-.049-2.856,0,0,4.335.986,6.421,2.387" transform="translate(-95.552 -7.926)" fill="#ff8b6f"/>
        <path id="Path_66876" data-name="Path 66876" d="M323.058,28a1.518,1.518,0,0,0,.508,1.136,4.726,4.726,0,0,1,2.307.077,3.7,3.7,0,0,1,2.211,1.3c.965-.181,1.685-1.47,1.685-1.47-1.838-3.917-6.421-2.388-6.421-2.388A2.942,2.942,0,0,0,323.058,28" transform="translate(-95.617 -7.802)" fill="#8e8e8e"/>
        <path id="Path_66877" data-name="Path 66877" d="M323.059,28.685a1.518,1.518,0,0,0,.508,1.136,4.726,4.726,0,0,1,2.307.077,3.7,3.7,0,0,1,2.211,1.3c.965-.181,1.685-1.47,1.685-1.47s-.9.707-1.529.225a5.678,5.678,0,0,0-3.946-1.2,1.975,1.975,0,0,1-1.235-.065" transform="translate(-95.619 -8.49)" fill="#6d6d6d"/>
        <path id="Path_66878" data-name="Path 66878" d="M302.014,29.165a3.821,3.821,0,0,0,1.449,2.055.658.658,0,0,0,.834-.165,3.888,3.888,0,0,1,3.858-1.243s1.433-.765.28-3.034c0,0-4.335.986-6.42,2.387" transform="translate(-89.39 -7.926)" fill="#ff8b6f"/>
        <path id="Path_66879" data-name="Path 66879" d="M308.724,28a1.519,1.519,0,0,1-.508,1.136,4.726,4.726,0,0,0-2.307.077,3.7,3.7,0,0,0-2.211,1.3c-.965-.181-1.685-1.47-1.685-1.47,1.838-3.917,6.421-2.388,6.421-2.388A2.943,2.943,0,0,1,308.724,28" transform="translate(-89.39 -7.802)" fill="#8e8e8e"/>
        <path id="Path_66880" data-name="Path 66880" d="M308.724,28.685a1.519,1.519,0,0,1-.508,1.136,4.726,4.726,0,0,0-2.307.077,3.7,3.7,0,0,0-2.211,1.3c-.965-.181-1.685-1.47-1.685-1.47s.9.707,1.529.225a5.677,5.677,0,0,1,3.946-1.2,1.975,1.975,0,0,0,1.235-.065" transform="translate(-89.39 -8.49)" fill="#6d6d6d"/>
        <path id="Path_66881" data-name="Path 66881" d="M309.2,262.773l-2.1-7.759-6.628.966.143,1.124Z" transform="translate(-88.933 -75.479)" fill="#351611"/>
        <path id="Path_66882" data-name="Path 66882" d="M338.779,255.014h.353l.332,3.367-7.406,1.051-.29-3.253Z" transform="translate(-98.196 -75.479)" fill="#351611"/>
        <path id="Path_66883" data-name="Path 66883" d="M301.106,259.445s-3.084-2.839-10.072-2.244-10.557,7.732-10.557,7.732h22.9s.18-4.13-2.268-5.487" transform="translate(-83.015 -76.102)" fill="#46291e"/>
        <path id="Path_66884" data-name="Path 66884" d="M342.09,263a10.851,10.851,0,0,0-3.122-4.352,7.27,7.27,0,0,0-5.51-1.832c-5.053.579-7.019,7.731-7.019,7.731h16.269Z" transform="translate(-96.619 -75.999)" fill="#46291e"/>
        <path id="Path_66885" data-name="Path 66885" d="M342.553,267.814h0c.349,0,.61.412.538.85l-.2,1.207H326.1l-.179-1.361c-.048-.364.171-.7.459-.7Z" transform="translate(-96.464 -79.267)" fill="#351611"/>
        <path id="Path_66886" data-name="Path 66886" d="M279.365,270.059H303.53A2.058,2.058,0,0,0,301.473,268H281.421a2.057,2.057,0,0,0-2.056,2.057" transform="translate(-82.686 -79.323)" fill="#351611"/>
        <path id="Path_66887" data-name="Path 66887" d="M324.179,54.447v0a16.619,16.619,0,0,1-5.3,6.621c-5.275,3.8-10.663,3.41-15.094-.987a19.291,19.291,0,0,1-5.851-15.331v0c.051-.546.11-.852.11-.852s3.113,10.544,12.5,11.75,15.519-12.021,15.519-12.021a22.043,22.043,0,0,1-1.884,10.821" transform="translate(-88.164 -12.912)" fill="#8e8e8e"/>
        <path id="Path_66888" data-name="Path 66888" d="M311.867,45.267s-4.261-2.568-7.39-.964-1.319,8.452-1.152,8.414,3,1.347,3,1.347-3.134-8.393-.3-8.113,6.026,1.485,5.845-.684" transform="translate(-89.579 -12.957)" fill="#8e8e8e"/>
        <path id="Path_66889" data-name="Path 66889" d="M318.473,45.267s4.261-2.568,7.39-.964,1.319,8.452,1.152,8.414-3,1.347-3,1.347,3.134-8.393.3-8.113-6.026,1.485-5.845-.684" transform="translate(-94.259 -12.957)" fill="#8e8e8e"/>
        <path id="Path_66892" data-name="Path 66892" d="M309.6,36.288s.264,3.27-3.35,2.953c0,0,3.271-1.66,2.923-3.384Z" transform="translate(-90.644 -10.613)" fill="#ff8b6f"/>
        <path id="Path_66893" data-name="Path 66893" d="M323.063,36.4s-.265,3.27,3.35,2.953c0,0-3.272-1.66-2.924-3.384Z" transform="translate(-95.618 -10.645)" fill="#ff8b6f"/>
        <path id="Path_66894" data-name="Path 66894" d="M305.039,36.064a2.1,2.1,0,0,1,4.2,0Z" transform="translate(-90.285 -10.08)" fill="#3f190a"/>
        <path id="Path_66895" data-name="Path 66895" d="M322.94,36.064a2.1,2.1,0,0,1,4.2,0Z" transform="translate(-95.583 -10.08)" fill="#3f190a"/>
        <path id="Path_66896" data-name="Path 66896" d="M324.179,54.922a16.614,16.614,0,0,1-5.3,6.621c-5.275,3.8-10.663,3.41-15.094-.987a19.291,19.291,0,0,1-5.851-15.331c.045.273,2.267,13.543,10.943,15.823s15.169-5.958,15.3-6.126" transform="translate(-88.164 -13.386)" fill="#6d6d6d"/>
        <path id="Path_66897" data-name="Path 66897" d="M302.483,21.493a59.6,59.6,0,0,0,8.348-1.486c3.525-.994,7.5.452,9.716,1.175s4.121.39,4.3-.483c0,0-1.317-.828-5.857-1.867s-5.942-1.4-9.2-.859-7.025-.191-7.308,3.52" transform="translate(-89.528 -5.246)" fill="#ff8b6f"/>
        <path id="Path_66898" data-name="Path 66898" d="M332.59,19.959c.032,2.92.513,10.581,4.616,11.409,0,0,3.07-4.961,1.628-9.415a4.954,4.954,0,0,0-1.179-2.012h0c-1.966-1.966-5.057-1.106-5.057-1.106s-.017.427-.006,1.124" transform="translate(-98.438 -5.519)" fill="#8e8e8e"/>
        <path id="Path_66899" data-name="Path 66899" d="M332.591,20.5c.032,2.92.513,10.581,4.616,11.409,0,0,3.07-4.961,1.628-9.415a4.953,4.953,0,0,0-1.179-2.012h0s1.873,2.965-1.019,4.431c-2.8,1.421-3.971-4.057-4.044-4.413" transform="translate(-98.44 -6.063)" fill="#6d6d6d"/>
        <path id="Path_66900" data-name="Path 66900" d="M323.628,17.716c-3.313.9-7.27-3.824-15.736-1.64-6.341,1.636-8.7,1.809-8.626.441,0,0-.251-4.143,2.727-6.316l.015-.011a6.486,6.486,0,0,1,2.4-1.061c5.514-1.266,11.479-1.9,17.534.766a8.022,8.022,0,0,1,3.88,3.035v0c1.212,2.108.008,4.181-2.193,4.782" transform="translate(-88.575 -2.379)" fill="#8e8e8e"/>
        <path id="Path_66901" data-name="Path 66901" d="M323.628,18.626c-3.313.9-7.27-3.824-15.736-1.64-6.341,1.636-8.7,1.809-8.626.441,0,0-.251-4.143,2.727-6.316-.217.172-2.914,2.374.515,3.719,3.57,1.4,6.01-3.869,13.467-.986s10.38,3.851,9.845,0c1.212,2.108.008,4.181-2.193,4.782" transform="translate(-88.575 -3.289)" fill="#6d6d6d"/>
        <path id="Path_66902" data-name="Path 66902" d="M305.688,39.249a4.573,4.573,0,1,1,4.573-4.573,4.578,4.578,0,0,1-4.573,4.573m0-7.88a3.307,3.307,0,1,0,3.307,3.307,3.311,3.311,0,0,0-3.307-3.307" transform="translate(-89.124 -8.91)" fill="#272732"/>
        <path id="Path_66903" data-name="Path 66903" d="M324.464,39.249a4.573,4.573,0,1,1,4.573-4.573,4.578,4.578,0,0,1-4.573,4.573m0-7.88a3.307,3.307,0,1,0,3.307,3.307,3.311,3.311,0,0,0-3.307-3.307" transform="translate(-94.681 -8.91)" fill="#272732"/>
        <path id="Path_66904" data-name="Path 66904" d="M318.1,35.572a2.929,2.929,0,0,0-4.614-.113l-.964-.819a4.182,4.182,0,0,1,6.473.037Z" transform="translate(-92.5 -9.805)" fill="#272732"/>
        <path id="Path_66905" data-name="Path 66905" d="M331.717,35.521a.633.633,0,0,1-.464-1.062c.082-.089,2.047-2.168,4.324-2.13a3.823,3.823,0,0,1,2.886,1.464.633.633,0,1,1-.96.824,2.581,2.581,0,0,0-1.946-1.024c-1.722-.033-3.36,1.708-3.376,1.726a.634.634,0,0,1-.464.2" transform="translate(-97.994 -9.569)" fill="#272732"/>
        <path id="Path_66906" data-name="Path 66906" d="M300.178,36a.632.632,0,0,1-.532-.289,2.954,2.954,0,0,0-1.7-1.291,1.317,1.317,0,0,0-1.074.477.633.633,0,0,1-.895-.895,2.537,2.537,0,0,1,2.106-.84,4.159,4.159,0,0,1,2.627,1.863.632.632,0,0,1-.531.976" transform="translate(-87.547 -9.811)" fill="#272732"/>
        <path id="Path_66907" data-name="Path 66907" d="M94.24,252.975l-.541,4.133,6.6.669.632-3.958Z" transform="translate(-27.732 -74.876)" fill="#fab188"/>
        <path id="Path_66908" data-name="Path 66908" d="M126.078,252.975l-.541,4.133,6.6.669.632-3.958Z" transform="translate(-37.156 -74.876)" fill="#fab188"/>
        <path id="Path_66909" data-name="Path 66909" d="M133.894,224.2s-3.245-.324-7.066-.976c-.955-.165-1.945-.347-2.93-.552,0,0,1.835-42.636.244-60.414q-.094-1.05-.2-1.978c-.013-.111-.027-.221-.039-.327v-9.879h9.846l.007.151c.042.781.235,4.509.458,10,.651,16.062,1.558,47.226-.315,63.972" transform="translate(-36.671 -44.419)" fill="#00435d"/>
        <path id="Path_66910" data-name="Path 66910" d="M101.9,224.2s-3.338-.332-7.231-1.005q-.7-.119-1.414-.255c-.448-.084-.9-.173-1.352-.268,0,0,0-.045.006-.134.115-2.753,1.941-47.047-.006-62.585v-9.879h11.112s.142,4.848.258,12.234c.268,16.549.422,45.842-1.374,61.891" transform="translate(-27.201 -44.419)" fill="#00435d"/>
        <path id="Path_66911" data-name="Path 66911" d="M124.738,160.227a57.336,57.336,0,0,1-7.037,1.616q-1.548.256-3.029.414c-1.661.181-3.256.28-4.776.313h0a53.717,53.717,0,0,1-6.621-.263,47.814,47.814,0,0,1-8.465-1.614,25.843,25.843,0,0,1-2.9-1v-9.625h32.372l.007.152Z" transform="translate(-27.201 -44.419)" fill="#00435d"/>
        <path id="Path_66912" data-name="Path 66912" d="M124.214,75.707v51.53c-10.432,4.644-21.3,4.319-32.513,0V75.707a2.767,2.767,0,0,1,1.64-2.444,3.425,3.425,0,0,1,1.512-.347h26.215a3.424,3.424,0,0,1,1.511.347,2.538,2.538,0,0,1,.4.234h0a2.685,2.685,0,0,1,1.236,2.209" transform="translate(-27.141 -21.582)" fill="#eeeef4"/>
        <path id="Path_66913" data-name="Path 66913" d="M91.288,84.074c-5.322,4.353-8.169,12.089-9.646,20.07A112.829,112.829,0,0,0,80.547,131.6l-4.136.782s-2.638-18.056-2.01-31.555a6.385,6.385,0,0,1,.033-.728c3.539-23.564,13.757-26.625,13.757-26.625Z" transform="translate(-21.992 -21.746)" fill="#eeeef4"/>
        <path id="Path_66914" data-name="Path 66914" d="M80.548,143.1l-4.136.782s-2.639-18.056-2.01-31.555l7.241,3.321A112.829,112.829,0,0,0,80.548,143.1" transform="translate(-21.993 -33.245)" fill="#fab188"/>
        <path id="Path_66915" data-name="Path 66915" d="M79.691,151.618l1.709,3.108a50.736,50.736,0,0,1,4.395,5.684c2.861,4.636-1.734,1.966-1.734,1.966s2.915,5.34,1.839,6.033-3.365-2.7-3.919-4.855c0,0,.876,3.364,1.669,4.3s1.105,1.716.586,2.289-2.861-1.457-3.8-5.046a28.406,28.406,0,0,1,1.144,3.953c.08.988-1.248,1.3-2.34-.728s-2.393-7.216-1.977-12.815" transform="translate(-22.845 -44.876)" fill="#fab188"/>
        <path id="Path_66916" data-name="Path 66916" d="M148.785,153.812c1.507,5.408,1.249,10.75.575,12.953s-2.037,2.159-2.152,1.174a28.376,28.376,0,0,1,.347-4.1c-.215,3.7-2.112,6.151-2.734,5.692s-.47-1.285.125-2.358.793-4.544.793-4.544c-.122,2.218-1.7,6-2.891,5.529s.62-6.276.62-6.276-3.982,3.519-2.086-1.588a50.773,50.773,0,0,1,3.194-6.435l1.066-3.384Z" transform="translate(-41.694 -44.537)" fill="#fab188"/>
        <path id="Path_66917" data-name="Path 66917" d="M74.4,112.323l-.1,2.913,6.929,2.849.408-2.442Z" transform="translate(-21.993 -33.245)" fill="#ff8b6f"/>
        <path id="Path_66918" data-name="Path 66918" d="M131.387,84.16c5.322,4.353,8.169,12.089,9.646,20.07a112.829,112.829,0,0,1,1.095,27.452l4.136.782s2.638-18.056,2.01-31.555a6.382,6.382,0,0,0-.033-.728c-3.539-23.564-13.757-26.625-13.757-26.625Z" transform="translate(-38.888 -21.771)" fill="#eeeef4"/>
        <path id="Path_66919" data-name="Path 66919" d="M146.182,143.182l4.136.782s2.638-18.056,2.009-31.555l-7.241,3.321a112.849,112.849,0,0,1,1.1,27.452" transform="translate(-42.943 -33.271)" fill="#fab188"/>
        <path id="Path_66920" data-name="Path 66920" d="M152.328,112.409l.1,2.913-6.93,2.849-.408-2.442Z" transform="translate(-42.943 -33.271)" fill="#ff8b6f"/>
        <path id="Path_66921" data-name="Path 66921" d="M100.5,72.916s2.2,6.043,10.727,6.5,11.017-6.5,11.017-6.5Z" transform="translate(-29.746 -21.582)" fill="#ccc"/>
        <path id="Path_66922" data-name="Path 66922" d="M96.776,44.561H95.747a4.64,4.64,0,0,1,0-9.28h1.029a4.64,4.64,0,0,1,0,9.28" transform="translate(-26.966 -10.443)" fill="#ff8b6f"/>
        <path id="Path_66923" data-name="Path 66923" d="M97.669,43.338h-.561a2.531,2.531,0,1,1,0-5.061h.561a2.531,2.531,0,1,1,0,5.061" transform="translate(-27.993 -11.329)" fill="#ff6464"/>
        <path id="Path_66924" data-name="Path 66924" d="M134.475,44.561h-1.029a4.64,4.64,0,0,1,0-9.28h1.029a4.64,4.64,0,0,1,0,9.28" transform="translate(-38.124 -10.443)" fill="#ff8b6f"/>
        <path id="Path_66925" data-name="Path 66925" d="M135.367,43.338h-.561a2.531,2.531,0,1,1,0-5.061h.561a2.531,2.531,0,1,1,0,5.061" transform="translate(-39.15 -11.329)" fill="#ff6464"/>
        <path id="Path_66926" data-name="Path 66926" d="M118.953,71.1a9.116,9.116,0,0,1-10.029,0V62.942h10.029Z" transform="translate(-32.239 -18.63)" fill="#ff8b6f"/>
        <path id="Path_66927" data-name="Path 66927" d="M126.03,27.63V36.3a14.365,14.365,0,0,1-1.184,5.727l-.011.022a14.116,14.116,0,0,1-10.871,8.383h0l-.037,0h0c-.116.02-.233.037-.351.049h0c-.294.033-.593.058-.893.073-.217.011-.434.015-.654.015A14.171,14.171,0,0,1,98.027,36.948h0c-.008-.213-.014-.429-.014-.646V27.63a14.345,14.345,0,0,1,3.035-8.838v0l.038-.047c.213-.272.437-.539.672-.795.184-.2.376-.4.571-.595h0a13.854,13.854,0,0,1,19.584.2,14.112,14.112,0,0,1,1.659,2.037q.292.428.55.878a14.37,14.37,0,0,1,1.905,7.164" transform="translate(-29.01 -3.954)" fill="#fab188"/>
        <path id="Path_66928" data-name="Path 66928" d="M119.944,65.979h0c-.15.025-.3.046-.458.063.412-.092.549-.1.462-.063" transform="translate(-35.364 -19.522)" fill="#fab188"/>
        <path id="Path_66929" data-name="Path 66929" d="M124.867,20.877a18.924,18.924,0,0,1-4.2.1c-2.4-.063-4.485,2.618-6.827,2.076s-2.709-2.555-6.3-1.966-4.684,0-4.684,0a2.272,2.272,0,0,1-.486-1.057q.32-.41.672-.8c.184-.2.376-.4.571-.595h0a5.772,5.772,0,0,0,2.585-.084c3.158-.68,4.248-1.356,6.755-.188s2.735.414,5.22-.31a9.448,9.448,0,0,1,3.9-.249,13.786,13.786,0,0,1,1.126,1.029,14.111,14.111,0,0,1,1.659,2.037" transform="translate(-30.302 -5.243)" fill="#272732"/>
        <path id="Path_66930" data-name="Path 66930" d="M100.549,19.959c-.032,2.92-.513,10.581-4.617,11.409,0,0-3.07-4.961-1.627-9.415a4.953,4.953,0,0,1,1.179-2.012h0c1.965-1.966,5.056-1.106,5.056-1.106s.018.427.007,1.124" transform="translate(-27.798 -5.519)" fill="#22222b"/>
        <path id="Path_66931" data-name="Path 66931" d="M138.749,25.494a7.76,7.76,0,0,1-2.231,5.215c-4.992-10.767-2.739-12.233-2.739-12.233a5.574,5.574,0,0,1,2.385.973,6.064,6.064,0,0,1,2.441,4.044,8.857,8.857,0,0,1,.144,2" transform="translate(-39.446 -5.469)" fill="#272732"/>
        <path id="Path_66932" data-name="Path 66932" d="M108.925,64.02v3.086a13.582,13.582,0,0,0,10.029.3V65.056s-6.992.036-10.029-1.036" transform="translate(-32.239 -18.949)" fill="#ff6e5e"/>
        <path id="Path_66933" data-name="Path 66933" d="M123.568,48.976c-.037.111-.082.235-.131.368a14.089,14.089,0,0,1-2.185,3.943,8.138,8.138,0,0,1-1.6,1.528c-.158.115-.321.215-.491.318a.022.022,0,0,1-.014.007,5.379,5.379,0,0,1-1.557.6,5.2,5.2,0,0,1-5.512-2.169,10.694,10.694,0,0,1-1.289-2.252l-.022-.054c-.115-.277-.217-.553-.307-.81s-.166-.5-.233-.72c-.079-.262-.142-.495-.19-.683v-.009a.388.388,0,0,1,.432-.473,48.568,48.568,0,0,0,6.8.544,34.655,34.655,0,0,0,5.854-.646.389.389,0,0,1,.446.505" transform="translate(-32.566 -14.344)" fill="#f1aa82"/>
        <path id="Path_66937" data-name="Path 66937" d="M127.925,11.154a5.191,5.191,0,0,1-5.935,4.87c-5.663-.755-5.054.588-7.487,1.221s-2.627-2.215-5.765-2.034-5.27,1.64-9.31.007c0,0-.612-6.5,4.444-8.838a8.947,8.947,0,0,1,2.8-.75c8.06-.9,12.068-.881,17.32.75,3.114.967,4.04,3.062,3.937,4.774" transform="translate(-29.422 -1.489)" fill="#272732"/>
        <path id="Path_66938" data-name="Path 66938" d="M124.841,51.968A14.114,14.114,0,0,1,113.97,60.35h0l-.036.006h0c-.115.02-.233.036-.351.049h0c-.295.032-.593.058-.893.073-.217.011-.434.014-.654.014A14.171,14.171,0,0,1,98.033,46.867c.3.689,4.155,10.75,12.682,12.15,8.983,1.474,13.884-6.578,14.126-7.049" transform="translate(-29.016 -13.872)" fill="#ff8b6f"/>
        <path id="Path_66939" data-name="Path 66939" d="M127.925,11.721a5.191,5.191,0,0,1-5.935,4.87c-5.663-.755-5.054.588-7.487,1.221s-2.627-2.215-5.765-2.034-5.27,1.64-9.31.007c0,0-.612-6.5,4.444-8.838,0,0-4.116,3.258-1.1,5.727s5.86-.963,9.076,1.146,4.181,1.2,7.254.3,8.254,1.108,8.827-2.4" transform="translate(-29.422 -2.056)" fill="#22222b"/>
        <path id="Path_66940" data-name="Path 66940" d="M100.549,20.5c-.032,2.92-.513,10.581-4.617,11.409,0,0-3.07-4.961-1.627-9.415a4.953,4.953,0,0,1,1.179-2.012h0s-1.873,2.965,1.019,4.431c2.8,1.421,3.971-4.057,4.044-4.413" transform="translate(-27.798 -6.063)" fill="#272732"/>
        <path id="Path_66941" data-name="Path 66941" d="M139.683,25.9c-.866-.058-1.847-.741-2.733-2.14a3.622,3.622,0,0,1,.146-3.9h0a6.064,6.064,0,0,1,2.441,4.044,8.857,8.857,0,0,1,.144,2" transform="translate(-40.379 -5.878)" fill="#22222b"/>
        <path id="Path_66942" data-name="Path 66942" d="M111.219,36.064a2.1,2.1,0,0,0-4.2,0Z" transform="translate(-31.674 -10.08)" fill="#3f190a"/>
        <path id="Path_66943" data-name="Path 66943" d="M129.119,36.064a2.1,2.1,0,0,0-4.2,0Z" transform="translate(-36.972 -10.08)" fill="#3f190a"/>
        <path id="Path_66944" data-name="Path 66944" d="M115.738,42.79h6.08s-2.7-4.474-6.08,0" transform="translate(-34.256 -12.076)" fill="#ff6c6e"/>
        <path id="Path_66945" data-name="Path 66945" d="M103.336,29.165a3.931,3.931,0,0,0,1.333,1.983.757.757,0,0,0,.991-.142,3.848,3.848,0,0,1,3.593-1.227.547.547,0,0,0,.453-.144c.351-.339.893-1.193.049-2.856,0,0-4.335.986-6.42,2.387" transform="translate(-30.585 -7.926)" fill="#ff8b6f"/>
        <path id="Path_66946" data-name="Path 66946" d="M110.046,28a1.519,1.519,0,0,1-.508,1.136,4.726,4.726,0,0,0-2.307.077,3.7,3.7,0,0,0-2.211,1.3c-.965-.181-1.685-1.47-1.685-1.47,1.838-3.917,6.421-2.388,6.421-2.388A2.943,2.943,0,0,1,110.046,28" transform="translate(-30.585 -7.802)" fill="#673015"/>
        <path id="Path_66947" data-name="Path 66947" d="M110.046,28.685a1.519,1.519,0,0,1-.508,1.136,4.726,4.726,0,0,0-2.307.077,3.7,3.7,0,0,0-2.211,1.3c-.965-.181-1.685-1.47-1.685-1.47s.9.707,1.529.225a5.678,5.678,0,0,1,3.946-1.2,1.974,1.974,0,0,0,1.235-.065" transform="translate(-30.585 -8.49)" fill="#3f190a"/>
        <path id="Path_66948" data-name="Path 66948" d="M131.024,29.165a3.821,3.821,0,0,1-1.449,2.055.658.658,0,0,1-.834-.165,3.888,3.888,0,0,0-3.858-1.243s-1.433-.765-.279-3.034c0,0,4.335.986,6.42,2.387" transform="translate(-36.747 -7.926)" fill="#ff8b6f"/>
        <path id="Path_66949" data-name="Path 66949" d="M124.38,28a1.518,1.518,0,0,0,.508,1.136,4.723,4.723,0,0,1,2.306.077,3.7,3.7,0,0,1,2.211,1.3c.965-.181,1.685-1.47,1.685-1.47-1.838-3.917-6.421-2.388-6.421-2.388A2.943,2.943,0,0,0,124.38,28" transform="translate(-36.813 -7.802)" fill="#673015"/>
        <path id="Path_66950" data-name="Path 66950" d="M124.381,28.685a1.518,1.518,0,0,0,.508,1.136,4.723,4.723,0,0,1,2.306.077,3.7,3.7,0,0,1,2.211,1.3c.965-.181,1.685-1.47,1.685-1.47s-.9.707-1.529.225a5.677,5.677,0,0,0-3.946-1.2,1.975,1.975,0,0,1-1.235-.065" transform="translate(-36.814 -8.49)" fill="#3f190a"/>
        <path id="Path_66951" data-name="Path 66951" d="M123.058,262.773l2.1-7.759,6.628.966-.143,1.124Z" transform="translate(-36.422 -75.479)" fill="#b2b2b8"/>
        <path id="Path_66952" data-name="Path 66952" d="M93.912,255.014h-.353l-.332,3.367,7.406,1.051.29-3.253Z" transform="translate(-27.593 -75.479)" fill="#b2b2b8"/>
        <path id="Path_66953" data-name="Path 66953" d="M125.193,259.445s3.084-2.839,10.072-2.244,10.557,7.732,10.557,7.732h-22.9s-.18-4.13,2.268-5.487" transform="translate(-36.382 -76.102)" fill="#eeeef4"/>
        <path id="Path_66954" data-name="Path 66954" d="M87,263a10.851,10.851,0,0,1,3.122-4.352,7.27,7.27,0,0,1,5.51-1.832c5.053.579,7.019,7.731,7.019,7.731H86.379Z" transform="translate(-25.566 -75.999)" fill="#eeeef4"/>
        <path id="Path_66955" data-name="Path 66955" d="M86.148,267.814h0c-.349,0-.61.412-.538.85l.2,1.207H102.6l.18-1.361c.048-.364-.171-.7-.459-.7Z" transform="translate(-25.335 -79.267)" fill="#b2b2b8"/>
        <path id="Path_66956" data-name="Path 66956" d="M146.4,270.059H122.238A2.057,2.057,0,0,1,124.294,268h20.051a2.057,2.057,0,0,1,2.057,2.057" transform="translate(-36.18 -79.323)" fill="#b2b2b8"/>
        <path id="Path_66957" data-name="Path 66957" d="M235.465,92.3c2.335,1.554,1.715.041,3.393,2.576a47,47,0,0,1,5.577,12.784,111.024,111.024,0,0,1,3.728,24.939c.055,1.442.055,2.273.055,2.273l4.192.373s0-.066.009-.191c.083-1.975.728-18.838-1.1-31.409-.033-.244-.055-.485-.106-.722-4.075-19.411-11.174-23.852-14.493-24.859a5.5,5.5,0,0,0-1.809-.287l.629,6.779Z" transform="translate(-69.527 -23.02)" fill="#fab188"/>
        <path id="Path_66958" data-name="Path 66958" d="M251.7,164.727c-.026.137-1.217,5.958,0,6.3.854.241,1.692-1.564,2.094-3.434a10.279,10.279,0,0,0,.248-2.151q0-.059,0-.114,0,.047,0,.114c.014.455.034,1.6-.042,2.658a6.059,6.059,0,0,1-.308,1.741c-.485,1.127-.557,1.964.107,2.36.313.187.843-.3,1.3-1.245a9.334,9.334,0,0,0,.812-3.055,14.809,14.809,0,0,0,.107,2.481c.21.969,1.573.881,2.026-1.378.421-2.087.223-6.806-1.411-11.642-.134-.4-.278-.8-.432-1.193l-3.454-3.013h0l-.368,1.747v.011l-.36,1.714s-.784,1.687-1.53,3.649a31.865,31.865,0,0,0-1.018,3.069c-1.373,5.22,2.166,1.447,2.23,1.378" transform="translate(-73.744 -45.332)" fill="#fab188"/>
        <path id="Path_66959" data-name="Path 66959" d="M224.191,259.308v1.143a2.786,2.786,0,0,0,1.808.316l.18-1.175a8.866,8.866,0,0,0,6.327,6.688c5.468,1.514,5.02-2.1,5.02-2.1s-10.579-4.837-10.986-7.006-1.627-1.735-1.627-1.569-.723,3.7-.723,3.7" transform="translate(-66.356 -75.61)" fill="#bd2d3a"/>
        <path id="Path_66960" data-name="Path 66960" d="M225.614,247.379a1.953,1.953,0,0,0-1.423,2.106v7.384a1.3,1.3,0,0,0,1.423.595s.229-1.647.295-3c0,0,.529,7.369,7.93,8.689s1.446-5.8,1.017-9.1a14.921,14.921,0,0,0-2.378-6.836Z" transform="translate(-66.356 -73.171)" fill="#272732"/>
        <path id="Path_66961" data-name="Path 66961" d="M183.794,263.29a2.862,2.862,0,0,0,1.239,3.324c1.988,1.4,11.3.452,13.964-4.474v1.582s2.2.527,3.043-.407l.18-.783s-.047-3.616-1.545-3.736a3.136,3.136,0,0,0-2.884.9c-.391.572-8.1,9.123-14,3.59" transform="translate(-54.358 -75.496)" fill="#bd2d3a"/>
        <path id="Path_66962" data-name="Path 66962" d="M193.6,251.923a13.988,13.988,0,0,0-5.344,3.933c-2.379,2.855-6.186,4.64-3.569,6.423s11.42,2.015,14.989-5.178v3.215a2.822,2.822,0,0,0,2.587-.356s1.2-5.651-1.762-9.874c0,0-1.616,4.744-6.9,1.837" transform="translate(-54.403 -72.924)" fill="#272732"/>
        <path id="Path_66963" data-name="Path 66963" d="M248.067,51.72c-.076.123-2.876,4.528-10.006,3.445-5.515-.837-9.188-3.379-10.862-6.811a10.25,10.25,0,0,1-.979-3.44c-.26-2.462,1.459-6.054,2.877-10.219a29.615,29.615,0,0,0,1.733-7.989,22.812,22.812,0,0,1-.076,2.822c7.457-8.268,2.848-17.037-3.539-20.051q-.6-.282-1.181-.506a12.584,12.584,0,0,1-1.8-2.446C221.481,1.282,226.53.138,226.7.1h0a16.558,16.558,0,0,1,3.579.822c13.564,4.61,15.667,20.293,7.96,33.7-7.262,12.632,4.555,19.621,9.825,17.094" transform="translate(-66.126 -0.03)" fill="#272732"/>
        <path id="Path_66964" data-name="Path 66964" d="M231.858,33.253l0,.006c7.457-8.269,2.848-17.038-3.539-20.051q-.6-.282-1.181-.506c4.057,4.527,11.233,9.579,4.722,20.552" transform="translate(-67.227 -3.759)" fill="#c7cbd3"/>
        <path id="Path_66965" data-name="Path 66965" d="M222.809,8.943a12.62,12.62,0,0,1-1.8-2.446c-2.753-5.244,2.3-6.388,2.465-6.426-7.2-.768-9.953,4.933-10.957,8.4a15.013,15.013,0,0,1,10.291.472" transform="translate(-62.901 0)" fill="#272732"/>
        <path id="Path_66966" data-name="Path 66966" d="M233.708,38.765l0-.006c.072-.161,1.874-4.29-.317-7.455a16.679,16.679,0,0,1,.391,4.639,22.983,22.983,0,0,1-.076,2.822" transform="translate(-69.079 -9.265)" fill="#673015"/>
        <path id="Path_66967" data-name="Path 66967" d="M227.306,32.772c6.511-10.973-.665-16.025-4.722-20.552a15.01,15.01,0,0,0-10.291-.472,16.12,16.12,0,0,0-.537,2.545s10.562-1.084,14.539,8.82a15.049,15.049,0,0,1,.694,2.2c2.191,3.165.389,7.294.316,7.455" transform="translate(-62.675 -3.279)" fill="#e2e4e6"/>
        <path id="Path_66968" data-name="Path 66968" d="M195.942,88.79a21.833,21.833,0,0,0-5.351,6.8,47,47,0,0,0-4.3,13.269,110.954,110.954,0,0,0-1.264,25.184c.087,1.441.168,2.267.168,2.267l-4.136.783-.027-.19c-.277-1.957-2.572-18.675-1.983-31.365.009-.246.007-.488.034-.729,2.151-19.716,8.78-24.832,11.985-26.161a5.49,5.49,0,0,1,1.772-.463l1.8,6.155h0Z" transform="translate(-52.968 -23.142)" fill="#fab188"/>
        <path id="Path_66969" data-name="Path 66969" d="M223.713,115.321a47.075,47.075,0,0,0,3.655,16.674l-.141.054q-.825.315-1.645.6a48.545,48.545,0,0,1-10.006,2.389,39.356,39.356,0,0,1-9.8.025,38.141,38.141,0,0,1-9.872-2.619q-.5-.207-1.005-.431l-.045-.02a52.288,52.288,0,0,0,1.753-6.41,72.1,72.1,0,0,0,1.387-11.321l-.006,0A.537.537,0,0,1,198,114.2q.016-.336.027-.674c0-.094.007-.143.007-.143q.144-3.776-.016-7.841c-.044-.334-.092-.671-.149-1.007-.121-.72-.273-1.443-.463-2.159-.1-.358-.2-.714-.315-1.064q-.228-.695-.512-1.365A19.108,19.108,0,0,1,195.3,95.44a22.823,22.823,0,0,1,.349-8.61c.08-.334.156-.624.222-.86q-.461-2.709-1.012-5.5a2.622,2.622,0,0,1,.924-1.966,3.01,3.01,0,0,1,.313-.242h0a2.512,2.512,0,0,1,.4-.235A3.434,3.434,0,0,1,198,77.674h26.215a3.435,3.435,0,0,1,1.512.347,3.094,3.094,0,0,1,.748.508,2.614,2.614,0,0,1,.891,1.936c-.8,4.014-1.522,7.972-2.115,11.844a113.543,113.543,0,0,0-1.54,23.012" transform="translate(-57.673 -22.99)" fill="#7f9fd2"/>
        <path id="Path_66970" data-name="Path 66970" d="M197.127,222.751s.939,1.714,4.761,1.092a3.348,3.348,0,0,0,2.229-1.092s-.048-39.377,1.543-56.313c.063-.667.13-1.3.2-1.884.013-.1.027-.211.04-.312v-9.411h-9.846l-.008.144c-.042.744-.234,4.3-.457,9.528-.651,15.3-.338,42.294,1.535,58.246" transform="translate(-57.799 -44.731)" fill="#fab188"/>
        <path id="Path_66971" data-name="Path 66971" d="M225.259,222.751s.939,1.714,4.761,1.092a3.348,3.348,0,0,0,2.229-1.092s-.048-39.377,1.543-56.313c.063-.667.13-1.3.2-1.884.013-.1.027-.211.04-.312v-9.411h-9.846l-.008.144c-.041.744-.234,4.3-.457,9.528-.651,15.3-.338,42.294,1.535,58.246" transform="translate(-66.126 -45.827)" fill="#fab188"/>
        <path id="Path_66972" data-name="Path 66972" d="M194.194,164.986a57.474,57.474,0,0,0,7.037,1.616q1.548.255,3.029.414c1.661.18,3.256.28,4.776.313h0a53.585,53.585,0,0,0,6.621-.263,47.892,47.892,0,0,0,8.465-1.614,25.889,25.889,0,0,0,2.905-1v-9.624H194.659l-.007.151Z" transform="translate(-57.477 -45.827)" fill="#242932"/>
        <path id="Path_66973" data-name="Path 66973" d="M221.467,77.674a9.323,9.323,0,0,1-8.2,6.5c-6.519.452-8.425-6.5-8.425-6.5Z" transform="translate(-60.628 -22.99)" fill="#ff8b6f"/>
        <path id="Path_66974" data-name="Path 66974" d="M209.568,75.856a9.116,9.116,0,0,0,10.029,0V67.7H209.568Z" transform="translate(-62.028 -20.038)" fill="#ff8b6f"/>
        <path id="Path_66975" data-name="Path 66975" d="M212.588,70.737h0c.15.025.3.046.458.063-.412-.092-.549-.1-.462-.063" transform="translate(-62.914 -20.93)" fill="#fab188"/>
        <path id="Path_66976" data-name="Path 66976" d="M219.6,68.778v3.086a13.582,13.582,0,0,1-10.029.3V69.814s6.992.036,10.029-1.036" transform="translate(-62.027 -20.357)" fill="#ff6e5e"/>
        <path id="Path_66977" data-name="Path 66977" d="M231.695,175.24a53.785,53.785,0,0,1-.407,7.151,50.26,50.26,0,0,1-24.5,7.1,36.262,36.262,0,0,1-23.111-8.1,34.836,34.836,0,0,1-.439-6.371c.186-10.3,4.291-21.376,8.17-30.909a42.751,42.751,0,0,0,2.171-9c.232-1.521.416-3.006.559-4.344.336-3.122.456-5.423.456-5.423s24.886-8.527,24.456-7.082c-.239.8.074,4.354,1.529,10.3q.6,2.451,1.466,5.434c1.123,3.817,2.608,8.275,4.544,13.321a78.784,78.784,0,0,1,5.107,27.916" transform="translate(-54.232 -34.955)" fill="#4e589f"/>
        <path id="Path_66978" data-name="Path 66978" d="M187.21,166.512c.039.134,1.8,5.81.618,6.274-.826.324-1.837-1.39-2.42-3.212a10.334,10.334,0,0,1-.458-2.117c0-.04-.007-.078-.009-.114,0,.031.006.069.009.114.031.453.123,1.6.3,2.641a6.047,6.047,0,0,0,.477,1.7c.593,1.074.746,1.9.125,2.359-.293.217-.867-.212-1.417-1.112a9.339,9.339,0,0,1-1.108-2.961,14.825,14.825,0,0,1,.137,2.48c-.114.985-1.478,1.03-2.151-1.174-.624-2.035-.89-6.752.262-11.725q.142-.612.313-1.229l3.142-3.336v0l.537,1.7,0,0v.006l.526,1.671s.946,1.6,1.88,3.481a31.635,31.635,0,0,1,1.314,2.953c1.878,5.06-2.013,1.652-2.084,1.591" transform="translate(-53.507 -45.907)" fill="#fab188"/>
        <path id="Path_66979" data-name="Path 66979" d="M194.155,49.041h.791a3.569,3.569,0,1,0,0-7.139h-.791a3.569,3.569,0,1,0,0,7.139" transform="translate(-56.409 -12.402)" fill="#ff8b6f"/>
        <path id="Path_66980" data-name="Path 66980" d="M194.984,48.1h.432a1.947,1.947,0,1,0,0-3.894h-.432a1.947,1.947,0,1,0,0,3.894" transform="translate(-57.135 -13.084)" fill="#ff6464"/>
        <path id="Path_66981" data-name="Path 66981" d="M228.367,59.553a10.237,10.237,0,0,1-.978-3.44c-.26-2.462,1.459-6.054,2.876-10.219,1.4-.653-1.307-1.355,3.9-7.958,0,0,5.543,11.559-5.8,21.616" transform="translate(-67.294 -11.229)" fill="#272732"/>
        <path id="Path_66982" data-name="Path 66982" d="M231.215,49.041h.791a3.569,3.569,0,1,0,0-7.139h-.791a3.569,3.569,0,0,0,0,7.139" transform="translate(-67.378 -12.402)" fill="#ff8b6f"/>
        <path id="Path_66983" data-name="Path 66983" d="M232.044,48.1h.432a1.947,1.947,0,1,0,0-3.894h-.432a1.947,1.947,0,1,0,0,3.894" transform="translate(-68.104 -13.084)" fill="#ff6464"/>
        <path id="Path_66984" data-name="Path 66984" d="M195.7,32.389V41.06a14.925,14.925,0,0,0,1.133,5.727l.011.022a13.611,13.611,0,0,0,10.4,8.382h0l.035.006h0c.111.02.223.037.335.049h0c.282.033.567.058.855.073.208.011.415.015.626.015,7.169,0,13.069-6.072,13.389-13.625h0c.008-.213.014-.429.014-.646V32.389a14.911,14.911,0,0,0-1.069-5.564,14.435,14.435,0,0,0-1.835-3.274v0l-.037-.047c-.2-.272-.418-.539-.643-.795-.176-.2-.36-.4-.546-.595h0a12.732,12.732,0,0,0-17.661-.831,13.491,13.491,0,0,0-1.077,1.029,14.019,14.019,0,0,0-1.588,2.037q-.28.429-.525.879a14.864,14.864,0,0,0-1.823,7.164" transform="translate(-57.923 -5.362)" fill="#fab188"/>
        <path id="Path_66985" data-name="Path 66985" d="M204.765,55.086c.032.1.071.2.113.318a12.2,12.2,0,0,0,1.89,3.41,7.028,7.028,0,0,0,1.381,1.321c.137.1.277.186.424.275a.02.02,0,0,0,.013.006,4.668,4.668,0,0,0,1.346.522,4.5,4.5,0,0,0,4.769-1.877,9.259,9.259,0,0,0,1.115-1.948l.019-.046c.1-.239.187-.477.265-.7s.144-.432.2-.622c.068-.226.123-.428.164-.591v-.008a.336.336,0,0,0-.374-.41,41.938,41.938,0,0,1-5.879.47,29.96,29.96,0,0,1-5.063-.558.336.336,0,0,0-.387.437" transform="translate(-60.601 -16.173)" fill="#f1aa82"/>
        <path id="Path_66989" data-name="Path 66989" d="M219.751,42.362a2.1,2.1,0,0,1,4.2,0Z" transform="translate(-65.041 -11.945)" fill="#3f190a"/>
        <path id="Path_66990" data-name="Path 66990" d="M201.851,42.362a2.1,2.1,0,0,1,4.2,0Z" transform="translate(-59.743 -11.945)" fill="#3f190a"/>
        <path id="Path_66991" data-name="Path 66991" d="M214.16,49.625h-5.1s2.262-3.754,5.1,0" transform="translate(-61.877 -14.194)" fill="#ff6c6e"/>
        <path id="Path_66992" data-name="Path 66992" d="M223.034,40.376a14.85,14.85,0,0,1,3.524.4,7.27,7.27,0,0,0-2.982.593s-.963-.15-.542-.989" transform="translate(-65.982 -11.95)" fill="#3f190a"/>
        <path id="Path_66993" data-name="Path 66993" d="M203.416,40.376a14.851,14.851,0,0,0-3.524.4,7.271,7.271,0,0,1,2.982.593s.963-.15.542-.989" transform="translate(-59.164 -11.95)" fill="#3f190a"/>
        <path id="Path_66994" data-name="Path 66994" d="M204.777,36.164a1.172,1.172,0,0,1,.786,1.1c.068.9-1.057.836-2.11.836a9.953,9.953,0,0,0-5.189,1.13s.34-1.412,1.244-1.814a52.893,52.893,0,0,1,5.27-1.248" transform="translate(-58.681 -10.704)" fill="#ff8b6f"/>
        <path id="Path_66995" data-name="Path 66995" d="M220.182,36.164a1.172,1.172,0,0,0-.786,1.1c-.068.9,1.057.836,2.11.836a9.954,9.954,0,0,1,5.189,1.13s-.34-1.412-1.243-1.814a52.943,52.943,0,0,0-5.27-1.248" transform="translate(-64.936 -10.704)" fill="#ff8b6f"/>
        <path id="Path_66996" data-name="Path 66996" d="M198.255,38.711l.006-.006a9.221,9.221,0,0,1,3.346-1.171c1.8-.213,4.364-.038,3.639-1.133a1.592,1.592,0,0,0-1.007-.529h0a7.223,7.223,0,0,0-1.672-.116c-3.867.277-4.308,2.958-4.308,2.958" transform="translate(-58.679 -10.58)" fill="#673015"/>
        <path id="Path_66997" data-name="Path 66997" d="M198.263,38.758a9.213,9.213,0,0,1,3.346-1.171c1.8-.213,4.364-.038,3.638-1.133a1.589,1.589,0,0,0-1.007-.529.644.644,0,0,1,.111.654c-.262.471-.846.2-2.536.331a7.513,7.513,0,0,0-3.552,1.849" transform="translate(-58.681 -10.633)" fill="#3f190a"/>
        <path id="Path_67000" data-name="Path 67000" d="M227.617,29.221a24.324,24.324,0,0,1-2.988.128c-7.977-.151-10.8-4.586-11.638-6.464a5.686,5.686,0,0,1-.309-.829,6.7,6.7,0,0,1,.763-2.858,11.651,11.651,0,0,1,.77-1.368,11.435,11.435,0,0,1,10.476,4.848,17.921,17.921,0,0,1,2.927,6.544" transform="translate(-62.949 -5.268)" fill="#22222b"/>
        <path id="Path_67001" data-name="Path 67001" d="M209.164,21.783a5.907,5.907,0,0,1-.344.905,9.408,9.408,0,0,1-.584,1.074c-1.327,2.1-4.368,5.152-10.9,5.313a24.588,24.588,0,0,1-3.1-.127,19.939,19.939,0,0,1,2.348-5.781c2.128-3.478,5.974-6.929,12.589-5.237,0,0,.049,1.954,0,3.852" transform="translate(-57.488 -5.176)" fill="#080831"/>
        <path id="Path_67002" data-name="Path 67002" d="M222.044,33.869l-.029-.006c-.018,0-.045-.009-.077-.018a.207.207,0,0,1-.03-.008c-.515-.148-2.364-.987-2.813-5.386-.006-.058-.011-.116-.016-.175a5.443,5.443,0,0,0-1.609-3.365c-2.406-2.456-6.616-3.1-6.616-3.109s-.233,0-.627.011c-.37.013-.882.031-1.478.069l-.468.035q-.4.03-.822.07c-.479.049-.982.108-1.483.184-.555.083-1.112.186-1.64.31a8.583,8.583,0,0,0-2.149.77,3.548,3.548,0,0,0-.412.268,38.942,38.942,0,0,0-4.33,3.977s-.068.3-.184.772c-.412,1.678-1.426,5.519-2.1,5.6,0,0-2.145-2.851-.64-9.866a12.332,12.332,0,0,1,1.618-4.044c2.5-3.935,7.021-5.5,11.43-4.935,0,0,8.606-2.048,14,5.363,4.777,6.562.472,13.482.472,13.482" transform="translate(-57.416 -4.37)" fill="#272732"/>
        <path id="Path_67003" data-name="Path 67003" d="M209.657,24.924c-.022.363-.063.71-.115,1.039-1.327,2.1-4.368,5.152-10.9,5.313.115-.472.184-.772.184-.772a38.934,38.934,0,0,1,4.329-3.976,3.461,3.461,0,0,1,.412-.268,6.9,6.9,0,0,0,2.149-.77,26.487,26.487,0,0,1,3.945-.566" transform="translate(-58.792 -7.377)" fill="#22222b"/>
        <path id="Path_67004" data-name="Path 67004" d="M202.186,25.436a3.551,3.551,0,0,0-.412.268,38.944,38.944,0,0,0-4.33,3.977s-.069.3-.184.772c-.412,1.678-1.426,5.519-2.1,5.6,0,0-2.146-2.851-.64-9.866a12.331,12.331,0,0,1,1.618-4.044,3.933,3.933,0,0,0,.365,2.4c.681,1.117,2.332,1.526,5.681.891" transform="translate(-57.416 -6.554)" fill="#272732"/>
        <path id="Path_67005" data-name="Path 67005" d="M212.632,22.932a26.486,26.486,0,0,0-3.945.566,6.608,6.608,0,0,0,3.091-5.3,10.063,10.063,0,0,1,.853,4.738" transform="translate(-61.767 -5.385)" fill="#272732"/>
        <path id="Path_67006" data-name="Path 67006" d="M227.085,34.884l-.029-.006c-.016,0-.044-.011-.077-.018a.206.206,0,0,1-.03-.008c-.515-.148-2.364-.987-2.813-5.386-7.977-.152-10.8-4.587-11.637-6.464-.479.049-.982.108-1.483.184l1.452-4.993s.157.443.484,1.121a15.622,15.622,0,0,0,2.316,3.514,9.424,9.424,0,0,0,4.39,2.913,5.285,5.285,0,0,0,2.854.186c2.019-.577,1.641-3.055.4-3.79a5.659,5.659,0,0,1,1.285.658c1.873,1.238,4.91,4.505,2.887,12.09" transform="translate(-62.456 -5.385)" fill="#272732"/>
        <path id="Path_67007" data-name="Path 67007" d="M204.781,113.991a8.472,8.472,0,0,1-5.973.481c-.121-.72-.272-1.443-.463-2.159-.1-.358-.2-.714-.315-1.064a3.839,3.839,0,0,0,.543.616,8.7,8.7,0,0,0,6.207,2.126" transform="translate(-58.613 -32.927)" fill="#4e589f"/>
        <path id="Path_67008" data-name="Path 67008" d="M195.609,215.155l.142,4.066a15.629,15.629,0,0,0,8.5,2.306l.152-3.759a35.211,35.211,0,0,1-8.8-2.612" transform="translate(-57.896 -63.681)" fill="#ff8b6f"/>
        <path id="Path_67009" data-name="Path 67009" d="M223.863,218.184l.133,3.483s4.866.9,8.538-1.084l.07-4.338a54.082,54.082,0,0,1-8.741,1.94" transform="translate(-66.259 -64.004)" fill="#ff8b6f"/>
        <path id="Path_67010" data-name="Path 67010" d="M196.617,251.305s-3.4,2.511-3.029,4.346c.4,2.021,7.72-.135,10.019-4.346Z" transform="translate(-57.289 -73.285)" fill="#fab188"/>
        <path id="Path_67011" data-name="Path 67011" d="M197.869,251.014a3.9,3.9,0,0,1,2.6.55s.113-1.055-2.68-1.243Z" transform="translate(-58.541 -74.09)" fill="#ff8b6f"/>
        <path id="Path_67012" data-name="Path 67012" d="M226.034,249.959a15.507,15.507,0,0,0,5.15,3.724c2.591.893,3.012-2.2,1.84-5.764-1.153-3.5-6.99,2.039-6.99,2.039" transform="translate(-66.901 -73.035)" fill="#fab188"/>
        <path id="Path_67013" data-name="Path 67013" d="M231.695,199.171a53.784,53.784,0,0,1-.407,7.151,50.259,50.259,0,0,1-24.5,7.1,36.261,36.261,0,0,1-23.111-8.1,34.835,34.835,0,0,1-.439-6.371c.258.378,6.369,9.028,25.275,9.147,12.961.081,19.971-5.346,23.183-8.928" transform="translate(-54.232 -58.886)" fill="#7f9fd2"/>
        <path id="Path_67014" data-name="Path 67014" d="M226.645,38.711l-.006-.006a9.221,9.221,0,0,0-3.346-1.171c-1.8-.213-4.364-.038-3.639-1.133a1.592,1.592,0,0,1,1.007-.529h0a7.223,7.223,0,0,1,1.672-.116c3.867.277,4.308,2.958,4.308,2.958" transform="translate(-64.976 -10.58)" fill="#673015"/>
        <path id="Path_67015" data-name="Path 67015" d="M226.64,38.758a9.213,9.213,0,0,0-3.346-1.171c-1.8-.213-4.364-.038-3.638-1.133a1.589,1.589,0,0,1,1.007-.529.644.644,0,0,0-.111.654c.262.471.846.2,2.537.331a7.513,7.513,0,0,1,3.552,1.849" transform="translate(-64.976 -10.633)" fill="#3f190a"/>
        <path id="Path_67016" data-name="Path 67016" d="M226.394,138.4c-3.035,1.911-16.034,9.111-28.466,1.112.232-1.52.416-3.006.558-4.344,1,.5,14.406,6.922,26.442-2.2q.6,2.451,1.466,5.434" transform="translate(-58.582 -39.357)" fill="#7f9fd2"/>
        <path id="Path_67017" data-name="Path 67017" d="M150.764,223.569l-.242,22.647s1.974,1.89,5.083-.138l.868-21.873a31.59,31.59,0,0,0-5.709-.636" transform="translate(-44.551 -66.168)" fill="#fab188"/>
        <path id="Path_67018" data-name="Path 67018" d="M171.866,222.705l.7,23.354s2.052,1.871,5.074-.339L177.6,223.14a30.72,30.72,0,0,0-5.731-.434" transform="translate(-50.869 -65.905)" fill="#fab188"/>
        <path id="Path_67019" data-name="Path 67019" d="M172.129,196.159a42.387,42.387,0,0,1-5.108,1.153q-1.124.182-2.2.295c-1.206.129-2.363.2-3.467.223h0a39.634,39.634,0,0,1-4.806-.187,35.385,35.385,0,0,1-6.144-1.152,19.042,19.042,0,0,1-2.108-.711l.122-7.338,23.373.472.006.108Z" transform="translate(-43.893 -55.775)" fill="#242932"/>
        <path id="Path_67020" data-name="Path 67020" d="M192.145,198.739a20.582,20.582,0,0,1,2.285,9.639c-.19,1.75-1.22,1.911-1.447,1.188a21.736,21.736,0,0,1-.327-3.127c.369,2.81-.7,4.918-1.237,4.663s-.536-.9-.244-1.788a13.108,13.108,0,0,0-.055-3.524c.225,1.682-.418,4.745-1.379,4.563s-.432-4.8-.432-4.8-2.485,3.21-1.793-.893a38.765,38.765,0,0,1,1.477-5.287l.316-2.691Z" transform="translate(-55.464 -58.214)" fill="#fab188"/>
        <path id="Path_67021" data-name="Path 67021" d="M135.319,198.927a20.583,20.583,0,0,0-1.241,9.828c.376,1.72,1.417,1.77,1.566,1.027a21.733,21.733,0,0,0-.01-3.144c-.067,2.833,1.226,4.815,1.728,4.5s.437-.95.051-1.8a13.11,13.11,0,0,1-.322-3.51c-.044,1.7.923,4.673,1.859,4.39s-.083-4.818-.083-4.818,2.814,2.927,1.687-1.08a38.725,38.725,0,0,0-2.033-5.1l-.6-2.643Z" transform="translate(-39.631 -58.183)" fill="#fab188"/>
        <path id="Path_67022" data-name="Path 67022" d="M171.936,151.409v25.822c-7.893,4.2-15.716,4.28-23.466,0V151.409a6.3,6.3,0,0,1,3.841-5.853v0a5.766,5.766,0,0,1,2.193-.43h11.4a5.733,5.733,0,0,1,1.873.313.016.016,0,0,0,.013,0,5.082,5.082,0,0,1,.919.417c.021.008.037.018.05.022s.008,0,.013.008h0a6.346,6.346,0,0,1,3.158,5.524" transform="translate(-43.944 -42.953)" fill="#eeeef4"/>
        <path id="Path_67023" data-name="Path 67023" d="M170.391,145.854s-2.593,4.1-8.8,3.826a10.942,10.942,0,0,1-7.665-4.142v0a5.984,5.984,0,0,1,2.193-.412h11.4a5.934,5.934,0,0,1,1.872.3.015.015,0,0,0,.013,0c.466.2.786.337.919.4l.05.02s.008,0,.013.008Z" transform="translate(-45.558 -42.953)" fill="#e03a45"/>
        <path id="Path_67024" data-name="Path 67024" d="M167.278,142.829a5.429,5.429,0,0,1-6.682,0v-7.15h6.682Z" transform="translate(-47.533 -40.158)" fill="#ff8b6f"/>
        <path id="Path_67025" data-name="Path 67025" d="M160.6,139.452v1.923a8.263,8.263,0,0,0,6.682,0v-1.923Z" transform="translate(-47.533 -41.275)" fill="#ff6e5e"/>
        <path id="Path_67027" data-name="Path 67027" d="M180.44,122.9h-.86a3.879,3.879,0,0,1,0-7.758h.86a3.879,3.879,0,0,1,0,7.758" transform="translate(-52.004 -34.078)" fill="#ff8b6f"/>
        <path id="Path_67028" data-name="Path 67028" d="M181.187,121.873h-.469a2.116,2.116,0,1,1,0-4.232h.469a2.116,2.116,0,0,1,0,4.232" transform="translate(-52.862 -34.819)" fill="#ff6464"/>
        <path id="Path_67029" data-name="Path 67029" d="M146.4,122.9h-.86a3.879,3.879,0,1,1,0-7.758h.86a3.879,3.879,0,0,1,0,7.758" transform="translate(-41.927 -34.078)" fill="#ff8b6f"/>
        <path id="Path_67030" data-name="Path 67030" d="M147.143,121.873h-.469a2.116,2.116,0,1,1,0-4.232h.469a2.116,2.116,0,0,1,0,4.232" transform="translate(-42.786 -34.819)" fill="#ff6464"/>
        <path id="Path_67031" data-name="Path 67031" d="M170.864,96.75a12.763,12.763,0,0,0-2.213-2.846,12.3,12.3,0,0,0-18.064,1.076v0a12.272,12.272,0,0,0-2.809,7.815V113.07a12.379,12.379,0,0,0,11.628,12.318l.019,0c.23.013.458.019.691.019a12.368,12.368,0,0,0,12.339-12.339V102.8a12.261,12.261,0,0,0-1.591-6.049M149.7,104.3c0,.022,0,.043,0,.065,0-.022,0-.043,0-.065m-.019.442v0" transform="translate(-43.739 -26.774)" fill="#fab188"/>
        <path id="Path_67032" data-name="Path 67032" d="M171.878,98.163a6.252,6.252,0,0,1-5.2,1.1c-4.552-.767-5.625-.159-8.866.847a17.083,17.083,0,0,1-6.2.691,3.223,3.223,0,0,1-.4-1.314s0,0,0-.006a2.079,2.079,0,0,1,.089-.755c.5-1.608,2.907-2.337,4.368-2.8,1.445-.465,9.474-.872,14-.608a12.743,12.743,0,0,1,2.213,2.846" transform="translate(-44.753 -28.187)" fill="#ff8b6f"/>
        <path id="Path_67033" data-name="Path 67033" d="M162.741,120.024a1.91,1.91,0,0,1,1.88-1.008,1.876,1.876,0,0,1,1.744,1.008Z" transform="translate(-48.168 -35.225)" fill="#ff6c6e"/>
        <path id="Path_67034" data-name="Path 67034" d="M172.582,90.234c.056,2.523-2.131,5.629-7.369,4.835-5.519-.834-9.032,1.026-12.214,1.061-.246,0-.492-.011-.739-.03h-.011a5.98,5.98,0,0,1-1.457-.312s0,.065-.015.181c-.1,1.2-.81,7.942-3.881,9.425,0,0-2.2-9.641.653-10.817a.161.161,0,0,1,.045-.02,5.567,5.567,0,0,1,3.89-5.886c.7-.227,1.388-.427,2.066-.608a.078.078,0,0,1,.02,0,92.621,92.621,0,0,1,10.1-1.88c4.116-.658,6.559-.241,8.279,2.056a3.42,3.42,0,0,1,.628,2" transform="translate(-43.239 -25.423)" fill="#272732"/>
        <path id="Path_67035" data-name="Path 67035" d="M181.224,108.97c-4.076-5.6-4.1-8.977-3.583-10.691a3.31,3.31,0,0,1,.774-1.417c2.568-.387,3.755,1.262,4.172,3.518a15.687,15.687,0,0,1,0,4.775" transform="translate(-52.509 -28.652)" fill="#14141c"/>
        <path id="Path_67036" data-name="Path 67036" d="M173.2,91.145c.056,2.523-2.131,5.629-7.369,4.835-5.519-.834-9.032,1.026-12.214,1.061a2.436,2.436,0,0,1-.738-.03h-.011a3.4,3.4,0,0,1-1.472-.131,12.7,12.7,0,0,1-3.227-1.392.159.159,0,0,1,.045-.02,5.567,5.567,0,0,1,3.89-5.886c.7-.227,1.388-.427,2.066-.608-.232.1-2.654,1.156-1.036,3.156,1.694,2.106,7.1.6,12.566,1.6,5.423,1,7.4-1.654,7.5-2.589" transform="translate(-43.854 -26.335)" fill="#14141c"/>
        <path id="Path_67037" data-name="Path 67037" d="M150.778,99.611c-.1,1.2-.81,7.942-3.881,9.425,0,0-2.2-9.641.653-10.817a.184.184,0,0,1,.046-.02,2.584,2.584,0,0,0-.046,3.473c1.519,1.84,3.227-2.061,3.227-2.061" transform="translate(-43.239 -29.065)" fill="#272732"/>
        <path id="Path_67038" data-name="Path 67038" d="M181.224,109.589c-4.076-5.6-4.1-8.977-3.583-10.691,0,0,.95,3.117,3.151,2.835a3.214,3.214,0,0,0,1.795-.734,15.687,15.687,0,0,1,0,4.775" transform="translate(-52.509 -29.272)" fill="#272732"/>
        <path id="Path_67039" data-name="Path 67039" d="M169.034,126.605c-.033.1-.072.2-.114.321a12.305,12.305,0,0,1-1.909,3.443,7.107,7.107,0,0,1-1.394,1.335c-.137.1-.28.187-.429.277a.02.02,0,0,1-.013.006,4.691,4.691,0,0,1-1.359.528,4.543,4.543,0,0,1-4.816-1.9,9.39,9.39,0,0,1-1.126-1.966l-.019-.047c-.1-.241-.189-.482-.268-.708s-.146-.435-.2-.628c-.069-.228-.124-.432-.166-.6v-.008a.339.339,0,0,1,.377-.414,42.357,42.357,0,0,0,5.937.475,30.242,30.242,0,0,0,5.113-.563.339.339,0,0,1,.39.441" transform="translate(-46.53 -37.34)" fill="#f1aa82"/>
        <path id="Path_67043" data-name="Path 67043" d="M158.545,115.692a1.926,1.926,0,0,0-3.847,0Z" transform="translate(-45.787 -33.699)" fill="#3f190a"/>
        <path id="Path_67044" data-name="Path 67044" d="M175.146,115.692a1.926,1.926,0,0,0-3.847,0Z" transform="translate(-50.701 -33.699)" fill="#3f190a"/>
        <path id="Path_67046" data-name="Path 67046" d="M163.139,86.161a41.987,41.987,0,0,1,8.844-1.55c4.487-.226,5.106-1.766,5.106-1.766s1.879,1.853.54,6.487a32.764,32.764,0,0,0-14.489-3.171" transform="translate(-48.286 -24.52)" fill="#272732"/>
        <path id="Path_67047" data-name="Path 67047" d="M148,145.707s-6.324-.042-10.053,8.4c-2.941,6.652-4.6,22.955-3.876,31.089,0,0,1.3,1.445,4.374-.9,0,0,.31-5.855,1.641-16.958.9-7.478,6.717-16.314,6.717-16.314s1.58-3.491,1.2-5.308" transform="translate(-39.631 -43.126)" fill="#e03a45"/>
        <path id="Path_67048" data-name="Path 67048" d="M175.382,145.386s6.323-.042,10.053,8.4c2.941,6.652,5.015,22.547,4.292,30.681,0,0-1.67,1.488-4.743-.862a94.069,94.069,0,0,0-1.164-16.97c-1.3-7.419-7.242-15.937-7.242-15.937s-1.58-3.49-1.2-5.308" transform="translate(-51.892 -43.031)" fill="#e03a45"/>
        <path id="Path_67049" data-name="Path 67049" d="M148.1,190.73l-.88,22.342a13.669,13.669,0,0,0,9.761,1.085l1.085-17.136" transform="translate(-43.574 -56.452)" fill="#242932"/>
        <path id="Path_67050" data-name="Path 67050" d="M177.8,193.836l.872,20.336c-4.03,2.832-10.394,1.149-10.394,1.149V197.94Z" transform="translate(-49.806 -57.371)" fill="#242932"/>
        <path id="Path_67051" data-name="Path 67051" d="M150.467,248.8l-.306,8.3,5.327.394.19-8.47Z" transform="translate(-44.444 -73.638)" fill="#eeeef4"/>
        <path id="Path_67052" data-name="Path 67052" d="M149.856,258.173l-.289.008-.2,2.759,6.076.695.02-3.392Z" transform="translate(-44.21 -76.414)" fill="#14141c"/>
        <path id="Path_67053" data-name="Path 67053" d="M144.377,264.771a8.872,8.872,0,0,1,2.539-3.568,5.419,5.419,0,0,1,4.331-1.2c4.134.456,5.932,5.977,5.932,5.977l-13.3.053Z" transform="translate(-42.584 -76.943)" fill="#272732"/>
        <path id="Path_67054" data-name="Path 67054" d="M143.689,268.571h0c-.286,0-.5.339-.437.7l.167.986,13.727-.055.142-1.113c.038-.3-.142-.569-.377-.567Z" transform="translate(-42.396 -79.476)" fill="#14141c"/>
        <path id="Path_67055" data-name="Path 67055" d="M177.927,248.542l.3,8.481-5.329.385-.394-8.84Z" transform="translate(-51.057 -73.563)" fill="#eeeef4"/>
        <path id="Path_67056" data-name="Path 67056" d="M178.377,258.182l.289.008.192,2.76-6.078.684-.014-3.392Z" transform="translate(-51.135 -76.416)" fill="#14141c"/>
        <path id="Path_67057" data-name="Path 67057" d="M180.832,264.714a8.869,8.869,0,0,0-2.573-3.543,5.421,5.421,0,0,0-4.343-1.152c-4.129.5-5.874,6.036-5.874,6.036l13.3-.078Z" transform="translate(-49.737 -76.943)" fill="#272732"/>
        <path id="Path_67058" data-name="Path 67058" d="M181.219,268.5h0c.286,0,.5.334.444.693l-.156.987-13.727.08-.153-1.112c-.041-.3.137-.569.372-.571Z" transform="translate(-49.612 -79.472)" fill="#14141c"/>
        <path id="Path_67059" data-name="Path 67059" d="M150.574,248.8l-.052,1.418,5.263.2v-1.4Z" transform="translate(-44.551 -73.638)" fill="#b2b2b8"/>
        <path id="Path_67060" data-name="Path 67060" d="M172.5,248.568l.064,1.439h5.412l-.051-1.465Z" transform="translate(-51.057 -73.563)" fill="#b2b2b8"/>
        <path id="Path_67061" data-name="Path 67061" d="M171.933,224.728l.069,2.3a8.793,8.793,0,0,0,5.658-.483V224.2a13.755,13.755,0,0,1-5.727.525" transform="translate(-50.888 -66.359)" fill="#ff8b6f"/>
        <path id="Path_67062" data-name="Path 67062" d="M156.572,224.32l-.1,2.48a8.779,8.779,0,0,1-5.617-.508v-2.347a15.165,15.165,0,0,0,5.716.374" transform="translate(-44.65 -66.283)" fill="#ff8b6f"/>
        <path id="Path_67063" data-name="Path 67063" d="M152.224,108.848a3.186,3.186,0,0,0,1.076,1.61.613.613,0,0,0,.8-.113,3.119,3.119,0,0,1,2.916-.985.446.446,0,0,0,.367-.116c.285-.274.727-.965.047-2.314a20.192,20.192,0,0,0-5.21,1.918" transform="translate(-45.055 -31.649)" fill="#ff8b6f"/>
        <path id="Path_67064" data-name="Path 67064" d="M157.665,107.917a1.23,1.23,0,0,1-.415.919,3.838,3.838,0,0,0-1.869.057,3,3,0,0,0-1.8,1.049c-.782-.149-1.362-1.2-1.362-1.2,1.5-3.17,5.21-1.918,5.21-1.918a2.38,2.38,0,0,1,.231,1.089" transform="translate(-45.055 -31.547)" fill="#673015"/>
        <path id="Path_67065" data-name="Path 67065" d="M157.665,108.477a1.231,1.231,0,0,1-.415.919,3.838,3.838,0,0,0-1.869.057,3,3,0,0,0-1.8,1.049c-.782-.149-1.362-1.2-1.362-1.2s.725.575,1.239.186a4.6,4.6,0,0,1,3.2-.966,1.6,1.6,0,0,0,1-.049" transform="translate(-45.055 -32.107)" fill="#3f190a"/>
        <path id="Path_67066" data-name="Path 67066" d="M175.646,108.848a3.186,3.186,0,0,1-1.076,1.61.613.613,0,0,1-.8-.113,3.119,3.119,0,0,0-2.916-.985.446.446,0,0,1-.367-.116c-.285-.274-.727-.965-.047-2.314a20.192,20.192,0,0,1,5.21,1.918" transform="translate(-50.339 -31.649)" fill="#ff8b6f"/>
        <path id="Path_67067" data-name="Path 67067" d="M170.258,107.917a1.231,1.231,0,0,0,.415.919,3.84,3.84,0,0,1,1.87.057,3,3,0,0,1,1.795,1.049c.782-.149,1.362-1.2,1.362-1.2-1.5-3.17-5.21-1.918-5.21-1.918a2.38,2.38,0,0,0-.231,1.089" transform="translate(-50.392 -31.547)" fill="#673015"/>
        <path id="Path_67068" data-name="Path 67068" d="M170.259,108.477a1.231,1.231,0,0,0,.415.919,3.84,3.84,0,0,1,1.87.057,3,3,0,0,1,1.795,1.049c.782-.149,1.362-1.2,1.362-1.2s-.724.575-1.238.186a4.6,4.6,0,0,0-3.2-.966,1.6,1.6,0,0,1-1-.049" transform="translate(-50.393 -32.107)" fill="#3f190a"/>
        <path id="Path_67069" data-name="Path 67069" d="M248.58,151.71a57.591,57.591,0,0,0-3.348,6.016,34.716,34.716,0,0,0-3.37,10.3c-1.332,11.1-1.641,16.958-1.641,16.958-3.073,2.35-3.357,1.1-3.357,1.1-.712-8.008-.132-24.122,2.724-30.96.046-.108.091-.215.136-.318,3.729-8.438,10.053-8.4,10.053-8.4.383,1.818-1.2,5.308-1.2,5.308" transform="translate(-70.025 -43.332)" fill="#fab188"/>
        <path id="Path_67070" data-name="Path 67070" d="M290.184,185.259s.013,2.26-3.06-.09a166.5,166.5,0,0,0-1.905-17.842,36.472,36.472,0,0,0-3.674-9.926,59.639,59.639,0,0,0-3.569-6.012s-1.58-3.489-1.2-5.308c0,0,6.324-.042,10.055,8.4.1.222.195.453.291.7,2.786,7.006,3.76,22.222,3.06,30.085" transform="translate(-81.903 -43.237)" fill="#fab188"/>
        <path id="Path_67071" data-name="Path 67071" d="M275.434,93.953c-3.634-8.874-13.339-9.831-15.427-9.759-2.066-.072-11.439.885-15.073,9.759-4.09,9.985,4.923,30.248.958,37.883h13.36l.906-4.749.957,4.749,10-.691c-.953-8.478,8.4-27.207,4.314-37.192" transform="translate(-72.172 -24.919)" fill="#272732"/>
        <path id="Path_67072" data-name="Path 67072" d="M276.508,155.1a50.427,50.427,0,0,1-5.579,2.227c-.089-.17-.177-.338-.265-.5a29.844,29.844,0,0,0-1.808,14.277,26.956,26.956,0,0,0,1.1,4.868q.318.987.712,1.963c-7.893,4.2-15.716,4.281-23.466,0q.32-1.2.558-2.364a39.039,39.039,0,0,0,.658-4.468,47.716,47.716,0,0,0-1.217-14.951c-.229.448-.466.919-.7,1.409a30.222,30.222,0,0,1-5.643-2.608c.045-.108.09-.215.136-.318,3.729-8.438,10.052-8.4,10.052-8.4a.106.106,0,0,1,0,.016,5.777,5.777,0,0,1,2.19-.429h11.4a5.749,5.749,0,0,1,1.524.208c0-.007,0-.014,0-.021s6.324-.042,10.055,8.4c.1.223.2.454.291.7" transform="translate(-71.287 -43.159)" fill="#e03a45"/>
        <path id="Path_67073" data-name="Path 67073" d="M252.161,224.264l-.242,22.647s1.974,1.89,5.083-.138l.868-21.873a31.59,31.59,0,0,0-5.709-.636" transform="translate(-74.563 -66.374)" fill="#fab188"/>
        <path id="Path_67074" data-name="Path 67074" d="M273.263,223.4l.7,23.354s2.051,1.871,5.074-.339l-.042-22.58a30.722,30.722,0,0,0-5.731-.434" transform="translate(-80.88 -66.111)" fill="#fab188"/>
        <path id="Path_67075" data-name="Path 67075" d="M293.541,199.434a20.583,20.583,0,0,1,2.285,9.639c-.19,1.75-1.22,1.911-1.447,1.188a21.736,21.736,0,0,1-.327-3.127c.37,2.81-.7,4.918-1.237,4.663s-.536-.9-.244-1.788a13.11,13.11,0,0,0-.055-3.524c.225,1.682-.418,4.745-1.379,4.563s-.432-4.8-.432-4.8-2.485,3.21-1.793-.893a38.763,38.763,0,0,1,1.477-5.287l.316-2.691Z" transform="translate(-85.476 -58.42)" fill="#fab188"/>
        <path id="Path_67076" data-name="Path 67076" d="M236.716,199.623a20.582,20.582,0,0,0-1.241,9.828c.376,1.72,1.417,1.77,1.566,1.027a21.724,21.724,0,0,0-.01-3.144c-.067,2.833,1.226,4.815,1.728,4.5s.437-.95.051-1.8a13.111,13.111,0,0,1-.322-3.51c-.044,1.7.923,4.673,1.859,4.39s-.083-4.818-.083-4.818,2.814,2.927,1.687-1.08a38.724,38.724,0,0,0-2.033-5.1l-.6-2.643Z" transform="translate(-69.643 -58.389)" fill="#fab188"/>
        <path id="Path_67077" data-name="Path 67077" d="M271.788,146.549s-2.593,4.1-8.8,3.826a10.942,10.942,0,0,1-7.665-4.142v0a5.984,5.984,0,0,1,2.193-.412h11.4a5.934,5.934,0,0,1,1.872.3.016.016,0,0,0,.013,0c.466.2.786.337.92.4l.049.02s.008,0,.013.008Z" transform="translate(-75.57 -43.159)" fill="#e03a45"/>
        <path id="Path_67078" data-name="Path 67078" d="M268.675,143.524a5.429,5.429,0,0,1-6.682,0v-7.15h6.682Z" transform="translate(-77.544 -40.364)" fill="#ff8b6f"/>
        <path id="Path_67079" data-name="Path 67079" d="M249.6,125.428s-.781,5.589,1.588,8.39,4.782,4.157,9.723,4.564V132.9Z" transform="translate(-73.84 -37.124)" fill="#14141c"/>
        <path id="Path_67080" data-name="Path 67080" d="M277.843,125.428s.781,5.589-1.588,8.39-4.782,4.157-9.723,4.564V132.9Z" transform="translate(-78.888 -37.124)" fill="#14141c"/>
        <path id="Path_67081" data-name="Path 67081" d="M261.992,140.148v2.24a8.783,8.783,0,0,0,6.682-.194v-2.047Z" transform="translate(-77.544 -41.481)" fill="#ff6e5e"/>
        <path id="Path_67082" data-name="Path 67082" d="M248.094,122.876h-.673a3.035,3.035,0,1,1,0-6.07h.673a3.035,3.035,0,1,1,0,6.07" transform="translate(-72.333 -34.572)" fill="#ff8b6f"/>
        <path id="Path_67083" data-name="Path 67083" d="M248.679,122.077h-.367a1.656,1.656,0,1,1,0-3.311h.367a1.656,1.656,0,0,1,0,3.311" transform="translate(-73.005 -35.152)" fill="#ff6464"/>
        <path id="Path_67084" data-name="Path 67084" d="M283.147,122.876h-.673a3.035,3.035,0,1,1,0-6.07h.673a3.035,3.035,0,1,1,0,6.07" transform="translate(-82.708 -34.572)" fill="#ff8b6f"/>
        <path id="Path_67085" data-name="Path 67085" d="M283.731,122.077h-.367a1.656,1.656,0,1,1,0-3.311h.367a1.656,1.656,0,0,1,0,3.311" transform="translate(-83.379 -35.152)" fill="#ff6464"/>
        <path id="Path_67086" data-name="Path 67086" d="M272.261,97.446a12.721,12.721,0,0,0-2.212-2.846,12.3,12.3,0,0,0-18.064,1.076v0a12.272,12.272,0,0,0-2.809,7.815v10.272A12.378,12.378,0,0,0,260.8,126.083l.019,0c.23.013.458.019.691.019a12.37,12.37,0,0,0,12.339-12.339V103.5a12.262,12.262,0,0,0-1.592-6.049M251.1,104.994c0,.022,0,.043,0,.065,0-.022,0-.043,0-.065m-.019.442v0" transform="translate(-73.75 -26.98)" fill="#fab188"/>
        <path id="Path_67087" data-name="Path 67087" d="M264.138,120.72a1.91,1.91,0,0,1,1.88-1.008,1.876,1.876,0,0,1,1.744,1.008Z" transform="translate(-78.179 -35.431)" fill="#ff6c6e"/>
        <path id="Path_67088" data-name="Path 67088" d="M270.431,127.3c-.033.1-.072.2-.114.321a12.3,12.3,0,0,1-1.909,3.443,7.082,7.082,0,0,1-1.394,1.334c-.137.1-.28.188-.429.277a.02.02,0,0,1-.013.006,4.712,4.712,0,0,1-1.359.528,4.543,4.543,0,0,1-4.816-1.9,9.378,9.378,0,0,1-1.126-1.967l-.019-.046c-.1-.241-.189-.482-.268-.708s-.146-.435-.2-.628c-.069-.228-.124-.432-.166-.6v-.008a.34.34,0,0,1,.377-.414,42.352,42.352,0,0,0,5.937.475,30.316,30.316,0,0,0,5.113-.563.339.339,0,0,1,.39.441" transform="translate(-76.542 -37.546)" fill="#f1aa82"/>
        <path id="Path_67092" data-name="Path 67092" d="M251.864,249.49l-.306,8.3,5.327.394.19-8.47Z" transform="translate(-74.456 -73.844)" fill="#eeeef4"/>
        <path id="Path_67093" data-name="Path 67093" d="M251.253,258.869l-.289.008-.2,2.759,6.076.695.02-3.392Z" transform="translate(-74.222 -76.62)" fill="#14141c"/>
        <path id="Path_67094" data-name="Path 67094" d="M245.774,265.466a8.873,8.873,0,0,1,2.539-3.568,5.419,5.419,0,0,1,4.331-1.2c4.134.456,5.933,5.977,5.933,5.977l-13.3.054Z" transform="translate(-72.596 -77.149)" fill="#272732"/>
        <path id="Path_67095" data-name="Path 67095" d="M245.086,269.267h0c-.286,0-.5.339-.437.7l.167.986,13.727-.055.142-1.113c.038-.3-.142-.569-.377-.567Z" transform="translate(-72.408 -79.682)" fill="#14141c"/>
        <path id="Path_67096" data-name="Path 67096" d="M279.324,249.237l.3,8.481-5.328.385-.394-8.84Z" transform="translate(-81.068 -73.769)" fill="#eeeef4"/>
        <path id="Path_67097" data-name="Path 67097" d="M279.774,258.877l.289.008.192,2.76-6.078.684-.014-3.392Z" transform="translate(-81.146 -76.622)" fill="#14141c"/>
        <path id="Path_67098" data-name="Path 67098" d="M282.229,265.409a8.869,8.869,0,0,0-2.573-3.543,5.421,5.421,0,0,0-4.343-1.152c-4.129.5-5.874,6.036-5.874,6.036l13.3-.078Z" transform="translate(-79.748 -77.149)" fill="#272732"/>
        <path id="Path_67099" data-name="Path 67099" d="M282.616,269.2h0c.286,0,.5.334.443.693l-.156.987-13.727.08-.154-1.112c-.041-.3.137-.57.372-.571Z" transform="translate(-79.623 -79.678)" fill="#14141c"/>
        <path id="Path_67100" data-name="Path 67100" d="M273.62,104.549c-4.1-1.482-7.39-4.856-9.85-7.818l-.009.009c-.152.244-.313.482-.484.712-4.209,5.715-13.467,6.929-13.467,6.929a24.484,24.484,0,0,1,.184-4.761c.529-3.968,2.227-9.237,7.391-10.931,4.739-1.558,8.2-.64,10.577.9a10.445,10.445,0,0,1,3.633,3.625.088.088,0,0,0,.016.025,13.935,13.935,0,0,1,1.566,3.893,22.032,22.032,0,0,1,.443,7.419" transform="translate(-73.926 -26.011)" fill="#272732"/>
        <path id="Path_67101" data-name="Path 67101" d="M263.77,98.11l-.009.009c-3.932,6.327-13.952,7.641-13.952,7.641a24.484,24.484,0,0,1,.184-4.761c.074-.163.151-.327.231-.494,0,0,.317,3.726,6.524.653a13.2,13.2,0,0,0,7.231-8.617,11.168,11.168,0,0,1-.21,5.57" transform="translate(-73.926 -27.39)" fill="#14141c"/>
        <path id="Path_67102" data-name="Path 67102" d="M279.069,105.928c-4.1-1.482-7.39-4.856-9.85-7.818l-.009.009c-.152.244-.313.482-.484.712l-.548-.731,1.251-5.559s2.183,6.553,6.477,9.355,3.541-1.878,1.142-5.32a20.547,20.547,0,0,1,1.578,1.934,22.035,22.035,0,0,1,.443,7.419" transform="translate(-79.375 -27.39)" fill="#14141c"/>
        <path id="Path_67103" data-name="Path 67103" d="M270.664,91.331a13.576,13.576,0,0,0-18.16,0c-4.388,4.037-3.372,11.183-3.372,11.183,2-10.718,8.431-12.067,11.647-12.339,1.964-.142,10.543-1.013,13.031,12.34,0,0,1.242-7.147-3.146-11.184" transform="translate(-73.708 -26.001)" fill="#c03bb2"/>
        <path id="Path_67104" data-name="Path 67104" d="M276.851,210.831a22.38,22.38,0,0,1-16.6,6.614c-10.266-.452-15.284-5.784-15.284-5.784a35.771,35.771,0,0,1-.382-5.165,36.88,36.88,0,0,1,1.457-10.979c1.341-4.073,3.373-13.6,3.373-13.6l19.194-2.974c1.676,6.236,1.061,3.574,4.832,12.608A47.6,47.6,0,0,1,276.61,205.1a49.263,49.263,0,0,1,.241,5.732" transform="translate(-72.392 -52.963)" fill="#e03a45"/>
        <path id="Path_67105" data-name="Path 67105" d="M272.854,186.59c-2.321,2.273-13.512,6.6-22.195-.4a39.04,39.04,0,0,0,.658-4.468h0a19.38,19.38,0,0,0,11.629,3.014c6.327-.633,8.811-3.014,8.811-3.014a26.894,26.894,0,0,0,1.1,4.868" transform="translate(-74.19 -53.785)" fill="#b4253d"/>
        <path id="Path_67106" data-name="Path 67106" d="M277.779,114.551l-2.9.018a2.059,2.059,0,0,0-.256-.018,1.9,1.9,0,0,0-1.924,1.836h3.847a1.826,1.826,0,0,0-.413-1.124Z" transform="translate(-80.712 -33.905)" fill="#272732"/>
        <path id="Path_67107" data-name="Path 67107" d="M253.647,114.551l2.9.018a2.06,2.06,0,0,1,.256-.018,1.9,1.9,0,0,1,1.924,1.836h-3.848a1.826,1.826,0,0,1,.413-1.124Z" transform="translate(-75.074 -33.905)" fill="#272732"/>
        <path id="Path_67108" data-name="Path 67108" d="M272.429,109.577a1.034,1.034,0,0,0-.693.967c-.06.8.932.737,1.861.737a8.783,8.783,0,0,1,4.577,1s-.3-1.245-1.1-1.6a46.7,46.7,0,0,0-4.648-1.1" transform="translate(-80.427 -32.433)" fill="#ff8b6f"/>
        <path id="Path_67109" data-name="Path 67109" d="M278.129,111.824l0,0a8.119,8.119,0,0,0-2.951-1.033c-1.585-.188-3.849-.034-3.21-1a1.4,1.4,0,0,1,.888-.467l0,0a6.4,6.4,0,0,1,1.475-.1c3.41.244,3.8,2.608,3.8,2.608" transform="translate(-80.462 -32.324)" fill="#272732"/>
        <path id="Path_67110" data-name="Path 67110" d="M278.124,111.865a8.12,8.12,0,0,0-2.951-1.033c-1.584-.189-3.848-.034-3.209-1a1.4,1.4,0,0,1,.888-.467.571.571,0,0,0-.1.577c.231.416.746.173,2.237.293a6.619,6.619,0,0,1,3.133,1.631" transform="translate(-80.462 -32.37)" fill="#14141c"/>
        <path id="Path_67111" data-name="Path 67111" d="M258.428,109.577a1.033,1.033,0,0,1,.693.967c.06.8-.932.737-1.861.737a8.783,8.783,0,0,0-4.577,1s.3-1.245,1.1-1.6a46.645,46.645,0,0,1,4.647-1.1" transform="translate(-74.789 -32.433)" fill="#ff8b6f"/>
        <path id="Path_67112" data-name="Path 67112" d="M252.8,111.824l0,0a8.12,8.12,0,0,1,2.951-1.033c1.585-.188,3.849-.034,3.21-1a1.4,1.4,0,0,0-.889-.467l0,0a6.4,6.4,0,0,0-1.475-.1c-3.41.244-3.8,2.608-3.8,2.608" transform="translate(-74.822 -32.324)" fill="#272732"/>
        <path id="Path_67113" data-name="Path 67113" d="M252.8,111.865a8.12,8.12,0,0,1,2.951-1.033c1.585-.189,3.849-.034,3.21-1a1.4,1.4,0,0,0-.888-.467.571.571,0,0,1,.1.577c-.231.416-.746.173-2.237.293a6.619,6.619,0,0,0-3.133,1.631" transform="translate(-74.824 -32.37)" fill="#14141c"/>
        <path id="Path_67114" data-name="Path 67114" d="M276.851,221.828a22.38,22.38,0,0,1-16.6,6.614c-10.266-.452-15.284-5.784-15.284-5.784a35.775,35.775,0,0,1-.382-5.165c1.091,1,7.808,6.49,16.137,6.34,7.547-.138,14.106-5.635,15.886-7.737a49.275,49.275,0,0,1,.241,5.732" transform="translate(-72.392 -63.96)" fill="#b4253d"/>
      </g>
    </g>
    <ellipse id="Ellipse_1291" data-name="Ellipse 1291" cx="115.173" cy="3.405" rx="115.173" ry="3.405" transform="translate(6600.348 -6604.437)" fill="#8fbaba" opacity="0.448"/>
  </g>
</svg>
