<svg xmlns="http://www.w3.org/2000/svg" xmlns:xlink="http://www.w3.org/1999/xlink" width="246.333" height="145.375" viewBox="0 0 246.333 145.375">
  <defs>
    <clipPath id="clip-path">
      <rect id="Rectangle_6885" data-name="Rectangle 6885" width="246.333" height="145.375" fill="none"/>
    </clipPath>
    <clipPath id="clip-path-3">
      <rect id="Rectangle_6873" data-name="Rectangle 6873" width="245.275" height="132.168" fill="none"/>
    </clipPath>
    <clipPath id="clip-path-4">
      <rect id="Rectangle_6874" data-name="Rectangle 6874" width="63.625" height="47.267" fill="none"/>
    </clipPath>
    <clipPath id="clip-path-6">
      <rect id="Rectangle_6881" data-name="Rectangle 6881" width="86.212" height="135.205" fill="none"/>
    </clipPath>
    <clipPath id="clip-path-7">
      <path id="Path_47925" data-name="Path 47925" d="M143.832,169.838l9.02,9.651L185.8,214.743l24.869.227a4.83,4.83,0,0,0,5.226-5.508l-1.322-1.414-81.9-87.639L143.7,169.234Z" transform="translate(-132.667 -120.408)" fill="none"/>
    </clipPath>
    <linearGradient id="linear-gradient" x1="-0.236" y1="0.914" x2="-0.233" y2="0.914" gradientUnits="objectBoundingBox">
      <stop offset="0" stop-color="#fff"/>
      <stop offset="0.647" stop-color="#708fea"/>
      <stop offset="1" stop-color="#708fea"/>
    </linearGradient>
    <clipPath id="clip-path-8">
      <path id="Path_47926" data-name="Path 47926" d="M166.393,269.721l6.88,30.458a9.151,9.151,0,0,0,8.093,6.872l20.086.183-35.059-37.513" transform="translate(-166.393 -269.721)" fill="none"/>
    </clipPath>
    <linearGradient id="linear-gradient-2" x1="-1.08" y1="0.969" x2="-1.073" y2="0.969" xlink:href="#linear-gradient"/>
    <clipPath id="clip-path-9">
      <path id="Path_47927" data-name="Path 47927" d="M151.537,14.419,125.2,13.528c-.111,0-.216,0-.324.006l22.241,23.8,52.815,56.513-8.284-36.5Z" transform="translate(-124.879 -13.527)" fill="none"/>
    </clipPath>
    <linearGradient id="linear-gradient-3" x1="-0.277" y1="1.41" x2="-0.273" y2="1.41" xlink:href="#linear-gradient"/>
    <clipPath id="clip-path-10">
      <rect id="Rectangle_6882" data-name="Rectangle 6882" width="26.209" height="9.795" fill="#00c1c1"/>
    </clipPath>
    <clipPath id="clip-path-11">
      <rect id="Rectangle_6883" data-name="Rectangle 6883" width="12.591" height="6.419" fill="none"/>
    </clipPath>
  </defs>
  <g id="Group_55635" data-name="Group 55635" transform="translate(-277.833 -3843.77)">
    <g id="Group_19831" data-name="Group 19831" transform="translate(277.833 3843.77)">
      <g id="Group_19830" data-name="Group 19830" clip-path="url(#clip-path)">
        <g id="Group_19812" data-name="Group 19812">
          <g id="Group_19811" data-name="Group 19811" clip-path="url(#clip-path)">
            <g id="Group_19807" data-name="Group 19807" transform="translate(0 12.542)" opacity="0.23">
              <g id="Group_19806" data-name="Group 19806">
                <g id="Group_19805" data-name="Group 19805" clip-path="url(#clip-path-3)">
                  <path id="Path_47767" data-name="Path 47767" d="M235.425,165.153c3.318-4.223,5.4-9.509,6.845-14.75,7.074-25.706,1.511-55.891-15.158-76.932-5.333-6.732-10.927-7.114-18.736-7.506a45.128,45.128,0,0,1-22.918-7.827c-9.027-6.175-15.7-15.535-25.319-20.75-14.2-7.7-32.377-4.627-46.013,4.023-15.011,9.522-27.325,25.7-45.05,27.046-13.123,1-25.855-6.756-38.925-5.213C19.561,64.495,10.322,71.987,5.337,81.412s-6.1,20.531-4.891,31.125a78.214,78.214,0,0,0,30.031,52.617Z" transform="translate(0 -32.986)" fill="#6ef3f3"/>
                </g>
              </g>
            </g>
            <g id="Group_19810" data-name="Group 19810" transform="translate(182.708 5.97)" opacity="0.23">
              <g id="Group_19809" data-name="Group 19809">
                <g id="Group_19808" data-name="Group 19808" clip-path="url(#clip-path-4)">
                  <path id="Path_47768" data-name="Path 47768" d="M480.587,29.423c1.156,7.431,7.824,12.862,14.8,15.669s14.585,3.724,21.631,6.35c4.889,1.822,9.7,4.792,12.761,8.885a6.418,6.418,0,0,0,10.2.235,19.121,19.121,0,0,0,4.127-12.829c-.6-8.96-5.68-17.306-12.767-22.823s-16.015-8.358-24.968-9.054c-5.208-.4-10.576-.094-15.417,1.869s-11.169,6.537-10.366,11.7" transform="translate(-480.517 -15.701)" fill="#76ffff"/>
                </g>
              </g>
            </g>
          </g>
        </g>
        <g id="Group_19829" data-name="Group 19829">
          <g id="Group_19828" data-name="Group 19828" clip-path="url(#clip-path)">
            <path id="Path_47769" data-name="Path 47769" d="M390.54,229.682c.1-5.074,1.971-9.926,2.938-14.908a40.514,40.514,0,0,0-4.888-28.04c2.387,6.005,1.739,12.747.771,19.136s-2.219,12.922-.93,19.254a5.543,5.543,0,0,0,1.313,2.935Z" transform="translate(-240.396 -115.732)" fill="#00c1c1"/>
            <path id="Path_47770" data-name="Path 47770" d="M370.344,248.41a53.474,53.474,0,0,0-3.5-20.215c-1.424-3.726-3.273-7.308-4.245-11.177-.983-3.912-1.039-7.988-1.505-11.994a7.155,7.155,0,0,0-1.276-3.845c1.038,2.151.666,4.859.495,7.241l-.433,6.016c-.313,4.344-.591,8.9,1.19,12.87.708,1.581,1.718,3,2.579,4.508,2.876,5.017,4.045,10.82,4.542,16.6Z" transform="translate(-222.901 -124.684)" fill="#00c1c1"/>
            <path id="Path_47771" data-name="Path 47771" d="M371.354,211.836h3.511a98.893,98.893,0,0,0,.19-16.763,29.48,29.48,0,0,0-.671-5.786c-.494-1.965-1.38-3.806-2.066-5.712a29.326,29.326,0,0,1-1.223-15.232c.282-1.506.683-2.992.873-4.513a32.986,32.986,0,0,0,.115-4.992,26.1,26.1,0,0,0-.939-7.5c-1.237-3.743-4.36-6.445-7.205-9.173,3.2,3.457,3.785,8.613,3.335,13.3s-1.764,9.307-1.708,14.02c.057,4.813,1.536,9.48,2.914,14.092,2.743,9.182,5.139,18.982,2.875,28.254" transform="translate(-225.557 -88.11)" fill="#00c1c1"/>
            <path id="Path_47772" data-name="Path 47772" d="M395.984,263.057c-.321-7.619,2.826-15.091,6.192-22.019a26.453,26.453,0,0,0,2.288-5.772c.777-3.534-.307-7.071-1.589-10.455,1.345,4.592-.211,9.559-2.522,13.749s-5.373,7.953-7.407,12.284a29.274,29.274,0,0,0-2.682,10.14,10.463,10.463,0,0,0,.008,2.073Z" transform="translate(-241.844 -139.331)" fill="#00c1c1"/>
            <path id="Path_47773" data-name="Path 47773" d="M389.723,214.866c-1.661-.972-1.622-2.367-1.889-4.269a32.541,32.541,0,0,1,2.22-17.1c.675-1.593,1.477-3.13,2.112-4.739a25.874,25.874,0,0,0,1.32-14.07c-1.163-6.363-4.586-12.141-5.751-18.5-.464-2.536-.522-5.305.789-7.525,1.2,6.337,4.152,12.4,7.654,17.813a27.211,27.211,0,0,1,3.218,5.784,15.352,15.352,0,0,1,.725,3.805c.443,5.791-1.283,11.532-3.487,16.905s-4.908,10.558-6.583,16.118c-.527,1.747-1.925,3.349-1.5,5.123l-.011-.044" transform="translate(-240.12 -92.135)" fill="#00c1c1"/>
            <path id="Path_47774" data-name="Path 47774" d="M378.578,320.2h-7.291a1.3,1.3,0,0,0-1.3,1.3v12.242a11.274,11.274,0,0,0,3.33,8.095c.121.117.243.231.364.338a4.156,4.156,0,0,0,2.747,1.02h4.205a4.154,4.154,0,0,0,2.746-1.019c.121-.107.241-.219.362-.335a11.275,11.275,0,0,0,3.334-8.1V321.494a1.3,1.3,0,0,0-1.3-1.3Z" transform="translate(-229.307 -198.448)" fill="#263238"/>
            <path id="Path_47775" data-name="Path 47775" d="M82.445,183.5H42.612a3.853,3.853,0,0,1-3.519-2.809l-5.635-22.3a2.115,2.115,0,0,1,2.1-2.809H75.39a3.853,3.853,0,0,1,3.518,2.809l5.635,22.3a2.115,2.115,0,0,1-2.1,2.809" transform="translate(-20.681 -96.426)" fill="#00c1c1"/>
            <path id="Path_47776" data-name="Path 47776" d="M58.308,175.418H50.552L48.6,167.672h7.756Zm-7.491-.341h7.054l-1.785-7.065H49.032Z" transform="translate(-30.118 -103.918)" fill="#fff"/>
            <path id="Path_47777" data-name="Path 47777" d="M75.8,173.963h-.9l-.139-.551h2.463l.14.551h-.9l.6,2.367H76.4Z" transform="translate(-46.331 -107.475)" fill="#01124a"/>
            <path id="Path_47778" data-name="Path 47778" d="M82.466,174.79a1.124,1.124,0,0,1,1.165-1.509,2.026,2.026,0,0,1,1.928,1.509,1.124,1.124,0,0,1-1.165,1.509,2.027,2.027,0,0,1-1.928-1.509m2.431,0a1.2,1.2,0,0,0-1.121-.934c-.5,0-.789.379-.648.934a1.2,1.2,0,0,0,1.12.933c.5,0,.789-.379.649-.933" transform="translate(-51.077 -107.394)" fill="#01124a"/>
            <path id="Path_47779" data-name="Path 47779" d="M91.707,177.315h1.143l.132.521H91.838Z" transform="translate(-56.837 -109.894)" fill="#01124a"/>
            <path id="Path_47780" data-name="Path 47780" d="M95.147,173.412h1.284a1.939,1.939,0,0,1,1.927,1.459,1.087,1.087,0,0,1-1.19,1.459H95.884ZM97,175.776a.654.654,0,0,0,.7-.9,1.16,1.16,0,0,0-1.157-.9h-.6l.457,1.809Z" transform="translate(-58.969 -107.475)" fill="#01124a"/>
            <path id="Path_47781" data-name="Path 47781" d="M104.332,174.79a1.124,1.124,0,0,1,1.165-1.509,2.026,2.026,0,0,1,1.928,1.509,1.124,1.124,0,0,1-1.165,1.509,2.027,2.027,0,0,1-1.928-1.509m2.431,0a1.2,1.2,0,0,0-1.121-.934c-.5,0-.789.379-.648.934a1.2,1.2,0,0,0,1.12.933c.5,0,.789-.379.649-.933" transform="translate(-64.629 -107.394)" fill="#01124a"/>
            <path id="Path_47782" data-name="Path 47782" d="M65.605,204.293H57.849l-1.957-7.745h7.756Zm-7.491-.34h7.054l-1.785-7.065H56.329Z" transform="translate(-34.64 -121.814)" fill="#fff"/>
            <path id="Path_47783" data-name="Path 47783" d="M83.153,203.063h-.9l-.139-.55h2.464l.139.55h-.9l.6,2.368h-.654Z" transform="translate(-50.889 -125.511)" fill="#01124a"/>
            <path id="Path_47784" data-name="Path 47784" d="M89.82,203.89a1.124,1.124,0,0,1,1.165-1.509,2.026,2.026,0,0,1,1.929,1.509,1.124,1.124,0,0,1-1.166,1.509,2.026,2.026,0,0,1-1.928-1.509m2.431,0a1.2,1.2,0,0,0-1.121-.934c-.5,0-.788.379-.648.934a1.2,1.2,0,0,0,1.12.933c.5,0,.789-.379.649-.933" transform="translate(-55.635 -125.429)" fill="#01124a"/>
            <path id="Path_47785" data-name="Path 47785" d="M99.06,206.415H100.2l.132.521H99.192Z" transform="translate(-61.394 -127.929)" fill="#01124a"/>
            <path id="Path_47786" data-name="Path 47786" d="M102.5,202.513h1.284a1.938,1.938,0,0,1,1.927,1.459,1.087,1.087,0,0,1-1.19,1.459h-1.284Zm1.849,2.363a.654.654,0,0,0,.7-.9,1.16,1.16,0,0,0-1.157-.9h-.6l.457,1.809Z" transform="translate(-63.527 -125.511)" fill="#01124a"/>
            <path id="Path_47787" data-name="Path 47787" d="M111.686,203.89a1.124,1.124,0,0,1,1.165-1.509,2.026,2.026,0,0,1,1.929,1.509,1.124,1.124,0,0,1-1.166,1.509,2.026,2.026,0,0,1-1.928-1.509m2.431,0a1.2,1.2,0,0,0-1.121-.934c-.5,0-.788.379-.648.934a1.2,1.2,0,0,0,1.12.933c.5,0,.789-.379.649-.933" transform="translate(-69.187 -125.429)" fill="#01124a"/>
            <path id="Path_47788" data-name="Path 47788" d="M104.693,12.638s-3.126,4.28-2.595,8.727l24.825,120.864a15.653,15.653,0,0,0,2.241,5.5c1.3,1.96,3.273,3.943,6,4.035l59.428.023s-2.115-2.513-1.948-7.446L110.547,23.354,107.127,13.7Z" transform="translate(-63.239 -7.833)" fill="#024949"/>
            <path id="Path_47789" data-name="Path 47789" d="M196.47,148.432l-52.833-1.787a9.533,9.533,0,0,1-8.43-7.159L106.821,13.8c-.864-3.826,1.51-6.823,5.3-6.694l52.833,1.787a9.534,9.534,0,0,1,8.43,7.159l28.386,125.688c.864,3.826-1.51,6.822-5.3,6.694" transform="translate(-66.094 -4.4)" fill="#007c7c"/>
            <path id="Path_47790" data-name="Path 47790" d="M197.8,148.724l-50.2-.458a9.151,9.151,0,0,1-8.093-6.872l-8.675-38.405L114.9,32.469l-2.491-11.043-.335-1.476c-.83-3.673,1.451-6.549,5.089-6.426l50.359,1.7a9.154,9.154,0,0,1,8.093,6.872l.3,1.335,2.514,11.078L194.14,103.75l8.745,38.548c.83,3.673-1.448,6.55-5.089,6.426" transform="translate(-69.352 -8.379)" fill="#00aeae"/>
            <path id="Path_47791" data-name="Path 47791" d="M178.426,34.513,114.9,32.469,112.4,21.426l-.335-1.476c-.829-3.673,1.451-6.55,5.089-6.426l50.359,1.7A9.154,9.154,0,0,1,175.61,22.1l.3,1.335Z" transform="translate(-69.352 -8.379)" fill="#fff"/>
            <path id="Path_47792" data-name="Path 47792" d="M181.89,53.336l.4-.637a1.3,1.3,0,0,0,.886.494c.391.013.544-.216.441-.684l-.445-2.021-1.481-.05-.173-.789,2.45.083.606,2.755c.231,1.049-.179,1.548-1.172,1.514a2.2,2.2,0,0,1-1.509-.665" transform="translate(-112.497 -30.771)" fill="#021d75"/>
            <path id="Path_47793" data-name="Path 47793" d="M190.918,52.329l-.523-2.379.975.033.515,2.342c.178.807.6,1.152,1.19,1.173s.865-.3.688-1.109l-.516-2.342.963.033.524,2.379c.275,1.25-.283,1.918-1.481,1.877a2.364,2.364,0,0,1-2.335-2.006" transform="translate(-118.001 -30.957)" fill="#021d75"/>
            <path id="Path_47794" data-name="Path 47794" d="M206.825,50.505l.935,4.248-.8-.027-2.668-2.65.567,2.579-.963-.033-.935-4.248.807.028,2.662,2.649-.567-2.579Z" transform="translate(-125.789 -31.22)" fill="#021d75"/>
            <path id="Path_47795" data-name="Path 47795" d="M219.774,54.376l.173.789-3.262-.11-.935-4.248,3.184.108.173.789-2.215-.075.2.922,1.956.066.168.765-1.956-.066.216.983Z" transform="translate(-133.715 -31.488)" fill="#021d75"/>
            <path id="Path_47796" data-name="Path 47796" d="M237.946,54.579l.132.6-2,.764-.127-.578,1.4-.508-1.652-.616-.126-.574Z" transform="translate(-146.004 -33.261)" fill="#01124a"/>
            <path id="Path_47797" data-name="Path 47797" d="M167.447,51.473l.126.574-1.4.513,1.651.611.127.578-2.368-.911-.132-.6Z" transform="translate(-102.539 -31.901)" fill="#01124a"/>
            <path id="Path_47798" data-name="Path 47798" d="M197.237,200.758a1.5,1.5,0,0,1-1.55,1.942,2.746,2.746,0,0,1-2.435-2.077,1.5,1.5,0,0,1,1.55-1.942,2.745,2.745,0,0,1,2.434,2.077" transform="translate(-119.741 -123.135)" fill="#ff5757"/>
            <path id="Path_47799" data-name="Path 47799" d="M153.7,143.052l.059-.256a1.067,1.067,0,0,0,.521.172c.2.007.269-.059.249-.15-.061-.278-.876-.116-1-.669-.056-.253.1-.456.519-.442a1.173,1.173,0,0,1,.54.149l-.048.258a1,1,0,0,0-.434-.131c-.2-.007-.264.067-.243.16.06.274.875.114,1,.66.055.248-.1.454-.524.44a1.278,1.278,0,0,1-.638-.192" transform="translate(-95.148 -87.826)" fill="#fff"/>
            <path id="Path_47800" data-name="Path 47800" d="M157.205,142.679l-.183-.833.341.011.181.821c.062.282.21.4.416.411s.3-.106.241-.388l-.181-.821.337.012.184.833c.1.438-.1.671-.518.657a.828.828,0,0,1-.817-.7" transform="translate(-97.317 -87.912)" fill="#fff"/>
            <path id="Path_47801" data-name="Path 47801" d="M162.768,142.04l.327,1.488-.28-.01-.933-.928.2.9-.337-.011-.328-1.488.282.009.931.929-.2-.9Z" transform="translate(-100.041 -88.004)" fill="#fff"/>
            <path id="Path_47802" data-name="Path 47802" d="M170.163,172.013c.067.3-.137.487-.449.476a.863.863,0,0,1-.821-.76c-.113-.514.131-.79.575-.775a.954.954,0,0,1,.433.116l-.071.249a.585.585,0,0,0-.292-.084c-.246-.008-.372.133-.32.418a.389.389,0,0,1,.335-.119.637.637,0,0,1,.609.48m-.327.006a.3.3,0,0,0-.3-.232c-.149-.005-.234.085-.205.214a.307.307,0,0,0,.307.229c.145,0,.228-.076.2-.212" transform="translate(-104.657 -105.951)" fill="#fff"/>
            <path id="Path_47803" data-name="Path 47803" d="M170.3,185.766l.327,1.487-.341-.011-.267-1.211-.295-.01-.061-.276Z" transform="translate(-105.151 -115.118)" fill="#fff"/>
            <path id="Path_47804" data-name="Path 47804" d="M173.306,186.894c.055.251-.086.473-.5.459a1.226,1.226,0,0,1-.6-.178l.074-.259a.882.882,0,0,0,.451.148c.171.006.26-.06.234-.181s-.122-.186-.316-.193l-.156-.005-.05-.227.227-.336-.627-.021-.061-.276,1.031.035.049.224-.248.371a.581.581,0,0,1,.494.441" transform="translate(-106.588 -115.168)" fill="#fff"/>
            <path id="Path_47805" data-name="Path 47805" d="M172.866,201.787l.062.28-1.114-.038-.049-.223.449-.522a.286.286,0,0,0,.093-.269.258.258,0,0,0-.276-.193.271.271,0,0,0-.273.139l-.284-.17a.516.516,0,0,1,.525-.257.635.635,0,0,1,.644.458.47.47,0,0,1-.143.462l-.268.311Z" transform="translate(-106.275 -124.284)" fill="#fff"/>
            <path id="Path_47806" data-name="Path 47806" d="M175.178,201.4c-.108-.49.1-.76.462-.748a.9.9,0,0,1,.8.79c.108.491-.1.76-.462.748a.9.9,0,0,1-.8-.791m.92.031c-.074-.338-.223-.482-.394-.487s-.255.13-.181.468.223.483.392.488.258-.13.183-.468" transform="translate(-108.552 -124.36)" fill="#fff"/>
            <path id="Path_47807" data-name="Path 47807" d="M176.463,216.657l.062.28-1.113-.038-.049-.223.449-.523a.286.286,0,0,0,.093-.269.257.257,0,0,0-.276-.193.271.271,0,0,0-.273.138l-.284-.17a.516.516,0,0,1,.524-.256.634.634,0,0,1,.644.458.469.469,0,0,1-.143.462l-.268.311Z" transform="translate(-108.504 -133.5)" fill="#fff"/>
            <path id="Path_47808" data-name="Path 47808" d="M179.5,215.574l.049.224-.269,1.246-.37-.013.263-1.189-.488-.017.053.242-.3-.01-.115-.523Z" transform="translate(-110.517 -133.581)" fill="#fff"/>
            <path id="Path_47809" data-name="Path 47809" d="M192.2,171.757l.049.224-.269,1.245-.37-.013.263-1.189-.488-.017.053.243-.3-.01-.115-.523Z" transform="translate(-118.387 -106.425)" fill="#fff"/>
            <path id="Path_47810" data-name="Path 47810" d="M192.267,186.509l.327,1.487-.341-.011-.267-1.211-.295-.01-.061-.276Z" transform="translate(-118.767 -115.579)" fill="#fff"/>
            <path id="Path_47811" data-name="Path 47811" d="M195.9,187.826l-.24-.008.069.312-.333-.011-.069-.312-.794-.027-.051-.232.487-.92.358.012-.448.873.4.013-.061-.279.322.011.062.278.24.008Z" transform="translate(-120.532 -115.666)" fill="#fff"/>
            <path id="Path_47812" data-name="Path 47812" d="M196.952,202.6l.062.28-1.114-.038-.049-.223.449-.522a.287.287,0,0,0,.094-.269.258.258,0,0,0-.276-.193.27.27,0,0,0-.272.138l-.284-.17a.516.516,0,0,1,.525-.256.635.635,0,0,1,.644.458.47.47,0,0,1-.143.462l-.268.311Z" transform="translate(-121.202 -124.79)" fill="#fff"/>
            <path id="Path_47813" data-name="Path 47813" d="M199.35,201.5l.327,1.487-.341-.011-.267-1.211-.3-.01-.061-.276Z" transform="translate(-123.156 -124.868)" fill="#fff"/>
            <path id="Path_47814" data-name="Path 47814" d="M198.739,217.41l.061.28-1.113-.037-.049-.223.449-.523a.287.287,0,0,0,.094-.269.259.259,0,0,0-.277-.193.272.272,0,0,0-.273.138l-.284-.17a.516.516,0,0,1,.524-.257.635.635,0,0,1,.644.458.469.469,0,0,1-.143.462l-.268.311Z" transform="translate(-122.309 -133.967)" fill="#fff"/>
            <path id="Path_47815" data-name="Path 47815" d="M202.344,217.38c.062.28-.148.448-.523.435a.7.7,0,0,1-.719-.478.286.286,0,0,1,.146-.343.475.475,0,0,1-.238-.312c-.057-.262.138-.417.473-.406a.649.649,0,0,1,.664.444.267.267,0,0,1-.105.3.524.524,0,0,1,.3.359m-.992-.671a.261.261,0,0,0,.267.191c.141,0,.216-.062.191-.175a.267.267,0,0,0-.273-.2c-.137,0-.212.063-.186.179m.644.648a.313.313,0,0,0-.325-.222c-.168-.006-.256.071-.227.2a.311.311,0,0,0,.321.224c.171.006.259-.073.23-.205" transform="translate(-124.573 -134.041)" fill="#fff"/>
            <path id="Path_47816" data-name="Path 47816" d="M175.635,143.952l-.2-.893-.272.721-.154-.005-.589-.73.192.873-.319-.011-.328-1.488.282.01.755.943.339-.906.28.009.332,1.488Z" transform="translate(-107.819 -88.266)" fill="#fff"/>
            <path id="Path_47817" data-name="Path 47817" d="M179.407,143.337a.575.575,0,0,1,.637-.741,1.044,1.044,0,0,1,.975.8.575.575,0,0,1-.637.742,1.045,1.045,0,0,1-.976-.8m1.267.043a.616.616,0,0,0-.565-.491.341.341,0,0,0-.356.46.617.617,0,0,0,.565.492.341.341,0,0,0,.356-.461" transform="translate(-111.178 -88.375)" fill="#fff"/>
            <path id="Path_47818" data-name="Path 47818" d="M185.276,142.8l.327,1.488-.279-.009-.933-.928.2.9-.336-.011-.328-1.488.282.01.931.929-.2-.9Z" transform="translate(-113.991 -88.475)" fill="#fff"/>
            <path id="Path_47819" data-name="Path 47819" d="M209.517,157.595l.327,1.488-.341-.011-.266-1.211-.3-.01-.061-.277Z" transform="translate(-129.458 -97.659)" fill="#fff"/>
            <path id="Path_47820" data-name="Path 47820" d="M212.51,173.477c.062.28-.148.448-.523.435a.7.7,0,0,1-.719-.478.287.287,0,0,1,.146-.343.475.475,0,0,1-.238-.312c-.057-.262.138-.418.473-.406a.649.649,0,0,1,.664.444.266.266,0,0,1-.105.3.524.524,0,0,1,.3.359m-.992-.671a.261.261,0,0,0,.267.191c.141,0,.216-.062.192-.175a.268.268,0,0,0-.273-.2c-.136,0-.212.062-.186.179m.644.648a.313.313,0,0,0-.325-.222c-.168-.006-.256.071-.227.2a.311.311,0,0,0,.321.224c.17.006.26-.073.23-.205" transform="translate(-130.874 -106.831)" fill="#fff"/>
            <path id="Path_47821" data-name="Path 47821" d="M212.763,187.2l.327,1.487-.341-.011-.267-1.211-.295-.01-.061-.276Z" transform="translate(-131.469 -116.009)" fill="#fff"/>
            <path id="Path_47822" data-name="Path 47822" d="M216.015,188.326c.058.264-.083.487-.5.472a1.227,1.227,0,0,1-.6-.178l.076-.259a.872.872,0,0,0,.449.148c.17.006.26-.063.233-.184s-.118-.2-.386-.205l-.377-.013-.108-.835.9.031.061.276-.614-.021.039.282.12,0c.436.014.652.218.71.482" transform="translate(-133.127 -116.065)" fill="#fff"/>
            <path id="Path_47823" data-name="Path 47823" d="M215.832,203.241l.062.28-1.114-.038-.049-.223.449-.522a.287.287,0,0,0,.094-.269.258.258,0,0,0-.276-.193.271.271,0,0,0-.273.138l-.284-.17a.516.516,0,0,1,.525-.256.635.635,0,0,1,.644.458.47.47,0,0,1-.143.462l-.268.311Z" transform="translate(-132.903 -125.185)" fill="#fff"/>
            <path id="Path_47824" data-name="Path 47824" d="M219.1,203.352l.062.28-1.114-.037-.049-.223.449-.523a.287.287,0,0,0,.094-.269.258.258,0,0,0-.276-.193.27.27,0,0,0-.272.138l-.284-.17a.517.517,0,0,1,.525-.256.635.635,0,0,1,.644.458.47.47,0,0,1-.143.461l-.268.311Z" transform="translate(-134.926 -125.254)" fill="#fff"/>
            <path id="Path_47825" data-name="Path 47825" d="M218.841,218.091l.062.28-1.114-.038-.049-.223.449-.523a.287.287,0,0,0,.093-.269.258.258,0,0,0-.276-.193.271.271,0,0,0-.273.138l-.284-.17a.516.516,0,0,1,.524-.256.635.635,0,0,1,.644.458.47.47,0,0,1-.143.462l-.268.311Z" transform="translate(-134.768 -134.389)" fill="#fff"/>
            <path id="Path_47826" data-name="Path 47826" d="M222.2,217.709c.113.514-.129.791-.575.776a.932.932,0,0,1-.431-.116l.071-.248a.572.572,0,0,0,.292.084c.244.008.372-.133.319-.419a.394.394,0,0,1-.337.121.638.638,0,0,1-.61-.48c-.067-.3.138-.487.449-.476a.861.861,0,0,1,.821.759m-.438-.272a.306.306,0,0,0-.305-.23c-.145,0-.227.077-.2.213a.3.3,0,0,0,.3.232c.149.005.232-.085.2-.214" transform="translate(-136.915 -134.458)" fill="#fff"/>
            <path id="Path_47827" data-name="Path 47827" d="M197.038,143.478l-.471-.016-.062-.281,1.284.043.062.281-.472-.016.266,1.207-.341-.011Z" transform="translate(-121.788 -88.739)" fill="#fff"/>
            <path id="Path_47828" data-name="Path 47828" d="M200.447,144.142l-.183-.833.341.011.181.821c.062.282.21.4.416.411s.3-.106.241-.388l-.181-.821.337.012.183.833c.1.438-.1.671-.518.657a.828.828,0,0,1-.817-.7" transform="translate(-124.117 -88.818)" fill="#fff"/>
            <path id="Path_47829" data-name="Path 47829" d="M206.066,144.707l.061.277-1.141-.039-.328-1.488,1.114.038.061.276-.775-.026.071.323.684.024.059.268-.684-.024.076.344Z" transform="translate(-126.84 -88.91)" fill="#fff"/>
            <path id="Path_47830" data-name="Path 47830" d="M232.369,159.553l.062.28-1.114-.038-.049-.223.449-.522a.287.287,0,0,0,.093-.269.258.258,0,0,0-.276-.194.271.271,0,0,0-.273.139l-.284-.17a.516.516,0,0,1,.524-.257.635.635,0,0,1,.644.459.47.47,0,0,1-.143.461l-.268.312Z" transform="translate(-143.153 -98.109)" fill="#fff"/>
            <path id="Path_47831" data-name="Path 47831" d="M235.468,173.911c.113.514-.13.791-.575.776a.934.934,0,0,1-.431-.116l.071-.248a.572.572,0,0,0,.292.084c.244.008.371-.133.319-.419a.4.4,0,0,1-.337.121.638.638,0,0,1-.609-.48c-.067-.3.137-.487.449-.476a.862.862,0,0,1,.822.759m-.438-.272a.306.306,0,0,0-.306-.23c-.145,0-.227.077-.2.213a.3.3,0,0,0,.3.232c.149,0,.232-.085.2-.215" transform="translate(-145.14 -107.313)" fill="#fff"/>
            <path id="Path_47832" data-name="Path 47832" d="M235.61,187.976l.327,1.488-.341-.012-.267-1.211-.3-.01-.061-.276Z" transform="translate(-145.63 -116.488)" fill="#fff"/>
            <path id="Path_47833" data-name="Path 47833" d="M239,189.093c.067.3-.137.487-.449.476a.863.863,0,0,1-.821-.76c-.113-.514.131-.79.575-.775a.945.945,0,0,1,.433.116l-.07.249a.581.581,0,0,0-.292-.084c-.246-.008-.372.133-.32.418a.391.391,0,0,1,.335-.119.638.638,0,0,1,.609.48m-.327.006a.3.3,0,0,0-.3-.231c-.149,0-.234.085-.206.214a.307.307,0,0,0,.308.23c.145,0,.228-.077.2-.213" transform="translate(-147.318 -116.537)" fill="#fff"/>
            <path id="Path_47834" data-name="Path 47834" d="M238.9,204.022l.062.28-1.114-.037-.049-.223.449-.523a.287.287,0,0,0,.094-.269.258.258,0,0,0-.276-.193.27.27,0,0,0-.272.138l-.284-.17a.517.517,0,0,1,.525-.256.635.635,0,0,1,.644.458.47.47,0,0,1-.143.461l-.268.311Z" transform="translate(-147.2 -125.669)" fill="#fff"/>
            <path id="Path_47835" data-name="Path 47835" d="M242.139,203.971c.055.25-.086.474-.5.459a1.221,1.221,0,0,1-.6-.178l.074-.259a.884.884,0,0,0,.451.148c.171.006.26-.06.234-.181s-.122-.186-.316-.192l-.156-.006-.05-.227.226-.336-.627-.021-.061-.276,1.031.035.049.224-.248.371a.581.581,0,0,1,.494.441" transform="translate(-149.248 -125.752)" fill="#fff"/>
            <path id="Path_47836" data-name="Path 47836" d="M241.651,218.7c.055.251-.086.474-.5.46a1.227,1.227,0,0,1-.6-.178l.074-.259a.881.881,0,0,0,.451.148c.171.006.26-.06.234-.181s-.122-.186-.316-.192l-.156-.005-.05-.227.227-.336-.627-.021-.061-.276,1.031.035.049.224-.248.371a.58.58,0,0,1,.494.441" transform="translate(-148.946 -134.881)" fill="#fff"/>
            <path id="Path_47837" data-name="Path 47837" d="M244.013,218.48c-.108-.49.1-.76.462-.748a.9.9,0,0,1,.8.79c.108.491-.1.76-.462.748a.9.9,0,0,1-.8-.791m.92.031c-.074-.338-.223-.482-.394-.487s-.256.131-.181.468.223.482.392.488.257-.13.183-.468" transform="translate(-151.214 -134.943)" fill="#fff"/>
            <path id="Path_47838" data-name="Path 47838" d="M218.832,143.937l-.154,1.471-.366-.013-.546-1.018-.113,1-.364-.012-.811-1.5.353.012.563,1.057.117-1.034.316.011.569,1.066.111-1.043Z" transform="translate(-134.166 -89.158)" fill="#fff"/>
            <path id="Path_47839" data-name="Path 47839" d="M224.576,145.333l.061.277-1.141-.039-.327-1.488,1.113.038.061.276-.775-.026.071.323.684.023.059.268-.684-.023.076.344Z" transform="translate(-138.312 -89.298)" fill="#fff"/>
            <path id="Path_47840" data-name="Path 47840" d="M226.882,144.208l.67.023a1,1,0,0,1,.976.771c.1.451-.167.733-.649.717l-.669-.022Zm.918,1.228c.293.01.445-.16.383-.445a.6.6,0,0,0-.586-.477l-.311-.01.2.922Z" transform="translate(-140.614 -89.375)" fill="#fff"/>
            <path id="Path_47841" data-name="Path 47841" d="M252.613,160.079c.055.251-.086.473-.5.459a1.223,1.223,0,0,1-.6-.178l.074-.259a.88.88,0,0,0,.451.148c.171.006.26-.061.234-.182s-.122-.186-.316-.192l-.156-.005-.05-.227.227-.336-.627-.021-.061-.276,1.031.034.049.224-.248.371a.581.581,0,0,1,.494.441" transform="translate(-155.74 -98.549)" fill="#fff"/>
            <path id="Path_47842" data-name="Path 47842" d="M252.39,173.792l.327,1.487-.341-.011-.266-1.211-.3-.01-.061-.277Z" transform="translate(-156.029 -107.697)" fill="#fff"/>
            <path id="Path_47843" data-name="Path 47843" d="M254.485,174.587c-.108-.49.1-.76.462-.748a.9.9,0,0,1,.8.79c.108.491-.1.76-.462.748a.9.9,0,0,1-.8-.79m.92.031c-.075-.338-.223-.482-.394-.488s-.256.131-.181.468.223.483.391.488.257-.13.183-.468" transform="translate(-157.704 -107.74)" fill="#fff"/>
            <path id="Path_47844" data-name="Path 47844" d="M255.988,188.665l.327,1.488-.341-.012-.267-1.211-.3-.01-.061-.276Z" transform="translate(-158.259 -116.915)" fill="#fff"/>
            <path id="Path_47845" data-name="Path 47845" d="M258.808,188.761l.049.224-.269,1.246-.37-.012.262-1.189-.488-.017.053.242-.3-.01-.115-.523Z" transform="translate(-159.669 -116.964)" fill="#fff"/>
            <path id="Path_47846" data-name="Path 47846" d="M258.7,204.691l.062.28-1.114-.038-.049-.223.449-.522a.287.287,0,0,0,.094-.269.258.258,0,0,0-.276-.193.271.271,0,0,0-.273.138l-.284-.17a.517.517,0,0,1,.525-.256.635.635,0,0,1,.644.458.47.47,0,0,1-.143.461l-.268.311Z" transform="translate(-159.472 -126.084)" fill="#fff"/>
            <path id="Path_47847" data-name="Path 47847" d="M262.505,204.828l-.24-.008.069.312-.333-.011-.069-.313-.794-.027-.051-.232.487-.92.358.012-.448.873.4.013-.061-.278.322.011.062.278.24.008Z" transform="translate(-161.814 -126.203)" fill="#fff"/>
            <path id="Path_47848" data-name="Path 47848" d="M239.577,144.917l-.471-.016-.062-.281,1.284.043.062.281-.471-.016.265,1.207-.341-.011Z" transform="translate(-148.152 -89.631)" fill="#fff"/>
            <path id="Path_47849" data-name="Path 47849" d="M244.255,144.8l.327,1.488-.341-.012-.134-.61-.669-.022.134.61-.341-.011-.327-1.488.341.011.129.587.67.023-.129-.587Z" transform="translate(-150.544 -89.712)" fill="#fff"/>
            <path id="Path_47850" data-name="Path 47850" d="M247.525,145.734l-.183-.833.341.011.181.821c.062.282.21.4.416.411s.3-.106.241-.388l-.181-.821.337.012.183.833c.1.438-.1.671-.518.657a.828.828,0,0,1-.817-.7" transform="translate(-153.295 -89.805)" fill="#fff"/>
            <path id="Path_47851" data-name="Path 47851" d="M272.755,160.928l-.24-.008.068.312-.333-.011-.068-.313-.794-.027-.051-.232.487-.921.358.012-.448.873.4.013-.061-.278.322.011.061.278.24.008Z" transform="translate(-168.166 -98.995)" fill="#fff"/>
            <path id="Path_47852" data-name="Path 47852" d="M274.038,174.525l.327,1.487-.341-.011-.266-1.211-.3-.01-.061-.277Z" transform="translate(-169.446 -108.151)" fill="#fff"/>
            <path id="Path_47853" data-name="Path 47853" d="M276.208,174.6l.327,1.487-.341-.011-.266-1.211-.3-.009-.061-.277Z" transform="translate(-170.791 -108.197)" fill="#fff"/>
            <path id="Path_47854" data-name="Path 47854" d="M275.824,189.336l.327,1.488-.341-.012-.267-1.211-.3-.01-.061-.276Z" transform="translate(-170.553 -117.331)" fill="#fff"/>
            <path id="Path_47855" data-name="Path 47855" d="M279.2,190.485c.062.28-.148.448-.523.435a.7.7,0,0,1-.719-.478.287.287,0,0,1,.146-.343.475.475,0,0,1-.238-.312c-.057-.261.138-.417.473-.405a.649.649,0,0,1,.664.444.268.268,0,0,1-.105.3.523.523,0,0,1,.3.359m-.992-.671a.261.261,0,0,0,.268.191c.141,0,.216-.062.191-.175a.267.267,0,0,0-.273-.194c-.137,0-.212.062-.186.179m.644.649a.313.313,0,0,0-.325-.222c-.168-.006-.256.071-.227.2a.311.311,0,0,0,.321.224c.17.006.259-.073.23-.205" transform="translate(-172.207 -117.372)" fill="#fff"/>
            <path id="Path_47856" data-name="Path 47856" d="M279.226,205.386l.062.28-1.114-.038-.049-.223.449-.522a.287.287,0,0,0,.094-.269.258.258,0,0,0-.276-.193.271.271,0,0,0-.273.138l-.284-.17a.517.517,0,0,1,.525-.256.635.635,0,0,1,.644.458.469.469,0,0,1-.143.461l-.268.311Z" transform="translate(-172.193 -126.515)" fill="#fff"/>
            <path id="Path_47857" data-name="Path 47857" d="M282.707,205.33c.058.263-.083.487-.5.472a1.227,1.227,0,0,1-.6-.178l.077-.259a.87.87,0,0,0,.448.148c.171.006.26-.063.233-.184s-.118-.2-.386-.2l-.377-.013-.108-.835.9.031.061.276-.614-.021.039.282.12,0c.436.014.652.218.71.482" transform="translate(-174.46 -126.604)" fill="#fff"/>
            <path id="Path_47858" data-name="Path 47858" d="M262.777,145.7l.087.393.682.023.061.276-.682-.023.119.542-.341-.012-.327-1.488,1.113.038.061.276Z" transform="translate(-162.612 -90.12)" fill="#fff"/>
            <path id="Path_47859" data-name="Path 47859" d="M267.178,147.049l-.376-.424h-.017l-.3-.01.091.414-.341-.012-.327-1.488.638.022a.745.745,0,0,1,.759.562.366.366,0,0,1-.2.459l.436.489Zm-.586-1.218-.278-.009.114.519.278.009c.208.007.292-.087.257-.249a.349.349,0,0,0-.371-.27" transform="translate(-164.804 -90.194)" fill="#fff"/>
            <path id="Path_47860" data-name="Path 47860" d="M269.981,145.667l.341.011.327,1.488-.341-.011Z" transform="translate(-167.325 -90.279)" fill="#fff"/>
            <path id="Path_47861" data-name="Path 47861" d="M295.161,161.5c.058.263-.083.486-.5.472a1.223,1.223,0,0,1-.6-.179l.077-.259a.869.869,0,0,0,.448.148c.171.006.26-.063.233-.184s-.119-.2-.386-.2l-.377-.013-.108-.835.9.03.061.276-.614-.021.039.282.12,0c.436.015.652.219.71.482" transform="translate(-182.179 -99.442)" fill="#fff"/>
            <path id="Path_47862" data-name="Path 47862" d="M295.207,175.241l.327,1.487-.341-.011-.266-1.211-.3-.01-.061-.277Z" transform="translate(-182.565 -108.596)" fill="#fff"/>
            <path id="Path_47863" data-name="Path 47863" d="M298.244,176.53l.062.28-1.114-.037-.049-.223.449-.522a.287.287,0,0,0,.093-.269.258.258,0,0,0-.276-.193.271.271,0,0,0-.273.138l-.284-.17a.516.516,0,0,1,.524-.257.635.635,0,0,1,.644.459.469.469,0,0,1-.143.461l-.268.312Z" transform="translate(-183.98 -108.631)" fill="#fff"/>
            <path id="Path_47864" data-name="Path 47864" d="M298.216,190.094l.327,1.488-.341-.012-.267-1.211-.3-.01-.061-.276Z" transform="translate(-184.431 -117.801)" fill="#fff"/>
            <path id="Path_47865" data-name="Path 47865" d="M301.343,190.89c.113.514-.129.791-.575.776a.936.936,0,0,1-.431-.116l.071-.248a.575.575,0,0,0,.292.084c.245.008.372-.133.32-.419a.4.4,0,0,1-.337.121.639.639,0,0,1-.61-.481c-.067-.3.137-.487.449-.476a.861.861,0,0,1,.821.76m-.438-.272a.306.306,0,0,0-.305-.23c-.145,0-.227.077-.2.213a.3.3,0,0,0,.3.232c.149.005.232-.085.2-.215" transform="translate(-185.968 -117.836)" fill="#fff"/>
            <path id="Path_47866" data-name="Path 47866" d="M301.269,206.131l.062.28-1.114-.038-.049-.223.449-.522a.287.287,0,0,0,.093-.269.259.259,0,0,0-.276-.193.271.271,0,0,0-.272.139l-.284-.17a.516.516,0,0,1,.525-.257.635.635,0,0,1,.644.458.47.47,0,0,1-.143.462l-.268.311Z" transform="translate(-185.854 -126.977)" fill="#fff"/>
            <path id="Path_47867" data-name="Path 47867" d="M304.871,206.069c.067.3-.137.487-.449.476a.864.864,0,0,1-.821-.76c-.113-.514.131-.79.575-.776a.949.949,0,0,1,.433.116l-.071.249a.58.58,0,0,0-.292-.084c-.246-.008-.372.133-.32.417a.388.388,0,0,1,.335-.119.638.638,0,0,1,.609.48m-.327.006a.3.3,0,0,0-.3-.231c-.149-.005-.234.085-.205.214a.306.306,0,0,0,.307.23c.145,0,.228-.076.2-.213" transform="translate(-188.145 -127.058)" fill="#fff"/>
            <path id="Path_47868" data-name="Path 47868" d="M283.238,147.434l.059-.255a1.067,1.067,0,0,0,.52.172c.2.007.269-.059.249-.15-.061-.278-.876-.116-1-.669-.056-.253.1-.456.519-.442a1.172,1.172,0,0,1,.541.149l-.048.258a1.006,1.006,0,0,0-.434-.131c-.2-.006-.263.067-.242.161.06.274.875.114,1,.66.055.248-.1.454-.524.44a1.283,1.283,0,0,1-.638-.192" transform="translate(-175.43 -90.541)" fill="#fff"/>
            <path id="Path_47869" data-name="Path 47869" d="M288.037,147.456l-.684-.023-.06.314-.349-.012.329-1.466.337.011.986,1.51-.358-.012Zm-.165-.265-.359-.577-.108.562Z" transform="translate(-177.838 -90.653)" fill="#fff"/>
            <path id="Path_47870" data-name="Path 47870" d="M290.734,146.648l-.471-.016-.062-.281,1.284.043.062.281-.472-.016.265,1.207-.341-.011Z" transform="translate(-179.857 -90.704)" fill="#fff"/>
            <path id="Path_47871" data-name="Path 47871" d="M199.164,88.913l.519,2.36-9.377-.317-.413-1.877,3.783-4.4a2.408,2.408,0,0,0,.787-2.262,2.17,2.17,0,0,0-2.328-1.623,2.285,2.285,0,0,0-2.295,1.165l-2.391-1.43c.646-1.38,2.183-2.233,4.416-2.157,2.765.094,4.924,1.586,5.423,3.857.267,1.216.175,2.313-1.2,3.881l-2.256,2.621Z" transform="translate(-116.175 -48.571)" fill="#fff"/>
            <path id="Path_47872" data-name="Path 47872" d="M219.366,79.629l2.754,12.514-2.872-.1-2.242-10.19-2.481-.084-.512-2.324Z" transform="translate(-132.638 -49.239)" fill="#fff"/>
            <path id="Path_47873" data-name="Path 47873" d="M201.461,125.253l-.306-1.376-.42,1.111-.237-.008-.908-1.127.3,1.346-.494-.017-.5-2.293.435.015,1.164,1.453.524-1.4.432.014.511,2.293Z" transform="translate(-123.264 -76.163)" fill="#fff"/>
            <path id="Path_47874" data-name="Path 47874" d="M207.273,124.3a.887.887,0,0,1,.983-1.143,1.611,1.611,0,0,1,1.5,1.227.887.887,0,0,1-.983,1.144,1.612,1.612,0,0,1-1.5-1.228m1.955.067a.951.951,0,0,0-.873-.757.525.525,0,0,0-.55.709.951.951,0,0,0,.873.758.525.525,0,0,0,.55-.709" transform="translate(-128.442 -76.33)" fill="#fff"/>
            <path id="Path_47875" data-name="Path 47875" d="M216.324,123.48l.5,2.293-.432-.014-1.44-1.431.306,1.392-.519-.017-.5-2.293.435.015,1.436,1.43-.306-1.392Z" transform="translate(-132.778 -76.485)" fill="#fff"/>
            <path id="Path_47876" data-name="Path 47876" d="M221.133,123.643l1.033.035a1.543,1.543,0,0,1,1.505,1.189c.152.695-.258,1.13-1,1.1l-1.033-.035Zm1.416,1.891c.451.016.687-.246.59-.686a.923.923,0,0,0-.9-.736l-.481-.016.313,1.422Z" transform="translate(-137.051 -76.63)" fill="#fff"/>
            <path id="Path_47877" data-name="Path 47877" d="M230.325,125.769l-1.055-.036-.093.485-.539-.018.509-2.259.519.017,1.521,2.328-.552-.019Zm-.254-.408-.554-.89-.167.866Z" transform="translate(-141.702 -76.815)" fill="#fff"/>
            <path id="Path_47878" data-name="Path 47878" d="M235.169,125.587l.179.813-.526-.018-.18-.819-1.2-1.5.559.019.831,1.04.383-1,.517.017Z" transform="translate(-144.677 -76.888)" fill="#fff"/>
            <path id="Path_47879" data-name="Path 47879" d="M175.913,23.435l-63.508-2.009-.335-1.476c-.83-3.673,1.451-6.549,5.089-6.426l50.359,1.7a9.154,9.154,0,0,1,8.093,6.872Z" transform="translate(-69.352 -8.379)" fill="#007c7c"/>
            <path id="Path_47880" data-name="Path 47880" d="M228.643,285.915l-50.2-.458a9.151,9.151,0,0,1-8.093-6.872l-8.675-38.405c.618-2.865,3.272-5.394,6.117-5.3l50.185,1.7a8.981,8.981,0,0,1,7.013,4.362l8.745,38.548c.83,3.673-1.448,6.55-5.089,6.426" transform="translate(-100.199 -145.57)" fill="#fff"/>
            <path id="Path_47881" data-name="Path 47881" d="M203.288,267.208c.118.536-.284.859-1,.835a1.339,1.339,0,0,1-1.379-.915.549.549,0,0,1,.28-.657.906.906,0,0,1-.456-.6c-.11-.5.265-.8.906-.777a1.243,1.243,0,0,1,1.273.851.509.509,0,0,1-.2.575,1,1,0,0,1,.579.686m-1.9-1.284a.5.5,0,0,0,.513.364c.27.009.414-.119.367-.335a.512.512,0,0,0-.523-.373c-.262-.009-.406.119-.357.343m1.235,1.241a.6.6,0,0,0-.622-.425c-.323-.011-.491.137-.435.389a.6.6,0,0,0,.615.429c.327.011.5-.141.442-.393" transform="translate(-124.395 -164.298)" fill="#01124a"/>
            <path id="Path_47882" data-name="Path 47882" d="M207.618,267.428a.285.285,0,0,1,.306-.378.515.515,0,0,1,.478.4.29.29,0,0,1-.3.385.528.528,0,0,1-.479-.411m.322,1.461a.285.285,0,0,1,.305-.378.516.516,0,0,1,.478.4.291.291,0,0,1-.3.386.529.529,0,0,1-.479-.412" transform="translate(-128.668 -165.509)" fill="#01124a"/>
            <path id="Path_47883" data-name="Path 47883" d="M212.366,267.5c.106.48-.165.907-.968.879a2.353,2.353,0,0,1-1.145-.341l.144-.5a1.681,1.681,0,0,0,.863.284c.327.011.5-.116.448-.348-.048-.216-.235-.355-.606-.368l-.3-.01-.1-.435.435-.644-1.2-.041-.116-.529,1.978.067.094.427-.477.711a1.111,1.111,0,0,1,.947.844" transform="translate(-130.042 -164.519)" fill="#01124a"/>
            <path id="Path_47884" data-name="Path 47884" d="M216.893,267.075c-.207-.94.192-1.455.886-1.432a1.728,1.728,0,0,1,1.535,1.514c.207.94-.188,1.456-.887,1.432a1.731,1.731,0,0,1-1.535-1.514m1.764.06c-.143-.646-.427-.923-.754-.934s-.49.25-.347.9.427.923.75.934.494-.25.351-.9" transform="translate(-134.389 -164.637)" fill="#01124a"/>
            <path id="Path_47885" data-name="Path 47885" d="M234.829,266.329l.4.014.549,2.494,1.529.051.078.354-1.933-.065Z" transform="translate(-145.54 -165.062)" fill="#01124a"/>
            <path id="Path_47886" data-name="Path 47886" d="M241.363,269.441a.8.8,0,0,1,.872-1.06,1.452,1.452,0,0,1,1.351,1.136.8.8,0,0,1-.867,1.065,1.462,1.462,0,0,1-1.357-1.14m1.832.062a.96.96,0,0,0-.885-.781c-.412-.014-.657.273-.556.732a.97.97,0,0,0,.89.785c.412.014.652-.276.551-.737" transform="translate(-149.571 -166.333)" fill="#01124a"/>
            <path id="Path_47887" data-name="Path 47887" d="M249.191,268.6l.083.378a.645.645,0,0,0-.09-.007c-.416-.014-.617.233-.514.7l.236,1.074-.387-.013-.475-2.156.371.013.08.362c.082-.248.319-.369.695-.356" transform="translate(-153.73 -166.458)" fill="#01124a"/>
            <path id="Path_47888" data-name="Path 47888" d="M254.472,270.013l-1.735-.059a.992.992,0,0,0,.914.657.613.613,0,0,0,.56-.24l.27.26a.825.825,0,0,1-.767.321,1.462,1.462,0,0,1-1.393-1.141.793.793,0,0,1,.832-1.062,1.412,1.412,0,0,1,1.3,1.146,1.173,1.173,0,0,1,.018.118m-1.8-.34,1.372.046a.916.916,0,0,0-.822-.641.5.5,0,0,0-.55.595" transform="translate(-156.361 -166.561)" fill="#01124a"/>
            <path id="Path_47889" data-name="Path 47889" d="M262.512,269.98l.273,1.241-.387-.013-.264-1.2a.716.716,0,0,0-.692-.649c-.387-.013-.587.226-.484.694l.245,1.111-.388-.013-.263-1.2a.716.716,0,0,0-.692-.649c-.387-.013-.587.226-.484.694l.245,1.111-.387-.013-.475-2.156.371.013.071.321a.658.658,0,0,1,.664-.317,1.052,1.052,0,0,1,.83.424.725.725,0,0,1,.735-.371,1.112,1.112,0,0,1,1.082.965" transform="translate(-160.37 -166.683)" fill="#01124a"/>
            <path id="Path_47890" data-name="Path 47890" d="M272.249,267.255a.192.192,0,0,1,.206-.248.345.345,0,0,1,.317.257.191.191,0,0,1-.205.251.347.347,0,0,1-.318-.261m.216.67.387.013.475,2.156-.387-.013Z" transform="translate(-168.727 -165.483)" fill="#01124a"/>
            <path id="Path_47891" data-name="Path 47891" d="M278.239,270.674a.788.788,0,0,1-.839,1.066,1.189,1.189,0,0,1-.824-.375l.245,1.114-.387-.013-.648-2.945.371.013.075.342a.687.687,0,0,1,.683-.336,1.421,1.421,0,0,1,1.324,1.135m-.392-.013a.97.97,0,0,0-.889-.781c-.408-.014-.652.278-.552.733a.969.969,0,0,0,.886.785c.412.014.656-.276.555-.737" transform="translate(-170.923 -167.04)" fill="#01124a"/>
            <path id="Path_47892" data-name="Path 47892" d="M283.047,271.688l.093-.3a1.673,1.673,0,0,0,.8.249c.359.013.484-.093.444-.276-.107-.484-1.367-.111-1.556-.969-.085-.387.2-.635.749-.617a1.859,1.859,0,0,1,.822.221l-.1.3a1.342,1.342,0,0,0-.654-.192c-.339-.011-.477.109-.44.28.112.509,1.377.14,1.561.978.086.39-.215.626-.784.607a1.873,1.873,0,0,1-.939-.282" transform="translate(-175.279 -167.195)" fill="#01124a"/>
            <path id="Path_47893" data-name="Path 47893" d="M290.3,270.011l.474,2.156-.367-.012-.072-.326a.657.657,0,0,1-.65.325,1.138,1.138,0,0,1-1.127-.971l-.273-1.241.387.013.263,1.2a.734.734,0,0,0,.717.654c.4.013.606-.23.5-.694L289.91,270Z" transform="translate(-178.669 -167.302)" fill="#01124a"/>
            <path id="Path_47894" data-name="Path 47894" d="M299.271,271.223l.273,1.241-.387-.013-.263-1.2a.716.716,0,0,0-.692-.65c-.387-.013-.587.227-.484.694l.245,1.111-.387-.013-.264-1.2a.717.717,0,0,0-.691-.65c-.387-.013-.587.227-.484.695l.244,1.111-.387-.013-.475-2.156.371.013.071.321a.658.658,0,0,1,.664-.317,1.052,1.052,0,0,1,.83.424.725.725,0,0,1,.736-.371,1.112,1.112,0,0,1,1.081.965" transform="translate(-183.152 -167.453)" fill="#01124a"/>
            <path id="Path_47895" data-name="Path 47895" d="M210.157,298.823c.217.985-.247,1.514-1.1,1.485a1.8,1.8,0,0,1-.826-.222l.136-.476a1.1,1.1,0,0,0,.56.161c.468.016.713-.255.613-.8a.754.754,0,0,1-.646.233,1.224,1.224,0,0,1-1.168-.92c-.128-.581.264-.932.861-.911a1.65,1.65,0,0,1,1.573,1.454m-.84-.521a.585.585,0,0,0-.586-.439c-.278-.01-.436.146-.379.407a.578.578,0,0,0,.575.443c.287.009.445-.163.39-.411" transform="translate(-128.725 -184.299)" fill="#01124a"/>
            <path id="Path_47896" data-name="Path 47896" d="M214.722,299.707a.284.284,0,0,1,.305-.378.516.516,0,0,1,.478.4.291.291,0,0,1-.3.385.529.529,0,0,1-.479-.412m.321,1.461a.285.285,0,0,1,.305-.378.516.516,0,0,1,.478.4.291.291,0,0,1-.3.386.529.529,0,0,1-.479-.412" transform="translate(-133.071 -185.515)" fill="#01124a"/>
            <path id="Path_47897" data-name="Path 47897" d="M219.469,299.78c.106.48-.165.907-.968.879a2.354,2.354,0,0,1-1.145-.341l.144-.5a1.685,1.685,0,0,0,.864.284c.327.011.5-.116.448-.348-.048-.216-.235-.355-.606-.368l-.3-.01-.1-.435.435-.644-1.2-.041-.116-.529,1.978.067.094.427-.477.711a1.111,1.111,0,0,1,.947.844" transform="translate(-134.444 -184.524)" fill="#01124a"/>
            <path id="Path_47898" data-name="Path 47898" d="M224,299.355c-.207-.94.192-1.455.886-1.432a1.728,1.728,0,0,1,1.535,1.514c.207.94-.188,1.456-.887,1.432A1.731,1.731,0,0,1,224,299.355m1.764.06c-.142-.646-.427-.923-.754-.934s-.489.25-.347.9.427.923.75.934.494-.25.351-.9" transform="translate(-138.792 -184.643)" fill="#01124a"/>
            <path id="Path_47899" data-name="Path 47899" d="M241.933,298.609l.4.014.549,2.494,1.529.051.078.354-1.933-.065Z" transform="translate(-149.942 -185.068)" fill="#01124a"/>
            <path id="Path_47900" data-name="Path 47900" d="M248.466,301.721a.8.8,0,0,1,.873-1.06,1.452,1.452,0,0,1,1.351,1.136.8.8,0,0,1-.867,1.065,1.463,1.463,0,0,1-1.357-1.14m1.832.062a.96.96,0,0,0-.885-.781c-.412-.014-.657.273-.556.732a.969.969,0,0,0,.89.785c.412.014.652-.276.551-.737" transform="translate(-153.973 -186.339)" fill="#01124a"/>
            <path id="Path_47901" data-name="Path 47901" d="M256.294,300.881l.083.378a.659.659,0,0,0-.09-.007c-.416-.014-.618.233-.514.7l.236,1.074-.388-.013-.474-2.156.371.013.08.362c.082-.248.319-.369.695-.356" transform="translate(-158.132 -186.465)" fill="#01124a"/>
            <path id="Path_47902" data-name="Path 47902" d="M261.575,302.292l-1.735-.059a.991.991,0,0,0,.913.657.613.613,0,0,0,.56-.24l.269.26a.824.824,0,0,1-.767.321,1.462,1.462,0,0,1-1.393-1.141.793.793,0,0,1,.832-1.062,1.412,1.412,0,0,1,1.3,1.146c.007.032.014.081.018.118m-1.8-.34,1.372.046a.916.916,0,0,0-.822-.641.5.5,0,0,0-.55.595" transform="translate(-160.763 -186.567)" fill="#01124a"/>
            <path id="Path_47903" data-name="Path 47903" d="M269.616,302.26l.273,1.241-.387-.013-.263-1.2a.717.717,0,0,0-.692-.649c-.387-.013-.587.226-.484.694l.244,1.111-.388-.013-.263-1.2a.717.717,0,0,0-.692-.649c-.387-.013-.587.226-.484.694l.244,1.111-.387-.013-.475-2.156.371.013.071.321a.658.658,0,0,1,.664-.317,1.051,1.051,0,0,1,.83.424.725.725,0,0,1,.735-.371,1.112,1.112,0,0,1,1.082.965" transform="translate(-164.773 -186.689)" fill="#01124a"/>
            <path id="Path_47904" data-name="Path 47904" d="M279.353,299.535a.192.192,0,0,1,.206-.248.345.345,0,0,1,.317.257.192.192,0,0,1-.205.251.347.347,0,0,1-.318-.261m.216.67.387.013.475,2.156-.387-.013Z" transform="translate(-173.13 -185.489)" fill="#01124a"/>
            <path id="Path_47905" data-name="Path 47905" d="M285.343,302.954a.788.788,0,0,1-.839,1.066,1.19,1.19,0,0,1-.824-.375l.245,1.114-.387-.013-.648-2.945.371.013.075.342a.688.688,0,0,1,.683-.336,1.42,1.42,0,0,1,1.323,1.135m-.392-.013a.969.969,0,0,0-.889-.781c-.408-.014-.652.278-.552.733a.969.969,0,0,0,.886.785c.412.014.656-.276.555-.737" transform="translate(-175.326 -187.047)" fill="#01124a"/>
            <path id="Path_47906" data-name="Path 47906" d="M290.151,303.968l.093-.3a1.675,1.675,0,0,0,.8.249c.359.013.484-.093.444-.276-.106-.484-1.367-.111-1.555-.969-.085-.387.2-.635.749-.617a1.86,1.86,0,0,1,.822.221l-.1.3a1.343,1.343,0,0,0-.655-.192c-.339-.011-.477.109-.439.28.111.509,1.376.14,1.56.978.086.39-.214.626-.784.607a1.872,1.872,0,0,1-.939-.282" transform="translate(-179.682 -187.201)" fill="#01124a"/>
            <path id="Path_47907" data-name="Path 47907" d="M297.4,302.291l.475,2.156-.367-.012-.072-.326a.656.656,0,0,1-.649.326,1.139,1.139,0,0,1-1.127-.971l-.273-1.241.387.013.263,1.2a.733.733,0,0,0,.716.654c.4.013.607-.23.5-.694l-.245-1.114Z" transform="translate(-183.071 -187.308)" fill="#01124a"/>
            <path id="Path_47908" data-name="Path 47908" d="M306.374,303.5l.273,1.241-.387-.013-.263-1.2a.717.717,0,0,0-.692-.65c-.387-.013-.587.227-.484.694l.244,1.111-.388-.013-.263-1.2a.717.717,0,0,0-.692-.65c-.387-.013-.587.227-.484.695l.244,1.111-.387-.013-.474-2.156.371.013.071.321a.657.657,0,0,1,.663-.316,1.05,1.05,0,0,1,.83.424.725.725,0,0,1,.736-.371,1.112,1.112,0,0,1,1.081.965" transform="translate(-187.555 -187.459)" fill="#01124a"/>
            <path id="Path_47909" data-name="Path 47909" d="M210.764,329.305l.627,2.848-.654-.022-.511-2.319-.565-.019-.117-.529Z" transform="translate(-129.869 -204.067)" fill="#01124a"/>
            <path id="Path_47910" data-name="Path 47910" d="M214.779,330.826c-.207-.94.192-1.455.886-1.432a1.728,1.728,0,0,1,1.535,1.514c.207.94-.188,1.456-.887,1.432a1.731,1.731,0,0,1-1.535-1.514m1.764.06c-.143-.647-.428-.923-.755-.934s-.49.25-.347.9.427.924.75.934.494-.25.352-.9" transform="translate(-133.079 -204.147)" fill="#01124a"/>
            <path id="Path_47911" data-name="Path 47911" d="M221.766,331.729a.285.285,0,0,1,.306-.378.515.515,0,0,1,.478.4.29.29,0,0,1-.3.385.529.529,0,0,1-.479-.411m.322,1.46a.284.284,0,0,1,.306-.377.516.516,0,0,1,.478.4.291.291,0,0,1-.3.386.529.529,0,0,1-.479-.412" transform="translate(-137.437 -205.361)" fill="#01124a"/>
            <path id="Path_47912" data-name="Path 47912" d="M226.515,331.8c.106.48-.165.907-.968.88a2.349,2.349,0,0,1-1.145-.342l.144-.5a1.684,1.684,0,0,0,.863.284c.327.011.5-.116.448-.348-.048-.215-.235-.355-.606-.367l-.3-.01-.1-.435.435-.644-1.2-.041-.116-.529,1.978.067.094.427-.477.711a1.11,1.11,0,0,1,.947.844" transform="translate(-138.811 -204.37)" fill="#01124a"/>
            <path id="Path_47913" data-name="Path 47913" d="M231.042,331.376c-.207-.94.192-1.455.886-1.432a1.727,1.727,0,0,1,1.535,1.514c.207.94-.188,1.456-.887,1.432a1.732,1.732,0,0,1-1.535-1.514m1.764.06c-.143-.647-.427-.923-.754-.934s-.49.25-.347.9.427.923.75.934.494-.25.351-.9" transform="translate(-143.159 -204.489)" fill="#01124a"/>
            <path id="Path_47914" data-name="Path 47914" d="M249.036,330.89l.4.014.549,2.494,1.529.051.078.354-1.933-.065Z" transform="translate(-154.345 -205.075)" fill="#01124a"/>
            <path id="Path_47915" data-name="Path 47915" d="M255.57,334a.8.8,0,0,1,.872-1.06,1.452,1.452,0,0,1,1.351,1.136.8.8,0,0,1-.867,1.065A1.462,1.462,0,0,1,255.57,334m1.832.062a.96.96,0,0,0-.885-.781c-.412-.014-.657.273-.556.732a.97.97,0,0,0,.89.785c.412.014.652-.276.551-.736" transform="translate(-158.376 -206.346)" fill="#01124a"/>
            <path id="Path_47916" data-name="Path 47916" d="M263.4,333.161l.083.378a.649.649,0,0,0-.09-.007c-.416-.014-.618.233-.514.7l.237,1.074-.387-.013-.475-2.156.371.013.08.362c.082-.248.319-.369.695-.356" transform="translate(-162.535 -206.471)" fill="#01124a"/>
            <path id="Path_47917" data-name="Path 47917" d="M268.679,334.572l-1.736-.059a.991.991,0,0,0,.914.657.614.614,0,0,0,.56-.24l.269.26a.824.824,0,0,1-.767.321,1.462,1.462,0,0,1-1.393-1.141.793.793,0,0,1,.832-1.062,1.412,1.412,0,0,1,1.3,1.146c.007.032.014.081.018.118m-1.8-.34,1.372.046a.917.917,0,0,0-.822-.641.5.5,0,0,0-.55.595" transform="translate(-165.166 -206.573)" fill="#01124a"/>
            <path id="Path_47918" data-name="Path 47918" d="M276.719,334.541l.273,1.241-.387-.013-.264-1.2a.716.716,0,0,0-.692-.649c-.387-.013-.587.226-.484.694l.244,1.111-.387-.013-.264-1.2a.716.716,0,0,0-.692-.649c-.387-.013-.587.226-.484.694l.244,1.111-.387-.013-.475-2.156.371.013.07.321a.658.658,0,0,1,.664-.317,1.053,1.053,0,0,1,.83.424.724.724,0,0,1,.735-.371,1.112,1.112,0,0,1,1.082.965" transform="translate(-169.176 -206.696)" fill="#01124a"/>
            <path id="Path_47919" data-name="Path 47919" d="M286.456,331.816a.192.192,0,0,1,.206-.247.344.344,0,0,1,.317.257.191.191,0,0,1-.2.251.347.347,0,0,1-.318-.261m.216.67.387.013.475,2.156-.387-.013Z" transform="translate(-177.532 -205.495)" fill="#01124a"/>
            <path id="Path_47920" data-name="Path 47920" d="M292.445,335.234a.789.789,0,0,1-.839,1.066,1.189,1.189,0,0,1-.824-.375l.245,1.114-.387-.013-.648-2.945.371.013.075.342a.687.687,0,0,1,.683-.336,1.421,1.421,0,0,1,1.324,1.135m-.392-.013a.97.97,0,0,0-.889-.781c-.408-.014-.652.278-.552.733a.969.969,0,0,0,.886.785c.412.014.656-.276.555-.736" transform="translate(-179.728 -207.053)" fill="#01124a"/>
            <path id="Path_47921" data-name="Path 47921" d="M297.254,336.248l.093-.3a1.676,1.676,0,0,0,.8.249c.359.013.484-.093.444-.276-.106-.484-1.366-.111-1.555-.969-.085-.387.2-.635.749-.617a1.858,1.858,0,0,1,.822.221l-.1.3a1.342,1.342,0,0,0-.655-.192c-.339-.011-.477.109-.439.28.112.509,1.376.14,1.561.978.086.391-.214.626-.784.607a1.876,1.876,0,0,1-.939-.282" transform="translate(-184.084 -207.207)" fill="#01124a"/>
            <path id="Path_47922" data-name="Path 47922" d="M304.5,334.572l.474,2.156-.367-.012-.072-.326a.657.657,0,0,1-.65.326,1.138,1.138,0,0,1-1.127-.971l-.273-1.241.387.013.263,1.2a.734.734,0,0,0,.717.654c.4.013.606-.23.5-.694l-.245-1.114Z" transform="translate(-187.474 -207.315)" fill="#01124a"/>
            <path id="Path_47923" data-name="Path 47923" d="M313.477,335.784l.273,1.241-.387-.013-.263-1.2a.717.717,0,0,0-.692-.65c-.388-.013-.587.227-.484.694l.244,1.111-.387-.013-.264-1.2a.716.716,0,0,0-.691-.65c-.387-.013-.587.227-.484.695l.244,1.111-.387-.013-.475-2.156.372.013.07.321a.658.658,0,0,1,.663-.317,1.052,1.052,0,0,1,.83.424.725.725,0,0,1,.736-.371,1.112,1.112,0,0,1,1.082.965" transform="translate(-191.957 -207.466)" fill="#01124a"/>
            <rect id="Rectangle_6876" data-name="Rectangle 6876" width="0.323" height="56.892" transform="translate(68.285 107.714) rotate(-88.063)" fill="#708fea"/>
            <rect id="Rectangle_6877" data-name="Rectangle 6877" width="0.323" height="56.892" transform="translate(71.154 120.748) rotate(-88.063)" fill="#708fea"/>
            <path id="Path_47924" data-name="Path 47924" d="M114.281,81.563a.511.511,0,0,1-.483-.408l-5.046-24.527a.51.51,0,1,1,1-.206L114.8,80.949a.511.511,0,0,1-.4.6.5.5,0,0,1-.121.01" transform="translate(-67.394 -34.716)" fill="#708fea"/>
            <g id="Group_19821" data-name="Group 19821" transform="translate(47.483 5.144)" opacity="0.19" style="mix-blend-mode: screen;isolation: isolate">
              <g id="Group_19820" data-name="Group 19820">
                <g id="Group_19819" data-name="Group 19819" clip-path="url(#clip-path-6)">
                  <g id="Group_19814" data-name="Group 19814" transform="translate(2.961 40.639)">
                    <g id="Group_19813" data-name="Group 19813" transform="translate(0 0)" clip-path="url(#clip-path-7)">
                      <rect id="Rectangle_6878" data-name="Rectangle 6878" width="125.319" height="126.243" transform="matrix(0.747, -0.665, 0.665, 0.747, -47.013, 41.809)" fill="url(#linear-gradient)"/>
                    </g>
                  </g>
                  <g id="Group_19816" data-name="Group 19816" transform="translate(15.785 97.413)">
                    <g id="Group_19815" data-name="Group 19815" clip-path="url(#clip-path-8)">
                      <rect id="Rectangle_6879" data-name="Rectangle 6879" width="51.127" height="51.33" transform="matrix(0.747, -0.665, 0.665, 0.747, -18.628, 16.566)" fill="url(#linear-gradient-2)"/>
                    </g>
                  </g>
                  <g id="Group_19818" data-name="Group 19818" transform="translate(0 0)">
                    <g id="Group_19817" data-name="Group 19817" clip-path="url(#clip-path-9)">
                      <rect id="Rectangle_6880" data-name="Rectangle 6880" width="109.462" height="109.898" transform="matrix(0.747, -0.665, 0.665, 0.747, -39.886, 35.468)" fill="url(#linear-gradient-3)"/>
                    </g>
                  </g>
                </g>
              </g>
            </g>
            <path id="Path_47928" data-name="Path 47928" d="M488.527,368.448h9.144a8.761,8.761,0,0,0-.845-2.3c.17-.568.27-.992.27-.992s.253-.946.628-2.444h-4.706l.29,2.83a35.579,35.579,0,0,1-4.564,2.813c-.076.031-.147.062-.217.092" transform="translate(-302.773 -224.798)" fill="#e9a879"/>
            <path id="Path_47929" data-name="Path 47929" d="M483.358,374.177h8.333l.665-.665v.665h2.211c.322-.776-.287-1.791-.373-2.281-.1-.539-.808-1.031-.808-1.031-.554.014-1.22,1.411-1.442,1.411s-.412-1.457-.951-1.774-1.578-.447-1.964.032c-1.458,1.806-3.8,2.218-5.228,2.757-.879.332-.843.681-.686.9a2.163,2.163,0,0,1,.242-.014" transform="translate(-299.365 -229.449)" fill="#01124a"/>
            <path id="Path_47930" data-name="Path 47930" d="M456.922,368.448h9.143a8.486,8.486,0,0,0-.771-2.284c.119-.679.175-1.2.175-1.2s.117-.863.285-2.247h-4.72l.665,2.888a36.139,36.139,0,0,1-4.557,2.754c-.077.031-.149.062-.22.092" transform="translate(-283.186 -224.798)" fill="#e79e6c"/>
            <path id="Path_47931" data-name="Path 47931" d="M451.525,374.177h8.334l.665-.665v.665h2.211c.322-.776-.287-1.791-.373-2.281-.1-.539-.808-1.031-.808-1.031-.554.014-1.22,1.411-1.442,1.411s-.412-1.457-.951-1.774-1.578-.447-1.964.032c-1.458,1.806-3.8,2.218-5.228,2.757-.879.332-.843.681-.686.9a2.164,2.164,0,0,1,.242-.014" transform="translate(-279.636 -229.449)" fill="#01124a"/>
            <path id="Path_47932" data-name="Path 47932" d="M476.583,164.046l-11.91.544,0-.1-12.1.57a36.234,36.234,0,0,0-2.6,9.886c-.57,5.386-1.077,35.615-.887,37.2s7.224,30.038,7.224,30.038h4.88s2.6-19.138-1.648-31.052l3.454-16.488c1.437,12.712,5.228,47.224,5.228,47.224h4.816s4.309-14.2,4.119-20.85a51.627,51.627,0,0,0-1.9-12.231s2.155-35.108,2.281-38.277a21.305,21.305,0,0,0-.951-6.464" transform="translate(-278.3 -101.67)" fill="#01124a"/>
            <path id="Path_47933" data-name="Path 47933" d="M481.84,219.3c-.247-1.246-.452-2.5-.651-3.751s-.377-2.508-.551-3.765-.329-2.515-.464-3.776l-.2-1.892c-.053-.632-.119-1.264-.161-1.9.127.623.23,1.249.346,1.873l.306,1.878c.2,1.252.377,2.508.55,3.765s.329,2.515.463,3.776.271,2.523.363,3.79" transform="translate(-297.372 -126.565)" fill="#4e609c"/>
            <path id="Path_47934" data-name="Path 47934" d="M474.168,227.546l-3.251,13.144c-.525,2.194-1.079,4.382-1.562,6.583-.118.549-.24,1.1-.319,1.646l-.02.194a.058.058,0,0,1,0,.038.718.718,0,0,0,.033.065,1.121,1.121,0,0,0,.246.265c.2.17.443.321.673.51a1.982,1.982,0,0,1,.329.33.939.939,0,0,1,.19.488.862.862,0,0,1-.036.267l-.038.122a.351.351,0,0,1-.013.057,2.14,2.14,0,0,0,.009.381,15.609,15.609,0,0,0,.293,1.643c.481,2.2,1.064,4.38,1.562,6.585.247,1.1.491,2.208.63,3.343.107,1.15.057,2.271.054,3.4-.07,4.516-.222,9.027-.421,13.537l.074-6.77c.03-2.256.056-4.513.055-6.768,0-.564,0-1.128-.013-1.69a16.216,16.216,0,0,0-.075-1.673c-.141-1.105-.389-2.207-.641-3.3-.508-2.2-1.1-4.372-1.6-6.582a15.706,15.706,0,0,1-.291-1.69,2.366,2.366,0,0,1,0-.463c.01-.049.024-.1.038-.148l.024-.081a.507.507,0,0,0,.023-.149.875.875,0,0,0-.383-.556c-.205-.171-.443-.322-.673-.516a1.441,1.441,0,0,1-.321-.357.951.951,0,0,1-.06-.123,1.139,1.139,0,0,1-.017-.173l.024-.227c.087-.573.211-1.121.333-1.674.5-2.205,1.046-4.4,1.616-6.58q1.7-6.555,3.534-13.073" transform="translate(-290.461 -141.026)" fill="#4e609c"/>
            <path id="Path_47935" data-name="Path 47935" d="M512.98,172.546c.073,1.545.137,3.091.183,4.637s.1,3.1-.013,4.645l-.512,9.266c-.326,6.177-.684,12.355-.9,18.534-.052,1.543-.111,3.092-.087,4.627,0,.191.012.382.026.569.007.093.017.184.032.266l.013.048c.01.03-.011-.029-.024-.018l.116.1a2.467,2.467,0,0,1,.759.977,1.587,1.587,0,0,1,.1.639c0,.1-.032.226-.025.3a1.906,1.906,0,0,0,0,.264c.019.376.06.763.1,1.145.322,3.072.756,6.142.887,9.245a13.109,13.109,0,0,1-.065,2.338c-.1.775-.258,1.533-.411,2.293-.316,1.517-.669,3.023-1.03,4.528-.737,3.005-1.516,6-2.317,8.988.741-3,1.46-6.012,2.136-9.03.341-1.508.68-3.017.976-4.532.144-.758.291-1.518.382-2.278a12.863,12.863,0,0,0,.037-2.294c-.176-3.078-.6-6.144-.939-9.221-.04-.386-.084-.769-.1-1.165a2.2,2.2,0,0,1,0-.315c0-.122.024-.187.022-.279a1.231,1.231,0,0,0-.076-.5,2.123,2.123,0,0,0-.658-.827l-.109-.089a.376.376,0,0,1-.091-.146l-.025-.092a3.04,3.04,0,0,1-.04-.309c-.016-.2-.024-.394-.029-.589-.03-1.557.023-3.1.07-4.65.246-6.186.6-12.363.986-18.538l.618-9.26c.142-1.538.112-3.084.105-4.631s-.048-3.093-.091-4.639" transform="translate(-315.965 -106.938)" fill="#4e609c"/>
            <path id="Path_47936" data-name="Path 47936" d="M455.359,170.88a9.1,9.1,0,0,1,.021,2.136,9.528,9.528,0,0,1-.446,2.1,7.188,7.188,0,0,1-1,1.917,4.866,4.866,0,0,1-1.662,1.352,6.826,6.826,0,0,0,1.42-1.524,9.206,9.206,0,0,0,.885-1.868,13.787,13.787,0,0,0,.513-2.022c.119-.689.221-1.387.272-2.1" transform="translate(-280.302 -105.906)" fill="#4e609c"/>
            <path id="Path_47937" data-name="Path 47937" d="M513.66,175.13l.084,1.687c.036.558.078,1.114.157,1.661a7.212,7.212,0,0,0,.379,1.594,1.916,1.916,0,0,0,1.043,1.189,1.4,1.4,0,0,1-.787-.357,2.358,2.358,0,0,1-.526-.709,5.374,5.374,0,0,1-.486-1.664,9.985,9.985,0,0,1,.135-3.4" transform="translate(-318.213 -108.54)" fill="#4e609c"/>
            <path id="Path_47938" data-name="Path 47938" d="M396.139,89.463s.713,2.59.832,3.066a12.783,12.783,0,0,0,1.117,1.972l-2.923,1.307-2.519-4.563,1.046-2.115Z" transform="translate(-243.349 -55.24)" fill="#e9a879"/>
            <path id="Path_47939" data-name="Path 47939" d="M390.768,83.26l-2,1.411-.117.079a.359.359,0,0,1-.5-.085l-3.739-5.321a.362.362,0,0,1,.085-.5l.116-.083,2.005-1.408a.34.34,0,0,1,.475.082l3.764,5.351a.344.344,0,0,1-.086.476" transform="translate(-238.203 -47.9)"/>
            <path id="Path_47940" data-name="Path 47940" d="M388.763,87.068l-.117.079a.359.359,0,0,1-.5-.085l-3.738-5.321a.362.362,0,0,1,.084-.5l.116-.083Z" transform="translate(-238.203 -50.297)" fill="#00005e"/>
            <path id="Path_47941" data-name="Path 47941" d="M390.961,83.256l-1.883,1.3-.117.08a.358.358,0,0,1-.5-.084l-3.749-5.314a.362.362,0,0,1,.084-.5l.116-.084,1.883-1.3a.34.34,0,0,1,.476.081l3.773,5.344a.344.344,0,0,1-.085.476" transform="translate(-238.392 -47.903)" fill="#708fea"/>
            <path id="Path_47942" data-name="Path 47942" d="M399,89.231a15.99,15.99,0,0,0-.38-3.208c-.309-.57-2.186-1.331-2.186-1.331A1.013,1.013,0,0,0,397.073,86l.475.618a6.186,6.186,0,0,0,.024,1.9Z" transform="translate(-245.661 -52.489)" fill="#e9a879"/>
            <path id="Path_47943" data-name="Path 47943" d="M389.941,90.73s.5-.143.5-.333-1.235-.832-1.235-.832a.348.348,0,0,0,.428-.119c.143-.238-1.307-1.307-1.307-1.307s.4-.214.309-.357-.832-.262-.832-.262l-.451-.641s-.19,1.307.428,1.473c0,0,.641,1.141,1.14,1.283,0,0,.262,1,1.022,1.093" transform="translate(-240.051 -53.845)" fill="#e9a879"/>
            <path id="Path_47944" data-name="Path 47944" d="M425.527,53.38s-7.89,2.567-10.361,5.133-6.939,21.958-6.939,21.958-.76-.665-1.046-.856-7.795-8.84-7.795-8.84-3.9,1.236-3.992,2.186,6.179,17.871,10.171,20.057,5.323.76,5.608.38,10.932-13.5,11.5-15.209,2.852-24.81,2.852-24.81" transform="translate(-245.051 -33.083)" fill="#007c7c"/>
            <path id="Path_47945" data-name="Path 47945" d="M432.035,127.594a21.939,21.939,0,0,1-1.779-1.652c-.562-.58-1.106-1.175-1.626-1.794l-.343-.41.493.163c.261.086.519.179.778.275s.514.2.767.313c-.276-.032-.545-.088-.818-.131s-.54-.107-.807-.168l.15-.246c.579.564,1.133,1.151,1.669,1.754a21.947,21.947,0,0,1,1.516,1.9" transform="translate(-265.438 -76.689)" fill="#00c1c1"/>
            <path id="Path_47946" data-name="Path 47946" d="M430.812,122.438a.9.9,0,0,1,1.014-.444.854.854,0,0,1-.431.4.863.863,0,0,1-.583.048" transform="translate(-267.003 -75.589)" fill="#00c1c1"/>
            <path id="Path_47947" data-name="Path 47947" d="M440.62,124.11a6.366,6.366,0,0,1-1,1.783c-.418.543-.878,1.047-1.293,1.578a6.3,6.3,0,0,0-1.022,1.692,3.046,3.046,0,0,0-.139.465c-.043.156-.06.312-.1.5a.807.807,0,0,1-.36.525,2.74,2.74,0,0,1-.509.2,2.359,2.359,0,0,0-1.183,1.4c-.14.3-.269.621-.427.934a7.056,7.056,0,0,1-.541.888c-.8,1.118-1.721,2.12-2.62,3.143.391-.559.8-1.1,1.2-1.652s.818-1.087,1.177-1.653a9.243,9.243,0,0,0,.486-.873c.141-.3.261-.615.4-.932a4.638,4.638,0,0,1,.506-.93,1.925,1.925,0,0,1,.876-.686,2.675,2.675,0,0,0,.443-.162.427.427,0,0,0,.2-.3c.034-.14.058-.322.106-.495a2.951,2.951,0,0,1,.16-.509,6.049,6.049,0,0,1,1.133-1.749c.451-.519.932-1,1.373-1.51a6.99,6.99,0,0,0,1.146-1.666" transform="translate(-267.381 -76.919)" fill="#00c1c1"/>
            <path id="Path_47948" data-name="Path 47948" d="M437.286,145.763a1.873,1.873,0,0,1,1.466.743,1.7,1.7,0,0,1-.819-.2,1.719,1.719,0,0,1-.647-.541" transform="translate(-271.016 -90.339)" fill="#00c1c1"/>
            <path id="Path_47949" data-name="Path 47949" d="M397.371,103.707a8.906,8.906,0,0,1,1.652-1.036c.292-.14.58-.279.892-.394a2.177,2.177,0,0,1,.983-.162,6.119,6.119,0,0,0-.857.431c-.273.162-.56.319-.848.465a8.915,8.915,0,0,1-1.821.7" transform="translate(-246.278 -63.283)" fill="#00c1c1"/>
            <path id="Path_47950" data-name="Path 47950" d="M469.02,44.095a13.7,13.7,0,0,0,6.883,2.225c2.476.13,5.162.187,7.365-1.107A12.7,12.7,0,0,0,484.962,44c-3.931-1.5-4.953-2.767-4.953-2.767-1.261-1.378-2.067-6.415-2.067-6.415l-2.856,2.072-2.846-.178s-.249,3.341-1.56,4.653a10.445,10.445,0,0,1-3.09,1.784c.485.325.966.64,1.43.943" transform="translate(-289.797 -21.582)" fill="#e9a879"/>
            <path id="Path_47951" data-name="Path 47951" d="M479.357,38.485a5.152,5.152,0,0,0,4.376-.8,6.114,6.114,0,0,0,1.6-1.814c-.02-.115-.04-.214-.055-.3a5.14,5.14,0,0,1-5.758,1.7c-.016.186-.063.641-.166,1.216" transform="translate(-297.09 -22.048)" fill="#e27f5c"/>
            <path id="Path_47952" data-name="Path 47952" d="M457.02,165.087v.951l8.127,2.614,1.473-1.854.9,2.091,15.019-2.614-.333-1.521Z" transform="translate(-283.246 -102.11)" fill="#fff"/>
            <path id="Path_47953" data-name="Path 47953" d="M478.025,88.455a31.527,31.527,0,0,1,1.426,6.939s-16.35,2.376-25.761,0c0,0-.118-8.825-.278-15.563-.087-3.776-.19-6.894-.293-7.441-.034-.186-.084-.544-.148-1.038-.433-3.544-1.411-13.932-.992-14.932.475-1.141,8.555-4.088,8.555-4.088s1.141,2.852,3.612,2.757,6.126-3.4,6.126-3.4a68.394,68.394,0,0,0,6.422,2.734c1.046.19,3.327,3.232,3.422,4.278.046.5-.43,7.3-.935,14.274-.209,2.833-.422,5.7-.6,8.171-.316,4.205-.551,7.308-.551,7.308" transform="translate(-280.059 -32.036)" fill="#007c7c"/>
            <g id="Group_19824" data-name="Group 19824" transform="translate(172.913 39.316)" opacity="0.5" style="mix-blend-mode: screen;isolation: isolate">
              <g id="Group_19823" data-name="Group 19823">
                <g id="Group_19822" data-name="Group 19822" clip-path="url(#clip-path-10)">
                  <path id="Path_47954" data-name="Path 47954" d="M480.964,105.024c-.209,2.833-.422,5.7-.6,8.171l-4.156-4.156-4.1,4.1-4.54-4.54-4.1,4.1-4.54-4.544-3.73,3.73c-.087-3.776-.19-6.894-.293-7.441-.034-.186-.084-.544-.148-1.038l4.137,4.137,4.1-4.1,4.54,4.54,4.1-4.1,4.54,4.544,4.1-4.1Z" transform="translate(-454.755 -103.4)" fill="#00c1c1"/>
                </g>
              </g>
            </g>
            <path id="Path_47955" data-name="Path 47955" d="M455.257,103.321c-.131-1.534-.221-3.07-.3-4.605s-.134-3.073-.2-4.609c-.038-1.537-.092-3.074-.115-4.612l-.026-2.307c0-.77,0-1.538.014-2.308.07.767.114,1.535.173,2.3l.132,2.3c.083,1.536.135,3.073.2,4.609.037,1.537.092,3.074.114,4.612s.038,3.076.013,4.615" transform="translate(-281.752 -52.606)" fill="#00c1c1"/>
            <path id="Path_47956" data-name="Path 47956" d="M451.979,86.713a9.962,9.962,0,0,1,.784,1.909,9.852,9.852,0,0,1,.421,2.02,9.822,9.822,0,0,1-.784-1.909,9.954,9.954,0,0,1-.421-2.02" transform="translate(-280.122 -53.742)" fill="#00c1c1"/>
            <path id="Path_47957" data-name="Path 47957" d="M477.979,60.463a8.775,8.775,0,0,0,1.2,1.279,3.8,3.8,0,0,0,1.457.822,2.3,2.3,0,0,0,.808.062,2.168,2.168,0,0,0,.772-.255,3.6,3.6,0,0,0,1.213-1.211,2.84,2.84,0,0,1-1.055,1.462,2.233,2.233,0,0,1-.879.36,2.561,2.561,0,0,1-.954-.05,3.482,3.482,0,0,1-1.564-.975,4.981,4.981,0,0,1-1-1.494" transform="translate(-296.236 -37.473)" fill="#00c1c1"/>
            <path id="Path_47958" data-name="Path 47958" d="M480.291,55.885l-1.165-2.911-1.2,2.21s1.414.962,2.365.7" transform="translate(-296.203 -32.832)" fill="#bcd8e0"/>
            <path id="Path_47959" data-name="Path 47959" d="M487.472,57.39,485.321,54.6l-1.176,2.294a9.216,9.216,0,0,0,3.327.5" transform="translate(-300.057 -33.838)" fill="#bcd8e0"/>
            <path id="Path_47960" data-name="Path 47960" d="M484.145,52.611l.88-3.327,4.562-1.592,2.448,1.973-4.444,3.755-2.258-2.9Z" transform="translate(-300.058 -29.558)" fill="#fff"/>
            <path id="Path_47961" data-name="Path 47961" d="M475.275,52.766l-.713-3.351L472.8,47.942l-2.971,2.733,1.83-.665,1.165,2.376,1.354-1.972Z" transform="translate(-291.187 -29.713)" fill="#fff"/>
            <path id="Path_47962" data-name="Path 47962" d="M517.467,149.432c-.03-.052-.058-.1-.087-.157-3.229,3.553-5.9,6.981-4.843,7.636.974.6,4.316-.91,7.894-2.915a34.156,34.156,0,0,1-2.964-4.564" transform="translate(-317.509 -92.516)" fill="#e79e6c"/>
            <path id="Path_47963" data-name="Path 47963" d="M499.208,173.889s-2.375,1.01-2.7,1.06-1.032-.029-1.085-.162.887-.333.887-.333l2.733-1.473Z" transform="translate(-307.044 -107.208)" fill="#e6965f"/>
            <path id="Path_47964" data-name="Path 47964" d="M503.391,162.625s1.311,1.757.871,2.612a14.811,14.811,0,0,1-4.085,3.25c-.646.23-3.951,1.413-4.221,1.171s3.056-2.456,3.056-2.456.548-.367-.051-.779a6.854,6.854,0,0,1,1.262-2.273,14.068,14.068,0,0,1,3.168-1.525" transform="translate(-307.368 -100.79)" fill="#e79e6c"/>
            <path id="Path_47965" data-name="Path 47965" d="M501.268,168.658a14.208,14.208,0,0,0-1.888.491c-.282.164-1,.334-1.013.074a11.86,11.86,0,0,1,3.56-2.715c.767-.148.858,1.06.858,1.06Z" transform="translate(-308.872 -103.188)" fill="#e79e6c"/>
            <path id="Path_47966" data-name="Path 47966" d="M504.077,55.652a48.583,48.583,0,0,0-6.457-2.44c-.9.962-1.788,1.935-2.656,2.926l-1.819,7.214,19.2,17.4L501.8,93.01l3.232,3.327s18.251-9.6,18.251-15.4-18.346-24.62-19.2-25.285" transform="translate(-305.635 -32.979)" fill="#007c7c"/>
            <path id="Path_47967" data-name="Path 47967" d="M507.479,93.046a40.584,40.584,0,0,1,3.2,2.68,40.142,40.142,0,0,1,2.945,2.96,39.973,39.973,0,0,1-3.2-2.68,40.588,40.588,0,0,1-2.945-2.96" transform="translate(-314.519 -57.667)" fill="#00c1c1"/>
            <path id="Path_47968" data-name="Path 47968" d="M505.979,97.5a5.248,5.248,0,0,1,1.49.066,5.194,5.194,0,0,1,1.425.441,5.165,5.165,0,0,1-1.49-.066,5.233,5.233,0,0,1-1.425-.441" transform="translate(-313.589 -60.41)" fill="#00c1c1"/>
            <path id="Path_47969" data-name="Path 47969" d="M543.812,122.021a2.118,2.118,0,0,1,1.331-1.141,1.913,1.913,0,0,1-.542.714,1.934,1.934,0,0,1-.789.426" transform="translate(-337.037 -74.918)" fill="#00c1c1"/>
            <path id="Path_47970" data-name="Path 47970" d="M544.645,124.177a1.841,1.841,0,0,1,1.584-.38,1.677,1.677,0,0,1-.748.375,1.694,1.694,0,0,1-.836.005" transform="translate(-337.553 -76.694)" fill="#00c1c1"/>
            <path id="Path_47971" data-name="Path 47971" d="M544.812,126.07a.689.689,0,1,1,.475.19.678.678,0,0,1-.475-.19" transform="translate(-337.657 -78.016)" fill="#00c1c1"/>
            <path id="Path_47972" data-name="Path 47972" d="M517.312,153.794a7.783,7.783,0,0,1,.924-1.57,7.7,7.7,0,0,1,1.23-1.345,7.7,7.7,0,0,1-.925,1.571,7.779,7.779,0,0,1-1.23,1.345" transform="translate(-320.613 -93.51)" fill="#00c1c1"/>
            <path id="Path_47973" data-name="Path 47973" d="M509.435,64.518a1.3,1.3,0,0,1,.095-.795,5,5,0,0,1,.384-.7,9.846,9.846,0,0,1,.955-1.267,8.715,8.715,0,0,1,2.478-1.954c-.767.725-1.51,1.435-2.2,2.207-.346.382-.673.781-1,1.184-.157.206-.327.4-.461.617a1.4,1.4,0,0,0-.259.71" transform="translate(-315.713 -37.062)" fill="#00c1c1"/>
            <path id="Path_47974" data-name="Path 47974" d="M505.191,55.022a11.476,11.476,0,0,0,3.76,1.825,5.024,5.024,0,0,1,.989.416,2.563,2.563,0,0,1,.444.324c.14.125.249.265.37.374a.688.688,0,0,0,.4.2c.154.023.34.011.533.055a2.118,2.118,0,0,1,.962.561c.516.509.963,1.034,1.439,1.557l1.4,1.577,2.771,3.18c1.816,2.148,3.622,4.3,5.4,6.483l2.649,3.281a18.812,18.812,0,0,1,2.413,3.453,20.194,20.194,0,0,0-2.557-3.334l-2.73-3.213c-1.82-2.142-3.622-4.3-5.459-6.423-1.815-2.137-3.659-4.28-5.524-6.35a1.852,1.852,0,0,0-.821-.514c-.15-.04-.32-.033-.512-.064a.944.944,0,0,1-.524-.273c-.137-.131-.241-.272-.362-.384a2.349,2.349,0,0,0-.4-.306,5.026,5.026,0,0,0-.94-.424,11.084,11.084,0,0,1-3.7-2" transform="translate(-313.101 -34.101)" fill="#00c1c1"/>
            <path id="Path_47975" data-name="Path 47975" d="M520.548,157.379a8.027,8.027,0,0,0,1.278,1.017,3.985,3.985,0,0,1,.636.569,1.562,1.562,0,0,1,.392.772A6.765,6.765,0,0,0,521.6,158.7a4.338,4.338,0,0,1-.638-.563,1.63,1.63,0,0,1-.413-.759" transform="translate(-322.619 -97.538)" fill="#00c1c1"/>
            <path id="Path_47976" data-name="Path 47976" d="M483.041,10.135a1.062,1.062,0,0,0-.906-.066,5.693,5.693,0,0,0-2.766-6.7,5.844,5.844,0,0,0-7.651,3.065,6.9,6.9,0,0,0-.412,1.093s0,.008-.008.016a11.32,11.32,0,0,0-.622,3.877,7.127,7.127,0,0,0,.744,3.235,4.656,4.656,0,0,0,.946,1.256,5.129,5.129,0,0,0,6.5.384,7.118,7.118,0,0,0,2.1-2.74c2.184.367,2.513-3.11,2.07-3.422" transform="translate(-291.709 -1.773)" fill="#e9a879"/>
            <path id="Path_47977" data-name="Path 47977" d="M485.563,27.11a1.823,1.823,0,1,0,1.823-1.823,1.823,1.823,0,0,0-1.823,1.823" transform="translate(-300.936 -15.672)" fill="#edba95"/>
            <path id="Path_47978" data-name="Path 47978" d="M470.68,25.377a7.132,7.132,0,0,0,.745,3.235,1.807,1.807,0,0,0,.717-1.445,1.827,1.827,0,0,0-1.461-1.79" transform="translate(-291.712 -15.728)" fill="#edba95"/>
            <path id="Path_47979" data-name="Path 47979" d="M499.019,24.09a1.619,1.619,0,0,0,.169-.753.36.36,0,0,0-.106-.313.333.333,0,0,0-.313-.04.938.938,0,0,0-.488.508c-.11.23-.216.477-.309.717a2.845,2.845,0,0,0-.2.733.277.277,0,0,0,.016.143.061.061,0,0,0,.074.032.677.677,0,0,0,.268-.2,1.22,1.22,0,0,0,.3-.675.754.754,0,0,0-.226-.7.772.772,0,0,1,.322.707,1.333,1.333,0,0,1-.284.765.711.711,0,0,1-.349.271.238.238,0,0,1-.263-.114.434.434,0,0,1-.043-.243,3,3,0,0,1,.2-.791c.1-.25.211-.485.333-.727a1.03,1.03,0,0,1,.606-.571.472.472,0,0,1,.435.091.465.465,0,0,1,.122.411,1.529,1.529,0,0,1-.266.75" transform="translate(-308.39 -14.143)" fill="#01124a"/>
            <path id="Path_47980" data-name="Path 47980" d="M480.7,25.41c-.005.05-.082.083-.173.074s-.159-.058-.154-.108.083-.083.173-.074.159.058.154.108" transform="translate(-297.721 -15.681)" fill="#f1ceb7"/>
            <path id="Path_47981" data-name="Path 47981" d="M479.705,22.183a1.878,1.878,0,0,1-.064.537,3.91,3.91,0,0,1-.188.5.577.577,0,0,0-.038.464.587.587,0,0,0,.352.34.532.532,0,0,1-.457-.291.664.664,0,0,1,0-.569c.079-.169.154-.319.218-.483s.119-.329.174-.5" transform="translate(-297.021 -13.748)" fill="#01124a"/>
            <path id="Path_47982" data-name="Path 47982" d="M481.531,26.508a.308.308,0,0,1,.087-.187.3.3,0,0,1,.191-.078.275.275,0,0,1-.087.187.283.283,0,0,1-.191.078" transform="translate(-298.437 -16.264)" fill="#01124a"/>
            <path id="Path_47983" data-name="Path 47983" d="M480.888,31.34a.949.949,0,0,1-.526.137,1.445,1.445,0,0,1-.272-.038,1.068,1.068,0,0,1-.254-.1,3.653,3.653,0,0,0,1.052,0" transform="translate(-297.387 -19.424)" fill="#01124a"/>
            <path id="Path_47984" data-name="Path 47984" d="M480.321,28.432a1.755,1.755,0,0,1-.654.421,2.025,2.025,0,0,1-.778.138,2.151,2.151,0,0,1-.773-.159,3.007,3.007,0,0,1-.352-.171c-.109-.072-.214-.148-.314-.229a5.777,5.777,0,0,0,.714.256,3.014,3.014,0,0,0,.728.106,2.707,2.707,0,0,0,.729-.085,2.948,2.948,0,0,0,.7-.276" transform="translate(-295.908 -17.621)" fill="#01124a"/>
            <path id="Path_47985" data-name="Path 47985" d="M476.4,21.878c0,.39.156.706.349.706s.349-.316.349-.706-.156-.706-.349-.706-.349.316-.349.706" transform="translate(-295.259 -13.122)" fill="#01124a"/>
            <path id="Path_47986" data-name="Path 47986" d="M476.214,24.577l.085-.179a1.3,1.3,0,0,0-1.059-.059l.1.168a1.09,1.09,0,0,1,.87.069" transform="translate(-294.539 -15.023)" fill="#e9a879"/>
            <path id="Path_47987" data-name="Path 47987" d="M474.885,17.8a.812.812,0,0,1-.538.083,1.922,1.922,0,0,0-.486.035,1.782,1.782,0,0,0-.469.163,2.916,2.916,0,0,0-.457.287l-.008.006a.1.1,0,0,1-.148-.128,1.663,1.663,0,0,1,.376-.5,1.548,1.548,0,0,1,.564-.33,1.767,1.767,0,0,1,.652-.1.621.621,0,0,1,.588.3.122.122,0,0,1-.044.167l0,0Z" transform="translate(-293.007 -10.73)" fill="#01124a"/>
            <path id="Path_47988" data-name="Path 47988" d="M478.074,17.437a1.841,1.841,0,0,0-.2.23l-.076.1a1.166,1.166,0,0,1-.114.11.268.268,0,0,0,.348-.087.342.342,0,0,0,.04-.35" transform="translate(-296.054 -10.807)" fill="#01124a"/>
            <path id="Path_47989" data-name="Path 47989" d="M484.911,21.878c0,.39-.156.706-.349.706s-.349-.316-.349-.706.156-.706.349-.706.349.316.349.706" transform="translate(-300.1 -13.122)" fill="#01124a"/>
            <path id="Path_47990" data-name="Path 47990" d="M484.512,24.577c.006,0,.557-.261.87-.069l.1-.168a1.3,1.3,0,0,0-1.059.059Z" transform="translate(-300.232 -15.023)" fill="#e9a879"/>
            <path id="Path_47991" data-name="Path 47991" d="M483.895,17.614a.622.622,0,0,1,.588-.3,1.776,1.776,0,0,1,.652.1,1.56,1.56,0,0,1,.563.33,1.651,1.651,0,0,1,.376.5.1.1,0,0,1-.148.128l-.008-.005a2.9,2.9,0,0,0-.456-.287,1.793,1.793,0,0,0-.469-.163,1.942,1.942,0,0,0-.486-.035.814.814,0,0,1-.538-.083l-.026-.013a.122.122,0,0,1-.051-.165l0,0" transform="translate(-299.892 -10.73)" fill="#01124a"/>
            <path id="Path_47992" data-name="Path 47992" d="M483.694,17.437a1.839,1.839,0,0,1,.2.23l.076.1a1.174,1.174,0,0,0,.114.11.268.268,0,0,1-.348-.087.342.342,0,0,1-.04-.35" transform="translate(-299.758 -10.807)" fill="#01124a"/>
            <path id="Path_47993" data-name="Path 47993" d="M483.095,3.567a3.905,3.905,0,0,0-.665-2.027c-.76-.89-7.259-2.791-9.856-.319-1.6,1.525-1.684,4.312-1.517,6.228,0,0,1.636-3.621,2.016-3.716s1.616,1.45,2.638,1.664a7.719,7.719,0,0,0,3.222-.892.928.928,0,0,1,1.282.559.942.942,0,0,1-.012.522,6.1,6.1,0,0,0-.5,2.068c.1.428.808,2.21.808,2.21a1.635,1.635,0,0,0,.914-.493c.318-.339.778-.816,1.13-1.125a1.3,1.3,0,0,1,.289-.017,13.464,13.464,0,0,0,.947-2.065,2.791,2.791,0,0,0-.7-2.6" transform="translate(-291.908 0)" fill="#01124a"/>
            <g id="Group_19827" data-name="Group 19827" transform="translate(179.387 0.487)" opacity="0.5" style="mix-blend-mode: screen;isolation: isolate">
              <g id="Group_19826" data-name="Group 19826">
                <g id="Group_19825" data-name="Group 19825" clip-path="url(#clip-path-11)">
                  <path id="Path_47994" data-name="Path 47994" d="M481.39,4.22a33.754,33.754,0,0,1-4.6-1.887C476,2.006,475.109,1.6,474.2,1.282a3.8,3.8,0,0,0-1.139.733,4.874,4.874,0,0,0-1.279,2.331,10.8,10.8,0,0,1,5.34.544c.56.2,1.1.438,1.639.69.244-.1.473-.2.659-.281a.928.928,0,0,1,1.282.559.94.94,0,0,1-.013.523c-.013.043-.027.085-.04.127.706.351,1.417.689,2.153.97a3.626,3.626,0,0,0,1.183.222,7.476,7.476,0,0,0,.292-.743,2.848,2.848,0,0,0-.505-2.4,11.588,11.588,0,0,1-2.382-.339" transform="translate(-471.782 -1.282)" fill="#01124a"/>
                </g>
              </g>
            </g>
            <line id="Line_4" data-name="Line 4" x2="239.166" transform="translate(3.584 144.995)" fill="none" stroke="#708fea" stroke-miterlimit="10" stroke-width="2"/>
          </g>
        </g>
      </g>
    </g>
  </g>
</svg>
