<svg xmlns="http://www.w3.org/2000/svg" xmlns:xlink="http://www.w3.org/1999/xlink" width="362.331" height="357.133" viewBox="0 0 362.331 357.133">
  <defs>
    <linearGradient id="linear-gradient" x1="-80.71" y1="-265.048" x2="-59.825" y2="-257.997" gradientUnits="objectBoundingBox">
      <stop offset="0" stop-color="#d6ffff"/>
      <stop offset="1" stop-color="#2ac2ff"/>
    </linearGradient>
    <linearGradient id="linear-gradient-2" x1="-103.826" y1="-376.355" x2="-77.997" y2="-366.333" xlink:href="#linear-gradient"/>
    <linearGradient id="linear-gradient-3" x1="-86.377" y1="-264.256" x2="-65.491" y2="-257.202" xlink:href="#linear-gradient"/>
    <linearGradient id="linear-gradient-4" x1="-110.532" y1="-374.638" x2="-84.773" y2="-364.626" xlink:href="#linear-gradient"/>
    <linearGradient id="linear-gradient-5" x1="-91.948" y1="-263.333" x2="-71.084" y2="-256.278" xlink:href="#linear-gradient"/>
    <linearGradient id="linear-gradient-6" x1="-117.875" y1="-373.327" x2="-92.042" y2="-363.317" xlink:href="#linear-gradient"/>
    <linearGradient id="linear-gradient-7" x1="-97.909" y1="-262.396" x2="-76.98" y2="-255.341" xlink:href="#linear-gradient"/>
    <linearGradient id="linear-gradient-8" x1="-124.674" y1="-372.457" x2="-98.883" y2="-362.434" xlink:href="#linear-gradient"/>
    <linearGradient id="linear-gradient-9" x1="-103.271" y1="-261.356" x2="-82.408" y2="-254.305" xlink:href="#linear-gradient"/>
    <linearGradient id="linear-gradient-10" x1="-131.896" y1="-371.146" x2="-106.062" y2="-361.123" xlink:href="#linear-gradient"/>
    <linearGradient id="linear-gradient-11" x1="-109.049" y1="-260.544" x2="-88.164" y2="-253.49" xlink:href="#linear-gradient"/>
    <linearGradient id="linear-gradient-12" x1="-138.492" y1="-369.396" x2="-112.733" y2="-359.385" xlink:href="#linear-gradient"/>
    <linearGradient id="linear-gradient-13" x1="-114.715" y1="-259.634" x2="-93.829" y2="-252.579" xlink:href="#linear-gradient"/>
    <linearGradient id="linear-gradient-14" x1="-145.879" y1="-368.484" x2="-120.051" y2="-358.462" xlink:href="#linear-gradient"/>
    <linearGradient id="linear-gradient-15" x1="-120.384" y1="-258.716" x2="-99.498" y2="-251.661" xlink:href="#linear-gradient"/>
  </defs>
  <g id="OBJECTS" transform="translate(-50.139 -60.643)">
    <g id="Group_68" data-name="Group 68" transform="translate(50.139 60.643)">
      <g id="Group_13" data-name="Group 13" transform="translate(40.932 18.153)">
        <path id="Path_1" data-name="Path 1" d="M256.391,87.606,245.71,81.393c-1.259-.865-3.071-.965-5.185-.129C208.4,93.971,189.344,91.533,179.651,88c-4.59-1.674-11.7,2.431-16.288,9.4-9.694,14.729-28.748,39.169-60.875,63.56-4,3.035-6.935,8.167-7.04,12.29-.481,18.853-.092,68.8,16.556,84.773a35.548,35.548,0,0,0,5.546,4.332l-.014.007.36.211q.865.537,1.752,1.025l9.74,5.7-.895-2.095c14.458,4.15,30.409,1.489,38.2-.329a22.355,22.355,0,0,0,9.63-5.56c11.01-10.145,38.332-37.421,54.688-72,14.851-31.4,16.764-74.885,16.662-96.9Z" transform="translate(-95.338 -80.688)" fill="#72c7b5"/>
        <path id="Path_2" data-name="Path 2" d="M252.38,88.167C220.252,100.873,201.2,98.435,191.5,94.9c-4.59-1.674-11.7,2.43-16.288,9.4-9.694,14.729-28.748,39.169-60.875,63.559-4,3.036-6.935,8.167-7.04,12.29-.481,18.854-.092,68.8,16.556,84.773,16.355,15.692,43.677,11.42,54.688,8.851a22.364,22.364,0,0,0,9.63-5.56c11.01-10.146,38.332-37.422,54.688-72,16.649-35.2,17.037-85.592,16.556-103.891C259.315,88.325,256.378,86.585,252.38,88.167Z" transform="translate(-96.457 -81.339)" fill="#e1f4ff"/>
        <path id="Path_3" data-name="Path 3" d="M247.815,95.911c-29.726,11.757-47.356,9.5-56.325,6.23-4.247-1.549-10.825,2.249-15.071,8.7-8.969,13.628-26.6,36.241-56.325,58.809-3.7,2.808-6.417,7.556-6.515,11.371-.445,17.445-.085,63.658,15.32,78.438,15.132,14.52,40.413,10.566,50.6,8.189a20.691,20.691,0,0,0,8.911-5.145c10.187-9.387,35.467-34.625,50.6-66.617,15.4-32.568,15.764-79.2,15.319-96.127C254.232,96.058,251.514,94.448,247.815,95.911Z" transform="translate(-97.05 -82.074)" fill="#94ccff"/>
        <path id="Path_4" data-name="Path 4" d="M239.01,195.883c-15.136,31.992-40.414,57.238-50.6,66.625a20.718,20.718,0,0,1-8.908,5.145c-9.033,2.1-29.935,5.451-45.1-3.943a33.125,33.125,0,0,1-5.5-4.25c-15.412-14.782-15.765-60.993-15.325-78.438.1-3.817,2.82-8.562,6.519-11.374,29.723-22.567,47.357-45.181,56.319-58.809,4.25-6.449,10.824-10.251,15.074-8.695,8.97,3.267,26.6,5.521,56.327-6.237a7.327,7.327,0,0,1,2.136-.519c2.568-.2,4.3,1.43,4.375,4.375C254.775,116.691,254.414,163.317,239.01,195.883Z" transform="translate(-97.05 -82.074)" fill="#fff"/>
        <path id="Path_5" data-name="Path 5" d="M235.138,193.811c-15.136,31.992-40.414,57.23-50.6,66.616a20.723,20.723,0,0,1-8.916,5.145c-8.286,1.933-26.549,4.909-41.222-1.861a33.125,33.125,0,0,1-5.5-4.25c-15.412-14.782-15.765-60.993-15.325-78.438.1-3.817,2.82-8.562,6.519-11.374,29.723-22.567,47.357-45.181,56.319-58.809,4.25-6.449,10.824-10.251,15.074-8.695,8.97,3.267,26.6,5.521,56.327-6.237a7.327,7.327,0,0,1,2.136-.519,5.618,5.618,0,0,1,.5,2.294C250.9,114.611,250.541,161.238,235.138,193.811Z" transform="translate(-97.05 -82.076)" fill="#9ee5e5"/>
        <path id="Path_6" data-name="Path 6" d="M242.522,193.812c-15.136,31.989-40.405,57.231-50.6,66.613-.056.056-.12.111-.177.158V103.265c2.571-1.392,5.114-1.856,7.127-1.123,8.974,3.267,26.6,5.522,56.331-6.236a7.385,7.385,0,0,1,2.135-.52,5.734,5.734,0,0,1,.5,2.3C258.289,114.615,257.927,161.238,242.522,193.812Z" transform="translate(-104.439 -82.076)" fill="#007c7c" opacity="0.59"/>
        <path id="Path_34" data-name="Path 34" d="M124.111,169.665l99.036,61.6,14.945-21.3L144.61,151.819Z" transform="translate(-98.054 -87.403)" fill="#e1f4ff"/>
      </g>
      <g id="Group_18" data-name="Group 18" transform="translate(201.24 87.054)">
        <path id="Path_35" data-name="Path 35" d="M302.4,192.928l-10.469,24.86-19.579,11.758,5.185,5.973s16.657-4.783,21.165-8.235c5.322-4.076,15.9-21.591,15.9-21.591Z" transform="translate(-272.355 -160.184)" fill="#d3edf4"/>
        <g id="Group_14" data-name="Group 14" transform="translate(44.495 175.725)">
          <path id="Path_36" data-name="Path 36" d="M346.3,359.19l-22.748,4.454a11.065,11.065,0,0,0-1.781,2.108c-.38,1.019.229,2.915,2.81,3.59a11.929,11.929,0,0,0,7.406-.862,56.013,56.013,0,0,0,5.657-3.038,9.551,9.551,0,0,1,2.158-.763l1.1.407a10.978,10.978,0,0,0,2.239-.68c1.365-.561,3.1-1.368,3.3-2.244C346.528,361.813,346.3,359.19,346.3,359.19Z" transform="translate(-321.505 -351.603)" fill="#0e0c18"/>
          <path id="Path_37" data-name="Path 37" d="M336.582,351.307s-1.389.578-4.625,3.835-9.251,6.724-10.18,8.624c-.8,1.631.016,3.258,2.9,4.123,2.931.879,7.67-1.217,10.609-3.207s9.489-3.153,10.694-5.174c1.188-1.99-.283-5.392-.834-6.232S343.417,349.7,336.582,351.307Z" transform="translate(-321.488 -350.813)" fill="#fff"/>
        </g>
        <path id="Path_38" data-name="Path 38" d="M347.6,383.824l24.583-6.615a14.069,14.069,0,0,1,0,2.154c-.108.415-4.14,2.479-5.473,2.413l0,0-.568-.145c-.591.414-1.58,1.1-2.573,1.746a27.8,27.8,0,0,1-5.991,3.123c-1.078.354-4.613,1.511-7.528.817C347.729,386.767,347.14,384.844,347.6,383.824Z" transform="translate(-279.444 -177.579)" fill="#0e0c18"/>
        <path id="Path_39" data-name="Path 39" d="M370.078,367.063s2.209.924,2.386,8.168a2.749,2.749,0,0,1-.812,1.817c-.765.622-3.394,1.291-5.211,2.391s-6.453,4.733-10.9,5.784-7.028-.1-7.84-1-.383-2.868,1.29-4.015a96.859,96.859,0,0,0,10.127-9.683,27.315,27.315,0,0,1,3.651-3.649C362.962,366.536,368.5,367.827,370.078,367.063Z" transform="translate(-279.43 -176.598)" fill="#fff"/>
        <path id="Path_40" data-name="Path 40" d="M345.576,344.9a70.437,70.437,0,0,0-.4,7.062c.144,1.526-6.389,2.451-8.173.411,0,0-.287-3.537-.35-5.96" transform="translate(-278.424 -174.529)" fill="#f2cfa4"/>
        <path id="Path_41" data-name="Path 41" d="M358.192,249.906a38.351,38.351,0,0,1-.965,8.806c-.464,2.042-3.879,3.694-4.566,6.775-.167.78-.418,2.292-.715,4.361-.733,5.281-1.744,14.208-2.5,23.915.037,2.042.037,4.158,0,6.329-.065,2.543-.186,5.141-.353,7.739-.195,3.137-.464,6.255-.752,9.253-1.16,11.925-2.8,21.781-2.8,21.781a7.878,7.878,0,0,1-5,1.41,13.672,13.672,0,0,1-5.735-1.484s-1.346-16.185-2.227-35.042c-.186-3.925-.353-7.971-.483-12.008-.872-27.079-3.629-53.064-3.564-56.646.065-5.531,25.659.464,25.659.464S358.331,242.463,358.192,249.906Z" transform="translate(-277.658 -163.943)" fill="#2d166d"/>
        <path id="Path_42" data-name="Path 42" d="M349.519,315.178c-.195,3.137-.464,6.255-.752,9.253l-.074.028s-2.192,1.189-7.027.349c0,0-.24,15.279-.7,22.814a13.671,13.671,0,0,1-5.735-1.484s-1.346-16.185-2.227-35.042c3.861-.575,9.094-.77,10.208-.092C344.193,311.6,347.218,313.619,349.519,315.178Z" transform="translate(-278.08 -171.289)" fill="#180c51"/>
        <path id="Path_43" data-name="Path 43" d="M354.005,273.031c-.734,5.279-1.744,14.207-2.5,23.916q.068,3.064,0,6.335l-.023.069-1.148-36.861Z" transform="translate(-279.716 -167.128)" fill="#0e0c18"/>
        <path id="Path_44" data-name="Path 44" d="M371.99,360.173a70.652,70.652,0,0,0-.4,7.063c.145,1.526-6.388,2.451-8.173.41,0,0-.286-3.537-.35-5.959" transform="translate(-280.918 -175.971)" fill="#f2cfa4"/>
        <path id="Path_45" data-name="Path 45" d="M374.736,275.007c-.242,7.776-1.365,23.73-.919,27.7.186,1.642.539,5.271.7,9.679.064,2.1.092,4.38.046,6.7-.028,1.012-.065,2.023-.12,3.044-.455,7.99-2.738,31.032-2.738,31.032a8.093,8.093,0,0,1-3.62,1.448,12.318,12.318,0,0,1-7.47-1.29s-2.023-17.549-4.334-37.3c-2.812-24.082-6.031-51.421-6.514-54.15-2.423-6.533-1.54-12.593-1.54-16.129s25.26-1.077,25.26-1.077,4.121,6.913,3.991,14.366C377.352,266.431,376.277,268.251,374.736,275.007Z" transform="translate(-279.502 -164.99)" fill="#2d166d"/>
        <path id="Path_46" data-name="Path 46" d="M375.415,326.067a12.049,12.049,0,0,1-6.347,2.552s-.6,22.959-.13,32.972a12.318,12.318,0,0,1-7.47-1.29s-2.023-17.549-4.334-37.3c1.5-2.023,4.093-5.113,6.06-5.215,2.088-.1,8.584.955,12.176,1.578C375.434,321.464,375.462,323.747,375.415,326.067Z" transform="translate(-280.358 -171.969)" fill="#180c51"/>
        <path id="Path_47" data-name="Path 47" d="M366.227,225.076c-2.489-8.309-7.581-22.2-13.74-30.556s-18.343-10.814-18.343-10.814c-3.537-1-14.915-1.878-19.846-.656s-9.963,5.72-8.507,11.757,13.834,23.09,16.44,31.489A122.761,122.761,0,0,1,327,244.16c1.127,6.73,1.156,11.161.709,27.286s.035,29.115.035,29.115a100.053,100.053,0,0,0,20.2,11.2c6.3,2.564,15.109,3.417,21.048.971,6.346-2.613,8.246-5.7,8.246-5.7s.873-42.439-3.636-61.662C372.975,242.705,367.405,229.011,366.227,225.076Z" transform="translate(-275.487 -159.195)" fill="#fff"/>
        <path id="Path_48" data-name="Path 48" d="M318.72,190.105s-2.66,3.909.53,5.752l.842-3.7-1.787-1.035" transform="translate(-276.633 -159.917)" fill="#d5ab80"/>
        <path id="Path_49" data-name="Path 49" d="M321.828,175.451s2.537,3.386,4.889,6.085c1.456,1.67,3.524,2.871,3.637,4.082.337,3.6-6.827,11.159-11.447,8.857-.557-2.292-2.688-3.8-4.85-6.078Z" transform="translate(-276.291 -158.534)" fill="#e2b888"/>
        <path id="Path_50" data-name="Path 50" d="M321.3,181.9l-1.271.421a13.664,13.664,0,0,0-.654-1.684l1.388-2.311A24.742,24.742,0,0,0,321.3,181.9Z" transform="translate(-276.793 -158.806)" fill="#e2b888"/>
        <path id="Path_51" data-name="Path 51" d="M300.087,173.687a44.4,44.4,0,0,0,3.252,11.889c2.53,5.47,3.2,6.683,5.738,7.207s4.645.187,8-3.151a20.007,20.007,0,0,0,4.615-7.873s.634.245,1.689-1.622c1.652-2.924,1.806-4.243,1.091-7.58A23.788,23.788,0,0,0,318.5,161.4c-3.53-3.8-11.2-.7-14.423,1.928S299.977,169.812,300.087,173.687Z" transform="translate(-274.972 -157.041)" fill="#f2cfa4"/>
        <path id="Path_52" data-name="Path 52" d="M324.19,178.953c-.251-.3-.278-.323-.52-.619a5.059,5.059,0,0,0-1-4.435,2.443,2.443,0,0,0-4.228,1.406,5.967,5.967,0,0,0,0,.986,17.834,17.834,0,0,0,.412,2.956l-1.147,1.04a13.666,13.666,0,0,0-.654-1.684c-.359-.78-.851-1.577-1.4-1.747-1.156-.331-3.35-.152-4.748-3.064a18.172,18.172,0,0,1-6.378,2.929,10.063,10.063,0,0,1-3.368.179l-.206-.026a7.018,7.018,0,0,1-5.886-5.169c-.027-.063-.036-.09-.036-.09a7.253,7.253,0,0,1,2.311-7.471l3.243-2.768a38.45,38.45,0,0,1,3.942-2.893,10.734,10.734,0,0,1,13.761,1.773c.187.216.689.269,1.281.4a3.313,3.313,0,0,1,2.625,1.828,40.15,40.15,0,0,1,2.49,7.337c.009.009.009.009.009.018C325.318,174.357,324.853,177.206,324.19,178.953Z" transform="translate(-274.471 -156.771)" fill="#2d166d"/>
        <path id="Path_53" data-name="Path 53" d="M324.22,179.358c-.251-.3-.278-.323-.52-.619a5.059,5.059,0,0,0-1-4.435,2.443,2.443,0,0,0-4.228,1.406,5.961,5.961,0,0,0,0,.986,17.834,17.834,0,0,0,.412,2.956l-1.146,1.04a13.664,13.664,0,0,0-.654-1.684c-.359-.78-.851-1.577-1.4-1.747-1.156-.331-3.35-.152-4.748-3.064a18.172,18.172,0,0,1-6.378,2.929,10.063,10.063,0,0,1-3.368.179l-.206-.026a7.019,7.019,0,0,1-5.886-5.169,6.479,6.479,0,0,0,6.02,3.476c4.623.036,10.115-4.157,12.99-6.656s6.549-5.3,5.492-7.866a3.313,3.313,0,0,1,2.625,1.827,40.15,40.15,0,0,1,2.49,7.337c.009.009.009.009.009.018C325.349,174.762,324.883,177.611,324.22,179.358Z" transform="translate(-274.502 -157.176)" fill="#1d0e56"/>
        <path id="Path_54" data-name="Path 54" d="M321.744,183.17a30.206,30.206,0,0,1-1.511,3.419c-.6-1.246-1.877-3.947-2.434-5.13l1.7-2.283-.074-.849-1.9,2.553a13.828,13.828,0,0,1-7.077,5.519,10.4,10.4,0,0,1-7.211.026q.189.458.4.914c2.527,5.474,3.2,6.683,5.733,7.212s4.65.187,8-3.154a18.2,18.2,0,0,0,3.118-4.282,22.01,22.01,0,0,0,1.5-3.592A.513.513,0,0,1,321.744,183.17Z" transform="translate(-275.27 -158.806)" fill="#27afaf"/>
        <g id="Group_17" data-name="Group 17" transform="translate(8.362 72.779)">
          <g id="Group_15" data-name="Group 15">
            <rect id="Rectangle_2" data-name="Rectangle 2" width="1.507" height="7.235" transform="translate(17.194 0.321) rotate(77.729)" fill="#d3edf4"/>
            <path id="Path_55" data-name="Path 55" d="M293.889,240.636l-.4-1.847a.092.092,0,0,0-.11-.071l-.72.157a.092.092,0,0,0-.071.11l.4,1.847a.092.092,0,0,0,.11.071l.72-.157A.092.092,0,0,0,293.889,240.636Z" transform="translate(-282.627 -237.285)" fill="#2b325e"/>
            <path id="Rectangle_3" data-name="Rectangle 3" d="M0,0H2.442a0,0,0,0,1,0,0V7.73a.308.308,0,0,1-.308.308H.308A.308.308,0,0,1,0,7.73V0A0,0,0,0,1,0,0Z" transform="translate(13.848 0.571) rotate(77.727)" fill="#29abe2" opacity="0.3"/>
            <path id="Path_56" data-name="Path 56" d="M292.6,240.864l-.4-1.852a.093.093,0,0,0-.111-.072l-3.512.764a.141.141,0,0,0-.108.168l.383,1.759a.14.14,0,0,0,.168.108l3.512-.763A.094.094,0,0,0,292.6,240.864Z" transform="translate(-282.238 -237.306)" fill="#29abe2" opacity="0.5"/>
            <path id="Rectangle_4" data-name="Rectangle 4" d="M0,0H1.523a0,0,0,0,1,0,0V.851a.223.223,0,0,1-.223.223H.223A.223.223,0,0,1,0,.851V0A0,0,0,0,1,0,0Z" transform="translate(6.091 2.728) rotate(77.728)" fill="#2b325e"/>
            <path id="Path_57" data-name="Path 57" d="M287.278,241.632l-.2-.914-1.315.439a.128.128,0,0,0-.084.148l.082.374a.127.127,0,0,0,.138.1Z" transform="translate(-281.975 -237.474)" fill="#2b325e"/>
            <path id="Path_58" data-name="Path 58" d="M285.323,241.508l.026.118-3.76.817.091-.142Z" transform="translate(-281.589 -237.549)" fill="#88ace5"/>
            <path id="Path_59" data-name="Path 59" d="M297.655,240.261l-.6-2.768a.113.113,0,0,0-.134-.085h0a.112.112,0,0,0-.086.133l.6,2.767a.113.113,0,0,0,.134.086h0A.111.111,0,0,0,297.655,240.261Z" transform="translate(-283.028 -237.162)" fill="#29abe2" opacity="0.8"/>
            <path id="Path_60" data-name="Path 60" d="M301.209,239.011l-.382-1.759a.147.147,0,0,0-.175-.112h0a.147.147,0,0,0-.111.175l.382,1.759a.146.146,0,0,0,.175.112h0A.146.146,0,0,0,301.209,239.011Z" transform="translate(-283.378 -237.136)" fill="#5f8dce"/>
          </g>
          <g id="Group_16" data-name="Group 16" transform="translate(6.806 1.908)">
            <path id="Path_61" data-name="Path 61" d="M289.223,240.951l.144.66a.061.061,0,0,1-.046.072h0a.061.061,0,0,1-.072-.046l-.143-.66a.06.06,0,0,1,.045-.072h0A.061.061,0,0,1,289.223,240.951Z" transform="translate(-289.104 -239.4)" fill="url(#linear-gradient)"/>
            <path id="Path_62" data-name="Path 62" d="M289.824,241.087l.093.429a.06.06,0,0,1-.046.072h0a.059.059,0,0,1-.071-.046l-.093-.429a.059.059,0,0,1,.045-.071h0A.059.059,0,0,1,289.824,241.087Z" transform="translate(-289.161 -239.413)" fill="url(#linear-gradient-2)"/>
            <path id="Path_63" data-name="Path 63" d="M290.314,240.714l.143.66a.059.059,0,0,1-.045.071h0a.06.06,0,0,1-.072-.045l-.144-.66a.061.061,0,0,1,.046-.072h0A.06.06,0,0,1,290.314,240.714Z" transform="translate(-289.207 -239.378)" fill="url(#linear-gradient-3)"/>
            <path id="Path_64" data-name="Path 64" d="M290.914,240.85l.094.429a.061.061,0,0,1-.046.072h0a.06.06,0,0,1-.072-.046l-.093-.429a.06.06,0,0,1,.046-.072h0A.06.06,0,0,1,290.914,240.85Z" transform="translate(-289.264 -239.391)" fill="url(#linear-gradient-4)"/>
            <path id="Path_65" data-name="Path 65" d="M291.4,240.476l.144.66a.06.06,0,0,1-.046.072h0a.059.059,0,0,1-.071-.045l-.144-.66a.06.06,0,0,1,.046-.072h0A.06.06,0,0,1,291.4,240.476Z" transform="translate(-289.31 -239.355)" fill="url(#linear-gradient-5)"/>
            <path id="Path_66" data-name="Path 66" d="M292,240.613l.093.429a.061.061,0,0,1-.045.072h0a.061.061,0,0,1-.072-.046l-.093-.429a.06.06,0,0,1,.045-.072h0A.06.06,0,0,1,292,240.613Z" transform="translate(-289.367 -239.368)" fill="url(#linear-gradient-6)"/>
            <path id="Path_67" data-name="Path 67" d="M292.495,240.239l.143.66a.059.059,0,0,1-.045.072h0a.06.06,0,0,1-.072-.046l-.143-.66a.058.058,0,0,1,.045-.071h0A.059.059,0,0,1,292.495,240.239Z" transform="translate(-289.413 -239.333)" fill="url(#linear-gradient-7)"/>
            <path id="Path_68" data-name="Path 68" d="M293.1,240.376l.093.429a.06.06,0,0,1-.046.071h0a.06.06,0,0,1-.072-.045l-.093-.429a.061.061,0,0,1,.046-.072h0A.06.06,0,0,1,293.1,240.376Z" transform="translate(-289.47 -239.346)" fill="url(#linear-gradient-8)"/>
            <path id="Path_69" data-name="Path 69" d="M293.585,240l.144.66a.06.06,0,0,1-.046.072h0a.06.06,0,0,1-.071-.046l-.144-.66a.06.06,0,0,1,.046-.072h0A.06.06,0,0,1,293.585,240Z" transform="translate(-289.516 -239.311)" fill="url(#linear-gradient-9)"/>
            <path id="Path_70" data-name="Path 70" d="M294.186,240.138l.093.429a.06.06,0,0,1-.045.072h0a.06.06,0,0,1-.072-.046l-.093-.429a.059.059,0,0,1,.045-.071h0A.06.06,0,0,1,294.186,240.138Z" transform="translate(-289.573 -239.323)" fill="url(#linear-gradient-10)"/>
            <path id="Path_71" data-name="Path 71" d="M294.676,239.765l.144.66a.06.06,0,0,1-.046.071h0a.059.059,0,0,1-.072-.045l-.143-.66a.06.06,0,0,1,.045-.072h0A.06.06,0,0,1,294.676,239.765Z" transform="translate(-289.619 -239.288)" fill="url(#linear-gradient-11)"/>
            <path id="Path_72" data-name="Path 72" d="M295.277,239.9l.093.429a.06.06,0,0,1-.046.072h0a.059.059,0,0,1-.071-.046l-.094-.429a.061.061,0,0,1,.046-.072h0A.061.061,0,0,1,295.277,239.9Z" transform="translate(-289.676 -239.301)" fill="url(#linear-gradient-12)"/>
            <path id="Path_73" data-name="Path 73" d="M295.767,239.527l.143.66a.06.06,0,0,1-.045.072h0a.06.06,0,0,1-.072-.045l-.144-.661a.06.06,0,0,1,.046-.071h0A.06.06,0,0,1,295.767,239.527Z" transform="translate(-289.722 -239.266)" fill="url(#linear-gradient-13)"/>
            <path id="Path_74" data-name="Path 74" d="M296.367,239.664l.093.429a.058.058,0,0,1-.045.071h0a.059.059,0,0,1-.072-.045l-.093-.429a.06.06,0,0,1,.046-.072h0A.059.059,0,0,1,296.367,239.664Z" transform="translate(-289.779 -239.279)" fill="url(#linear-gradient-14)"/>
            <path id="Path_75" data-name="Path 75" d="M296.857,239.29l.144.66a.061.061,0,0,1-.046.072h0a.06.06,0,0,1-.072-.046l-.143-.66a.059.059,0,0,1,.045-.071h0A.06.06,0,0,1,296.857,239.29Z" transform="translate(-289.825 -239.243)" fill="url(#linear-gradient-15)"/>
          </g>
        </g>
        <path id="Path_76" data-name="Path 76" d="M306.943,234.929a35.268,35.268,0,0,1-3.508.97c-.859.112-2.968-.73-4.34-.835s-3.576,1.885-4.344,2.221-.5,1.013.548,1.041a11.183,11.183,0,0,0,3.321-1.064,1.857,1.857,0,0,1,.84.588c.308.42-.351,1.353-1.325,1.717a54.08,54.08,0,0,1-5.7.928c-1.18.189-1.19,1.218.638,1.477l.01,0a2.842,2.842,0,0,0,.671.426,9.814,9.814,0,0,0,1.21.421,10.165,10.165,0,0,0,2.269,1.123,5.581,5.581,0,0,0,3.011.262s2.777-1.4,3.978-2.128a22.53,22.53,0,0,1,3.413-1.483Z" transform="translate(-274.173 -164.149)" fill="#27afaf"/>
        <path id="Path_77" data-name="Path 77" d="M336.03,198.542c-.6,5.786-1.045,23.74-1.045,23.74l-27.959,8.149s-1.642,6.3,2.794,8.575c0,0,27.043-3.357,36.508-7.632,2.118-1.644,5.327-17.711,5.778-25.218.489-8.138.55-12.837-4.14-15.384C343.234,188.2,336.739,191.667,336.03,198.542Z" transform="translate(-275.6 -159.9)" fill="#d3edf4"/>
        <path id="Path_78" data-name="Path 78" d="M343.587,310.465c-.582-.286-1.147-.573-1.7-.859.179-6.182,1.2-41.076.833-48.117-.395-7.722-.869-12.757-2.957-18.983-1.254-3.754-8.938-21.659-12.71-29.892a72.9,72.9,0,0,1-5.305-15.7,4.956,4.956,0,0,0,.716-.081c.654,3.539,3.616,11.48,5.354,15.386,1.792,4.032,11.951,26.744,12.879,29.078,1.474,3.714,2.981,9.108,3.43,20.53C344.536,272.239,343.739,304.768,343.587,310.465Z" transform="translate(-277.017 -160.553)" fill="#d3edf4"/>
        <path id="Path_79" data-name="Path 79" d="M353.079,247.922a.5.5,0,0,1,.751-.207,39.245,39.245,0,0,0,6.635,3.688,58.325,58.325,0,0,0,7.579,2.863.5.5,0,0,1,.326.655l-1.185,3.2a.5.5,0,0,1-.562.319,39.02,39.02,0,0,1-14.753-6.742.509.509,0,0,1-.166-.611Z" transform="translate(-279.841 -165.347)" fill="#d3edf4"/>
        <path id="Path_80" data-name="Path 80" d="M334.555,252.308a33.14,33.14,0,0,1-4.578,3.969c-.143-1.837-.358-3.521-.654-5.348,1.156-.9,2-1.63,2.455-2.034a.5.5,0,0,1,.725.063l2.078,2.706A.491.491,0,0,1,334.555,252.308Z" transform="translate(-277.732 -165.455)" fill="#d3edf4"/>
      </g>
      <g id="Group_26" data-name="Group 26" transform="translate(122.321 196.902)">
        <g id="Group_24" data-name="Group 24" transform="translate(3.187 4.429)">
          <g id="Group_19" data-name="Group 19" transform="translate(0 21.874)">
            <path id="Path_81" data-name="Path 81" d="M242.141,389.354a6.75,6.75,0,0,1-3.38-.9l-47.946-27.713a4.18,4.18,0,0,1-.007-7.231l78.436-45.48a6.766,6.766,0,0,1,6.769-.01L323.982,335.7a4.183,4.183,0,0,1,.013,7.235l-78.459,45.5A6.747,6.747,0,0,1,242.141,389.354Zm30.5-79.7a4.2,4.2,0,0,0-2.113.568l-78.436,45.481a1.635,1.635,0,0,0,0,2.83l47.946,27.712a4.216,4.216,0,0,0,4.219-.006l78.46-45.5a1.638,1.638,0,0,0-.005-2.832L274.741,310.22A4.213,4.213,0,0,0,272.636,309.657Z" transform="translate(-188.728 -307.114)" fill="#233d66"/>
          </g>
          <g id="Group_20" data-name="Group 20" transform="translate(51.103 65.695)">
            <path id="Path_82" data-name="Path 82" d="M247.519,422.214a2.36,2.36,0,0,1-2.361-2.359V357.861a2.36,2.36,0,0,1,4.721,0v61.994A2.36,2.36,0,0,1,247.519,422.214Z" transform="translate(-245.158 -355.502)" fill="#233d66"/>
          </g>
          <g id="Group_21" data-name="Group 21" transform="translate(1.861 45.128)">
            <path id="Path_83" data-name="Path 83" d="M193.144,392.033a2.361,2.361,0,0,1-2.361-2.36V335.151a2.361,2.361,0,0,1,4.722,0v54.522A2.361,2.361,0,0,1,193.144,392.033Z" transform="translate(-190.783 -332.791)" fill="#233d66"/>
          </g>
          <g id="Group_22" data-name="Group 22" transform="translate(130.371 28.892)">
            <path id="Path_84" data-name="Path 84" d="M335.049,373.25a2.36,2.36,0,0,1-2.361-2.359V317.222a2.361,2.361,0,0,1,4.722,0v53.669A2.36,2.36,0,0,1,335.049,373.25Z" transform="translate(-332.688 -314.863)" fill="#233d66"/>
          </g>
          <g id="Group_23" data-name="Group 23" transform="translate(81.13)">
            <path id="Path_85" data-name="Path 85" d="M280.675,342.2a2.361,2.361,0,0,1-2.361-2.36V285.319a2.361,2.361,0,0,1,4.722,0v54.524A2.361,2.361,0,0,1,280.675,342.2Z" transform="translate(-278.314 -282.959)" fill="#233d66"/>
          </g>
        </g>
        <g id="Group_25" data-name="Group 25">
          <path id="Path_86" data-name="Path 86" d="M328.953,312.385a5.7,5.7,0,0,0-2.71-4.6l0,4.169,0,0-49.428-28.53a5.648,5.648,0,0,0-5.661.008l-83.22,48.261,0-4.165a6,6,0,0,0-2.715,4.638,5.145,5.145,0,0,0,2.721,4.713l49.4,28.555a5.645,5.645,0,0,0,5.664-.007l83.247-48.286A5.363,5.363,0,0,0,328.953,312.385Z" transform="translate(-185.209 -278.503)" fill="#4e669b"/>
          <path id="Path_87" data-name="Path 87" d="M326.38,312.54l-83.247,48.287a5.649,5.649,0,0,1-5.664.007l-49.4-28.556a3,3,0,0,1-.006-5.184l83.223-48.262a5.647,5.647,0,0,1,5.66-.009l49.429,28.531A3,3,0,0,1,326.38,312.54Z" transform="translate(-185.338 -278.068)" fill="#94ccff"/>
        </g>
      </g>
      <g id="Group_31" data-name="Group 31" transform="translate(168.764 118.065)">
        <g id="Group_29" data-name="Group 29" transform="translate(1.17 88.518)">
          <g id="Group_27" data-name="Group 27" transform="translate(59.166 73.028)">
            <path id="Path_88" data-name="Path 88" d="M305.566,386.105a10.682,10.682,0,0,0-2.39,4.652c-.28,2.265.524,4.889,1.195,7.154s.493,9.9.791,10.135a.9.9,0,0,0,1.134,0l.237-9.985a4.171,4.171,0,0,1,2.146,2.8c.536,2.116.609,6.431,1.8,9.053.419.924,9.349,5.853,12.539,4.124a5.513,5.513,0,0,0,.358-3.785,14.174,14.174,0,0,0-3.2-4.926c-1.063-1.185-6.433-8.431-6.433-8.431" transform="translate(-303.119 -370.976)" fill="#1b115e"/>
            <path id="Path_89" data-name="Path 89" d="M317.028,406.242c-2.89-.309-5.784-1.781-6.5-5.915a19.207,19.207,0,0,0-3.431-8.044c-.833-1.256-2.928-1.647-1.735-6.1.935-3.5.6-9.138-.944-16.473l9.194-.314c-.407,6.706-.666,12.153-.545,14,.4,5.956,2.763,8.885,4.227,14.04a17.933,17.933,0,0,0,3.008,6.306S320.322,406.595,317.028,406.242Z" transform="translate(-303.242 -369.399)" fill="#f4ddba"/>
          </g>
          <g id="Group_28" data-name="Group 28" transform="translate(42.542 84.978)">
            <path id="Path_90" data-name="Path 90" d="M287.538,397.737s-2.624,3.5-2.7,6.439.954,4.451,1.351,11.526,3.695,11.458,9.577,12.094a2.66,2.66,0,0,0,2.861-2.464,21.857,21.857,0,0,0-1.115-9.921c-1.27-3.909-4.884-8.611-4.884-8.611" transform="translate(-284.769 -384.024)" fill="#1b115e"/>
            <path id="Path_91" data-name="Path 91" d="M297.8,416.71c-.176,3.1-5.836,4.171-8.463.953s-2.605-11.076-2.837-19.1a148.8,148.8,0,0,0-1.739-15.964c3.681.24,7.8.453,11.376.508-1.036,6.595-2.007,12.847-1.952,14.614C294.307,401.416,297.987,413.611,297.8,416.71Z" transform="translate(-284.762 -382.595)" fill="#f4ddba"/>
          </g>
          <path id="Path_92" data-name="Path 92" d="M307.977,376.921s-1.661,1.466-5.318,1.049a6.4,6.4,0,0,1-3.861-1.745s-1.141-13.892-1.8-16.806c-.158-.705-.361-1.6-.6-2.571v-.027c-.343-1.337-.705-2.877-1.076-4.4-.334,3.3-.678,6.292-.937,8.046-.762,5.086-3.749,25.288-3.749,25.288a12.037,12.037,0,0,1-8.315.2,6.361,6.361,0,0,1-1.4-.7s-2.607-18.551-2.793-24.11a101.561,101.561,0,0,1,.455-11.962c.7-5.085-1.54-5.753-1.54-5.753-4.649-2.348-18.551-8.816-25.093-11.953-6.3-3.016-13.744-9.559-14.106-17.131a29.545,29.545,0,0,1,.853-9.531,9.11,9.11,0,0,1,1.6-3.424c4.955-9.076,33.112-12.64,33.112-12.64s.083,9.781,2.552,12.64,15.86,8.574,21.493,12.166c3.805,2.413,6.3,4.092,7.35,4.9,0,0,5.188,3.656,5.42,7.526C310.771,335.085,307.977,376.921,307.977,376.921Z" transform="translate(-237.786 -288.759)" fill="#fff"/>
          <path id="Path_93" data-name="Path 93" d="M282.317,387.617a6.36,6.36,0,0,1-1.4-.7s-2.607-18.551-2.793-24.11a101.56,101.56,0,0,1,.455-11.962c.7-5.085-1.54-5.753-1.54-5.753-4.649-2.348-18.551-8.816-25.093-11.953-6.3-3.016-13.744-9.559-14.106-17.131a29.544,29.544,0,0,1,.853-9.531c.864-.111,1.467-.167,1.643-.167.7,0,9.392,2.384,9.392,2.384l-1.7,6.941s-1.719,8.707,6.205,12.941c7.562,4.041,26.1,14.037,26.1,14.037a6.308,6.308,0,0,1,1.531,4C282.02,349.27,278.9,373.223,282.317,387.617Z" transform="translate(-237.786 -290.416)" fill="#d3edf4" opacity="0.3"/>
          <path id="Path_94" data-name="Path 94" d="M300.163,359.774c-.34-1.337-.708-2.883-1.075-4.4,0,0,.571-12.774-.222-16.453-1-4.636-18.714-17.541-21.178-18.9,2.49,1.206,17.028,10.691,21.977,15.988C302.2,338.709,300.374,357.152,300.163,359.774Z" transform="translate(-241.553 -291.709)" fill="#d3edf4"/>
        </g>
        <path id="Path_95" data-name="Path 95" d="M303.108,262.1c-3.558-5.088-25.568-27.452-25.568-27.452l-2.707,15.5L292.1,267.268l-6.909,28.748h0s-2.543,2.044-3.468,2.623-2.688,5.087-3.093,6.069-.579,1.531.2,1.445c.172-.019.426-.246.713-.579-.262.636-.559,1.38-.7,1.817-.105.317.578.752,1.329.116a5.091,5.091,0,0,0,1-1.38c-.125.32-.235.614-.307.832-.105.317.578.752,1.329.116a7.54,7.54,0,0,0,1.426-2.259l.211-.364c-.26.621-.662,1.6-.831,2.113-.093.283.518.673,1.192.1a6.747,6.747,0,0,0,1.278-2.024l.574-.989s1.52-.839,2.8-1.637c.909-1.241,1.051-4.251,1.051-4.251h0C291.1,295.567,306.528,266.995,303.108,262.1Z" transform="translate(-240.113 -195.133)" fill="#f4ddba"/>
        <path id="Path_96" data-name="Path 96" d="M279.816,259.651c-.114.315-.239.63-.362.935v.011a.009.009,0,0,0-.009.009,21.06,21.06,0,0,1-2.586,4.493,11.845,11.845,0,0,0-1.688,3.128h-.01a12.418,12.418,0,0,0-.706,3.168,67.627,67.627,0,0,0,2.369,24.471,1.7,1.7,0,0,1-.446,1.706c-2.705,2.645-12.389,11.318-23.1,11.318-8.68,0-13.266-2.628-15.288-4.274a2.4,2.4,0,0,1-.707-2.766c.965-2.389,2.856-7.219,3.9-10.9,1.115-3.946,2.321-11.392,1.129-17.592s-9.771-20.333-3.612-26.523c6.183-6.215,20.578-15.693,28.882-15.965,4.529-.149,7.669,4.108,8.354,8.36.381,2.359-.591,4.894.238,7.03C277.688,250.151,281.486,254.968,279.816,259.651Z" transform="translate(-236.494 -194.776)" fill="#effafd"/>
        <path id="Path_97" data-name="Path 97" d="M279.818,259.649c-.117.313-.242.636-.368.94v.009a.009.009,0,0,0-.009.009,21.116,21.116,0,0,1-2.58,4.488,12.051,12.051,0,0,0-1.693,3.127h-.009a12.8,12.8,0,0,0-.708,3.171,67.531,67.531,0,0,0,2.374,24.474,1.7,1.7,0,0,1-.448,1.7c-2.705,2.643-12.39,11.324-23.095,11.324a36.808,36.808,0,0,1-5.376-.377c-5.285-.788-8.358-2.633-9.916-3.906a2.4,2.4,0,0,1-.708-2.758c.968-2.393,2.858-7.221,3.9-10.9,1.12-3.941,2.32-11.4,1.129-17.594-1.138-5.913-8.985-19.028-4.372-25.6a6.7,6.7,0,0,1,.762-.914c6.182-6.218,20.578-15.7,28.882-15.964,4.533-.153,7.669,4.1,8.359,8.358.376,2.356-.591,4.891.233,7.024C277.686,250.153,281.484,254.973,279.818,259.649Z" transform="translate(-236.494 -194.776)" fill="#2d166d"/>
        <path id="Path_98" data-name="Path 98" d="M246.612,265.956c-2.154-4.782-6.865-13.882-8.676-16.444-4.613,6.576,3.234,19.691,4.372,25.6,1.191,6.2-.009,13.653-1.129,17.594-1.039,3.682-2.929,8.511-3.9,10.9a2.4,2.4,0,0,0,.708,2.758c1.559,1.272,4.631,3.118,9.916,3.906a92.723,92.723,0,0,0,3.109-16.331c.231-2.931.473-7.144.654-10.546a7.205,7.205,0,0,0,.925.811c3.755,2.659,19.13-10.9,19.13-10.9Z" transform="translate(-236.494 -196.536)" fill="#180c51"/>
        <g id="Group_30" data-name="Group 30" transform="translate(13.419)">
          <path id="Path_99" data-name="Path 99" d="M268.983,239.959s2.624,3.306-.227,4.361C268.756,244.32,268.754,241.878,268.983,239.959Z" transform="translate(-252.958 -195.634)" fill="#e2b98a"/>
          <path id="Path_100" data-name="Path 100" d="M267.36,242.716c-7.171,1.607-11.608-2.167-13.141-4.783a1.711,1.711,0,0,1,.064-1.83,5.549,5.549,0,0,0,.613-1.089c.306-.854.7-6.58.7-6.58s.211-5.28.146-5.419h1.924l12.955,5.4C267.286,232.268,267.36,242.716,267.36,242.716Z" transform="translate(-251.564 -194.035)" fill="#f0cda2"/>
          <path id="Path_101" data-name="Path 101" d="M281.355,212.821s-.876,8.271-4.812,14.718-7.3,7.681-8.932,7.349-9.422-6.193-10.384-13.635.246-13.042,2.529-16.688,10.089-5.222,14.687-3.092S282.111,208.061,281.355,212.821Z" transform="translate(-251.839 -191.911)" fill="#f4ddba"/>
          <path id="Path_102" data-name="Path 102" d="M266.228,199.878l-4.29,3.083-2.7,1.954s-7.085-2.941-6.863-8.22a5.778,5.778,0,0,1,.856-2.471,7.46,7.46,0,0,1,2.285-2.346C259.076,189.492,265.9,192.014,266.228,199.878Z" transform="translate(-251.411 -191.014)" fill="#2d166d"/>
          <path id="Path_103" data-name="Path 103" d="M261.938,203.3l-2.7,1.954s-7.085-2.941-6.863-8.22a5.778,5.778,0,0,1,.856-2.471s.993,6.98,6.6,8.007A5.093,5.093,0,0,1,261.938,203.3Z" transform="translate(-251.411 -191.349)" fill="#1d0e56"/>
          <path id="Path_104" data-name="Path 104" d="M279.332,215.648a26.789,26.789,0,0,1-13.211,2.686,2.087,2.087,0,0,1-.869-.23c-.486-.358.409-1.288,1.339-2.072-2.755-.1-5.219.2-5.7,1.578-.332.938-.614,1.987-.954,3.164l-.137.528c-2.5-.494-3.641,3.344-4.093,4.486-.469,1.134-1.339-1-1.842-3.122-.5-2.141-4.52-5.885-1.348-13.849l.008-.034a19.1,19.1,0,0,1,6.567-7.983q.423-.268.845-.485v-.009a14.987,14.987,0,0,1,21.688,8.392,5.439,5.439,0,0,1,.162.58C282.368,211.818,281.3,214.607,279.332,215.648Z" transform="translate(-251.312 -191.702)" fill="#2d166d"/>
          <path id="Path_105" data-name="Path 105" d="M266.121,218.544a2.087,2.087,0,0,1-.869-.23c-.486-.358.409-1.288,1.339-2.072-2.755-.1-5.219.2-5.7,1.578-.332.938-.614,1.987-.954,3.164l-.137.528c-2.5-.494-3.641,3.343-4.093,4.486-.469,1.134-1.339-1-1.842-3.122-.5-2.141-4.52-5.885-1.348-13.849l.008-.034a19.1,19.1,0,0,1,6.567-7.983q.423-.268.845-.485c-.179.238-3.216,4.6,2.234,9.27,5.595,4.793,7.454,5.322,7.454,5.322S265,217.8,266.121,218.544Z" transform="translate(-251.312 -191.912)" fill="#1d0e56"/>
          <path id="Path_106" data-name="Path 106" d="M266.208,226a12.478,12.478,0,0,1-4.485-5.688l-.011-.028-.443.292a22.1,22.1,0,0,0,1.692,3.6,34.435,34.435,0,0,0-3.16,4.118c-.593-1-1.471-2.9-1.471-2.9l-.361.4a14.881,14.881,0,0,0,1.463,3.074c2.71,4.526,7.1,7.649,8.277,7.889,1.635.331,5-.9,8.937-7.352.389-.645.752-1.3,1.082-1.966C277.728,227.437,273.231,230.8,266.208,226Z" transform="translate(-251.94 -193.777)" fill="#27afaf"/>
          <path id="Path_107" data-name="Path 107" d="M257.549,225.683a4.777,4.777,0,0,1-.326-4.761c.893-1.921,2.418-2.9,3.979-2.183a2.019,2.019,0,0,1,1.067,3C261.685,223.087,259.144,227.268,257.549,225.683Z" transform="translate(-251.824 -193.609)" fill="#f4ddba"/>
        </g>
        <path id="Path_108" data-name="Path 108" d="M293.023,259.368a5.985,5.985,0,0,1-1.248,1.434c.3.01.462.278.36.62a11.206,11.206,0,0,1-2.83,2.83,15.582,15.582,0,0,1-2.867,1.378s-2.784.6-4.606.98a8.951,8.951,0,0,0-2.84,1.434,18.665,18.665,0,0,1-2.294,1.5c-7.029,5.2-19.126,13.661-21.716,12.366-1.9-.953-5.559-5.189-9.055-9.962-1.923-2.635-3.8-5.429-5.309-7.926a42.486,42.486,0,0,1-2.544-4.736c-3.94-8.907,3.561-15.344,8.287-10.174a65.71,65.71,0,0,1,6.614,9.462c.906,1.5,1.757,2.969,2.516,4.31v.01c1.858,3.283,3.135,5.761,3.135,5.761l16.833-5.836.009-.009.638-.223c1.313-.462,4.236-1.544,4.819-2.2.749-.842,2.127-2.331,2.691-2.96.675-.75,2.248-2.211,2.4-2.432s1.064-.037.435,1.526a11.1,11.1,0,0,1-1.082,1.684c-.389.591-.6,1-.6,1s1.758-1.092,2.59-1.619,2.4-1.452,2.9-1.711,1.166.139.481.98a24.43,24.43,0,0,1-2.248,2.267c.7-.583,2.876-2.109,3.524-2.479s1.11-.037.972.591a8.74,8.74,0,0,1-1.933,2.155,7.591,7.591,0,0,1,1.054-.685C292.783,258.379,293.209,258.757,293.023,259.368Z" transform="translate(-236.539 -196.324)" fill="#f0cda2"/>
        <path id="Path_109" data-name="Path 109" d="M255.872,264.061v.01c-.065.277-1.5,5.864-9.564,9.054-1.923-2.635-3.8-5.429-5.309-7.926a87.6,87.6,0,0,1,12.357-5.448C254.262,261.25,255.113,262.721,255.872,264.061Z" transform="translate(-236.919 -197.502)" fill="#e2b98a"/>
        <path id="Path_110" data-name="Path 110" d="M242.033,246.526s4.017-.723,7.052,4.075c3.5,5.54,6.185,10.983,6.185,10.983s.338,2.66-5.456,6.1a20.813,20.813,0,0,1-7.521,2.572s-5.6-9.74-5.792-15.81S240.569,246.625,242.033,246.526Z" transform="translate(-236.494 -196.25)" fill="#2d166d"/>
      </g>
      <g id="Group_35" data-name="Group 35" transform="translate(93.567 131.001)">
        <g id="Group_32" data-name="Group 32" transform="translate(22.642 210.717)">
          <path id="Path_111" data-name="Path 111" d="M203.788,446.285v.148a3.583,3.583,0,0,1-.561,2.075,12.452,12.452,0,0,1-7.213,3.784,60.556,60.556,0,0,1-6.633.727,15.562,15.562,0,0,0-2.418.423v.275a23.876,23.876,0,0,1-3.418.457h-.015a6.053,6.053,0,0,1-3.7-.923,3.009,3.009,0,0,1-1.015-1.8l.014-.656v-.3l3.235-.226h.014l1.6-.112,1.48-.091,1.375-.091Z" transform="translate(-178.495 -438.763)" fill="#4442a4"/>
          <path id="Path_112" data-name="Path 112" d="M189.707,442.5a19.352,19.352,0,0,0,5.384,1.166c2.259,0,6.666-.056,7.8.734a1.758,1.758,0,0,1,.883,1.412c-.014,3.026-6.891,5.672-11.446,5.834a33.9,33.9,0,0,0-6.553.621c-2.034.339-4.149.5-5.429-.135-2.214-1.1-2.366-5.077-1.011-7.28S189.707,442.5,189.707,442.5Z" transform="translate(-178.461 -438.406)" fill="#fff"/>
          <path id="Path_113" data-name="Path 113" d="M180.54,439.3s-.161,3.378-.206,3.98-.363,1.142-.272,1.681c.147.859,1.365,2.221,5.144,1.828,2.777-.289,5.112-2.054,5.489-3.142.323-.933-.4-1.085-.531-1.44-.206-.561,0-5.585-.374-3.877" transform="translate(-178.611 -437.979)" fill="#e8caaf"/>
        </g>
        <g id="Group_33" data-name="Group 33" transform="translate(6.64 200.244)">
          <path id="Path_114" data-name="Path 114" d="M182.974,429.055a5.909,5.909,0,0,1-.128,2.832,9.257,9.257,0,0,1-2.192,3.458,17.558,17.558,0,0,1-3.534,2.922,28.731,28.731,0,0,0-2.957,2.073,20.129,20.129,0,0,0-2.106,2.752v.584a9.375,9.375,0,0,1-2.94,2.3,7.715,7.715,0,0,1-5.558.32,3.939,3.939,0,0,1-2.39-3.161,19.246,19.246,0,0,1,0-2.005" transform="translate(-160.824 -426.664)" fill="#4442a4"/>
          <path id="Path_115" data-name="Path 115" d="M169.747,430.96a28.828,28.828,0,0,0,6.466-2.992c3.214-2.3,5.561-1.717,6.363-.349.815,1.393,1.138,6-5.709,9.991a12.733,12.733,0,0,0-4.724,4.179,8.87,8.87,0,0,1-3.219,2.9,6.727,6.727,0,0,1-3.568.611c-4.689-.382-5.669-5.127-3.382-8.72S169.747,430.96,169.747,430.96Z" transform="translate(-160.791 -426.415)" fill="#fff"/>
          <path id="Path_116" data-name="Path 116" d="M162.777,433.642l-.178,3.531a2.436,2.436,0,0,0-.3,1.525c.229.957,2.941,2.8,6.656.843,4.163-2.192,3.48-3.668,3.507-3.845a8.293,8.293,0,0,1-.389-3.046" transform="translate(-160.929 -427.004)" fill="#e8caaf"/>
        </g>
        <path id="Path_117" data-name="Path 117" d="M179.651,351.718a63.488,63.488,0,0,1-.845,7.8A99.318,99.318,0,0,1,176.3,370.1v.019c-.092.343-.186.7-.278,1.049l-.009.028c-.52,2.1-.919,4.268-1.271,6.672-1.188,7.99-2.274,33.01-2.6,40.907a4.1,4.1,0,0,1-2.422,3.583c-.38.167-.743.315-1.095.446-3.082,1.15-4.937.872-5.968.408a2.18,2.18,0,0,1-1.262-1.662c-.64-4.083-3.489-22.95-3.017-32.981.529-11.294,2.988-17.225,3.4-18.3s-.279-3.721-.659-12.993c-.027-.6-.055-1.215-.092-1.838-.26-5.53-.686-11.572-1.031-15.915a31.125,31.125,0,0,0-2.589-9.948c-6.125-14.134,3.74-27.516,3.74-27.516,6.1,6.013,14.626,5.735,14.626,5.735s1.114,8.38,2.163,18.078C178.964,335.478,179.92,346.373,179.651,351.718Z" transform="translate(-153.642 -214.432)" fill="#435fa3"/>
        <path id="Path_118" data-name="Path 118" d="M179.111,365.077a99.325,99.325,0,0,1-2.506,10.588v.019c-.092.343-.186.7-.278,1.049l-.009.028a38.611,38.611,0,0,1-7.22-.677s-2.014,5.391-2.069,18.356c-.046,10.719,1.4,28.183,1.9,33.929-3.082,1.15-4.937.872-5.968.408a2.18,2.18,0,0,1-1.262-1.662c-.64-4.083-3.489-22.95-3.017-32.981.529-11.294,2.988-17.225,3.4-18.3s-.279-3.721-.659-12.993c-.027-.6-.055-1.215-.092-1.838a19.963,19.963,0,0,1,4.139.585C174.285,363.555,179.111,365.077,179.111,365.077Z" transform="translate(-153.947 -219.996)" fill="#375899"/>
        <path id="Path_119" data-name="Path 119" d="M171.4,339.877c2.817,7.259,5.8,24.144,6.259,31.962a77.283,77.283,0,0,0,3.355-18.379c.269-5.345-.688-16.239-1.721-25.843-3.194-2.506-8.98-7.1-8.98-7.1S168.567,332.629,171.4,339.877Z" transform="translate(-154.999 -216.175)" fill="#161143"/>
        <path id="Path_120" data-name="Path 120" d="M198.309,362.45c-.343,3.034-.705,5.809-1.021,8.129-.353,2.617-.65,4.649-.808,5.809-.677,4.974-2.3,12.733-3.675,25.093-.965,8.678-1.781,19.136-2.125,23.915a4.46,4.46,0,0,1-2.83,3.833c-.288.111-.585.223-.9.325-2.423.826-5.559,1.364-7.545-.251a1.992,1.992,0,0,1-.7-1.41c-.3-4.974-1.912-33.149-1.049-42.448.937-10.218,3.044-10.932,2.775-14.291-.065-.743-.26-2.589-.538-5.031-1-8.546-3.109-24.415-4.361-26.3-1.606-2.413-9.949-15.192-1.875-32.128,0,0,9.271,2.33,21.771-.584a160.145,160.145,0,0,1,4.306,28.685C200.109,344.01,199.255,354.2,198.309,362.45Z" transform="translate(-155.039 -214.909)" fill="#435fa3"/>
        <path id="Path_121" data-name="Path 121" d="M199.061,367.8c-.343,3.034-.705,5.809-1.021,8.129,0,0-1.931,2.663-7.768,3.434a98.009,98.009,0,0,0-2.542,16.7c-.789,10.107-.371,33.159-.028,38.838-2.423.826-5.559,1.364-7.545-.251a1.992,1.992,0,0,1-.7-1.41c-.3-4.974-1.912-33.149-1.049-42.448.937-10.218,3.044-10.932,2.775-14.291-.065-.743-.26-2.589-.538-5.031.686-4.38,1.2-7.656,1.2-7.656Z" transform="translate(-155.791 -220.262)" fill="#375899"/>
        <g id="Group_34" data-name="Group 34" transform="translate(25.322 23.877)">
          <path id="Path_122" data-name="Path 122" d="M243.444,255.868a1.248,1.248,0,0,1-.087,1.2L224.791,285.6a1.449,1.449,0,0,1-1.922.488l-39.327-21.71a1.122,1.122,0,0,1-.389-1.583l19.31-29.678a1.3,1.3,0,0,1,1.722-.437l36.728,20.276c-.169.139-.289.249-.289.249l2.068,1.031Z" transform="translate(-181.567 -231.745)" fill="#6280b8"/>
          <path id="Path_123" data-name="Path 123" d="M181.993,263.518l39.321,21.71a1.454,1.454,0,0,0,1.922-.479l19.211-29.529a1.155,1.155,0,0,0-.409-1.639l-39.4-21.754a1.3,1.3,0,0,0-1.724.43L181.6,261.943A1.109,1.109,0,0,0,181.993,263.518Z" transform="translate(-181.42 -231.664)" fill="#b6dffd"/>
          <path id="Path_124" data-name="Path 124" d="M193.845,262.74l25.294,13.966a.936.936,0,0,0,1.236-.309l12.358-19a.742.742,0,0,0-.264-1.054l-25.345-13.994a.841.841,0,0,0-1.109.277l-12.424,19.1A.712.712,0,0,0,193.845,262.74Z" transform="translate(-182.558 -232.663)" fill="#75cad8"/>
          <path id="Path_125" data-name="Path 125" d="M184.045,263.383l36.893,20.37a1.363,1.363,0,0,0,1.8-.45L240.764,255.6a1.082,1.082,0,0,0-.384-1.538l-36.966-20.411a1.224,1.224,0,0,0-1.617.4l-18.121,27.853A1.04,1.04,0,0,0,184.045,263.383Z" transform="translate(-181.617 -231.837)" fill="none" stroke="#f8faff" stroke-miterlimit="10" stroke-width="0.295"/>
        </g>
        <path id="Path_127" data-name="Path 127" d="M229.023,275.534a5.889,5.889,0,0,0,1.025-1.545,5.77,5.77,0,0,1,1.021-2.408c.735-.915,2.837-4.538,3.261-4.293s.847,1.293.513,2.7-.914,2.319-.936,2.676,2.405.414,3.881-.072a17.805,17.805,0,0,0,3.8-2.87c.558-.006-.223,4.274-.557,5.579-.274,1.069-3.677,4.5-3.677,4.5" transform="translate(-160.592 -211.149)" fill="#e8caaf"/>
        <path id="Path_128" data-name="Path 128" d="M183.63,258.7l4.362-4.221a6.986,6.986,0,0,1,1.991-1.35,10.251,10.251,0,0,0,2.057-1.169,11.148,11.148,0,0,0,2.209-3.532c.4-.8,2.716-3.006,2.95-3.608s.161-1.731-.657-1.655c-.667.062-4.063,2.837-4.237,3.1l1.657-2.547a17.616,17.616,0,0,0-5.348,1.334c-1.973,1.037-2.474,3.79-3.243,4.459s-6.021,4.772-6.021,4.772" transform="translate(-155.903 -208.872)" fill="#e8caaf"/>
        <path id="Path_129" data-name="Path 129" d="M193.222,212.65s1.384,5.156-2.052,8.375-1.936-7.03-1.936-7.03" transform="translate(-156.805 -205.993)" fill="#4543a5"/>
        <path id="Path_130" data-name="Path 130" d="M170.33,250.989l11.916-1.377,1.8.624s-.416-7.76-.053-12.7c3.492.436,6.582.131,6.874-4.51.148-2.345-.111-6.9-.218-9.172-.2-4.323-.6-9.163-.6-9.163-1.172-1.387-11.938-.064-15.518,2.431-3.593,2.473-3.366,16.906-3.227,19.605s0,9.119,0,9.119Z" transform="translate(-155.051 -206.132)" fill="#e8caaf"/>
        <path id="Path_131" data-name="Path 131" d="M192,228.665s-.818,1.206-3.651,1.33a32.022,32.022,0,0,1-5.375-.249v8.3a9.181,9.181,0,0,0,6.524.892c1.089-.206,2.209-.6,2.6-3.589A30.152,30.152,0,0,0,192,228.665Z" transform="translate(-156.245 -207.504)" fill="#27afaf"/>
        <path id="Path_132" data-name="Path 132" d="M200.21,320.527c-1.126-5.478-2.963-13.307-4.353-21.037a121.859,121.859,0,0,1-1.754-13.125c-.034-.447-.066-.878-.083-1.291a37.925,37.925,0,0,0-.556-4.653c.176-1.416.364-2.907.55-4.426.786-6.448,1.479-13.289.648-15.808-1.433-4.39-12.272-11.255-12.272-11.255s-12.989.878-12.688-2.843c0,0-7.026-1.04-10.261.485h0c-.13.021-7.635,1.295-5.059,20.887.887,6.764,2.321,9.667,3.088,13.24l.4,8.113a117.114,117.114,0,0,1-2.643,15.574c-3.691,16.6-.441,49.093-.441,49.093s17.813,12.673,27.653,12.761c14.147.126,17.561-6.13,17.561-6.13S202.064,329.63,200.21,320.527Z" transform="translate(-153.459 -209.116)" fill="#fff"/>
        <path id="Path_133" data-name="Path 133" d="M192.954,282.995s5,9.987,7,13.037c2.495,3.8,3.792,5.235,8.468,1.839v.011s17.532-16.1,19.169-16.257,1.916.107,3.714-.161a4.668,4.668,0,0,0,2.643-1.156s-3.381-4.731-3.907-7.621c-1.337.856-3.822,2.94-5.469,3.907-1.7,1-12.169,6.582-17.691,9.75-.439-1.016-2.257-6.368-2.643-7.321C204.229,279.055,193.211,283.145,192.954,282.995Z" transform="translate(-157.187 -211.66)" fill="#e8caaf"/>
        <path id="Path_134" data-name="Path 134" d="M171.381,243.705l-.628,2.108a3.58,3.58,0,0,0,2.411,3.135c4.111,1.643,10.229.789,11.7.344v-3.251S175.56,247.671,171.381,243.705Z" transform="translate(-155.091 -208.924)" fill="#fff"/>
        <path id="Path_135" data-name="Path 135" d="M190.683,213.459c-.607,4.908-5.642,3.378-5.9,8.965-.172,3.767-3.74,7.3-3.659,12.968.072,4.99.58,21.11.217,21.553a7.689,7.689,0,0,1-2.681.054c-5.108-.371-15.776-2.327-16.808-7.924-.326-3.8.054-24.361,1.06-31.252a16,16,0,0,1,2.644-6.991h.009c2.916-4.111,8.25-6.575,16.98-5.108C185.267,206.187,191.289,208.551,190.683,213.459Z" transform="translate(-154.24 -205.299)" fill="#2d166d"/>
        <path id="Path_136" data-name="Path 136" d="M179.562,231.415c-1.73,5.343-.543,19.751-.906,26.163-5.108-.371-15.776-2.327-16.808-7.924-.326-3.8.054-24.361,1.06-31.252a16,16,0,0,1,2.644-6.991h.009s-1.549,3.858,3.586,6.04,7.616,1.132,10.034,2.644S181.3,226.054,179.562,231.415Z" transform="translate(-154.24 -205.876)" fill="#1d0e56"/>
        <path id="Path_137" data-name="Path 137" d="M199.092,302.389c-5.23-8.227-11.354-25.937-11.354-25.937l9.6,12.812A121.868,121.868,0,0,0,199.092,302.389Z" transform="translate(-156.695 -212.015)" fill="#f1f1f3"/>
        <path id="Path_138" data-name="Path 138" d="M225.526,276.412c-1.086-1.292-1.732-1.189-1.732-1.189l-17.328,9.155-1.667-4.9-7.183-17.79-12.863,6.444c6.425,17.946,15.03,29.133,16.059,30.275,1.551,1.724,3.138,1.621,6.724-.861s18.689-16.121,18.689-16.121S226.613,277.7,225.526,276.412Z" transform="translate(-156.413 -210.622)" fill="#fff"/>
      </g>
      <g id="Group_56" data-name="Group 56" transform="translate(300.515 180.612)">
        <g id="Group_36" data-name="Group 36">
          <path id="Path_139" data-name="Path 139" d="M436.07,288.8v81.532h-.028a.776.776,0,0,1-.38.483L417.9,381.125a2.533,2.533,0,0,1-1.086.343,2.719,2.719,0,0,1-1.625-.343l-23.284-13.513a.782.782,0,0,1-.4-.724v-80.9l25.307,1.6Z" transform="translate(-382.877 -262.526)" fill="#cae8ff"/>
          <path id="Path_140" data-name="Path 140" d="M438.708,288.966V370.5h-.028a.776.776,0,0,1-.38.483l-17.762,10.31a2.533,2.533,0,0,1-1.086.343V287.751Z" transform="translate(-385.515 -262.692)" fill="#699fe0"/>
          <path id="Path_141" data-name="Path 141" d="M443.794,283.8h0v-3.4l-1.615.636-31.241-18.124a3.752,3.752,0,0,0-3.764,0l-23.29,13.513-1.9-.3v3.2l0,0a1.108,1.108,0,0,0,.555,1.019l32.294,18.735a3.754,3.754,0,0,0,3.765,0l24.635-14.292a1.113,1.113,0,0,0,.558-.944l0,0Z" transform="translate(-381.978 -260.299)" fill="#4e669b"/>
          <path id="Path_142" data-name="Path 142" d="M443.232,281.268,418.6,295.562a3.754,3.754,0,0,1-3.765,0l-32.294-18.735a1.125,1.125,0,0,1,0-1.947l24.636-14.293a3.752,3.752,0,0,1,3.764,0l32.294,18.735A1.125,1.125,0,0,1,443.232,281.268Z" transform="translate(-381.978 -260.08)" fill="#94ccff"/>
        </g>
        <g id="Group_37" data-name="Group 37" transform="translate(9.983 4.303)">
          <path id="Path_143" data-name="Path 143" d="M431.065,279.263h0v-1.841h-1.815v.389l-18.416-10.683a2.309,2.309,0,0,0-2.317,0l-13.7,7.949v-.342H393V276.6h.02a.666.666,0,0,0,.326.522l19.885,11.537a2.309,2.309,0,0,0,2.317,0l15.17-8.8a.682.682,0,0,0,.339-.571h.007Z" transform="translate(-393.001 -265.019)" fill="#4e669b"/>
          <path id="Path_144" data-name="Path 144" d="M430.72,277.879l-15.17,8.8a2.309,2.309,0,0,1-2.317,0l-19.885-11.536a.693.693,0,0,1,0-1.2l15.17-8.8a2.309,2.309,0,0,1,2.317,0L430.72,276.68A.693.693,0,0,1,430.72,277.879Z" transform="translate(-393.001 -264.832)" fill="#fff"/>
          <path id="Path_145" data-name="Path 145" d="M430.316,277.524l-1.133.659-13.929,8.083a1.857,1.857,0,0,1-1.837,0l-18.393-10.673-1.133-.659a.305.305,0,0,1,0-.529l15.053-8.732a1.826,1.826,0,0,1,1.847,0l19.526,11.321A.305.305,0,0,1,430.316,277.524Z" transform="translate(-393.071 -264.888)" fill="#61b4f2"/>
          <path id="Path_146" data-name="Path 146" d="M429.318,278.375l-13.929,8.083a1.857,1.857,0,0,1-1.837,0l-18.393-10.673,13.92-8.083a1.87,1.87,0,0,1,1.847,0Z" transform="translate(-393.205 -265.08)" fill="#94ccff"/>
        </g>
        <g id="Group_38" data-name="Group 38" transform="translate(24.577 1.975)">
          <path id="Path_147" data-name="Path 147" d="M409.121,266v5.544c0,.853,1.114,1.546,2.489,1.546s2.489-.693,2.489-1.546V266Z" transform="translate(-409.116 -262.614)" fill="#fff" opacity="0.75"/>
          <path id="Path_148" data-name="Path 148" d="M414.1,268v2.181c0,.854-1.114,1.54-2.488,1.54s-2.5-.686-2.5-1.54V268c0,.854,1.123,1.55,2.5,1.55S414.1,268.858,414.1,268Z" transform="translate(-409.116 -262.803)" fill="#a7daed"/>
          <path id="Path_149" data-name="Path 149" d="M414.079,265.683s-.015-.078-.024-.118c-.006-.021-.01-.042-.017-.062a2.119,2.119,0,0,0-.941-1.133v.232a3.687,3.687,0,0,0-2.975,0v-.232a2.119,2.119,0,0,0-.941,1.134c-.006.02-.011.041-.016.062a2.1,2.1,0,0,0-.043.27c0,.853,1.114,1.546,2.489,1.546s2.489-.693,2.489-1.546A.941.941,0,0,0,414.079,265.683Z" transform="translate(-409.116 -262.452)" fill="#fff" opacity="0.75"/>
          <path id="Path_150" data-name="Path 150" d="M413.708,265.216c0,.7-.919,1.275-2.053,1.275s-2.054-.57-2.054-1.275.919-1.276,2.054-1.276S413.708,264.511,413.708,265.216Z" transform="translate(-409.162 -262.419)" fill="#4478ab"/>
          <path id="Path_151" data-name="Path 151" d="M410.381,263.473v1.7c0,.462.6.837,1.348.837s1.348-.375,1.348-.837v-1.7Z" transform="translate(-409.235 -262.375)" fill="#f1f1f1"/>
          <path id="Path_152" data-name="Path 152" d="M413.229,263.575a2.082,2.082,0,0,0-1.544-.575,2.055,2.055,0,0,0-1.568.6l-.2-.173v.668c0,.606.791,1.1,1.766,1.1s1.766-.492,1.766-1.1v-.668Z" transform="translate(-409.192 -262.331)" fill="#a7daed"/>
          <path id="Path_153" data-name="Path 153" d="M413.451,263.359c0,.606-.791,1.1-1.766,1.1s-1.766-.491-1.766-1.1.791-1.1,1.766-1.1S413.451,262.753,413.451,263.359Z" transform="translate(-409.192 -262.261)" fill="#4478ab"/>
          <path id="Path_154" data-name="Path 154" d="M413.076,263.386c0,.462-.6.837-1.348.837s-1.348-.375-1.348-.837.6-.838,1.348-.838S413.076,262.923,413.076,263.386Z" transform="translate(-409.235 -262.288)" fill="#a7daed"/>
        </g>
        <g id="Group_39" data-name="Group 39" transform="translate(30.683 5.52)">
          <path id="Path_155" data-name="Path 155" d="M415.864,269.91v5.544c0,.854,1.114,1.546,2.489,1.546s2.489-.692,2.489-1.546V269.91Z" transform="translate(-415.86 -266.528)" fill="#fff" opacity="0.75"/>
          <path id="Path_156" data-name="Path 156" d="M420.843,271.919V274.1c0,.854-1.114,1.54-2.487,1.54s-2.5-.687-2.5-1.54v-2.181c0,.854,1.123,1.549,2.5,1.549S420.843,272.773,420.843,271.919Z" transform="translate(-415.859 -266.718)" fill="#a7daed"/>
          <path id="Path_157" data-name="Path 157" d="M420.823,269.6s-.015-.078-.025-.118c-.006-.021-.01-.042-.017-.062a2.115,2.115,0,0,0-.94-1.134v.233a3.687,3.687,0,0,0-2.975,0v-.233a2.119,2.119,0,0,0-.941,1.134c-.007.021-.011.042-.017.062a2.116,2.116,0,0,0-.043.269c0,.854,1.114,1.546,2.489,1.546s2.489-.692,2.489-1.546A.945.945,0,0,0,420.823,269.6Z" transform="translate(-415.86 -266.367)" fill="#fff" opacity="0.75"/>
          <path id="Path_158" data-name="Path 158" d="M420.452,269.13c0,.7-.919,1.276-2.054,1.276s-2.053-.571-2.053-1.276.919-1.275,2.053-1.275S420.452,268.426,420.452,269.13Z" transform="translate(-415.905 -266.335)" fill="#4478ab"/>
          <path id="Path_159" data-name="Path 159" d="M417.124,267.387v1.7c0,.463.6.838,1.348.838s1.348-.375,1.348-.838v-1.7Z" transform="translate(-415.978 -266.29)" fill="#f1f1f1"/>
          <path id="Path_160" data-name="Path 160" d="M419.973,267.49a2.081,2.081,0,0,0-1.545-.575,2.053,2.053,0,0,0-1.568.6l-.2-.174v.669c0,.606.791,1.1,1.766,1.1s1.766-.491,1.766-1.1v-.669Z" transform="translate(-415.935 -266.246)" fill="#a7daed"/>
          <path id="Path_161" data-name="Path 161" d="M420.194,267.273c0,.606-.791,1.1-1.766,1.1s-1.766-.492-1.766-1.1.791-1.1,1.766-1.1S420.194,266.667,420.194,267.273Z" transform="translate(-415.935 -266.176)" fill="#4478ab"/>
          <path id="Path_162" data-name="Path 162" d="M419.819,267.3c0,.463-.6.838-1.348.838s-1.348-.375-1.348-.838.6-.837,1.348-.837S419.819,266.838,419.819,267.3Z" transform="translate(-415.978 -266.203)" fill="#a7daed"/>
        </g>
        <g id="Group_40" data-name="Group 40" transform="translate(36.791 9.065)">
          <path id="Path_163" data-name="Path 163" d="M422.608,273.825v5.544c0,.854,1.114,1.546,2.489,1.546s2.489-.692,2.489-1.546v-5.544Z" transform="translate(-422.603 -270.443)" fill="#fff" opacity="0.75"/>
          <path id="Path_164" data-name="Path 164" d="M427.586,275.834v2.181c0,.853-1.113,1.54-2.487,1.54s-2.5-.687-2.5-1.54v-2.181c0,.853,1.123,1.549,2.5,1.549S427.586,276.687,427.586,275.834Z" transform="translate(-422.603 -270.633)" fill="#a7daed"/>
          <path id="Path_165" data-name="Path 165" d="M427.566,273.513s-.015-.078-.025-.118c-.005-.021-.009-.043-.016-.062a2.119,2.119,0,0,0-.941-1.134v.233a3.687,3.687,0,0,0-2.975,0V272.2a2.119,2.119,0,0,0-.941,1.134c-.007.02-.011.041-.016.062a2.119,2.119,0,0,0-.044.27c0,.854,1.114,1.546,2.489,1.546s2.489-.692,2.489-1.546A.933.933,0,0,0,427.566,273.513Z" transform="translate(-422.603 -270.282)" fill="#fff" opacity="0.75"/>
          <path id="Path_166" data-name="Path 166" d="M427.195,273.045c0,.7-.919,1.275-2.053,1.275s-2.054-.571-2.054-1.275.919-1.276,2.054-1.276S427.195,272.34,427.195,273.045Z" transform="translate(-422.649 -270.249)" fill="#4478ab"/>
          <path id="Path_167" data-name="Path 167" d="M423.867,271.3V273c0,.463.6.837,1.348.837s1.348-.374,1.348-.837v-1.7Z" transform="translate(-422.722 -270.205)" fill="#f1f1f1"/>
          <path id="Path_168" data-name="Path 168" d="M426.716,271.4a2.079,2.079,0,0,0-1.544-.576,2.05,2.05,0,0,0-1.568.6l-.2-.174v.669c0,.606.791,1.1,1.767,1.1s1.766-.491,1.766-1.1v-.669Z" transform="translate(-422.679 -270.16)" fill="#a7daed"/>
          <ellipse id="Ellipse_1" data-name="Ellipse 1" cx="1.766" cy="1.097" rx="1.766" ry="1.097" transform="translate(0.727)" fill="#4478ab"/>
          <ellipse id="Ellipse_2" data-name="Ellipse 2" cx="1.348" cy="0.837" rx="1.348" ry="0.837" transform="translate(1.145 0.26)" fill="#a7daed"/>
        </g>
        <g id="Group_41" data-name="Group 41" transform="translate(45.539 5.735)">
          <path id="Path_169" data-name="Path 169" d="M439.192,274.462h-6.929v9.953h0a1.748,1.748,0,0,0,1.006,1.45,5.289,5.289,0,0,0,4.9,0,1.773,1.773,0,0,0,1.025-1.45h0Z" transform="translate(-432.263 -267.173)" fill="#4478ab"/>
          <path id="Path_170" data-name="Path 170" d="M439.192,277.251V282.2a1.776,1.776,0,0,1-1.024,1.451,5.287,5.287,0,0,1-4.9,0,1.75,1.75,0,0,1-1-1.442V277.26a1.751,1.751,0,0,0,1,1.442,5.3,5.3,0,0,0,4.9,0A1.776,1.776,0,0,0,439.192,277.251Z" transform="translate(-432.263 -267.436)" fill="#ccf4ff"/>
          <path id="Path_171" data-name="Path 171" d="M438.186,272.6a5.29,5.29,0,0,0-4.9,0c-1.358.8-1.366,2.1-.017,2.9a5.288,5.288,0,0,0,4.9,0C439.528,274.7,439.533,273.4,438.186,272.6Z" transform="translate(-432.263 -266.941)" fill="#eefffc"/>
          <path id="Path_172" data-name="Path 172" d="M437.362,268.853a3.207,3.207,0,0,0-2.975,0,.937.937,0,0,0-.011,1.76,3.216,3.216,0,0,0,2.975,0A.937.937,0,0,0,437.362,268.853Z" transform="translate(-432.405 -266.609)" fill="#eefffc"/>
          <path id="Path_173" data-name="Path 173" d="M433.657,269.658l-1.309,3.754h6.781l-1.289-3.754Z" transform="translate(-432.271 -266.72)" fill="#eefffc"/>
          <path id="Path_174" data-name="Path 174" d="M437.509,269.635v-2.184h-3.172v2.184h0a.8.8,0,0,0,.46.665,2.424,2.424,0,0,0,2.243,0A.813.813,0,0,0,437.509,269.635Z" transform="translate(-432.459 -266.511)" fill="#4478ab"/>
          <path id="Path_175" data-name="Path 175" d="M437.049,266.688a2.423,2.423,0,0,0-2.244,0,.707.707,0,0,0-.008,1.328,2.424,2.424,0,0,0,2.243,0A.707.707,0,0,0,437.049,266.688Z" transform="translate(-432.459 -266.413)" fill="#a7daed"/>
        </g>
        <g id="Group_51" data-name="Group 51" transform="translate(18.382 11.928)">
          <path id="Path_176" data-name="Path 176" d="M402.857,275.361a.318.318,0,0,1-.184-.053l-.21-.112a.485.485,0,0,1-.188-.446,1.807,1.807,0,0,1,.807-1.4.676.676,0,0,1,.325-.1.32.32,0,0,1,.163.041l.228.125a.487.487,0,0,1,.189.446,1.808,1.808,0,0,1-.807,1.4.671.671,0,0,1-.323.1Z" transform="translate(-402.275 -273.251)" fill="#fff"/>
          <path id="Path_177" data-name="Path 177" d="M402.879,275.375c-.219,0-.35-.182-.351-.486a1.811,1.811,0,0,1,.807-1.4.671.671,0,0,1,.326-.1c.218,0,.35.182.35.486a1.808,1.808,0,0,1-.807,1.4A.671.671,0,0,1,402.879,275.375Z" transform="translate(-402.299 -273.264)" fill="#4478ab"/>
          <path id="Path_178" data-name="Path 178" d="M406.368,275.81l-.522.474-2.673-1.571a.166.166,0,0,1-.07-.153.525.525,0,0,1,.237-.412.168.168,0,0,1,.169-.016Z" transform="translate(-402.353 -273.333)" fill="#fff"/>
          <path id="Path_179" data-name="Path 179" d="M408.066,275.106l.091-.034-.265-.16-.017-.011a.454.454,0,0,0-.267-.065,1.138,1.138,0,0,0-.551.173,2.3,2.3,0,0,0-.531.434,3.344,3.344,0,0,0-.612.956,2.489,2.489,0,0,0-.219.968.807.807,0,0,0,.282.732l.014.006.261.158-.011-.084c.016,0,.029.01.046.01a1.129,1.129,0,0,0,.549-.173,2.468,2.468,0,0,0,.716-.655,3.315,3.315,0,0,0,.529-1.005,2.275,2.275,0,0,0,.119-.7A1.061,1.061,0,0,0,408.066,275.106Z" transform="translate(-402.598 -273.401)" fill="#fff"/>
          <g id="Group_42" data-name="Group 42" transform="translate(3.359 1.593)">
            <path id="Path_180" data-name="Path 180" d="M408.37,276.53a2.269,2.269,0,0,0,.119-.7c0-.514-.222-.82-.591-.82a1.142,1.142,0,0,0-.551.172,2.329,2.329,0,0,0-.532.435,3.373,3.373,0,0,0-.612.955,2.493,2.493,0,0,0-.219.969c0,.514.224.822.592.822a1.13,1.13,0,0,0,.55-.173,2.5,2.5,0,0,0,.716-.656A3.323,3.323,0,0,0,408.37,276.53Z" transform="translate(-405.984 -275.01)" fill="#4478ab"/>
          </g>
          <path id="Path_181" data-name="Path 181" d="M414.952,280.239a1.929,1.929,0,0,1-.876,1.517.6.6,0,0,1-.653.041.194.194,0,0,0,.029.019l-6.729-3.909a.614.614,0,0,1-.256-.563,1.924,1.924,0,0,1,.875-1.515.618.618,0,0,1,.625-.062l1.093.636.136.078.356.207.138.08.356.208.139.079.356.207.139.081.353.206.139.081.353.206.143.082.351.2.142.083.348.2.14.081.357.207.145.084.343.2.148.084.347.2.148.086.557.324A.613.613,0,0,1,414.952,280.239Z" transform="translate(-402.671 -273.483)" fill="#fff" opacity="0.75"/>
          <path id="Path_182" data-name="Path 182" d="M414.772,280.145c.484-.28.879-.055.881.5a1.93,1.93,0,0,1-.876,1.516c-.484.28-.879.055-.88-.5A1.929,1.929,0,0,1,414.772,280.145Z" transform="translate(-403.372 -273.89)" fill="#fff"/>
          <g id="Group_43" data-name="Group 43" transform="translate(3.932 2.36)">
            <path id="Path_183" data-name="Path 183" d="M408.03,276.757a1.319,1.319,0,0,0,.071-.414c0-.305-.131-.486-.35-.486a.672.672,0,0,0-.326.1,1.353,1.353,0,0,0-.314.257,2,2,0,0,0-.363.566,1.469,1.469,0,0,0-.129.573c0,.305.132.487.35.487a.667.667,0,0,0,.325-.1,1.475,1.475,0,0,0,.425-.389A1.973,1.973,0,0,0,408.03,276.757Z" transform="translate(-406.617 -275.857)" fill="#fff"/>
          </g>
          <path id="Path_184" data-name="Path 184" d="M410.715,280.024c-.219,0-.35-.182-.351-.487a1.811,1.811,0,0,1,.807-1.4.674.674,0,0,1,.326-.1c.219,0,.35.182.351.486a1.807,1.807,0,0,1-.807,1.4A.671.671,0,0,1,410.715,280.024Z" transform="translate(-403.039 -273.703)" fill="#29abe2" opacity="0.5"/>
          <path id="Path_185" data-name="Path 185" d="M414.4,282.16c-.218,0-.35-.181-.35-.486a1.809,1.809,0,0,1,.807-1.4.672.672,0,0,1,.326-.1c.218,0,.35.181.35.485a1.81,1.81,0,0,1-.807,1.4A.68.68,0,0,1,414.4,282.16Z" transform="translate(-403.386 -273.905)" fill="#29abe2" opacity="0.3"/>
          <g id="Group_44" data-name="Group 44" transform="translate(4.062 2.72)">
            <path id="Path_186" data-name="Path 186" d="M410.532,278.256l-2.029-1.192-.338-.2-.121-.072-.92-.541a2,2,0,0,0-.363.566l.971.57.12.071.131.077,2.213,1.3a.109.109,0,0,1-.016-.013.157.157,0,0,0,.186,0,.527.527,0,0,0,.238-.411A.169.169,0,0,0,410.532,278.256Z" transform="translate(-406.76 -276.254)" fill="#ccc"/>
            <path id="Path_187" data-name="Path 187" d="M410.715,280.024c-.219,0-.35-.182-.351-.487a1.811,1.811,0,0,1,.807-1.4.674.674,0,0,1,.326-.1c.219,0,.35.182.351.486a1.807,1.807,0,0,1-.807,1.4A.671.671,0,0,1,410.715,280.024Z" transform="translate(-407.1 -276.422)" fill="#ccc" opacity="0.5"/>
            <path id="Path_188" data-name="Path 188" d="M410.65,279.985a.308.308,0,0,1-.183-.054l-.629-.351a.489.489,0,0,1-.188-.446,1.811,1.811,0,0,1,.807-1.4.682.682,0,0,1,.326-.1.314.314,0,0,1,.162.041l.647.365a.485.485,0,0,1,.189.446,1.807,1.807,0,0,1-.807,1.4.67.67,0,0,1-.323.1Z" transform="translate(-407.033 -276.384)" fill="#2b325e"/>
          </g>
          <path id="Path_189" data-name="Path 189" d="M414.053,281.958a.312.312,0,0,1-.184-.054l-3.316-1.921a.492.492,0,0,1-.188-.446,1.811,1.811,0,0,1,.807-1.4.674.674,0,0,1,.326-.1.314.314,0,0,1,.162.041l3.334,1.934a.488.488,0,0,1,.189.446,1.81,1.81,0,0,1-.807,1.4.673.673,0,0,1-.323.1Z" transform="translate(-403.039 -273.703)" fill="#29abe2" opacity="0.3"/>
          <path id="Path_190" data-name="Path 190" d="M415.828,281.258l-.59-.341h0a.231.231,0,0,0-.239.021.734.734,0,0,0-.333.578.234.234,0,0,0,.092.208l0,0,.007,0h0l.577.332Z" transform="translate(-403.445 -273.972)" fill="#2b325e"/>
          <path id="Path_191" data-name="Path 191" d="M415.644,281.311c.185-.107.335-.021.335.191a.734.734,0,0,1-.333.578c-.185.107-.335.021-.336-.191A.737.737,0,0,1,415.644,281.311Z" transform="translate(-403.505 -274.008)" fill="#2ec1ff"/>
          <g id="Group_46" data-name="Group 46" transform="translate(5.971 2.919)">
            <g id="Group_45" data-name="Group 45">
              <path id="Path_192" data-name="Path 192" d="M414.876,279.722a.688.688,0,0,0-.525.1.04.04,0,0,1-.017,0,.033.033,0,0,1-.029-.017.033.033,0,0,1,.012-.046.891.891,0,0,1,.412-.131Z" transform="translate(-409.381 -276.773)" fill="#4d4d4d"/>
              <path id="Path_193" data-name="Path 193" d="M414.345,279.405a.6.6,0,0,0-.386.038.034.034,0,0,1-.044-.019.033.033,0,0,1,.019-.044.786.786,0,0,1,.263-.059Z" transform="translate(-409.344 -276.743)" fill="#4d4d4d"/>
              <path id="Path_194" data-name="Path 194" d="M413.787,279.089a.7.7,0,0,0-.523.1.029.029,0,0,1-.017,0,.034.034,0,0,1-.016-.063.891.891,0,0,1,.412-.129Z" transform="translate(-409.278 -276.713)" fill="#4d4d4d"/>
              <path id="Path_195" data-name="Path 195" d="M413.249,278.769a.619.619,0,0,0-.379.043.036.036,0,0,1-.044-.019.034.034,0,0,1,.02-.044.746.746,0,0,1,.263-.06Z" transform="translate(-409.242 -276.683)" fill="#4d4d4d"/>
              <path id="Path_196" data-name="Path 196" d="M412.695,278.454a.7.7,0,0,0-.517.107.038.038,0,0,1-.047-.013.036.036,0,0,1,.014-.047.891.891,0,0,1,.408-.13Z" transform="translate(-409.176 -276.653)" fill="#4d4d4d"/>
              <path id="Path_197" data-name="Path 197" d="M412.164,278.137a.615.615,0,0,0-.382.041.033.033,0,0,1-.044-.018.034.034,0,0,1,.019-.044.775.775,0,0,1,.264-.061Z" transform="translate(-409.139 -276.623)" fill="#4d4d4d"/>
              <path id="Path_198" data-name="Path 198" d="M411.6,277.82a.707.707,0,0,0-.511.108.029.029,0,0,1-.017,0,.032.032,0,0,1-.029-.016.034.034,0,0,1,.012-.047.907.907,0,0,1,.407-.13Z" transform="translate(-409.073 -276.593)" fill="#4d4d4d"/>
              <path id="Path_199" data-name="Path 199" d="M411.074,277.5a.611.611,0,0,0-.378.043.033.033,0,0,1-.044-.019.034.034,0,0,1,.018-.044.829.829,0,0,1,.265-.061Z" transform="translate(-409.036 -276.563)" fill="#4d4d4d"/>
              <path id="Path_200" data-name="Path 200" d="M410.513,277.186a.709.709,0,0,0-.507.11.041.041,0,0,1-.017,0,.036.036,0,0,1-.03-.017.034.034,0,0,1,.013-.047.889.889,0,0,1,.4-.129Z" transform="translate(-408.971 -276.534)" fill="#4d4d4d"/>
              <path id="Path_201" data-name="Path 201" d="M409.981,276.869a.627.627,0,0,0-.374.045.034.034,0,0,1-.026-.063.817.817,0,0,1,.263-.062Z" transform="translate(-408.934 -276.504)" fill="#4d4d4d"/>
              <path id="Path_202" data-name="Path 202" d="M409.422,276.552a.717.717,0,0,0-.5.11.03.03,0,0,1-.016.005.035.035,0,0,1-.03-.017.034.034,0,0,1,.013-.046.87.87,0,0,1,.4-.13Z" transform="translate(-408.868 -276.474)" fill="#4d4d4d"/>
            </g>
          </g>
          <g id="Group_50" data-name="Group 50" transform="translate(11.959 7.41)">
            <g id="Group_47" data-name="Group 47">
              <path id="Path_203" data-name="Path 203" d="M416.29,282.32l-.754-.321a.14.14,0,0,1-.055-.129.528.528,0,0,1,.235-.408.192.192,0,0,1,.1-.03.092.092,0,0,1,.048.012c.226.177.6.445.651.514A1.028,1.028,0,0,1,416.29,282.32Z" transform="translate(-415.48 -281.433)" fill="#2b325e"/>
              <path id="Path_204" data-name="Path 204" d="M416.4,282.38c-.042,0-.067-.034-.068-.093a.351.351,0,0,1,.156-.27.135.135,0,0,1,.063-.02c.042,0,.067.035.067.094a.347.347,0,0,1-.156.27A.127.127,0,0,1,416.4,282.38Z" transform="translate(-415.56 -281.486)" fill="#2ec1ff"/>
            </g>
            <g id="Group_49" data-name="Group 49" transform="translate(0.881 0.646)">
              <g id="Group_48" data-name="Group 48" style="isolation: isolate">
                <path id="Path_205" data-name="Path 205" d="M416.536,282.15a.036.036,0,0,0-.035,0,.11.11,0,0,0-.048.084.035.035,0,0,0,.014.032l2.71,1.558c.36.132.581.212.726.259Z" transform="translate(-416.453 -282.146)" fill="#fff"/>
              </g>
            </g>
          </g>
        </g>
        <g id="Group_52" data-name="Group 52" transform="translate(28.971 23.34)">
          <path id="Path_206" data-name="Path 206" d="M415.626,286.725a.451.451,0,0,0-.219-.286l-.775-.447-.013-.006h0l-.023-.01-.015-.006a.365.365,0,0,0-.374.043.313.313,0,0,0-.08.337h0a.493.493,0,0,0,.206.258l.775.447a.321.321,0,0,0,.035.017h0a.353.353,0,0,0,.348-.015A.3.3,0,0,0,415.626,286.725Z" transform="translate(-413.981 -285.86)" fill="#699fe0"/>
          <path id="Path_207" data-name="Path 207" d="M415.067,286.241l-.009,0a.063.063,0,0,0-.015-.005.367.367,0,0,0-.381.043.321.321,0,0,0-.081.345.488.488,0,0,0,.138.207l-.523-.3a.494.494,0,0,1-.206-.259h0a.312.312,0,0,1,.082-.337.359.359,0,0,1,.372-.043l.016.005a.174.174,0,0,1,.023.011l.011.005Z" transform="translate(-413.968 -285.853)" fill="#fff"/>
        </g>
        <g id="Group_53" data-name="Group 53" transform="translate(30.046 22.714)">
          <path id="Path_208" data-name="Path 208" d="M416.813,286.034a.447.447,0,0,0-.219-.286l-.774-.447-.013-.005h0l-.023-.01-.015-.006a.363.363,0,0,0-.373.043.316.316,0,0,0-.081.338h0a.493.493,0,0,0,.206.258l.775.447a.214.214,0,0,0,.035.017h0a.351.351,0,0,0,.347-.014A.294.294,0,0,0,416.813,286.034Z" transform="translate(-415.168 -285.169)" fill="#699fe0"/>
          <path id="Path_209" data-name="Path 209" d="M416.254,285.55l-.01,0a.078.078,0,0,0-.014-.005.369.369,0,0,0-.381.043.321.321,0,0,0-.082.345.481.481,0,0,0,.137.207l-.523-.3a.491.491,0,0,1-.206-.259h0a.312.312,0,0,1,.082-.337.359.359,0,0,1,.372-.043l.017.005.022.011.012.005Z" transform="translate(-415.155 -285.161)" fill="#fff"/>
        </g>
        <g id="Group_54" data-name="Group 54" transform="translate(31.122 22.088)">
          <path id="Path_210" data-name="Path 210" d="M418,285.343a.456.456,0,0,0-.219-.286l-.775-.447-.013-.005h0l-.023-.01-.015-.006a.365.365,0,0,0-.374.043.315.315,0,0,0-.08.338h0a.5.5,0,0,0,.207.259l.775.447.035.016h0a.353.353,0,0,0,.348-.014A.3.3,0,0,0,418,285.343Z" transform="translate(-416.356 -284.478)" fill="#699fe0"/>
          <path id="Path_211" data-name="Path 211" d="M417.442,284.859l-.009,0c-.005,0-.011-.006-.015-.006a.371.371,0,0,0-.381.043.321.321,0,0,0-.082.345.478.478,0,0,0,.138.207l-.523-.3a.5.5,0,0,1-.206-.26h0a.312.312,0,0,1,.082-.337.359.359,0,0,1,.372-.043l.016.005a.175.175,0,0,1,.023.011l.011.006Z" transform="translate(-416.343 -284.47)" fill="#fff"/>
        </g>
        <g id="Group_55" data-name="Group 55" transform="translate(32.197 21.462)">
          <path id="Path_212" data-name="Path 212" d="M419.188,284.652a.449.449,0,0,0-.219-.286l-.774-.447-.013-.005h0l-.023-.01-.015-.006a.362.362,0,0,0-.373.043.315.315,0,0,0-.081.337h0a.5.5,0,0,0,.206.259l.775.447.035.017h0a.35.35,0,0,0,.347-.014A.3.3,0,0,0,419.188,284.652Z" transform="translate(-417.543 -283.787)" fill="#699fe0"/>
          <path id="Path_213" data-name="Path 213" d="M418.629,284.169l-.01,0a.073.073,0,0,0-.014-.005.367.367,0,0,0-.381.043.32.32,0,0,0-.081.344.476.476,0,0,0,.137.207l-.523-.3a.5.5,0,0,1-.206-.259h0a.313.313,0,0,1,.082-.338.359.359,0,0,1,.372-.043l.017.005a.138.138,0,0,1,.022.012l.012.005Z" transform="translate(-417.53 -283.78)" fill="#fff"/>
        </g>
      </g>
      <g id="Group_62" data-name="Group 62">
        <g id="Group_57" data-name="Group 57" transform="translate(59.391 232.751)" opacity="0.3">
          <path id="Path_214" data-name="Path 214" d="M133.815,321.015l-2.644-1.539h0a.5.5,0,0,0-.524.05l-1.214.7.257-.955-2.727-1.579a.525.525,0,0,0-.5.063l-5.874,3.391a1.407,1.407,0,0,0-.678,1.07v3.509l-3.508,2.026a1.405,1.405,0,0,0-.678,1.07V334.7a.4.4,0,0,0,.122.316h0l.014.007a.291.291,0,0,0,.074.043l2.661,1.541,1.317-1.176v1.037a.38.38,0,0,0,.147.331h0a.316.316,0,0,0,.061.036l2.73,1.578,1.717-3.955,1.9-1.095a1.407,1.407,0,0,0,.678-1.07v-.93l4.187-4.254Z" transform="translate(-115.721 -317.654)" fill="#699fe0"/>
          <path id="Path_215" data-name="Path 215" d="M119.4,329.492l3.509-2.026v-3.509a1.408,1.408,0,0,1,.677-1.07l5.875-3.391c.374-.216.677-.088.677.287v3.508l3.509-2.026c.374-.216.678-.088.678.287v5.874a1.409,1.409,0,0,1-.678,1.069l-3.509,2.026v3.508a1.4,1.4,0,0,1-.677,1.069l-5.875,3.391c-.374.216-.677.088-.677-.286V334.7l-3.509,2.026c-.375.216-.678.088-.678-.286v-5.874A1.4,1.4,0,0,1,119.4,329.492Z" transform="translate(-116.004 -317.818)" fill="#e1f4ff"/>
        </g>
        <g id="Group_58" data-name="Group 58" transform="translate(218.126)" opacity="0.5">
          <path id="Path_216" data-name="Path 216" d="M312.87,64.229l-2.181-1.263h0a.638.638,0,0,0-.668.063l-2.432,1.41.024-2.431-2.288-1.316a.665.665,0,0,0-.639.082L297.2,65.1a1.793,1.793,0,0,0-.865,1.363V70.93l-4.471,2.582A1.791,1.791,0,0,0,291,74.875V82.36a.51.51,0,0,0,.155.4h0l.016.01a.41.41,0,0,0,.1.054l2.2,1.268,2.866-1.83v2.349a.488.488,0,0,0,.187.423h0a.45.45,0,0,0,.078.045l2.291,1.314,2.188-5.04,2.418-1.4a1.793,1.793,0,0,0,.865-1.363V77.414l5.335-5.421Z" transform="translate(-291.001 -60.643)" fill="#699fe0"/>
          <path id="Path_217" data-name="Path 217" d="M294.38,74.959l4.472-2.582V67.906a1.791,1.791,0,0,1,.864-1.363l7.486-4.322c.477-.275.864-.112.864.366v4.471l4.471-2.582c.477-.275.865-.111.865.366v7.486a1.794,1.794,0,0,1-.865,1.363l-4.471,2.581v4.472a1.791,1.791,0,0,1-.864,1.363l-7.486,4.322c-.477.275-.864.112-.864-.365V81.591l-4.472,2.582c-.477.275-.864.112-.864-.365V76.322A1.791,1.791,0,0,1,294.38,74.959Z" transform="translate(-291.238 -60.779)" fill="#72c7b5"/>
        </g>
        <g id="Group_59" data-name="Group 59" transform="translate(71.908 6.399)" opacity="0.7">
          <path id="Path_218" data-name="Path 218" d="M146.853,70.924l-2.53-1.472h0a.479.479,0,0,0-.5.047l-1.162.671.245-.914L140.3,67.746a.5.5,0,0,0-.48.061l-5.62,3.245a1.346,1.346,0,0,0-.648,1.023v3.356L130.19,77.37a1.346,1.346,0,0,0-.648,1.022v5.62a.383.383,0,0,0,.117.3h0l.012.006a.269.269,0,0,0,.072.042l2.545,1.475,1.261-1.127v.993a.364.364,0,0,0,.139.317h0a.262.262,0,0,0,.058.034l2.612,1.51L138,83.783l1.816-1.048a1.346,1.346,0,0,0,.648-1.023v-.889l4.005-4.07Z" transform="translate(-129.542 -67.708)" fill="#699fe0"/>
          <path id="Path_219" data-name="Path 219" d="M133.064,79.034l3.356-1.938V73.739a1.346,1.346,0,0,1,.649-1.023l5.619-3.245c.359-.206.648-.083.648.274V73.1l3.357-1.938c.359-.207.648-.084.648.274v5.619a1.343,1.343,0,0,1-.648,1.023l-3.357,1.938v3.357a1.346,1.346,0,0,1-.648,1.023l-5.619,3.244c-.359.207-.649.084-.649-.273V84.013l-3.356,1.938c-.359.206-.649.084-.649-.274V80.057A1.344,1.344,0,0,1,133.064,79.034Z" transform="translate(-129.813 -67.865)" fill="#76a699"/>
        </g>
        <g id="Group_60" data-name="Group 60" transform="translate(232.023 37.709)">
          <path id="Path_220" data-name="Path 220" d="M331.37,106.624l-3-1.742h0a.715.715,0,0,0-.747.071l-2.13,1.237-.006-2.049-3.116-1.8a.744.744,0,0,0-.716.091l-8.374,4.835a2,2,0,0,0-.966,1.524v5l-5,2.888a2,2,0,0,0-.966,1.524v8.374a.572.572,0,0,0,.174.451h0l.018.011a.423.423,0,0,0,.106.061l3.022,1.748,2.646-1.908,0,2.159a.543.543,0,0,0,.208.473h0a.459.459,0,0,0,.087.05l3.122,1.8,2.448-5.637,2.7-1.562a2,2,0,0,0,.967-1.524v-1.327l5.969-6.063Z" transform="translate(-306.346 -102.282)" fill="#699fe0"/>
          <path id="Path_221" data-name="Path 221" d="M310.742,118.661l5-2.888v-5a2,2,0,0,1,.966-1.524l8.374-4.835c.533-.308.966-.125.966.408v5l5-2.888c.533-.309.966-.126.966.408v8.374a2,2,0,0,1-.966,1.524l-5,2.888v5a2,2,0,0,1-.966,1.524l-8.374,4.835c-.533.308-.966.125-.966-.408v-5l-5,2.888c-.533.309-.966.126-.966-.408v-8.374A2,2,0,0,1,310.742,118.661Z" transform="translate(-306.67 -102.469)" fill="#72c7b5"/>
        </g>
        <g id="Group_61" data-name="Group 61" transform="translate(0 179.384)">
          <path id="Path_222" data-name="Path 222" d="M84.723,264.547l-3.8-2.191h0a1,1,0,0,0-1.045.1l-3.671,2.128.291-3.511-3.961-2.27a1.044,1.044,0,0,0-1,.127l-11.706,6.759a2.8,2.8,0,0,0-1.351,2.131v6.992l-6.992,4.037a2.8,2.8,0,0,0-1.351,2.131v11.706a.8.8,0,0,0,.244.63h0l.025.015a.589.589,0,0,0,.149.086l3.828,2.2,2.625-2.346,1.473,2.943a.761.761,0,0,0,.292.661h0a.6.6,0,0,0,.121.071l3.967,2.269,3.421-7.881,3.782-2.183a2.8,2.8,0,0,0,1.351-2.132v-1.854l8.343-8.477Z" transform="translate(-50.139 -258.724)" fill="#699fe0"/>
          <path id="Path_223" data-name="Path 223" d="M55.849,281.347l6.992-4.037v-6.991a2.8,2.8,0,0,1,1.351-2.132L75.9,261.428c.746-.43,1.351-.175,1.351.571v6.992l6.992-4.037c.746-.43,1.351-.175,1.351.571v11.706a2.8,2.8,0,0,1-1.351,2.131L77.25,283.4v6.992a2.8,2.8,0,0,1-1.351,2.131l-11.706,6.759c-.746.431-1.351.175-1.351-.571v-6.993l-6.992,4.037c-.746.431-1.351.176-1.351-.571V283.479A2.8,2.8,0,0,1,55.849,281.347Z" transform="translate(-50.55 -258.96)" fill="#72c7b5"/>
        </g>
      </g>
      <g id="Group_66" data-name="Group 66" transform="translate(7.355 42.466)">
        <g id="Group_63" data-name="Group 63" transform="translate(306.509 80.795)">
          <path id="Path_224" data-name="Path 224" d="M396.718,202.753a6,6,0,1,0,6.005-6A6,6,0,0,0,396.718,202.753Z" transform="translate(-396.718 -196.752)" fill="#e1f4ff"/>
          <path id="Path_225" data-name="Path 225" d="M400.477,200.579a2.6,2.6,0,1,0,2.6-2.6A2.6,2.6,0,0,0,400.477,200.579Z" transform="translate(-397.073 -196.868)" fill="#f5fcff"/>
        </g>
        <g id="Group_64" data-name="Group 64" transform="translate(21.98 223.478)">
          <path id="Path_226" data-name="Path 226" d="M82.532,359.783a5.478,5.478,0,1,0,5.48-5.476A5.48,5.48,0,0,0,82.532,359.783Z" transform="translate(-82.532 -354.307)" fill="#e1f4ff"/>
          <path id="Path_227" data-name="Path 227" d="M85.962,357.8a2.372,2.372,0,1,0,2.373-2.371A2.372,2.372,0,0,0,85.962,357.8Z" transform="translate(-82.856 -354.413)" fill="#f5fcff"/>
        </g>
        <g id="Group_65" data-name="Group 65">
          <path id="Path_228" data-name="Path 228" d="M58.261,113.011a5.479,5.479,0,1,0,5.481-5.476A5.481,5.481,0,0,0,58.261,113.011Z" transform="translate(-58.261 -107.535)" fill="#e1f4ff"/>
          <path id="Path_229" data-name="Path 229" d="M61.692,111.028a2.372,2.372,0,1,0,2.373-2.37A2.372,2.372,0,0,0,61.692,111.028Z" transform="translate(-58.585 -107.641)" fill="#f5fcff"/>
        </g>
      </g>
      <g id="Group_67" data-name="Group 67" transform="translate(144.421 61.42)">
        <path id="Path_230" data-name="Path 230" d="M380.381,127.823l5.79-6.9-1.666-.994a5.453,5.453,0,0,0-.526-.274c-.113-.054-.288-.016-.48.178a66.326,66.326,0,0,0-5.634,6.555c-2.267-.628-5.205-.1-8.42,1.754-7.161,4.134-12.969,13.3-12.969,20.463,0,3.024,1.039,5.2,2.775,6.408l-.005,0,.054.032a5.69,5.69,0,0,0,.648.379l1.63.954-.216-.46c2.218.491,5.026-.07,8.083-1.835,1.02-.589,2.187-.568,3.139-1.339l1.548-.714,7.614-10.173v-1.786l.494-.437c.935-2.331.18-3.854.18-6.013A7.894,7.894,0,0,0,380.381,127.823Zm-10.936,23.768c-5.781,3.338-10.474,1.354-10.474-4.428a15.051,15.051,0,0,1,1.376-5l3.435-5.449v.017l2.358-2.244,2.615-2.042c.6-.452.765-1.088,1.393-1.45,2.427-1.4,3.958-2.222,5.735-1.862a81.514,81.514,0,0,0-6.469,11.213.787.787,0,0,1-.576.478,22.919,22.919,0,0,0-7.461,1.365c-.358.134-.579.709-.3.775l1.737,1,.851-.2a9.566,9.566,0,0,1,5.067,4,.232.232,0,0,0,.12.106v0l2.124,1.237-.649-2.07-.448-.3a94.835,94.835,0,0,1,4.632-10.769,9.884,9.884,0,0,0-.668,1.628c.155-.024,3.922-4.543,5.25-6.141a7.291,7.291,0,0,1,.83,3.6C379.926,140.847,375.232,148.25,369.445,151.591Z" transform="translate(-356.476 -119.631)" fill="#699fe0"/>
        <path id="Path_231" data-name="Path 231" d="M371.817,130.2c-7.161,4.134-12.969,13.3-12.969,20.463s5.809,9.617,12.969,5.482,12.976-13.3,12.976-20.46S378.983,126.059,371.817,130.2Zm0,23.45c-5.781,3.338-10.474,1.355-10.474-4.427s4.693-13.19,10.474-16.528,10.481-1.358,10.481,4.429S377.6,150.3,371.817,153.645Z" transform="translate(-356.7 -120.439)" fill="#fff"/>
        <path id="Path_232" data-name="Path 232" d="M363.921,144.342c1.935.449,6.022,1.733,7.655,4.806.178.336.8-.013.983-.556a109.214,109.214,0,0,1,14.232-26.908c.387-.543.009-.941-.452-.475a75.8,75.8,0,0,0-14.085,20.516.79.79,0,0,1-.576.478,22.91,22.91,0,0,0-7.461,1.364C363.858,143.7,363.637,144.276,363.921,144.342Z" transform="translate(-357.167 -119.761)" fill="#fff"/>
      </g>
    </g>
    <g id="Group_19711" data-name="Group 19711" transform="translate(-3818.796 -5877.357)">
      <path id="Path_492" data-name="Path 492" d="M207.687,279.44c-.887,0-1.606.317-1.606.74v.148c0,.4.718.74,1.606.74s1.606-.317,1.606-.74v-.148c0-.4-.718-.74-1.606-.74Z" transform="translate(3807.465 5841.047)" fill="#27afaf"/>
      <path id="Path_493" data-name="Path 493" d="M207.146,317.53a1.891,1.891,0,0,1-1.585-.571.393.393,0,0,0-.042.148v.148c0,.4.718.74,1.606.74s1.606-.317,1.606-.74v-.148a.39.39,0,0,0-.042-.148c-.127.317-.761.571-1.542.571Z" transform="translate(3808.006 5804.944)" fill="#27afaf"/>
      <path id="Path_494" data-name="Path 494" d="M207.146,339.37a1.891,1.891,0,0,1-1.585-.571.394.394,0,0,0-.042.148v.148c0,.4.718.74,1.606.74s1.606-.317,1.606-.74v-.148a.391.391,0,0,0-.042-.148c-.127.317-.761.571-1.542.571Z" transform="translate(3808.006 5783.927)" fill="#27afaf"/>
      <path id="Path_495" data-name="Path 495" d="M207.146,361.77a1.891,1.891,0,0,1-1.585-.57.393.393,0,0,0-.042.148v.148c0,.4.718.74,1.606.74s1.606-.317,1.606-.74v-.148a.39.39,0,0,0-.042-.148c-.127.317-.761.57-1.542.57Z" transform="translate(3808.006 5762.373)" fill="#27afaf"/>
      <path id="Path_496" data-name="Path 496" d="M207.146,383.61a1.891,1.891,0,0,1-1.585-.571.393.393,0,0,0-.042.148v.148c0,.4.718.74,1.606.74s1.606-.317,1.606-.74v-.148a.39.39,0,0,0-.042-.148c-.127.317-.761.571-1.542.571Z" transform="translate(3808.006 5741.356)" fill="#27afaf"/>
      <path id="Path_497" data-name="Path 497" d="M330.591,214.8v-.148c0-.4-.718-.74-1.606-.74a3.249,3.249,0,0,0-.824.106l1.458,1.458c.571-.127.972-.38.972-.676Z" transform="translate(3689.992 5904.099)" fill="#27afaf"/>
      <path id="Path_498" data-name="Path 498" d="M374.777,251.172v-.148a.39.39,0,0,0-.042-.148,1.061,1.061,0,0,1-.655.444l.317.317A.522.522,0,0,0,374.777,251.172Z" transform="translate(3645.805 5868.533)" fill="#27afaf"/>
      <path id="Path_499" data-name="Path 499" d="M388.249,273.012v-.148a.39.39,0,0,0-.042-.148.328.328,0,0,1-.127.169l.169.169Z" transform="translate(3632.334 5847.517)" fill="#27afaf"/>
      <path id="Path_500" data-name="Path 500" d="M307.44,278.4c0,.254.275.465.676.592l-.676-.676Z" transform="translate(3709.931 5842.127)" fill="#27afaf"/>
      <path id="Path_501" data-name="Path 501" d="M306.921,295.12a.393.393,0,0,0-.042.148v.169c0,.4.718.74,1.606.74h.063l-.486-.486a1.5,1.5,0,0,1-1.141-.571Z" transform="translate(3710.471 5825.958)" fill="#27afaf"/>
      <path id="Path_502" data-name="Path 502" d="M308.506,317.53a1.891,1.891,0,0,1-1.585-.571.393.393,0,0,0-.042.148v.148c0,.4.718.74,1.606.74a4.44,4.44,0,0,0,.782-.084l-.38-.38h-.38Z" transform="translate(3710.471 5804.944)" fill="#27afaf"/>
      <path id="Path_503" data-name="Path 503" d="M308.506,339.37a1.891,1.891,0,0,1-1.585-.571.393.393,0,0,0-.042.148v.148c0,.4.718.74,1.606.74a2.4,2.4,0,0,0,1.352-.338l-.3-.3a3.535,3.535,0,0,1-1.035.169Z" transform="translate(3710.471 5783.927)" fill="#27afaf"/>
      <path id="Path_504" data-name="Path 504" d="M308.506,361.77a1.891,1.891,0,0,1-1.585-.57.393.393,0,0,0-.042.148v.148c0,.4.718.74,1.606.74s1.606-.317,1.606-.74v-.19l-.063-.063a1.8,1.8,0,0,1-1.521.528Z" transform="translate(3710.471 5762.373)" fill="#27afaf"/>
      <path id="Path_505" data-name="Path 505" d="M308.506,383.61a1.891,1.891,0,0,1-1.585-.571.393.393,0,0,0-.042.148v.148c0,.4.718.74,1.606.74s1.606-.317,1.606-.74v-.148a.39.39,0,0,0-.042-.148c-.127.317-.761.571-1.542.571Z" transform="translate(3710.471 5741.356)" fill="#27afaf"/>
      <path id="Path_506" data-name="Path 506" d="M410.407,150.6c.887,0,1.606-.317,1.606-.74V149.7c0-.4-.718-.74-1.606-.74s-1.606.317-1.606.74v.169C408.8,150.266,409.519,150.6,410.407,150.6Z" transform="translate(3612.394 5966.608)" fill="#27afaf"/>
      <path id="Path_507" data-name="Path 507" d="M409.329,187.51c.887,0,1.606-.317,1.606-.74v-.148a.39.39,0,0,0-.042-.148c-.148.338-.8.571-1.585.571a1.891,1.891,0,0,1-1.585-.571.393.393,0,0,0-.042.148v.148C407.723,187.193,408.441,187.51,409.329,187.51Z" transform="translate(3613.472 5930.505)" fill="#27afaf"/>
      <path id="Path_508" data-name="Path 508" d="M409.325,209.35c.887,0,1.606-.317,1.606-.74v-.148a.39.39,0,0,0-.042-.148c-.148.338-.8.571-1.585.571a1.891,1.891,0,0,1-1.585-.571.394.394,0,0,0-.042.148v.148c.042.4.761.74,1.648.74Z" transform="translate(3613.476 5909.489)" fill="#27afaf"/>
      <path id="Path_509" data-name="Path 509" d="M409.329,232.314c.887,0,1.606-.317,1.606-.74v-.148a.39.39,0,0,0-.042-.148c-.148.338-.8.571-1.585.571a1.891,1.891,0,0,1-1.585-.571.393.393,0,0,0-.042.148v.148C407.723,231.976,408.441,232.314,409.329,232.314Z" transform="translate(3613.472 5887.392)" fill="#27afaf"/>
      <path id="Path_510" data-name="Path 510" d="M409.325,253.59c.887,0,1.606-.317,1.606-.74V252.7a.39.39,0,0,0-.042-.148c-.148.338-.8.571-1.585.571a1.891,1.891,0,0,1-1.585-.571.393.393,0,0,0-.042.148v.148c.042.423.761.74,1.648.74Z" transform="translate(3613.476 5866.918)" fill="#27afaf"/>
      <path id="Path_511" data-name="Path 511" d="M409.325,275.43c.887,0,1.606-.317,1.606-.74v-.148a.39.39,0,0,0-.042-.148c-.148.338-.8.57-1.585.57a1.891,1.891,0,0,1-1.585-.57.393.393,0,0,0-.042.148v.148c.042.4.761.74,1.648.74Z" transform="translate(3613.476 5845.902)" fill="#27afaf"/>
      <path id="Path_512" data-name="Path 512" d="M409.866,297.83c.887,0,1.606-.317,1.606-.74v-.148a.391.391,0,0,0-.042-.148c-.148.338-.8.571-1.585.571a1.891,1.891,0,0,1-1.585-.571c0,.021,0,.021-.021.042l.951.951C409.423,297.809,409.634,297.83,409.866,297.83Z" transform="translate(3612.935 5824.347)" fill="#27afaf"/>
      <path id="Path_513" data-name="Path 513" d="M446.5,318.932v-.148a.39.39,0,0,0-.042-.148c-.148.338-.8.57-1.585.57h-.232l.465.465c.8-.063,1.395-.359,1.395-.739Z" transform="translate(3577.909 5803.33)" fill="#27afaf"/>
      <path id="Path_514" data-name="Path 514" d="M464.819,339.092v-.148a.39.39,0,0,0-.042-.148,1.5,1.5,0,0,1-1.1.549l.38.38c.465-.148.761-.38.761-.634Z" transform="translate(3559.588 5783.93)" fill="#27afaf"/>
      <path id="Path_515" data-name="Path 515" d="M482.065,361.492v-.148a.39.39,0,0,0-.042-.148.815.815,0,0,1-.423.359l.275.275a.435.435,0,0,0,.19-.338Z" transform="translate(3542.342 5762.376)" fill="#27afaf"/>
      <path id="Path_516" data-name="Path 516" d="M408.281,382.479a.393.393,0,0,0-.042.148v.148c0,.317.465.592,1.1.7l-.634-.634A.807.807,0,0,1,408.281,382.479Z" transform="translate(3612.935 5741.895)" fill="#27afaf"/>
      <path id="Path_517" data-name="Path 517" d="M390.88,361.241l.063.063c0-.042-.021-.063-.021-.106C390.9,361.2,390.9,361.22,390.88,361.241Z" transform="translate(3629.639 5762.373)" fill="#27afaf"/>
      <path id="Path_518" data-name="Path 518" d="M107.508,28a9.508,9.508,0,1,0,9.508,9.508A9.5,9.5,0,0,0,107.508,28Zm8.071,9.508a8.012,8.012,0,0,1-1.9,5.2L102.289,31.317a8.082,8.082,0,0,1,13.29,6.191Zm-16.143,0a8.02,8.02,0,0,1,1.859-5.156L112.664,43.72a8.073,8.073,0,0,1-13.227-6.212Z" transform="translate(3911.469 6083)" fill="#27afaf"/>
    </g>
  </g>
</svg>
