<svg xmlns="http://www.w3.org/2000/svg" xmlns:xlink="http://www.w3.org/1999/xlink" width="257.921" height="159.242" viewBox="0 0 257.921 159.242">
  <defs>
    <clipPath id="clip-path">
      <rect id="Rectangle_6875" data-name="Rectangle 6875" width="232.789" height="137.382" fill="none"/>
    </clipPath>
    <clipPath id="clip-path-2">
      <rect id="Rectangle_6873" data-name="Rectangle 6873" width="231.789" height="124.901" fill="none"/>
    </clipPath>
    <clipPath id="clip-path-3">
      <rect id="Rectangle_6874" data-name="Rectangle 6874" width="60.127" height="44.669" fill="none"/>
    </clipPath>
    <clipPath id="clip-path-4">
      <rect id="Rectangle_6926" data-name="Rectangle 6926" width="243.724" height="159.242" fill="none"/>
    </clipPath>
    <clipPath id="clip-path-5">
      <rect id="Rectangle_6898" data-name="Rectangle 6898" width="6.204" height="11.079" fill="none"/>
    </clipPath>
    <clipPath id="clip-path-6">
      <rect id="Rectangle_6899" data-name="Rectangle 6899" width="1.007" height="0.542" fill="none"/>
    </clipPath>
    <clipPath id="clip-path-7">
      <rect id="Rectangle_6900" data-name="Rectangle 6900" width="1.024" height="0.779" fill="none"/>
    </clipPath>
    <clipPath id="clip-path-8">
      <rect id="Rectangle_6901" data-name="Rectangle 6901" width="0.794" height="0.95" fill="none"/>
    </clipPath>
    <clipPath id="clip-path-9">
      <rect id="Rectangle_6902" data-name="Rectangle 6902" width="0.524" height="1.023" fill="none"/>
    </clipPath>
    <clipPath id="clip-path-10">
      <rect id="Rectangle_6903" data-name="Rectangle 6903" width="0.864" height="0.984" fill="none"/>
    </clipPath>
    <clipPath id="clip-path-11">
      <rect id="Rectangle_6904" data-name="Rectangle 6904" width="0.923" height="0.696" fill="none"/>
    </clipPath>
    <clipPath id="clip-path-12">
      <rect id="Rectangle_6905" data-name="Rectangle 6905" width="1.06" height="0.666" fill="none"/>
    </clipPath>
    <clipPath id="clip-path-13">
      <rect id="Rectangle_6906" data-name="Rectangle 6906" width="1.516" height="2.098" fill="none"/>
    </clipPath>
    <clipPath id="clip-path-14">
      <rect id="Rectangle_6907" data-name="Rectangle 6907" width="2.099" height="1.476" fill="none"/>
    </clipPath>
    <clipPath id="clip-path-15">
      <rect id="Rectangle_6908" data-name="Rectangle 6908" width="1.389" height="1.427" fill="none"/>
    </clipPath>
    <clipPath id="clip-path-16">
      <rect id="Rectangle_6909" data-name="Rectangle 6909" width="1.708" height="1.755" fill="none"/>
    </clipPath>
    <clipPath id="clip-path-17">
      <rect id="Rectangle_6910" data-name="Rectangle 6910" width="1.019" height="1.047" fill="none"/>
    </clipPath>
    <clipPath id="clip-path-18">
      <rect id="Rectangle_6911" data-name="Rectangle 6911" width="0.785" height="0.938" fill="none"/>
    </clipPath>
    <clipPath id="clip-path-19">
      <rect id="Rectangle_6912" data-name="Rectangle 6912" width="0.517" height="1.011" fill="none"/>
    </clipPath>
    <clipPath id="clip-path-20">
      <rect id="Rectangle_6913" data-name="Rectangle 6913" width="0.745" height="1.056" fill="none"/>
    </clipPath>
    <clipPath id="clip-path-21">
      <rect id="Rectangle_6914" data-name="Rectangle 6914" width="0.909" height="0.794" fill="none"/>
    </clipPath>
    <clipPath id="clip-path-22">
      <rect id="Rectangle_6915" data-name="Rectangle 6915" width="1.831" height="1.813" fill="none"/>
    </clipPath>
    <clipPath id="clip-path-23">
      <rect id="Rectangle_6916" data-name="Rectangle 6916" width="2.11" height="2.168" fill="none"/>
    </clipPath>
    <clipPath id="clip-path-24">
      <rect id="Rectangle_6917" data-name="Rectangle 6917" width="8.833" height="7.21" fill="none"/>
    </clipPath>
    <clipPath id="clip-path-25">
      <rect id="Rectangle_6918" data-name="Rectangle 6918" width="1.35" height="1.329" fill="none"/>
    </clipPath>
    <clipPath id="clip-path-27">
      <rect id="Rectangle_6920" data-name="Rectangle 6920" width="2.099" height="1.475" fill="none"/>
    </clipPath>
    <clipPath id="clip-path-33">
      <rect id="Rectangle_6927" data-name="Rectangle 6927" width="20.966" height="13.088" fill="none"/>
    </clipPath>
    <clipPath id="clip-path-34">
      <rect id="Rectangle_6928" data-name="Rectangle 6928" width="2.935" height="31.988" fill="none"/>
    </clipPath>
    <clipPath id="clip-path-35">
      <rect id="Rectangle_6929" data-name="Rectangle 6929" width="22.618" height="8.311" fill="none"/>
    </clipPath>
    <clipPath id="clip-path-36">
      <rect id="Rectangle_6930" data-name="Rectangle 6930" width="18.439" height="4.039" fill="none"/>
    </clipPath>
    <clipPath id="clip-path-37">
      <rect id="Rectangle_6931" data-name="Rectangle 6931" width="17.685" height="4.824" fill="none"/>
    </clipPath>
    <clipPath id="clip-path-38">
      <rect id="Rectangle_6932" data-name="Rectangle 6932" width="37.534" height="35.586" fill="none"/>
    </clipPath>
    <clipPath id="clip-path-39">
      <rect id="Rectangle_6933" data-name="Rectangle 6933" width="20.461" height="4.149" fill="none"/>
    </clipPath>
  </defs>
  <g id="Group_55636" data-name="Group 55636" transform="translate(-831.04 -3828.426)">
    <g id="Group_19967" data-name="Group 19967" transform="translate(1257.812 -181.647)">
      <g id="Group_19965" data-name="Group 19965" transform="translate(-426.772 4031.932)">
        <g id="Group_19811" data-name="Group 19811" clip-path="url(#clip-path)">
          <g id="Group_19807" data-name="Group 19807" transform="translate(0 11.853)" opacity="0.23">
            <g id="Group_19806" data-name="Group 19806">
              <g id="Group_19805" data-name="Group 19805" clip-path="url(#clip-path-2)">
                <path id="Path_47767" data-name="Path 47767" d="M222.481,157.886c3.136-3.991,5.105-8.986,6.469-13.939,6.685-24.292,1.428-52.818-14.324-72.7-5.04-6.362-10.326-6.723-17.706-7.093a42.646,42.646,0,0,1-21.658-7.4c-8.531-5.836-14.841-14.681-23.927-19.609-13.415-7.276-30.6-4.373-43.484,3.8-14.185,9-25.823,24.288-42.573,25.559-12.4.941-24.433-6.385-36.785-4.926C18.486,62.762,9.755,69.842,5.044,78.749s-5.76,19.4-4.622,29.413A73.914,73.914,0,0,0,28.8,157.886Z" transform="translate(0 -32.986)" fill="#00d4d4" opacity="0.69"/>
              </g>
            </g>
          </g>
          <g id="Group_19810" data-name="Group 19810" transform="translate(172.662 5.642)" opacity="0.23">
            <g id="Group_19809" data-name="Group 19809">
              <g id="Group_19808" data-name="Group 19808" clip-path="url(#clip-path-3)">
                <path id="Path_47768" data-name="Path 47768" d="M480.583,28.668c1.092,7.022,7.394,12.155,13.987,14.807s13.783,3.519,20.442,6c4.62,1.722,9.165,4.529,12.059,8.4a6.065,6.065,0,0,0,9.637.222,18.069,18.069,0,0,0,3.9-12.123c-.569-8.468-5.368-16.355-12.065-21.568s-15.134-7.9-23.6-8.556a32.155,32.155,0,0,0-14.57,1.766c-4.575,1.855-10.555,6.177-9.8,11.055" transform="translate(-480.517 -15.701)" fill="#d6f8f8"/>
              </g>
            </g>
          </g>
        </g>
      </g>
      <g id="Group_19966" data-name="Group 19966" transform="translate(-412.575 4010.073)">
        <g id="Group_19943" data-name="Group 19943" transform="translate(0)">
          <g id="Group_19942" data-name="Group 19942" clip-path="url(#clip-path-4)">
            <path id="Path_48395" data-name="Path 48395" d="M298.007,81.76,291.2,83.312a18.8,18.8,0,0,1-7.356,7.2A18.422,18.422,0,0,1,258.621,82.5a19.441,19.441,0,0,1,7.8-25.911A18.423,18.423,0,0,1,291.639,64.6a19.546,19.546,0,0,1,1.874,12.254l0-.01Z" transform="translate(-162.363 -34.421)" fill="#fff"/>
            <path id="Path_48396" data-name="Path 48396" d="M297.864,81.625l-4.457-4.946a.043.043,0,0,0-.062,0,.044.044,0,0,0-.01.015l0,.01.084.027a19.91,19.91,0,0,0,.267-4.336,19.573,19.573,0,0,0-2.141-8l-.787-1.366a5.315,5.315,0,0,0-.442-.674l-.477-.664a18.881,18.881,0,0,0-5.058-4.686,18.527,18.527,0,0,0-7.033-2.632,18.257,18.257,0,0,0-8.05.548,19.012,19.012,0,0,0-7.434,4.351,16.731,16.731,0,0,0-1.546,1.64,8.654,8.654,0,0,0-.7.9c-.221.311-.45.618-.667.934a20.116,20.116,0,0,0-2.019,4.19,18,18,0,0,0-.639,2.229,9.685,9.685,0,0,0-.207,1.134c-.054.38-.126.757-.165,1.137a20.114,20.114,0,0,0,.083,4.529,19.807,19.807,0,0,0,2.97,8.139,19.019,19.019,0,0,0,5.759,5.684,18.533,18.533,0,0,0,6.961,2.636,18.311,18.311,0,0,0,6.762-.184c.52-.137,1.042-.237,1.538-.4l1.452-.52c.469-.189.91-.426,1.355-.632a11.648,11.648,0,0,0,1.272-.683,18.777,18.777,0,0,0,4.061-3.314,19.191,19.191,0,0,0,2.56-3.5l-.029.022,6.8-1.6-6.819,1.507a.047.047,0,0,0-.03.022A18.87,18.87,0,0,1,284.4,89.89a11.684,11.684,0,0,1-1.265.674c-.442.2-.88.436-1.346.622l-1.442.512c-.492.159-1.011.256-1.526.391a18.192,18.192,0,0,1-6.7.166,18.392,18.392,0,0,1-6.891-2.623A18.856,18.856,0,0,1,259.535,84a19.627,19.627,0,0,1-2.933-8.056,19.924,19.924,0,0,1-.08-4.481c.04-.376.11-.749.164-1.125a9.494,9.494,0,0,1,.205-1.122,17.77,17.77,0,0,1,.632-2.205,19.934,19.934,0,0,1,2-4.146c.214-.313.44-.616.659-.924a8.522,8.522,0,0,1,.688-.893,16.49,16.49,0,0,1,1.529-1.624,18.833,18.833,0,0,1,7.353-4.311,18.093,18.093,0,0,1,7.968-.552,18.375,18.375,0,0,1,6.971,2.6,18.747,18.747,0,0,1,5.024,4.633l.475.658a5.269,5.269,0,0,1,.44.667l.785,1.353a19.5,19.5,0,0,1,2.156,7.932,19.98,19.98,0,0,1-.241,4.314.044.044,0,0,0,.084.027l0-.01-.073.012,4.521,4.884" transform="translate(-162.22 -34.286)" fill="#263238"/>
            <path id="Path_48397" data-name="Path 48397" d="M296.737,93.864a7.618,7.618,0,0,0,1.9-2.3,10.965,10.965,0,0,1,3.069.564l.287-.857a13.131,13.131,0,0,1-2.612-1.66,7.879,7.879,0,0,0,.183-2.367,4.924,4.924,0,0,1,1.915-.8l-.175-.889a7.224,7.224,0,0,1-2.028.078A7.874,7.874,0,0,0,298.6,84a11.231,11.231,0,0,1,2.028-2.462l-.577-.686a12.868,12.868,0,0,1-2.706,1.467,7.471,7.471,0,0,0-1.788-1.341,5.7,5.7,0,0,1,.306-2.119l-.836-.292a7.523,7.523,0,0,1-.932,1.813,7.29,7.29,0,0,0-1.925-.289,12.17,12.17,0,0,1-1.07-3.027l-.876.179a13.189,13.189,0,0,1-.084,3.1,7.465,7.465,0,0,0-2.264,1.056,5.344,5.344,0,0,1-1.5-1.237l-.667.611a7.537,7.537,0,0,1,1.018,1.595,7.658,7.658,0,0,0-1.213,1.647,13.357,13.357,0,0,1-2.884-.589l-.29.868a11.734,11.734,0,0,1,2.448,1.542,7.875,7.875,0,0,0-.23,2.542,5.254,5.254,0,0,1-1.78.7l.178.9a7.121,7.121,0,0,1,1.856-.1,7.827,7.827,0,0,0,1.476,2.893,13.2,13.2,0,0,1-1.376,2.784l.731.527a11.63,11.63,0,0,1,2.077-1.954,7.036,7.036,0,0,0,2.761,1.243,5.74,5.74,0,0,1-.055,1.919l.878.171a7.7,7.7,0,0,1,.665-1.917,7.336,7.336,0,0,0,3.077-.637,13.887,13.887,0,0,1,1.813,2.393l.773-.46a13.156,13.156,0,0,1-.9-2.972M294.32,80.452l-.028-.009.028.009" transform="translate(-178.75 -48.79)" fill="#ff725e"/>
            <g id="Group_19860" data-name="Group 19860" transform="translate(114.019 32.486)" opacity="0.1">
              <g id="Group_19859" data-name="Group 19859">
                <g id="Group_19858" data-name="Group 19858" clip-path="url(#clip-path-5)">
                  <path id="Path_48398" data-name="Path 48398" d="M313.731,99.515c-.26-.3.07-1.006.326-2.034.038-.125.059-.265.094-.4s.053-.284.082-.43a8.7,8.7,0,0,0,.1-.936,6.563,6.563,0,0,0-.214-2.03,6.473,6.473,0,0,0-.873-1.835,8.514,8.514,0,0,0-.569-.738c-.1-.107-.2-.219-.293-.318s-.19-.2-.288-.288c-.751-.729-1.4-1.147-1.333-1.542a.37.37,0,0,1,.187-.244,1.155,1.155,0,0,1,.461-.153,3.441,3.441,0,0,1,1.63.226,4.825,4.825,0,0,1,.51.218c.174.084.347.188.528.3a6.21,6.21,0,0,1,1.048.855,6.312,6.312,0,0,1,.931,1.209,6.65,6.65,0,0,1,.665,1.54,6.744,6.744,0,0,1,.237,1.667,6.524,6.524,0,0,1-.16,1.533,6.445,6.445,0,0,1-.442,1.3c-.1.191-.188.373-.292.54a5.018,5.018,0,0,1-.318.463,3.55,3.55,0,0,1-1.261,1.085,1.157,1.157,0,0,1-.469.123.356.356,0,0,1-.285-.1" transform="translate(-310.757 -88.541)" fill="#fff"/>
                </g>
              </g>
            </g>
            <path id="Path_48399" data-name="Path 48399" d="M304.168,75.856c.034.163-.334.381-.821.487a2.373,2.373,0,0,1-.46.057c-.269.006-.462-.051-.484-.159-.034-.163.334-.381.822-.487s.91-.061.943.1" transform="translate(-191.448 -47.923)" fill="#ff725e"/>
            <g id="Group_19863" data-name="Group 19863" transform="translate(111.478 28.276)" opacity="0.3">
              <g id="Group_19862" data-name="Group 19862">
                <g id="Group_19861" data-name="Group 19861" clip-path="url(#clip-path-6)">
                  <path id="Path_48400" data-name="Path 48400" d="M303.832,77.266a2.805,2.805,0,0,0,.872-.2c.039.165.085.353.135.542a2.873,2.873,0,0,1-.978-.143Z" transform="translate(-303.832 -77.065)"/>
                </g>
              </g>
            </g>
            <path id="Path_48401" data-name="Path 48401" d="M291.4,84.115c.109.123-.1.5-.468.848a2.488,2.488,0,0,1-.368.288c-.23.145-.423.2-.5.115-.109-.123.1-.5.468-.848s.754-.526.864-.4" transform="translate(-183.624 -53.228)" fill="#ff725e"/>
            <g id="Group_19866" data-name="Group 19866" transform="translate(106.977 31.375)" opacity="0.3">
              <g id="Group_19865" data-name="Group 19865">
                <g id="Group_19864" data-name="Group 19864" clip-path="url(#clip-path-7)">
                  <path id="Path_48402" data-name="Path 48402" d="M291.563,86.139a2,2,0,0,0,.653-.627c.109.13.235.263.371.4a2.816,2.816,0,0,1-.9.379Z" transform="translate(-291.563 -85.512)"/>
                </g>
              </g>
            </g>
            <path id="Path_48403" data-name="Path 48403" d="M281.685,93.031c.154.052.152.488,0,.975a2.548,2.548,0,0,1-.183.437c-.131.241-.275.384-.377.35-.154-.052-.152-.488,0-.975s.406-.838.56-.787" transform="translate(-177.904 -58.894)" fill="#ff725e"/>
            <g id="Group_19869" data-name="Group 19869" transform="translate(103.614 34.638)" opacity="0.3">
              <g id="Group_19868" data-name="Group 19868">
                <g id="Group_19867" data-name="Group 19867" clip-path="url(#clip-path-8)">
                  <path id="Path_48404" data-name="Path 48404" d="M282.4,95.28a3.011,3.011,0,0,0,.27-.875c.159.048.34.1.524.153a3.017,3.017,0,0,1-.612.8Z" transform="translate(-282.398 -94.405)"/>
                </g>
              </g>
            </g>
            <path id="Path_48405" data-name="Path 48405" d="M282.358,108.764c.158-.035.372.342.477.842a2.565,2.565,0,0,1,.058.472c.006.276-.048.474-.153.5-.158.035-.372-.342-.477-.842s-.063-.935.1-.97" transform="translate(-178.662 -68.856)" fill="#ff725e"/>
            <g id="Group_19872" data-name="Group 19872" transform="translate(104.031 40.158)" opacity="0.3">
              <g id="Group_19871" data-name="Group 19871">
                <g id="Group_19870" data-name="Group 19870" clip-path="url(#clip-path-9)">
                  <path id="Path_48406" data-name="Path 48406" d="M283.735,110.474a2.087,2.087,0,0,0-.2-.9c.164-.032.34-.076.524-.128a3.006,3.006,0,0,1-.134.989Z" transform="translate(-283.536 -109.451)"/>
                </g>
              </g>
            </g>
            <path id="Path_48407" data-name="Path 48407" d="M287.967,127.248c.091-.137.5-.015.91.273a2.464,2.464,0,0,1,.358.3c.189.2.283.378.223.469-.091.137-.5.015-.911-.273s-.671-.634-.58-.771" transform="translate(-182.298 -80.524)" fill="#ff725e"/>
            <g id="Group_19875" data-name="Group 19875" transform="translate(106.166 46.286)" opacity="0.3">
              <g id="Group_19874" data-name="Group 19874">
                <g id="Group_19873" data-name="Group 19873" clip-path="url(#clip-path-10)">
                  <path id="Path_48408" data-name="Path 48408" d="M290.1,127.137a2.88,2.88,0,0,0-.744-.509c.089-.143.19-.307.288-.475a3.028,3.028,0,0,1,.576.825Z" transform="translate(-289.353 -126.153)"/>
                </g>
              </g>
            </g>
            <path id="Path_48409" data-name="Path 48409" d="M303.1,132.35c.028-.164.448-.225.939-.136a2.44,2.44,0,0,1,.447.123c.251.1.409.225.391.334-.028.164-.448.225-.939.136s-.866-.293-.838-.457" transform="translate(-191.892 -83.678)" fill="#ff725e"/>
            <g id="Group_19878" data-name="Group 19878" transform="translate(111.68 47.949)" opacity="0.3">
              <g id="Group_19877" data-name="Group 19877">
                <g id="Group_19876" data-name="Group 19876" clip-path="url(#clip-path-11)">
                  <path id="Path_48410" data-name="Path 48410" d="M305.263,131.381a1.938,1.938,0,0,0-.882-.149c.033-.168.06-.352.082-.547a2.833,2.833,0,0,1,.841.5Z" transform="translate(-304.381 -130.685)"/>
                </g>
              </g>
            </g>
            <path id="Path_48411" data-name="Path 48411" d="M321.231,131.669c-.083-.143.2-.471.624-.734a2.438,2.438,0,0,1,.417-.207c.253-.094.453-.105.508-.011.083.142-.2.471-.624.734s-.842.36-.925.218" transform="translate(-203.36 -82.715)" fill="#ff725e"/>
            <g id="Group_19881" data-name="Group 19881" transform="translate(117.815 47.841)" opacity="0.3">
              <g id="Group_19880" data-name="Group 19880">
                <g id="Group_19879" data-name="Group 19879" clip-path="url(#clip-path-12)">
                  <path id="Path_48412" data-name="Path 48412" d="M322.162,130.577a2.862,2.862,0,0,0-.762.48c-.089-.143-.192-.306-.3-.468a2.887,2.887,0,0,1,.97-.191Z" transform="translate(-321.102 -130.391)"/>
                </g>
              </g>
            </g>
            <g id="Group_19884" data-name="Group 19884" transform="translate(108.487 37.645)" opacity="0.3">
              <g id="Group_19883" data-name="Group 19883">
                <g id="Group_19882" data-name="Group 19882" clip-path="url(#clip-path-13)">
                  <path id="Path_48413" data-name="Path 48413" d="M297.1,103.9c-.2.563-.658.908-1.027.771s-.506-.7-.308-1.267.658-.908,1.027-.771.506.7.308,1.267" transform="translate(-295.68 -102.6)"/>
                </g>
              </g>
            </g>
            <path id="Path_48414" data-name="Path 48414" d="M296.977,102.071c-.2.563-.658.908-1.027.771s-.506-.7-.308-1.267.658-.908,1.027-.771.507.7.308,1.267" transform="translate(-187.111 -63.799)" fill="#ff725e"/>
            <g id="Group_19887" data-name="Group 19887" transform="translate(110.756 32.97)" opacity="0.3">
              <g id="Group_19886" data-name="Group 19886">
                <g id="Group_19885" data-name="Group 19885" clip-path="url(#clip-path-14)">
                  <path id="Path_48415" data-name="Path 48415" d="M302.814,89.876c.577-.083,1.089.172,1.144.571s-.369.79-.946.873-1.089-.172-1.143-.571.368-.79.946-.873" transform="translate(-301.864 -89.86)"/>
                </g>
              </g>
            </g>
            <path id="Path_48416" data-name="Path 48416" d="M302.528,88.121c.577-.084,1.089.172,1.144.571s-.369.79-.945.873-1.089-.172-1.144-.571.369-.79.946-.873" transform="translate(-190.927 -55.778)" fill="#ff725e"/>
            <g id="Group_19890" data-name="Group 19890" transform="translate(109.448 41.778)" opacity="0.3">
              <g id="Group_19889" data-name="Group 19889">
                <g id="Group_19888" data-name="Group 19888" clip-path="url(#clip-path-15)">
                  <path id="Path_48417" data-name="Path 48417" d="M299.648,114.822a.689.689,0,0,1-.889.428.719.719,0,0,1-.416-.914.689.689,0,0,1,.889-.428.718.718,0,0,1,.416.914" transform="translate(-298.3 -113.865)"/>
                </g>
              </g>
            </g>
            <path id="Path_48418" data-name="Path 48418" d="M299.993,113.843a.689.689,0,0,1-.889.428.718.718,0,0,1-.416-.914.689.689,0,0,1,.889-.428.719.719,0,0,1,.416.914" transform="translate(-189.07 -71.467)" fill="#ff725e"/>
            <g id="Group_19893" data-name="Group 19893" transform="translate(115.985 36.728)" opacity="0.3">
              <g id="Group_19892" data-name="Group 19892">
                <g id="Group_19891" data-name="Group 19891" clip-path="url(#clip-path-16)">
                  <path id="Path_48419" data-name="Path 48419" d="M317.362,101.758a.843.843,0,0,1-1.151-.374.889.889,0,0,1,.364-1.183.843.843,0,0,1,1.151.374.889.889,0,0,1-.364,1.183" transform="translate(-316.115 -100.102)"/>
                </g>
              </g>
            </g>
            <path id="Path_48420" data-name="Path 48420" d="M318.468,101.168a.843.843,0,0,1-1.151-.374.889.889,0,0,1,.364-1.183.843.843,0,0,1,1.152.374.889.889,0,0,1-.364,1.183" transform="translate(-200.83 -63)" fill="#ff725e"/>
            <g id="Group_19896" data-name="Group 19896" transform="translate(112.9 43.931)" opacity="0.3">
              <g id="Group_19895" data-name="Group 19895">
                <g id="Group_19894" data-name="Group 19894" clip-path="url(#clip-path-17)">
                  <path id="Path_48421" data-name="Path 48421" d="M308.694,120.436a.506.506,0,0,1-.652.314.527.527,0,0,1-.306-.67.506.506,0,0,1,.652-.314.527.527,0,0,1,.306.67" transform="translate(-307.706 -119.734)"/>
                </g>
              </g>
            </g>
            <path id="Path_48422" data-name="Path 48422" d="M308.947,119.718a.505.505,0,0,1-.652.314.527.527,0,0,1-.306-.67.506.506,0,0,1,.652-.314.527.527,0,0,1,.305.67" transform="translate(-194.966 -75.348)" fill="#ff725e"/>
            <path id="Path_48423" data-name="Path 48423" d="M335.19,116.454c-.152-.051-.15-.482,0-.963a2.554,2.554,0,0,1,.181-.431c.13-.238.272-.379.372-.345.152.051.15.482,0,.963s-.4.828-.553.776" transform="translate(-212.135 -72.622)" fill="#ff725e"/>
            <g id="Group_19899" data-name="Group 19899" transform="translate(122.436 42.399)" opacity="0.3">
              <g id="Group_19898" data-name="Group 19898">
                <g id="Group_19897" data-name="Group 19897" clip-path="url(#clip-path-18)">
                  <path id="Path_48424" data-name="Path 48424" d="M334.483,115.632a2.971,2.971,0,0,0-.267.865c-.156-.048-.335-.1-.517-.152a2.983,2.983,0,0,1,.6-.787Z" transform="translate(-333.699 -115.559)"/>
                </g>
              </g>
            </g>
            <path id="Path_48425" data-name="Path 48425" d="M334.48,100.561c-.156.035-.367-.338-.471-.832a2.561,2.561,0,0,1-.056-.466c-.006-.273.048-.469.151-.491.156-.035.367.338.471.832s.062.923-.094.958" transform="translate(-211.422 -62.53)" fill="#ff725e"/>
            <g id="Group_19902" data-name="Group 19902" transform="translate(122.209 36.772)" opacity="0.3">
              <g id="Group_19901" data-name="Group 19901">
                <g id="Group_19900" data-name="Group 19900" clip-path="url(#clip-path-19)">
                  <path id="Path_48426" data-name="Path 48426" d="M333.4,100.222a2.055,2.055,0,0,0,.2.884c-.162.032-.336.075-.517.127a2.974,2.974,0,0,1,.132-.977Z" transform="translate(-333.079 -100.222)"/>
                </g>
              </g>
            </g>
            <path id="Path_48427" data-name="Path 48427" d="M331.343,87.28c-.12.109-.481-.109-.808-.487a2.479,2.479,0,0,1-.272-.378c-.135-.235-.182-.433-.1-.5.12-.109.481.109.808.487s.495.774.375.882" transform="translate(-208.997 -54.371)" fill="#ff725e"/>
            <g id="Group_19905" data-name="Group 19905" transform="translate(121.133 32.077)" opacity="0.3">
              <g id="Group_19904" data-name="Group 19904">
                <g id="Group_19903" data-name="Group 19903" clip-path="url(#clip-path-20)">
                  <path id="Path_48428" data-name="Path 48428" d="M330.3,87.426a2.887,2.887,0,0,0,.593.672c-.119.115-.254.247-.387.384a3.042,3.042,0,0,1-.358-.933Z" transform="translate(-330.146 -87.426)"/>
                </g>
              </g>
            </g>
            <path id="Path_48429" data-name="Path 48429" d="M317.566,80.488c-.05.156-.469.156-.937,0a2.437,2.437,0,0,1-.421-.184c-.233-.132-.37-.278-.337-.382.049-.156.469-.156.937,0s.808.409.759.566" transform="translate(-199.972 -50.524)" fill="#ff725e"/>
            <g id="Group_19908" data-name="Group 19908" transform="translate(116.203 29.799)" opacity="0.3">
              <g id="Group_19907" data-name="Group 19907">
                <g id="Group_19906" data-name="Group 19906" clip-path="url(#clip-path-21)">
                  <path id="Path_48430" data-name="Path 48430" d="M316.776,81.216a1.924,1.924,0,0,0,.842.271c-.055.159-.106.336-.154.523a2.825,2.825,0,0,1-.755-.609Z" transform="translate(-316.71 -81.216)"/>
                </g>
              </g>
            </g>
            <g id="Group_19911" data-name="Group 19911" transform="translate(114.856 42.099)" opacity="0.3">
              <g id="Group_19910" data-name="Group 19910">
                <g id="Group_19909" data-name="Group 19909" clip-path="url(#clip-path-22)">
                  <path id="Path_48431" data-name="Path 48431" d="M314.431,116.188c-.431.4-.995.486-1.258.188s-.127-.866.3-1.268,1-.486,1.259-.187.127.866-.3,1.268" transform="translate(-313.038 -114.741)"/>
                </g>
              </g>
            </g>
            <path id="Path_48432" data-name="Path 48432" d="M315.474,115.726c-.432.4-1,.486-1.258.188s-.127-.866.3-1.268,1-.486,1.258-.188.127.866-.3,1.268" transform="translate(-198.843 -72.349)" fill="#ff725e"/>
            <g id="Group_19914" data-name="Group 19914" transform="translate(112.333 37.725)" opacity="0.3">
              <g id="Group_19913" data-name="Group 19913">
                <g id="Group_19912" data-name="Group 19912" clip-path="url(#clip-path-23)">
                  <path id="Path_48433" data-name="Path 48433" d="M308.21,104.272a1.048,1.048,0,0,1-1.351.65,1.092,1.092,0,0,1-.633-1.388,1.048,1.048,0,0,1,1.351-.65,1.092,1.092,0,0,1,.633,1.388" transform="translate(-306.163 -102.819)"/>
                </g>
              </g>
            </g>
            <path id="Path_48434" data-name="Path 48434" d="M308.779,102.658a1.048,1.048,0,0,1-1.351.65,1.092,1.092,0,0,1-.633-1.388,1.047,1.047,0,0,1,1.351-.65,1.092,1.092,0,0,1,.633,1.388" transform="translate(-194.189 -64.072)" fill="#ff725e"/>
            <g id="Group_19917" data-name="Group 19917" transform="translate(106.154 39.097)" opacity="0.2">
              <g id="Group_19916" data-name="Group 19916">
                <g id="Group_19915" data-name="Group 19915" clip-path="url(#clip-path-24)">
                  <path id="Path_48435" data-name="Path 48435" d="M298.154,113.172c.017.092-.134.217-.44.338a4.284,4.284,0,0,1-1.352.253,6.286,6.286,0,0,1-.958-.036,6.878,6.878,0,0,1-1.085-.221,7.032,7.032,0,0,1-2.287-1.154,7.229,7.229,0,0,1-1.73-1.923,7.337,7.337,0,0,1-.516-1.005,6.736,6.736,0,0,1-.306-.933,4.625,4.625,0,0,1-.15-1.4c.026-.335.1-.52.19-.53.2-.022.392.649.859,1.591.115.236.254.486.408.748s.334.53.54.8a8.187,8.187,0,0,0,1.515,1.54,8.01,8.01,0,0,0,1.868,1.052,9.385,9.385,0,0,0,.9.3c.288.076.561.142.814.188,1.012.191,1.693.189,1.73.391" transform="translate(-289.322 -106.559)"/>
                </g>
              </g>
            </g>
            <g id="Group_19920" data-name="Group 19920" transform="translate(106.299 36.461)" opacity="0.2">
              <g id="Group_19919" data-name="Group 19919">
                <g id="Group_19918" data-name="Group 19918" clip-path="url(#clip-path-25)">
                  <path id="Path_48436" data-name="Path 48436" d="M290.58,99.407a.683.683,0,0,1,.457.838.658.658,0,0,1-.838.425.682.682,0,0,1-.457-.838.658.658,0,0,1,.838-.425" transform="translate(-289.715 -99.374)"/>
                </g>
              </g>
            </g>
            <g id="Group_19923" data-name="Group 19923" transform="translate(108.44 36.975)" opacity="0.2">
              <g id="Group_19922" data-name="Group 19922">
                <g id="Group_19921" data-name="Group 19921" clip-path="url(#clip-path-13)">
                  <path id="Path_48437" data-name="Path 48437" d="M296.977,102.071c-.2.563-.658.908-1.027.771s-.506-.7-.308-1.267.658-.908,1.027-.771.507.7.308,1.267" transform="translate(-295.551 -100.774)" fill="#fff"/>
                </g>
              </g>
            </g>
            <g id="Group_19926" data-name="Group 19926" transform="translate(110.651 32.326)" opacity="0.2">
              <g id="Group_19925" data-name="Group 19925">
                <g id="Group_19924" data-name="Group 19924" clip-path="url(#clip-path-27)">
                  <path id="Path_48438" data-name="Path 48438" d="M302.528,88.121c.577-.084,1.089.172,1.144.571s-.369.79-.945.873-1.089-.172-1.144-.571.369-.79.946-.873" transform="translate(-301.578 -88.105)" fill="#fff"/>
                </g>
              </g>
            </g>
            <g id="Group_19929" data-name="Group 19929" transform="translate(109.575 41.419)" opacity="0.2">
              <g id="Group_19928" data-name="Group 19928">
                <g id="Group_19927" data-name="Group 19927" clip-path="url(#clip-path-15)">
                  <path id="Path_48439" data-name="Path 48439" d="M299.993,113.843a.689.689,0,0,1-.889.428.718.718,0,0,1-.416-.914.689.689,0,0,1,.889-.428.719.719,0,0,1,.416.914" transform="translate(-298.645 -112.886)" fill="#fff"/>
                </g>
              </g>
            </g>
            <g id="Group_19932" data-name="Group 19932" transform="translate(116.391 36.512)" opacity="0.2">
              <g id="Group_19931" data-name="Group 19931">
                <g id="Group_19930" data-name="Group 19930" clip-path="url(#clip-path-16)">
                  <path id="Path_48440" data-name="Path 48440" d="M318.468,101.168a.843.843,0,0,1-1.151-.374.889.889,0,0,1,.364-1.183.843.843,0,0,1,1.152.374.889.889,0,0,1-.364,1.183" transform="translate(-317.221 -99.512)" fill="#fff"/>
                </g>
              </g>
            </g>
            <g id="Group_19935" data-name="Group 19935" transform="translate(112.992 43.668)" opacity="0.2">
              <g id="Group_19934" data-name="Group 19934">
                <g id="Group_19933" data-name="Group 19933" clip-path="url(#clip-path-17)">
                  <path id="Path_48441" data-name="Path 48441" d="M308.947,119.718a.505.505,0,0,1-.652.314.527.527,0,0,1-.306-.67.506.506,0,0,1,.652-.314.527.527,0,0,1,.305.67" transform="translate(-307.959 -119.016)" fill="#fff"/>
                </g>
              </g>
            </g>
            <g id="Group_19938" data-name="Group 19938" transform="translate(115.239 41.93)" opacity="0.2">
              <g id="Group_19937" data-name="Group 19937">
                <g id="Group_19936" data-name="Group 19936" clip-path="url(#clip-path-22)">
                  <path id="Path_48442" data-name="Path 48442" d="M315.474,115.726c-.432.4-1,.486-1.258.188s-.127-.866.3-1.268,1-.486,1.258-.188.127.866-.3,1.268" transform="translate(-314.081 -114.279)" fill="#fff"/>
                </g>
              </g>
            </g>
            <g id="Group_19941" data-name="Group 19941" transform="translate(112.542 37.133)" opacity="0.2">
              <g id="Group_19940" data-name="Group 19940">
                <g id="Group_19939" data-name="Group 19939" clip-path="url(#clip-path-23)">
                  <path id="Path_48443" data-name="Path 48443" d="M308.779,102.658a1.048,1.048,0,0,1-1.351.65,1.092,1.092,0,0,1-.633-1.388,1.047,1.047,0,0,1,1.351-.65,1.092,1.092,0,0,1,.633,1.388" transform="translate(-306.732 -101.205)" fill="#fff"/>
                </g>
              </g>
            </g>
            <path id="Path_48444" data-name="Path 48444" d="M297.973,95.281,268.9,71.03l.433-.556,29.074,24.251Z" transform="translate(-170.238 -44.617)" fill="#263238"/>
          </g>
        </g>
        <path id="Path_48445" data-name="Path 48445" d="M179.283,270.891l7.858,20.23,23.633-4.958,1.251,10.01s-33.241,12.375-35.624,10.209-8.41-32.618-8.41-32.618Z" transform="translate(-106.354 -171.499)" fill="#ffbe9d"/>
        <path id="Path_48446" data-name="Path 48446" d="M263.85,293.655l6.647-1.133,5.724-4.618,7.31-4.816,8-1.548a2.482,2.482,0,0,1-1.806,2.666c-2.15.86-4.214,1.806-4.214,1.806l6.04-1.376s.536,1.29,0,1.978-3.632,2.064-3.632,2.064l-2.924,1.892,3.784-1.419s.86.473.774,1.075-2.236,2.494-2.236,2.494l-2.064,1.376-2.15,3.612s-4.331,3.992-5.191,3.905l-10.758,4.158Z" transform="translate(-167.041 -178.24)" fill="#455a64"/>
        <path id="Path_48447" data-name="Path 48447" d="M293.5,232.341a41.815,41.815,0,0,0-6.918,11.275c-2.663,6.6-15.634,31.839-15.634,31.839s-13.8,19.011-14.568,30.745l14.724-.1s12.958-20.907,15.922-25.3,10.716-17.813,10.716-17.813l2.272-16.67Z" transform="translate(-162.31 -147.093)" fill="#ffbe9d"/>
        <path id="Path_48448" data-name="Path 48448" d="M535.577,226.675l28.406,41.348-17.791,9.1-12.23-16.62Z" transform="translate(-338.048 -143.506)" fill="#ffbe9d"/>
        <path id="Path_48449" data-name="Path 48449" d="M370.723,205.006s-2.146-1.471,13.552-3.741l2.641-1.2,23.343-4.31,1.559,2.34,20.564,7.8L428.3,269.947l3.57,12.991H369.383l1-21.751L369.2,239.859Z" transform="translate(-233.739 -123.933)" fill="#00c1c1"/>
        <path id="Path_48450" data-name="Path 48450" d="M532.115,266.062l20.411-16.339s-18.7-26.967-21.437-27.059l-1.838.868-3.034,35.743Z" transform="translate(-333.144 -140.967)" fill="#00c1c1"/>
        <path id="Path_48451" data-name="Path 48451" d="M444.958,203.207a.3.3,0,0,1-.023.087l-.087.249a9.6,9.6,0,0,1-.373.941,14.571,14.571,0,0,1-1.924,3.187,16.88,16.88,0,0,1-1.756,1.886c-.331.325-.713.617-1.093.933-.4.289-.8.6-1.248.874a16.682,16.682,0,0,1-6.289,2.433,13.243,13.243,0,0,1-6.706-.541,9.548,9.548,0,0,1-4.407-3.261,8.139,8.139,0,0,1-1.511-3.388,5.61,5.61,0,0,1-.1-1.361.321.321,0,0,1,.014.09c.006.07.012.156.021.262a3.626,3.626,0,0,0,.044.424,5.664,5.664,0,0,0,.1.572,8.279,8.279,0,0,0,1.546,3.322,9.488,9.488,0,0,0,4.36,3.177,13.164,13.164,0,0,0,6.615.517,16.675,16.675,0,0,0,6.225-2.393c.444-.265.842-.575,1.241-.858.377-.311.758-.6,1.088-.917a17.143,17.143,0,0,0,1.758-1.853,15.29,15.29,0,0,0,1.962-3.133c.2-.389.309-.714.4-.924l.1-.241a.328.328,0,0,1,.042-.08" transform="translate(-265.537 -128.649)" fill="#263238"/>
        <path id="Path_48452" data-name="Path 48452" d="M532.794,250.985a.747.747,0,0,1,.014.139c.006.1.013.237.022.409.016.36.033.89.046,1.574.026,1.367.029,3.347-.01,5.792-.076,4.89-.323,11.642-.7,19.093s-.806,14.2-1.16,19.073c-.177,2.438-.336,4.411-.463,5.773-.064.681-.12,1.209-.167,1.566-.024.179-.044.314-.063.405a.563.563,0,0,1-.029.1c0,.012-.021.022-.022.009a.032.032,0,0,1,0-.009s.007.025.014,0a.749.749,0,0,0,.018-.1c.011-.1.026-.235.045-.406.031-.369.075-.9.131-1.568.1-1.363.243-3.336.4-5.775.318-4.879.725-11.621,1.1-19.074s.646-14.2.757-19.086c.057-2.444.074-4.422.071-5.788,0-.675-.008-1.2-.01-1.574,0-.172,0-.308,0-.409a.743.743,0,0,1,.005-.14" transform="translate(-335.703 -158.897)" fill="#263238"/>
        <path id="Path_48453" data-name="Path 48453" d="M557.208,289.157c.033.041-4.563,3.787-10.263,8.365s-10.351,8.258-10.385,8.217,4.562-3.786,10.265-8.366,10.35-8.257,10.383-8.216" transform="translate(-339.692 -183.063)" fill="#263238"/>
        <path id="Path_48454" data-name="Path 48454" d="M445.587,339.29s-.018.026-.061.071l-.192.194-.751.733c-.325.318-.728.7-1.209,1.138s-1.016.941-1.635,1.471-1.286,1.123-2.029,1.729-1.54,1.248-2.385,1.916c-1.707,1.315-3.622,2.712-5.69,4.1s-4.1,2.6-5.974,3.671c-.943.522-1.835,1.025-2.688,1.461-.846.452-1.646.847-2.378,1.205s-1.4.668-1.987.941-1.1.5-1.516.676l-.966.409-.253.1a.317.317,0,0,1-.089.029.366.366,0,0,1,.081-.047l.245-.119.951-.442c.415-.188.921-.42,1.5-.705s1.25-.591,1.973-.966,1.523-.767,2.364-1.224c.849-.441,1.737-.949,2.675-1.474,1.864-1.074,3.886-2.3,5.956-3.677s3.978-2.77,5.689-4.075c.847-.663,1.657-1.286,2.392-1.9s1.424-1.178,2.041-1.708,1.167-1.02,1.652-1.447.9-.8,1.23-1.113l.775-.707.2-.18a.334.334,0,0,1,.074-.057" transform="translate(-263.23 -214.801)" fill="#263238"/>
        <g id="Group_19946" data-name="Group 19946" transform="translate(155.645 134.409)" opacity="0.3">
          <g id="Group_19945" data-name="Group 19945" transform="translate(0 0)">
            <g id="Group_19944" data-name="Group 19944" clip-path="url(#clip-path-33)">
              <path id="Path_48455" data-name="Path 48455" d="M424.46,379.16l20.715-12.83a18.027,18.027,0,0,1-20.966,12.728" transform="translate(-424.209 -366.33)"/>
            </g>
          </g>
        </g>
        <path id="Path_48456" data-name="Path 48456" d="M364.03,216.354s-3.022-3.629-4.476,1.153c0,0-2.168-.65-2.48,2.464,0,0-2.776,1.23-3,2.962,0,0,1.282-1.688,1.861-.168.542,1.424,4.1,30.128,4.1,30.128l5.617-16.421,1-18.164Z" transform="translate(-224.163 -136.137)" fill="#00c1c1"/>
        <path id="Path_48457" data-name="Path 48457" d="M363.9,231.96a1.606,1.606,0,0,1,.07.28l.164.808c.141.7.324,1.723.532,2.987.418,2.528.9,6.038,1.232,9.934s.453,7.439.47,10c.009,1.281,0,2.318-.018,3.034q-.015.516-.025.824a1.6,1.6,0,0,1-.022.287,1.649,1.649,0,0,1-.017-.288c0-.207-.007-.481-.011-.824,0-.716-.016-1.752-.043-3.031-.052-2.559-.194-6.094-.525-9.986s-.793-7.4-1.176-9.929c-.191-1.265-.354-2.288-.472-2.995q-.081-.509-.129-.815a1.608,1.608,0,0,1-.032-.287" transform="translate(-230.382 -146.852)" fill="#263238"/>
        <path id="Path_48458" data-name="Path 48458" d="M372,242.521a.74.74,0,0,1,0-.194c.008-.148.019-.331.032-.553.035-.479.077-1.173.119-2.031a52.133,52.133,0,0,0-.091-6.7,43.268,43.268,0,0,0-1.086-6.608c-.206-.833-.386-1.5-.521-1.965l-.146-.533a.75.75,0,0,1-.039-.19.758.758,0,0,1,.076.179l.181.524c.157.455.357,1.122.581,1.953a38.684,38.684,0,0,1,1.145,6.625,45.633,45.633,0,0,1,.035,6.723c-.06.859-.122,1.552-.18,2.03-.027.221-.05.4-.068.55a.732.732,0,0,1-.037.19" transform="translate(-234.413 -141.653)" fill="#263238"/>
        <path id="Path_48459" data-name="Path 48459" d="M377.245,246.873a1.3,1.3,0,0,1,.037-.252c.036-.182.083-.419.142-.714.131-.618.3-1.515.5-2.626a78.7,78.7,0,0,0,1.139-17.565c-.052-1.128-.109-2.04-.159-2.669-.02-.3-.036-.54-.049-.726a.128.128,0,1,1,.038,0l.084.723c.073.628.15,1.54.221,2.669a70.865,70.865,0,0,1-1.141,17.6c-.215,1.11-.41,2-.563,2.618l-.177.706a1.249,1.249,0,0,1-.074.243" transform="translate(-238.83 -140.588)" fill="#263238"/>
        <g id="Group_19949" data-name="Group 19949" transform="translate(135.855 82.095)" opacity="0.3">
          <g id="Group_19948" data-name="Group 19948" transform="translate(0 0)">
            <g id="Group_19947" data-name="Group 19947" clip-path="url(#clip-path-34)">
              <path id="Path_48460" data-name="Path 48460" d="M372.012,241.878c-.506,5-.625,8.859-1.131,13.858a146.764,146.764,0,0,0,2.157-15.2,49.007,49.007,0,0,0-1.045-15.259,2.6,2.6,0,0,0-.532-1.194.935.935,0,0,0-1.19-.2s.335,1.016.5,1.552c1.628,5.3,1.623,10.91,1.242,16.439" transform="translate(-370.271 -223.748)"/>
            </g>
          </g>
        </g>
        <path id="Path_48461" data-name="Path 48461" d="M444.8,364.936a1.35,1.35,0,0,1-.2.166l-.6.444c-.518.385-1.28.924-2.23,1.577-1.9,1.309-4.575,3.04-7.579,4.872s-5.752,3.444-7.737,4.615l-2.355,1.381-.644.37a1.307,1.307,0,0,1-.232.117,1.36,1.36,0,0,1,.211-.15l.626-.4,2.324-1.433,7.707-4.662c3-1.831,5.686-3.542,7.6-4.821.959-.638,1.732-1.16,2.263-1.526l.616-.415a1.345,1.345,0,0,1,.222-.134" transform="translate(-267.945 -231.038)" fill="#263238"/>
        <g id="Group_19952" data-name="Group 19952" transform="translate(154.732 78.41)" opacity="0.3">
          <g id="Group_19951" data-name="Group 19951" transform="translate(0 0)">
            <g id="Group_19950" data-name="Group 19950" clip-path="url(#clip-path-35)">
              <path id="Path_48462" data-name="Path 48462" d="M444.337,213.706a9.838,9.838,0,0,1-2.9,4.117,18.855,18.855,0,0,1-4.3,2.7,12.744,12.744,0,0,1-5.256,1.489c-2.793.036-5.385-1.428-7.6-3.124a5.842,5.842,0,0,1-2.557-3.392,10.467,10.467,0,0,0,2.889,3.1,13.315,13.315,0,0,0,10.652,1.387c5.327-1.482,9.077-6.283,9.077-6.283" transform="translate(-421.719 -213.706)"/>
            </g>
          </g>
        </g>
        <path id="Path_48463" data-name="Path 48463" d="M497.8,233.827a4.822,4.822,0,0,0-3.651,5.01c.17,4.16.764,5.264.764,5.264h-8.491s-3.057.509-2.887,2.378.594,1.783.594,1.783a2.084,2.084,0,0,0-2.1,2.15,3.35,3.35,0,0,0,1.253,2.35s-.764,2.123-.509,2.632a9.279,9.279,0,0,0,2.123,1.613s-.594,1.358.17,2.123,5.095,2.378,5.095,2.378a48.162,48.162,0,0,0,7.126,2.252c2.038.255,4.488.583,4.488.583l4.616-10.721s-2.9-4.171-3.323-5.53-3.311-5.18-3.311-5.18a14.363,14.363,0,0,1-1.783-4.67c-.17-1.953.328-4.575-.17-4.415" transform="translate(-305.167 -148.03)" fill="#ffbe9d"/>
        <path id="Path_48464" data-name="Path 48464" d="M564.007,304.444c-2.34-3.308-26.96-21.933-26.96-21.933L532.5,294.57s11.152,16.038,14.233,19.687,12.977,11.854,19.256,6,.094-12.88-1.979-15.81" transform="translate(-337.12 -178.856)" fill="#ffbe9d"/>
        <path id="Path_48465" data-name="Path 48465" d="M492.615,273.75a32.725,32.725,0,0,1-4.961-.61,32.729,32.729,0,0,1,4.961.61" transform="translate(-308.73 -172.914)" fill="#eb996e"/>
        <path id="Path_48466" data-name="Path 48466" d="M491.384,286.861a3.9,3.9,0,0,1-.888-.07c-.545-.071-1.3-.191-2.117-.354s-1.561-.339-2.092-.482a3.912,3.912,0,0,1-.848-.275,4.346,4.346,0,0,1,.878.143l2.1.426,2.1.408a4.369,4.369,0,0,1,.867.2" transform="translate(-307.327 -180.858)" fill="#eb996e"/>
        <path id="Path_48467" data-name="Path 48467" d="M493.183,298.315a14.289,14.289,0,0,1-3.133-1.043,14.305,14.305,0,0,1,3.133,1.043" transform="translate(-310.247 -188.195)" fill="#eb996e"/>
        <path id="Path_48468" data-name="Path 48468" d="M537.047,282.269s.073.048.209.148l.6.451,2.3,1.753c2,1.529,4.877,3.75,8.412,6.527s7.739,6.092,12.255,9.962a37.975,37.975,0,0,1,3.33,3.137c.941,1.248,1.908,2.507,2.755,3.9a13.49,13.49,0,0,1,1.857,4.576,7.759,7.759,0,0,1,.032,2.542,7.309,7.309,0,0,1-.846,2.432,9.543,9.543,0,0,1-1.563,2.045,11.267,11.267,0,0,1-.949.856l-.524.364c-.172.125-.367.212-.548.32a7.92,7.92,0,0,1-4.844.788,14.58,14.58,0,0,1-4.538-1.468,25.4,25.4,0,0,1-3.88-2.423,30.425,30.425,0,0,1-3.288-2.851,29.72,29.72,0,0,1-2.644-3.139c-1.594-2.11-3.033-4.108-4.344-5.934-2.615-3.657-4.7-6.638-6.135-8.7l-1.645-2.382-.423-.623c-.094-.141-.139-.216-.139-.216s.055.068.155.2l.438.612,1.675,2.361c1.454,2.051,3.555,5.02,6.183,8.666,1.318,1.82,2.763,3.813,4.36,5.917a29.69,29.69,0,0,0,2.637,3.116,30.393,30.393,0,0,0,3.274,2.829,25.31,25.31,0,0,0,3.856,2.4,14.423,14.423,0,0,0,4.481,1.446,7.736,7.736,0,0,0,4.731-.77c.177-.105.367-.19.535-.312l.511-.355a11.126,11.126,0,0,0,.929-.839,9.369,9.369,0,0,0,1.531-2,7.246,7.246,0,0,0,.794-4.849,13.314,13.314,0,0,0-1.829-4.511c-.836-1.374-1.807-2.642-2.735-3.876a38.06,38.06,0,0,0-3.305-3.121c-4.5-3.872-8.709-7.188-12.224-9.988s-6.392-5.027-8.374-6.574l-2.282-1.781-.591-.466c-.133-.106-.2-.164-.2-.164" transform="translate(-337.12 -178.702)" fill="#eb996e"/>
        <path id="Path_48469" data-name="Path 48469" d="M404.916,56.105a4.128,4.128,0,0,0-4.479-1.65,5.642,5.642,0,0,0-6.9.841,5.019,5.019,0,0,0-7.114,4.855,4.193,4.193,0,0,0-2.923,7.4,4.031,4.031,0,0,0,2.489,7.625l18.658-14.308a4.128,4.128,0,0,0,.267-4.766" transform="translate(-241.284 -33.962)" fill="#263238"/>
        <path id="Path_48470" data-name="Path 48470" d="M394.271,105.2c-.507-4.4-1.133-13.062-1.314-21.35a17.1,17.1,0,0,1,15.355-17.386l.881-.09c9.557-.42,15.252,7.462,15.408,17.027l1.214,32.364c-6.207,10.769-18.778,9.318-21.434,2.775h0l-.1-3.241s-8.957-.98-10.007-10.1" transform="translate(-248.775 -42.012)" fill="#ffbe9d"/>
        <path id="Path_48471" data-name="Path 48471" d="M423.609,191.572a22.263,22.263,0,0,0,11.605-4.729s-2.265,6.782-11.46,6.895Z" transform="translate(-268.184 -118.289)" fill="#eb996e"/>
        <path id="Path_48472" data-name="Path 48472" d="M404.888,129.1a1.311,1.311,0,0,0,1.392,1.187,1.253,1.253,0,0,0,1.223-1.314,1.311,1.311,0,0,0-1.391-1.188,1.255,1.255,0,0,0-1.225,1.315" transform="translate(-256.33 -80.896)" fill="#263238"/>
        <path id="Path_48473" data-name="Path 48473" d="M399.516,122.811c.179.153,1.091-.679,2.5-.819,1.4-.16,2.5.456,2.638.269.067-.084-.129-.374-.611-.654a3.6,3.6,0,0,0-2.134-.426,3.459,3.459,0,0,0-1.965.864c-.4.375-.512.7-.424.766" transform="translate(-252.913 -76.705)" fill="#263238"/>
        <path id="Path_48474" data-name="Path 48474" d="M440.478,127.028a1.31,1.31,0,0,0,1.392,1.186,1.253,1.253,0,0,0,1.224-1.314,1.312,1.312,0,0,0-1.391-1.187,1.254,1.254,0,0,0-1.224,1.315" transform="translate(-278.862 -79.587)" fill="#263238"/>
        <path id="Path_48475" data-name="Path 48475" d="M437.181,119.669c.179.153,1.093-.679,2.5-.819,1.4-.16,2.5.456,2.638.269.067-.084-.128-.374-.612-.654a3.594,3.594,0,0,0-2.133-.426,3.453,3.453,0,0,0-1.965.864c-.4.375-.512.7-.425.766" transform="translate(-276.759 -74.716)" fill="#263238"/>
        <path id="Path_48476" data-name="Path 48476" d="M419.9,132.016a9.3,9.3,0,0,0-2.321-.178c-.362,0-.708-.037-.794-.275a1.834,1.834,0,0,1,.13-1.086q.371-1.352.78-2.837c1.073-4.036,1.81-7.339,1.647-7.381s-1.165,3.2-2.237,7.231q-.384,1.491-.734,2.849a2.086,2.086,0,0,0-.041,1.425.9.9,0,0,0,.643.463,2.417,2.417,0,0,0,.617.022,9.207,9.207,0,0,0,2.31-.233" transform="translate(-263.499 -76.134)" fill="#263238"/>
        <path id="Path_48477" data-name="Path 48477" d="M430.727,153.793c-.23.01-.076,1.533-1.269,2.748s-2.831,1.214-2.822,1.428c-.011.1.392.259,1.079.207a3.812,3.812,0,0,0,2.364-1.105,3.322,3.322,0,0,0,.966-2.295c-.007-.643-.216-1-.319-.983" transform="translate(-270.1 -97.365)" fill="#263238"/>
        <path id="Path_48478" data-name="Path 48478" d="M434.68,105.285c.178.367,1.56.043,3.227.072,1.667,0,3.044.342,3.228-.023.08-.174-.188-.509-.762-.823a5.611,5.611,0,0,0-4.917-.037c-.58.305-.853.636-.775.811" transform="translate(-275.185 -65.794)" fill="#263238"/>
        <path id="Path_48479" data-name="Path 48479" d="M399.746,111.475c.28.294,1.212-.137,2.373-.272,1.156-.175,2.168-.006,2.361-.362.083-.172-.1-.476-.566-.733a3.459,3.459,0,0,0-3.815.511c-.377.37-.478.712-.353.856" transform="translate(-253.044 -69.484)" fill="#263238"/>
        <path id="Path_48480" data-name="Path 48480" d="M394,77.708s1.822-5.965,4.442-7.583c3.172-1.958,4.985,1.559,8.075.343s6.117-3.092,9.621-.967c3.835,2.327,2.361,4.386,3,8.415,2.576,16.334,6.052,20.672,6.112,12.847.007-.857,2.29-1.773,2.271-5.39-.025-4.69-.424-10.347-1.8-13.536-1.159-2.688-2.939-4.445-6-6.269-4.826-2.88-10.991-2.32-15.13-1.47S392.88,70.587,394,77.708" transform="translate(-249.365 -40.146)" fill="#263238"/>
        <path id="Path_48481" data-name="Path 48481" d="M477.686,132.847a2.491,2.491,0,0,1,2.431-2.663c1.719-.013,3.713.76,3.962,4.29.441,6.263-5.938,5.414-5.962,5.235-.016-.121-.27-4.24-.431-6.862" transform="translate(-302.416 -82.418)" fill="#ffbe9d"/>
        <path id="Path_48482" data-name="Path 48482" d="M482.125,140.766c.026-.022.115.069.3.14a1.093,1.093,0,0,0,.817-.041,2.706,2.706,0,0,0,1.079-2.51,3.615,3.615,0,0,0-.416-1.54,1.262,1.262,0,0,0-.88-.78.556.556,0,0,0-.623.344c-.072.181-.023.3-.056.317-.016.017-.142-.1-.11-.358a.7.7,0,0,1,.219-.409.826.826,0,0,1,.592-.2,1.537,1.537,0,0,1,1.208.89,3.716,3.716,0,0,1,.5,1.719,2.84,2.84,0,0,1-1.4,2.817,1.17,1.17,0,0,1-1.009-.1c-.2-.141-.248-.279-.227-.292" transform="translate(-305.227 -85.927)" fill="#eb996e"/>
        <path id="Path_48483" data-name="Path 48483" d="M429.255,75.185a5.961,5.961,0,0,1-2.519,1.492,2.048,2.048,0,0,1-2.406-1.2c-.118-.427-.064-.942-.384-1.249-.382-.366-1-.176-1.516-.066A4.005,4.005,0,0,1,418,71.729a1.683,1.683,0,0,1-2.222.442,9.017,9.017,0,0,1-1.886-1.644,2.581,2.581,0,0,0-2.252-.852,6.2,6.2,0,0,1-1.327.438c-.827.011-1.326-.908-1.534-1.709s-.4-1.74-1.141-2.112a3.282,3.282,0,0,0-2.238.168c-.743.189-1.736.111-2-.607a1.49,1.49,0,0,1,.163-1.161,4.064,4.064,0,0,1,4.615-2.02,5.509,5.509,0,0,1,9.959-2.1,5.59,5.59,0,0,1,9.1,1.116,4.052,4.052,0,0,1,5.146,5.4,3.848,3.848,0,0,1,2.419,2.832,2.2,2.2,0,0,1-2.252,2.494,2.244,2.244,0,0,1-3.633,2.623" transform="translate(-255.348 -36.839)" fill="#263238"/>
        <path id="Path_48484" data-name="Path 48484" d="M468.553,96.8a1.5,1.5,0,0,1-.266,1.24,2.015,2.015,0,0,1-1.174.874,2.174,2.174,0,0,1-1.833-.335l.26-.067a6.272,6.272,0,0,1-1.086,1.685,3.61,3.61,0,0,1-1.065.824,2.447,2.447,0,0,1-1.245.246,2.472,2.472,0,0,1-1.908-.848,3.629,3.629,0,0,1-.638-1.247,1.238,1.238,0,0,1-.1-.5c.026-.009.1.157.231.449a4.221,4.221,0,0,0,.7,1.128,2.559,2.559,0,0,0,3.76-.3,6.3,6.3,0,0,0,1.039-1.581l.091-.2.169.128a1.905,1.905,0,0,0,1.555.325,1.851,1.851,0,0,0,1.069-.711,3.049,3.049,0,0,0,.443-1.119" transform="translate(-290.9 -61.284)" fill="#455a64"/>
        <path id="Path_48485" data-name="Path 48485" d="M398.571,59.8c-.036-.057-.623.438-.983,1.537a5.356,5.356,0,0,0-.291,1.992,3.544,3.544,0,0,0,.97,2.3,5.1,5.1,0,0,0,2.146,1.236,14.1,14.1,0,0,0,1.93.443,8.052,8.052,0,0,0,1.8.207A6.728,6.728,0,0,0,402.406,67c-.539-.133-1.182-.285-1.862-.524a5,5,0,0,1-1.955-1.155,3.248,3.248,0,0,1-.882-2.016,5.632,5.632,0,0,1,.182-1.873,7.525,7.525,0,0,1,.682-1.628" transform="translate(-251.521 -37.859)" fill="#e0e0e0"/>
        <path id="Path_48486" data-name="Path 48486" d="M393.318,75.29a4.606,4.606,0,0,0,2.3.827c.633.033,1.01-.09,1-.141-.007-.071-.385-.063-.964-.173a5.43,5.43,0,0,1-3.635-2.535c-.3-.5-.426-.862-.495-.845-.05.01-.036.407.215.989" transform="translate(-247.861 -45.851)" fill="#e0e0e0"/>
        <path id="Path_48487" data-name="Path 48487" d="M422.127,117.651a7.182,7.182,0,0,1,.374-1.375,5.111,5.111,0,0,1,2.609-2.725,4.731,4.731,0,0,1,1.215-.375,5.02,5.02,0,0,1,4.13,1.119,4.907,4.907,0,0,1,1.67,2.835,4.951,4.951,0,0,1-.564,3.475,5,5,0,0,1-6.006,2.24,5.355,5.355,0,0,1-1.375-.735,5.485,5.485,0,0,1-1.031-1.052,4.93,4.93,0,0,1-.929-2.454q-.02-.3-.039-.593a1.637,1.637,0,0,0,.019-.3.245.245,0,0,0-.1-.166.8.8,0,0,0-.131-.081,3.382,3.382,0,0,0-1.006-.354,2.829,2.829,0,0,0-1.68.191,2.685,2.685,0,0,0-.847.655c-.081.091-.139.165-.176.215s-.054.077-.051.08.09-.092.26-.264a2.82,2.82,0,0,1,.85-.606,2.77,2.77,0,0,1,1.62-.147,3.289,3.289,0,0,1,.963.357c.081.047.151.082.149.14a1.832,1.832,0,0,1-.025.276q.015.3.032.615a5.067,5.067,0,0,0,.936,2.549,5.635,5.635,0,0,0,1.063,1.1,5.512,5.512,0,0,0,1.426.773,5.205,5.205,0,0,0,6.271-2.323,5.163,5.163,0,0,0,.585-3.631,5.106,5.106,0,0,0-1.753-2.951,5.165,5.165,0,0,0-2.872-1.2,5.108,5.108,0,0,0-1.424.068,4.843,4.843,0,0,0-1.251.4,5.1,5.1,0,0,0-1.773,1.373,4.992,4.992,0,0,0-.85,1.464,4.8,4.8,0,0,0-.265,1.036,2.315,2.315,0,0,0-.027.372" transform="translate(-264.767 -71.486)" fill="#263238"/>
        <path id="Path_48488" data-name="Path 48488" d="M390.827,122.9a10.124,10.124,0,0,1,.032-1.255,5.1,5.1,0,0,1,1.472-2.995,5.021,5.021,0,0,1,4.615-1.347,5.028,5.028,0,0,1,2.542,1.415,4.989,4.989,0,0,1,.809,5.863,5.026,5.026,0,0,1-2.064,2.051,5.02,5.02,0,0,1-4.808-.048A5.1,5.1,0,0,1,391.2,124.1a10.15,10.15,0,0,1-.37-1.2,1.8,1.8,0,0,0,.039.325,2.343,2.343,0,0,0,.083.389,3.556,3.556,0,0,0,.167.518,5.158,5.158,0,0,0,4.528,3.271,5.213,5.213,0,0,0,2.686-.587,5.217,5.217,0,0,0,2.161-2.129,5.191,5.191,0,0,0-.845-6.123,5.216,5.216,0,0,0-2.656-1.465,5.212,5.212,0,0,0-2.744.162,5.158,5.158,0,0,0-3.474,4.374,3.559,3.559,0,0,0-.02.543,2.363,2.363,0,0,0,.025.4,1.783,1.783,0,0,0,.051.324" transform="translate(-247.381 -74.065)" fill="#263238"/>
        <path id="Path_48489" data-name="Path 48489" d="M456.442,129.888a76.238,76.238,0,0,0,7.93,2.438,76.316,76.316,0,0,0-7.93-2.438" transform="translate(-288.97 -82.228)" fill="#263238"/>
        <path id="Path_48490" data-name="Path 48490" d="M395.15,151.8c-.013-.35-.011-1.3.1-1.272,1.381.4,2.275-.009,3.563-1.256,1.723-1.668,2.482-2.833,5.425-2.753a10.6,10.6,0,0,1,4.408,1.1,17.25,17.25,0,0,0,11.725,1.253l3.658,4.681s-3.452,12.628-18.278,12.628c-10.142,0-10.468-10.931-10.6-14.379" transform="translate(-250.163 -92.758)" fill="#455a64"/>
        <path id="Path_48491" data-name="Path 48491" d="M395.28,152.11c1.777.314,2.449-.213,3.926-1.643s2.124-2.012,4.168-2.235c1.744-.19,5.21,1.014,6.826,1.7,3.391,1.432,7.555.927,11.126.035l-.172-.2-.83-1.062a17.249,17.249,0,0,1-11.725-1.253,10.6,10.6,0,0,0-4.408-1.1c-2.943-.081-3.7,1.084-5.425,2.753a4.152,4.152,0,0,1-3.529,1.317s-.116.054-.109.55a8.15,8.15,0,0,0,.152,1.137" transform="translate(-250.153 -92.653)" fill="#e0e0e0"/>
        <path id="Path_48492" data-name="Path 48492" d="M398.722,168.373a.95.95,0,0,1,.221.019l.625.09c.271.044.6.094.99.132s.826.106,1.315.133,1.023.08,1.6.091c.575.031,1.19.017,1.837.014a32.559,32.559,0,0,0,8.3-1.26c.619-.189,1.21-.358,1.751-.558.547-.181,1.045-.379,1.5-.561s.859-.363,1.216-.517.66-.3.906-.42l.57-.272a.952.952,0,0,1,.205-.083,1,1,0,0,1-.187.117l-.555.3c-.241.132-.539.289-.895.451s-.752.365-1.209.545-.951.4-1.5.586c-.54.208-1.133.384-1.754.578a31.049,31.049,0,0,1-8.346,1.267c-.651,0-1.269.006-1.847-.032-.579-.018-1.115-.066-1.6-.114s-.93-.11-1.317-.162-.718-.109-.988-.165l-.62-.125a.955.955,0,0,1-.213-.057" transform="translate(-252.428 -104.574)" fill="#263238"/>
        <path id="Path_48493" data-name="Path 48493" d="M410.195,179.782a2.733,2.733,0,0,1,.514.092c.163.038.363.082.6.12s.5.1.8.131a17.911,17.911,0,0,0,2.091.175,17.547,17.547,0,0,0,5.082-.619,17.92,17.92,0,0,0,1.988-.672c.281-.1.524-.223.742-.318s.4-.184.552-.259a2.779,2.779,0,0,1,.477-.214,2.7,2.7,0,0,1-.442.279c-.145.086-.325.187-.54.29s-.456.234-.736.346a15.854,15.854,0,0,1-1.993.717,16.437,16.437,0,0,1-5.134.626,15.918,15.918,0,0,1-2.106-.218c-.3-.043-.563-.11-.8-.16s-.433-.1-.594-.152a2.728,2.728,0,0,1-.5-.165" transform="translate(-259.691 -112.827)" fill="#263238"/>
        <path id="Path_48494" data-name="Path 48494" d="M472.755,160.856c0-.017.063-.024.165-.072a2.07,2.07,0,0,0,.4-.272,10.479,10.479,0,0,0,1.125-1.169c.826-.972,1.447-1.805,1.492-1.773a9.257,9.257,0,0,1-1.347,1.9,7.077,7.077,0,0,1-1.188,1.152,1.521,1.521,0,0,1-.454.235c-.121.031-.192.012-.19,0" transform="translate(-299.298 -99.756)" fill="#455a64"/>
        <path id="Path_48495" data-name="Path 48495" d="M469.26,138.665a4.972,4.972,0,0,1-.466.986,19.266,19.266,0,0,1-3.139,4.208,4.987,4.987,0,0,1-.812.727,8.008,8.008,0,0,1,.714-.82c.448-.5,1.048-1.2,1.659-2.018s1.112-1.594,1.462-2.165a7.978,7.978,0,0,1,.582-.918" transform="translate(-294.288 -87.788)" fill="#455a64"/>
        <g id="Group_19955" data-name="Group 19955" transform="translate(147.791 61.17)" opacity="0.3">
          <g id="Group_19954" data-name="Group 19954" transform="translate(0 0)">
            <g id="Group_19953" data-name="Group 19953" clip-path="url(#clip-path-36)">
              <path id="Path_48496" data-name="Path 48496" d="M402.8,169.677s6.484,1.474,9.745.978a18.848,18.848,0,0,0,8.693-3.937c-.048.352-10.026,4.487-18.439,2.959" transform="translate(-402.802 -166.718)"/>
            </g>
          </g>
        </g>
        <path id="Path_48497" data-name="Path 48497" d="M408.636,164.226c.006-.03.589.079,1.537.2a26.757,26.757,0,0,0,7.433-.1c.944-.143,1.523-.268,1.53-.238a1.749,1.749,0,0,1-.4.126c-.259.071-.638.156-1.11.245a22.178,22.178,0,0,1-7.475.1c-.474-.077-.855-.152-1.116-.216a1.773,1.773,0,0,1-.4-.116" transform="translate(-258.704 -103.881)" fill="#263238"/>
        <path id="Path_48498" data-name="Path 48498" d="M51.729,105.885c.466-2.273,2.382-13.388,2.762-15.064a9.5,9.5,0,0,1,3.7-5.726,5.943,5.943,0,0,1,6.542-.3,3.973,3.973,0,0,1,2.412,3.168c2.256,17.381-4.873,54.209-5.322,71.778-6.273.1-8.772,1.762-14.924.532-1.394-12.662,1.805-39.63,4.827-54.39" transform="translate(-29.48 -53.148)" fill="#263238"/>
        <path id="Path_48499" data-name="Path 48499" d="M110.224,58.1c-4.53-1.147-8.708.3-12.788,2.577A23.093,23.093,0,0,0,88.1,70.842a27.617,27.617,0,0,0-2.132,15.838,14.312,14.312,0,0,0,8.211,10.4c6.136,2.744,13.456,3.064,19.123-.55A23.127,23.127,0,0,0,123.346,79.8a22.2,22.2,0,0,0-2.452-13.441,16.911,16.911,0,0,0-10.67-8.261" transform="translate(-54.18 -36.53)" fill="#263238"/>
        <path id="Path_48500" data-name="Path 48500" d="M112.411,73.484c.812-1.7.708-3.686,1.123-5.526.913-4.054,4.48-7.078,8.428-8.371,3.673-1.2,7.989-.532,12.16,1.195a16.4,16.4,0,0,1,7.256,5.6,12.921,12.921,0,0,1,1.443,11.755L122.087,73.4a23.474,23.474,0,0,1-6.692,3.676,4.35,4.35,0,0,1-2.218.174,1.96,1.96,0,0,1-1.524-1.477,4.152,4.152,0,0,1,.758-2.293" transform="translate(-70.675 -37.338)" fill="#263238"/>
        <path id="Path_48501" data-name="Path 48501" d="M129.635,79.778l-18.626,2.417a3.431,3.431,0,0,0-3.46,3.093L104.6,124.943a12.348,12.348,0,0,0,1.984,7.681l1.567,2.392a9.068,9.068,0,0,0,15.182.082,4.364,4.364,0,0,0,.5-1,8.194,8.194,0,0,0,.244-.881,28.762,28.762,0,0,0,.8-5.977c.46-3.515.632-4.959.63-4.926,0,0,7.571-.349,10.263-9.853,1.339-4.726,2.038-12.654,2.4-19.159.326-5.855-2.675-13.444-8.539-13.521" transform="translate(-66.201 -50.507)" fill="#ffbe9d"/>
        <path id="Path_48502" data-name="Path 48502" d="M183.376,134.09a1.251,1.251,0,0,1-1.347,1.111,1.2,1.2,0,0,1-1.147-1.273,1.252,1.252,0,0,1,1.346-1.111,1.2,1.2,0,0,1,1.148,1.273" transform="translate(-114.512 -84.084)" fill="#263238"/>
        <path id="Path_48503" data-name="Path 48503" d="M181.7,124.479c-.173.144-1.031-.664-2.369-.821-1.334-.174-2.4.4-2.522.215-.063-.081.129-.354.593-.615a3.439,3.439,0,0,1,2.043-.373,3.3,3.3,0,0,1,1.861.856c.373.364.478.674.393.737" transform="translate(-111.927 -77.782)" fill="#263238"/>
        <path id="Path_48504" data-name="Path 48504" d="M150.907,130.834a1.25,1.25,0,0,1-1.347,1.111,1.2,1.2,0,0,1-1.147-1.272,1.252,1.252,0,0,1,1.346-1.112,1.2,1.2,0,0,1,1.148,1.274" transform="translate(-93.957 -82.022)" fill="#263238"/>
        <path id="Path_48505" data-name="Path 48505" d="M147.061,120.814c-.174.143-1.033-.665-2.369-.82-1.333-.175-2.4.4-2.522.215-.062-.081.128-.355.594-.615a3.428,3.428,0,0,1,2.043-.373,3.3,3.3,0,0,1,1.862.856c.372.364.478.674.394.737" transform="translate(-89.999 -75.461)" fill="#263238"/>
        <path id="Path_48506" data-name="Path 48506" d="M164.266,132.938a8.923,8.923,0,0,1,2.218-.133c.345.005.676-.024.762-.25a1.751,1.751,0,0,0-.108-1.039q-.334-1.3-.7-2.72a44.987,44.987,0,0,1-1.457-7.07A45.151,45.151,0,0,1,167,128.662q.343,1.429.656,2.73a1.992,1.992,0,0,1,.017,1.361.865.865,0,0,1-.621.432,2.32,2.32,0,0,1-.59.011,8.749,8.749,0,0,1-2.2-.259" transform="translate(-103.996 -77.064)" fill="#263238"/>
        <path id="Path_48507" data-name="Path 48507" d="M139.973,187.063a24.817,24.817,0,0,1-12.561-5.006s2.463,7.095,12.266,7.343Z" transform="translate(-80.664 -115.259)" fill="#eb996e"/>
        <path id="Path_48508" data-name="Path 48508" d="M154.608,158.893a2.428,2.428,0,0,0-2.053-1.152,2.214,2.214,0,0,0-1.616.634,1.4,1.4,0,0,0-.3,1.581,1.628,1.628,0,0,0,1.7.652,5.105,5.105,0,0,0,1.83-.816,1.49,1.49,0,0,0,.429-.35.45.45,0,0,0,.057-.5" transform="translate(-95.287 -99.864)" fill="#eb996e"/>
        <path id="Path_48509" data-name="Path 48509" d="M152.688,153.526c.219.013.049,1.465,1.169,2.642s2.683,1.2,2.67,1.406c.01.094-.378.241-1.033.181a3.635,3.635,0,0,1-2.238-1.092,3.168,3.168,0,0,1-.887-2.2c.017-.613.222-.953.32-.933" transform="translate(-96.462 -97.195)" fill="#263238"/>
        <path id="Path_48510" data-name="Path 48510" d="M146.619,110.488c-.175.348-1.49.017-3.08.019-1.592-.03-2.911.279-3.08-.072-.074-.167.187-.483.74-.774a5.355,5.355,0,0,1,4.693.04c.548.3.8.621.727.787" transform="translate(-88.915 -69.095)" fill="#263238"/>
        <path id="Path_48511" data-name="Path 48511" d="M183.19,113.5c-.271.275-1.155-.149-2.261-.3-1.1-.185-2.069-.04-2.247-.383-.077-.165.108-.452.551-.691a3.3,3.3,0,0,1,3.632.547c.354.359.445.687.324.823" transform="translate(-113.111 -70.792)" fill="#263238"/>
        <path id="Path_48512" data-name="Path 48512" d="M101.728,70.3c2.345-5.425,11.242-12.363,17.068-11.366l8.807,6.556a9.089,9.089,0,0,1-6.826,6.3c-1.707.339-3.716.278-4.843,1.6-1.151,1.354-.775,3.531-1.861,4.937-1.505,1.949-5.042,1.5-6.24,3.648-.524.94-.419,2.137-.959,3.067-.72,1.24-4.172,2.558-5.489,1.991S100.3,84.154,99.972,82.9a6.449,6.449,0,0,1,.234-4.326c.867-2.684.4-5.685,1.522-8.274" transform="translate(-63.123 -37.247)" fill="#263238"/>
        <path id="Path_48513" data-name="Path 48513" d="M102.416,134.762c.084-.722-.547-2.522-1.246-2.718-1.867-.523-5.314-.779-5.922,4.049-.83,6.6,5.967,6.072,6,5.884.028-.147.875-4.724,1.166-7.215" transform="translate(-60.256 -83.425)" fill="#ffbe9d"/>
        <path id="Path_48514" data-name="Path 48514" d="M102.488,142.784c-.026-.025-.125.066-.33.131a1.159,1.159,0,0,1-.862-.09,2.868,2.868,0,0,1-1-2.718,3.827,3.827,0,0,1,.529-1.606,1.336,1.336,0,0,1,.976-.773.59.59,0,0,1,.639.4c.065.2.007.323.041.338.016.019.155-.092.136-.372a.741.741,0,0,0-.208-.447.877.877,0,0,0-.615-.248,1.63,1.63,0,0,0-1.33.872,3.934,3.934,0,0,0-.63,1.789,3.007,3.007,0,0,0,1.319,3.061,1.241,1.241,0,0,0,1.073-.042c.225-.137.278-.28.257-.3" transform="translate(-63.196 -86.985)" fill="#eb996e"/>
        <path id="Path_48515" data-name="Path 48515" d="M86.7,91.855a5.954,5.954,0,0,1-.089-2.008,14.64,14.64,0,0,1,3.771-8.8A5.966,5.966,0,0,1,91.9,79.721a22.154,22.154,0,0,0-3.736,5.58A22.146,22.146,0,0,0,86.7,91.855" transform="translate(-54.819 -50.47)" fill="#ff725e"/>
        <path id="Path_48516" data-name="Path 48516" d="M170.932,71.052c.394,2.746,4.217,6.531,5.848,8.775,3.112,4.28,3.713,4.922,2.706,16.988A28.626,28.626,0,0,0,183.22,85.05a14.5,14.5,0,0,0-3.077-9.8,11.292,11.292,0,0,0-9.211-4.194" transform="translate(-108.216 -44.97)" fill="#263238"/>
        <path id="Path_48517" data-name="Path 48517" d="M96.032,81.293a6.518,6.518,0,0,0,1.1.369A13.221,13.221,0,0,0,98.457,82c.521.111,1.11.263,1.775.351a31.838,31.838,0,0,0,4.693.425,33.007,33.007,0,0,0,11.357-1.82,31.917,31.917,0,0,0,4.326-1.87c.6-.292,1.116-.62,1.577-.888a13.217,13.217,0,0,0,1.149-.737,6.541,6.541,0,0,0,.932-.7,6.566,6.566,0,0,0-1.015.566c-.317.2-.707.432-1.177.675s-.985.557-1.592.83a35.113,35.113,0,0,1-4.317,1.774,34.761,34.761,0,0,1-11.236,1.8,35.121,35.121,0,0,1-4.654-.336c-.663-.07-1.251-.2-1.772-.291s-.967-.186-1.329-.274a6.526,6.526,0,0,0-1.141-.22" transform="translate(-60.797 -48.6)" fill="#455a64"/>
        <path id="Path_48518" data-name="Path 48518" d="M93.115,98.042a3.065,3.065,0,0,0,.753.249,19.111,19.111,0,0,0,2.114.442,26.654,26.654,0,0,0,14.027-1.6,18.953,18.953,0,0,0,1.96-.908,3.079,3.079,0,0,0,.677-.412c-.031-.062-1.038.441-2.738,1.059a29.955,29.955,0,0,1-13.888,1.586c-1.795-.219-2.889-.482-2.906-.415" transform="translate(-58.95 -60.654)" fill="#455a64"/>
        <path id="Path_48519" data-name="Path 48519" d="M86.536,101.979a4.192,4.192,0,0,0-.3.979,26.168,26.168,0,0,0-.5,2.748,40.11,40.11,0,0,0-.334,4.129,26.967,26.967,0,0,0,.273,5.077,13.369,13.369,0,0,0,4.535,7.915,12.942,12.942,0,0,0,2.351,1.522,4.173,4.173,0,0,0,.942.4,6.108,6.108,0,0,0-.865-.543,15.581,15.581,0,0,1-2.243-1.6,12.269,12.269,0,0,1-2.582-3.125,13.484,13.484,0,0,1-1.737-4.638,28.594,28.594,0,0,1-.3-5c.025-1.546.126-2.938.245-4.1s.252-2.1.366-2.75a6.086,6.086,0,0,0,.149-1.011" transform="translate(-54.058 -64.562)" fill="#455a64"/>
        <path id="Path_48520" data-name="Path 48520" d="M143.091,151.143a.563.563,0,0,0-.493-.695c-1.4-.1-2.4-1.009-3.547-2.325-1.54-1.761-2.184-2.955-5.051-3.114a10.335,10.335,0,0,0-4.374.711,16.827,16.827,0,0,1-11.5.27l-3.934,4.255s2.949,13.339,17.412,13.352c7.986.007,10.844-9.728,11.487-12.455" transform="translate(-72.294 -91.794)" fill="#455a64"/>
        <path id="Path_48521" data-name="Path 48521" d="M144.087,147.969c-1.54-1.761-2.184-2.955-5.051-3.114a10.34,10.34,0,0,0-4.374.711,16.827,16.827,0,0,1-11.5.271l-.892.965-.184.178c3.4,1.156,7.407,1.983,10.819.866,1.626-.533,5.093-1.423,6.773-1.1,1.969.382,2.5,1.575,3.823,3.085s2.512,2.6,4.265,2.437l.139-.581q.1-.369.167-.638a.567.567,0,0,0-.5-.7c-1.377-.124-2.342-1.068-3.486-2.377" transform="translate(-77.292 -91.697)" fill="#e0e0e0"/>
        <path id="Path_48522" data-name="Path 48522" d="M151.737,165.055a.911.911,0,0,1-.212.038l-.613.072c-.266.032-.593.064-.973.081s-.813.055-1.293.051-1.005.012-1.569-.018c-.564-.01-1.165-.068-1.8-.119a30.27,30.27,0,0,1-8.012-1.907c-.588-.239-1.15-.458-1.659-.7-.517-.228-.984-.468-1.409-.691s-.8-.44-1.132-.628-.609-.362-.833-.511l-.515-.34a.873.873,0,0,1-.172-.13.93.93,0,0,1,.193.1l.533.309c.229.139.51.3.847.481s.708.4,1.14.6.9.447,1.413.667c.509.238,1.07.451,1.656.684a31.785,31.785,0,0,0,7.967,1.9c.628.056,1.225.119,1.786.135.561.036,1.083.04,1.561.041s.91-.014,1.289-.023.706-.028.973-.048l.615-.036a.915.915,0,0,1,.216,0" transform="translate(-83.282 -101.453)" fill="#263238"/>
        <path id="Path_48523" data-name="Path 48523" d="M153.407,176.36a2.6,2.6,0,0,1-.5.121c-.161.035-.358.072-.59.1s-.494.074-.788.091a15.415,15.415,0,0,1-2.065.042,16.028,16.028,0,0,1-4.941-1.023,15.517,15.517,0,0,1-1.879-.859c-.263-.132-.487-.277-.687-.4s-.368-.23-.5-.326a2.562,2.562,0,0,1-.407-.308,2.635,2.635,0,0,1,.447.245c.139.086.31.189.516.3s.431.245.7.369a17.5,17.5,0,0,0,1.878.814,17.141,17.141,0,0,0,4.889,1.013,17.516,17.516,0,0,0,2.046,0c.292-.008.554-.043.785-.062s.43-.044.591-.068a2.642,2.642,0,0,1,.507-.047" transform="translate(-89.298 -110.032)" fill="#263238"/>
        <path id="Path_48524" data-name="Path 48524" d="M110.683,159.712a9.095,9.095,0,0,1-2.619-.258,9.093,9.093,0,0,1,2.619.258" transform="translate(-68.414 -100.929)" fill="#455a64"/>
        <path id="Path_48525" data-name="Path 48525" d="M113.436,132.792a7.611,7.611,0,0,1,.494.939c.294.583.72,1.377,1.247,2.222s1.054,1.576,1.449,2.1a7.551,7.551,0,0,1,.626.856,4.8,4.8,0,0,1-.732-.771,18.749,18.749,0,0,1-2.712-4.344,4.792,4.792,0,0,1-.371-1" transform="translate(-71.814 -84.069)" fill="#455a64"/>
        <g id="Group_19958" data-name="Group 19958" transform="translate(49.289 59.434)" opacity="0.3">
          <g id="Group_19957" data-name="Group 19957" transform="translate(0 0)">
            <g id="Group_19956" data-name="Group 19956" clip-path="url(#clip-path-37)">
              <path id="Path_48526" data-name="Path 48526" d="M152.02,166.355s-6.422.908-9.552.163a18.39,18.39,0,0,1-8.132-4.53c.018.346,9.384,5.172,17.685,4.367" transform="translate(-134.335 -161.988)"/>
            </g>
          </g>
        </g>
        <path id="Path_48527" data-name="Path 48527" d="M160.1,161.693a1.669,1.669,0,0,1-.4.081c-.259.042-.635.084-1.1.12a21.577,21.577,0,0,1-7.259-.7c-.451-.125-.813-.238-1.059-.328a1.686,1.686,0,0,1-.377-.156c.01-.03.563.138,1.469.353a26.159,26.159,0,0,0,7.217.695c.931-.039,1.506-.1,1.51-.066" transform="translate(-94.905 -101.743)" fill="#263238"/>
        <path id="Path_48528" data-name="Path 48528" d="M56.792,170.129s-.009-.063-.017-.187-.018-.314-.032-.55c-.024-.492-.058-1.2-.1-2.114-.03-.459-.033-.97-.029-1.529s0-1.168,0-1.82.025-1.351.056-2.091.057-1.522.1-2.343c.211-3.282.627-7.177,1.251-11.478s1.44-9.008,2.24-13.956,1.469-9.68,1.838-14.007c.093-1.081.189-2.135.229-3.163s.12-2.023.14-2.988c.051-1.93.092-3.735.3-5.371a16.427,16.427,0,0,1,1.064-4.307,11.154,11.154,0,0,1,1.7-2.885,8.184,8.184,0,0,1,1.536-1.457,5.372,5.372,0,0,1,.62-.4s-.05.04-.152.111-.258.168-.446.32a8.521,8.521,0,0,0-1.5,1.473,11.225,11.225,0,0,0-1.658,2.878,16.447,16.447,0,0,0-1.028,4.283c-.2,1.628-.23,3.427-.275,5.359-.016.967-.087,1.965-.131,2.994s-.13,2.086-.221,3.169c-.36,4.334-1.023,9.071-1.825,14.022s-1.629,9.654-2.255,13.951-1.063,8.185-1.291,11.461c-.052.819-.08,1.6-.118,2.339s-.076,1.435-.071,2.088-.012,1.258-.017,1.818-.012,1.07.012,1.528c.029.912.051,1.622.067,2.115.006.236.01.419.012.55s0,.188,0,.188" transform="translate(-35.84 -62.981)" fill="#455a64"/>
        <path id="Path_48529" data-name="Path 48529" d="M159.141,205.824s4.5,3.768,6.385,5.24c3.388,2.651,8.719,18.3,8.719,18.3l-8.9,6.025-6.911-22.87Z" transform="translate(-100.304 -130.306)" fill="#007c7c"/>
        <path id="Path_48530" data-name="Path 48530" d="M77.2,188.742s-10.539,9.377-13.433,15.55c-3.144,6.706,1.906,48.453,1.906,48.453L60.22,278.5h49.859l-1.238-28.045c1.238-1.552,6.687-14.972,4.553-21.22-1.329-3.89-2.341-8.059-3.854-11.706A48.257,48.257,0,0,0,99.131,202.17Z" transform="translate(-38.125 -119.491)" fill="#007c7c"/>
        <g id="Group_19961" data-name="Group 19961" transform="translate(34.22 105.087)" opacity="0.3">
          <g id="Group_19960" data-name="Group 19960" transform="translate(0 0)">
            <g id="Group_19959" data-name="Group 19959" clip-path="url(#clip-path-38)">
              <path id="Path_48531" data-name="Path 48531" d="M129.271,304.7c-2.412.885-4.546,2.38-6.856,3.506s-4.976,1.883-7.44,1.154a10.3,10.3,0,0,1-4.924-3.755,44.617,44.617,0,0,1-5.416-10l-4.005-9.19-7.363,2.131c2.742,10,8.148,20.133,13.828,28.805a10.828,10.828,0,0,0,3.8,4.006,7.513,7.513,0,0,0,6.194-.057,22.256,22.256,0,0,0,5.312-3.514l5.84-4.726a6.9,6.9,0,0,0,2.316-2.656c.729-1.881-.291-3.945-1.283-5.7" transform="translate(-93.267 -286.414)"/>
            </g>
          </g>
        </g>
        <path id="Path_48532" data-name="Path 48532" d="M99.093,200.571a6.115,6.115,0,0,1,.631-.75l1.539-1.79c.6-.7,1.159-1.327,1.586-1.758a4.238,4.238,0,0,1,.729-.659,6.089,6.089,0,0,1-.63.75l-1.54,1.79c-.6.7-1.159,1.326-1.586,1.757a4.208,4.208,0,0,1-.729.659" transform="translate(-62.734 -123.841)" fill="#263238"/>
        <path id="Path_48533" data-name="Path 48533" d="M116.77,410.448a.218.218,0,0,1-.012-.061c-.006-.048-.013-.108-.022-.181l-.072-.706c-.058-.63-.142-1.533-.247-2.675-.2-2.314-.487-5.593-.828-9.5l.13.063a23.412,23.412,0,0,1-11.037,3.56,20.931,20.931,0,0,1-12.265-2.555l.125-.061-.9,8.792c-.113,1.05-.2,1.88-.265,2.459-.032.275-.058.49-.076.647l-.023.166a.183.183,0,0,1-.012.055.19.19,0,0,1,0-.057c0-.045.006-.1.01-.167.012-.158.029-.374.051-.649l.22-2.464.832-8.8.012-.131.113.07a20.914,20.914,0,0,0,12.164,2.5,23.428,23.428,0,0,0,10.958-3.51l.119-.077.011.141c.312,3.915.574,7.2.759,9.511.086,1.143.153,2.048.2,2.678.02.3.035.536.046.708,0,.074.006.133.009.182a.218.218,0,0,1,0,.062" transform="translate(-57.78 -251.443)" fill="#263238"/>
        <path id="Path_48534" data-name="Path 48534" d="M117.347,410.837a1.314,1.314,0,0,1-.187.179,7.012,7.012,0,0,1-.572.475,12.332,12.332,0,0,1-2.344,1.4,18.137,18.137,0,0,1-3.849,1.269,24.97,24.97,0,0,1-4.932.547,25.9,25.9,0,0,1-8.88-1.351,14.478,14.478,0,0,1-2.486-1.133,6.9,6.9,0,0,1-.625-.4,1.3,1.3,0,0,1-.206-.157c.013-.019.3.191.868.493a15.931,15.931,0,0,0,2.494,1.07,26.818,26.818,0,0,0,8.832,1.288,22.4,22.4,0,0,0,8.727-1.748,13.34,13.34,0,0,0,2.356-1.341c.521-.374.79-.61.8-.594" transform="translate(-59.046 -260.097)" fill="#263238"/>
        <path id="Path_48535" data-name="Path 48535" d="M188.792,249.648a.776.776,0,0,1-.075-.182l-.18-.531-.635-1.96c-.536-1.656-1.289-3.938-2.15-6.449s-1.665-4.777-2.249-6.417l-.69-1.942-.182-.53a.1.1,0,1,1,.036-.014l.215.518c.183.451.439,1.107.747,1.922.616,1.628,1.442,3.887,2.3,6.4s1.595,4.8,2.1,6.471c.254.833.448,1.51.578,1.979l.146.542a.762.762,0,0,1,.038.193" transform="translate(-115.589 -146.527)" fill="#263238"/>
        <path id="Path_48536" data-name="Path 48536" d="M187.151,266.116l-4.96,1.367-.5-3.377,4.959-1.367Z" transform="translate(-115.026 -166.338)" fill="#e0e0e0"/>
        <path id="Path_48537" data-name="Path 48537" d="M97.412,336.56a.353.353,0,0,1-.011-.1c0-.074-.007-.166-.012-.28-.007-.261-.017-.62-.029-1.075-.022-.934-.041-2.285-.054-3.956-.029-3.34-.021-7.955.011-13.05s.05-9.7.067-13.051c0-1.658,0-3.005.006-3.955,0-.455.005-.815.007-1.075,0-.114,0-.206.007-.28a.048.048,0,1,1,.019,0c0,.074.007.166.012.279.007.261.017.62.029,1.075.022.934.041,2.285.054,3.955.029,3.34.021,7.955-.011,13.052s-.05,9.7-.067,13.049c0,1.658,0,3.005-.006,3.955,0,.455-.005.815-.007,1.075,0,.114,0,.206-.007.28a.358.358,0,0,1-.009.1" transform="translate(-61.592 -189.705)" fill="#263238"/>
        <g id="Group_19964" data-name="Group 19964" transform="translate(35.879 151.999)" opacity="0.3">
          <g id="Group_19963" data-name="Group 19963" transform="translate(0 0)">
            <g id="Group_19962" data-name="Group 19962" clip-path="url(#clip-path-39)">
              <path id="Path_48538" data-name="Path 48538" d="M97.788,414.835a11.5,11.5,0,0,0,4.718,2.769,19.445,19.445,0,0,0,6.157.814,15.9,15.9,0,0,0,5.378-.827,8.049,8.049,0,0,0,4.209-3.321,10.031,10.031,0,0,1-4.895,1.854,33.394,33.394,0,0,1-15.566-1.29" transform="translate(-97.788 -414.27)"/>
            </g>
          </g>
        </g>
        <path id="Path_48539" data-name="Path 48539" d="M295.217,248.156a1.558,1.558,0,0,0-1.162-.865,1.978,1.978,0,0,0-1.423.633,13.063,13.063,0,0,0-2.8,4.368l5.791-2.689a4.592,4.592,0,0,0-.405-1.447" transform="translate(-183.49 -156.555)" fill="#263238"/>
        <path id="Path_48540" data-name="Path 48540" d="M89.244,260.9s14.192,35.1,22.437,37.432c6.693,1.9,36.654-23.885,36.654-23.885l-7.349-8.314L115.87,278.816,105.9,254.385Z" transform="translate(-56.5 -161.049)" fill="#ffbe9d"/>
        <path id="Path_48541" data-name="Path 48541" d="M89.244,260.774s.092-.04.279-.115l.837-.334,3.26-1.291,12.262-4.833.054-.021.022.053,9.99,24.421-.115-.043,25.111-12.689.065-.033.048.055,7.35,8.313.065.073-.074.063-1.923,1.627c-4.558,3.811-9.094,7.43-13.579,10.789-2.244,1.677-4.476,3.289-6.706,4.8s-4.456,2.938-6.712,4.186a34.407,34.407,0,0,1-3.43,1.679,15.236,15.236,0,0,1-1.771.623,6.925,6.925,0,0,1-1.837.287,3.634,3.634,0,0,1-1.76-.516,8.9,8.9,0,0,1-1.473-1.037,20.376,20.376,0,0,1-2.418-2.531,52.366,52.366,0,0,1-3.809-5.425c-1.125-1.8-2.136-3.577-3.071-5.285-1.865-3.418-3.423-6.579-4.752-9.37s-2.419-5.223-3.294-7.216-1.53-3.551-1.968-4.61l-.492-1.207c-.109-.273-.159-.415-.159-.415s.062.137.177.407l.509,1.2c.449,1.054,1.117,2.607,2,4.6s1.987,4.412,3.322,7.2,2.9,5.941,4.774,9.352c.937,1.7,1.951,3.473,3.077,5.272a52.342,52.342,0,0,0,3.806,5.4,20.231,20.231,0,0,0,2.4,2.507,8.692,8.692,0,0,0,1.446,1.016,3.469,3.469,0,0,0,1.683.494,6.768,6.768,0,0,0,1.789-.283,15.067,15.067,0,0,0,1.751-.618,34.357,34.357,0,0,0,3.41-1.673,125.729,125.729,0,0,0,13.391-8.986c4.48-3.358,9.014-6.976,13.569-10.786l1.921-1.625-.009.136-7.348-8.315.113.022-25.12,12.67-.081.041-.034-.084-9.943-24.44.075.032L93.671,259.07l-3.283,1.269-.851.326c-.192.073-.294.109-.294.109" transform="translate(-56.5 -160.92)" fill="#eb996e"/>
        <path id="Path_48542" data-name="Path 48542" d="M78.3,209.976s-9.1,4.21-8.367,14.777a77.824,77.824,0,0,0,3.734,18.912l27.033-5.6s-3.864-13.1-5.852-18.583c-1.909-5.268-9.305-12.922-16.549-9.5" transform="translate(-44.251 -132.396)" fill="#007c7c"/>
        <path id="Path_48543" data-name="Path 48543" d="M78.194,209.923s.243-.12.724-.321a8.853,8.853,0,0,1,2.225-.52,9.226,9.226,0,0,1,3.616.391,13.6,13.6,0,0,1,4.289,2.3,19.247,19.247,0,0,1,4.061,4.371,15.587,15.587,0,0,1,1.592,2.962c.409,1.086.79,2.216,1.178,3.382,1.542,4.666,3.137,9.894,4.805,15.492l.029.1-.1.021-11.858,2.461L73.58,243.7l-.079.016-.025-.075a70.7,70.7,0,0,1-2.067-7.555c-.536-2.447-.94-4.807-1.224-7.049-.081-.559-.13-1.114-.192-1.659s-.11-1.082-.15-1.612a21.854,21.854,0,0,1-.1-3.079,14.632,14.632,0,0,1,3.666-9.033,16.572,16.572,0,0,1,2.424-2.262,15.294,15.294,0,0,1,1.726-1.147c.205-.116.364-.2.473-.251s.166-.074.166-.074l-.159.088c-.106.057-.262.144-.464.263a16.5,16.5,0,0,0-1.7,1.169,16.8,16.8,0,0,0-2.394,2.272,14.917,14.917,0,0,0-2.369,3.719,14.723,14.723,0,0,0-1.227,5.262,21.832,21.832,0,0,0,.112,3.06c.042.528.089,1.065.155,1.608s.113,1.1.2,1.655c.289,2.237.7,4.591,1.236,7.032a71.009,71.009,0,0,0,2.071,7.53l-.1-.059,15.174-3.15,11.859-2.456-.07.117c-1.663-5.6-3.25-10.828-4.78-15.494-.384-1.165-.763-2.3-1.166-3.378a15.5,15.5,0,0,0-1.569-2.938,19.178,19.178,0,0,0-4.017-4.356,13.558,13.558,0,0,0-4.243-2.306,9.223,9.223,0,0,0-3.582-.416,9.109,9.109,0,0,0-2.219.487c-.243.091-.424.171-.548.219s-.188.071-.188.071" transform="translate(-44.14 -132.342)" fill="#263238"/>
        <path id="Path_48544" data-name="Path 48544" d="M103.4,274.631a1.541,1.541,0,0,1-.271.073l-.784.174-2.883.629c-2.433.538-5.78,1.341-9.471,2.254s-7.048,1.7-9.49,2.2c-1.221.252-2.211.447-2.9.569l-.79.139a1.512,1.512,0,0,1-.278.036,1.557,1.557,0,0,1,.27-.073l.784-.174,2.883-.629c2.433-.538,5.78-1.341,9.472-2.255s7.046-1.7,9.488-2.2c1.221-.252,2.211-.448,2.9-.569l.791-.139a1.514,1.514,0,0,1,.278-.036" transform="translate(-48.457 -173.866)" fill="#263238"/>
        <rect id="Rectangle_6934" data-name="Rectangle 6934" width="1.915" height="0.782" transform="translate(121.184 102.34) rotate(-64.402)" fill="#455a64"/>
        <path id="Path_48545" data-name="Path 48545" d="M278.542,249.405l2.826,1.453-.015.287,16.147,8.413.952-1.795-16.289-8.423-.174.371-2.791-1.492Z" transform="translate(-176.343 -157.146)" fill="#e0e0e0"/>
        <path id="Path_48546" data-name="Path 48546" d="M327.081,272.222l-.949,1.753,1.5.779.482-1.018.47-.777Z" transform="translate(-206.471 -172.341)" fill="#455a64"/>
        <path id="Path_48547" data-name="Path 48547" d="M312.054,263.646a.839.839,0,0,1-.14.369,1.384,1.384,0,0,1-.207.333c-.023-.009.038-.178.14-.369a1.358,1.358,0,0,1,.207-.333" transform="translate(-197.336 -166.912)" fill="#263238"/>
        <path id="Path_48548" data-name="Path 48548" d="M307.81,261.58a.842.842,0,0,1-.139.369,1.374,1.374,0,0,1-.208.333c-.024-.009.038-.178.14-.369a1.356,1.356,0,0,1,.207-.333" transform="translate(-194.65 -165.604)" fill="#263238"/>
        <path id="Path_48549" data-name="Path 48549" d="M303.557,259.253a.843.843,0,0,1-.139.369,1.375,1.375,0,0,1-.208.333c-.023-.009.038-.178.14-.369a1.367,1.367,0,0,1,.207-.333" transform="translate(-191.957 -164.131)" fill="#263238"/>
        <path id="Path_48550" data-name="Path 48550" d="M298.835,256.767a.849.849,0,0,1-.139.369,1.384,1.384,0,0,1-.208.333c-.023-.009.038-.178.14-.369a1.331,1.331,0,0,1,.207-.333" transform="translate(-188.967 -162.557)" fill="#263238"/>
        <path id="Path_48551" data-name="Path 48551" d="M294.112,254.282a.843.843,0,0,1-.139.369,1.373,1.373,0,0,1-.208.333c-.023-.009.038-.178.14-.369a1.356,1.356,0,0,1,.207-.333" transform="translate(-185.977 -160.984)" fill="#263238"/>
        <path id="Path_48552" data-name="Path 48552" d="M315.83,265.733c.023.009-.03.16-.123.325a1.085,1.085,0,0,1-.19.288c-.023-.008.03-.159.123-.325a1.089,1.089,0,0,1,.19-.288" transform="translate(-199.748 -168.233)" fill="#263238"/>
        <path id="Path_48553" data-name="Path 48553" d="M319.424,267.476c.023.009-.03.16-.122.325a1.078,1.078,0,0,1-.19.288c-.023-.009.03-.159.122-.325a1.091,1.091,0,0,1,.19-.288" transform="translate(-202.024 -169.337)" fill="#263238"/>
        <path id="Path_48554" data-name="Path 48554" d="M323.018,269.219c.023.009-.03.16-.123.325a1.085,1.085,0,0,1-.19.288c-.023-.009.03-.16.123-.325a1.109,1.109,0,0,1,.19-.288" transform="translate(-204.299 -170.44)" fill="#263238"/>
        <path id="Path_48555" data-name="Path 48555" d="M326.612,270.962c.023.009-.03.16-.123.325a1.087,1.087,0,0,1-.19.288c-.023-.009.03-.16.122-.325a1.109,1.109,0,0,1,.19-.288" transform="translate(-206.574 -171.544)" fill="#263238"/>
        <path id="Path_48556" data-name="Path 48556" d="M286.167,253.315l.044.024a.559.559,0,0,0,.757-.226l.843-1.561a.558.558,0,0,0-.226-.756l-.044-.024a.558.558,0,0,0-.756.226l-.844,1.56a.558.558,0,0,0,.226.757" transform="translate(-180.985 -158.719)" fill="#e0e0e0"/>
        <path id="Path_48557" data-name="Path 48557" d="M286.073,253.153c0,.008-.116-.013-.235-.169a.587.587,0,0,1-.11-.334.864.864,0,0,1,.142-.436l.522-1.01.153-.291a.94.94,0,0,1,.214-.307.661.661,0,0,1,.778-.056.653.653,0,0,1,.325.715,1.364,1.364,0,0,1-.154.333l-.159.288-.558.99a.724.724,0,0,1-.31.343.584.584,0,0,1-.347.059.485.485,0,0,1-.205-.075c-.041-.027-.058-.045-.056-.051s.1.046.267.052a.552.552,0,0,0,.532-.392l.523-1.01.153-.291a1.262,1.262,0,0,0,.132-.287.468.468,0,0,0-.234-.507.473.473,0,0,0-.565.03.781.781,0,0,0-.174.252l-.159.288-.558.99a.789.789,0,0,0-.154.374.541.541,0,0,0,.066.292c.086.148.183.194.173.209" transform="translate(-180.891 -158.558)" fill="#263238"/>
        <path id="Path_48558" data-name="Path 48558" d="M278.542,249.331a.333.333,0,0,1,.034-.074l.116-.226.476-.9.014-.028.029.015,2.8,1.471-.077.025.172-.372.025-.055.054.028,16.275,8.371.084.043-.043.085-.106.211-.814,1.6-.043.086-.085-.045-16.126-8.454-.028-.015,0-.032c.007-.113.012-.2.017-.287l.026.045-2.1-1.109-.533-.287a1.546,1.546,0,0,1-.172-.1s.07.03.2.091l.553.272,2.1,1.048.027.014v.031c0,.086-.008.174-.013.287l-.027-.046,16.168,8.372-.128.041c.264-.521.537-1.06.813-1.6l.106-.211.042.128-16.24-8.437.079-.027-.176.371-.025.054-.051-.028-2.78-1.513.043-.013c-.214.372-.38.661-.5.867l-.133.226a.737.737,0,0,1-.049.078" transform="translate(-176.343 -157.071)" fill="#263238"/>
        <path id="Path_48559" data-name="Path 48559" d="M336.164,278.622a29.951,29.951,0,0,1-2.7-1.376c.01-.019.621.274,1.367.654s1.341.7,1.332.722" transform="translate(-211.115 -175.522)" fill="#263238"/>
        <path id="Path_48560" data-name="Path 48560" d="M332.542,276.883l1.544.2.215-.505-1.126-1.011Z" transform="translate(-210.53 -174.462)" fill="#455a64"/>
        <path id="Path_48561" data-name="Path 48561" d="M332.669,275.507a2.846,2.846,0,0,1-.177.522l-.011.029-.034,0c-.363-.034-.9-.094-1.548-.171l.079-.043-.12.259-.033.072-.074-.035-.709-.331-.079-.037.038-.08.821-1.73.041-.086.087.041.128.061.577.277.086.041-.041.085-.71,1.462-.155-.074.648-1.3.041-.081.065.06c.352.327.629.594.813.776a1.768,1.768,0,0,1,.268.285,2.552,2.552,0,0,1-.336-.257c-.2-.167-.49-.406-.835-.7l.105-.021-.615,1.317-.155-.075.695-1.47.044.127-.578-.276-.128-.062.127-.045-.834,1.724-.041-.117.7.345-.107.038.127-.256.025-.051.054.008c.65.1,1.18.177,1.539.238l-.044.025a3.727,3.727,0,0,1,.255-.489" transform="translate(-208.898 -173.386)" fill="#263238"/>
        <path id="Path_48562" data-name="Path 48562" d="M339.572,276.663a.677.677,0,0,1,.021.162,4.089,4.089,0,0,1,0,.444,4.623,4.623,0,0,1-.316,1.429,4.575,4.575,0,0,1-.531.979l-.052-.038.216-.277.043.033-.29.334a.082.082,0,1,1-.023-.019l.271-.349.043.033-.208.284-.052-.038a4.954,4.954,0,0,0,.513-.969,5.115,5.115,0,0,0,.333-1.405c.032-.37.018-.6.031-.6" transform="translate(-214.333 -175.153)" fill="#eb996e"/>
        <path id="Path_48563" data-name="Path 48563" d="M248.447,239.373a1.183,1.183,0,0,1,1.439,1.023c.168,1.264-2.169,2.036-2.169,2.036-1.739.718-4.212,1.462-4.212,1.462l-1.723,1.868,5.966,1.147,2.966-1.1s1.55-3.5,3.554-3.745l1.7.231-2.331,6.115a5.709,5.709,0,0,1-.549,4.053,4.442,4.442,0,0,1-.964,3.058c-1.19,1.642-6.25,4.587-7.811,4.8s-5.92.854-6.537,1.893-4.76,4.76-4.76,4.76L223.03,255.8l6.515-4.237,4.141-6.032c2.591-2.443,7.238-5.032,7.559-5.355Z" transform="translate(-141.199 -151.534)" fill="#455a64"/>
        <path id="Path_48564" data-name="Path 48564" d="M246.557,288.267c-.051.014-.613-1.829-1.256-4.117s-1.122-4.155-1.072-4.17.613,1.829,1.256,4.118,1.122,4.155,1.072,4.169" transform="translate(-154.618 -177.253)" fill="#263238"/>
        <path id="Path_48565" data-name="Path 48565" d="M251.518,291.342a18.871,18.871,0,0,1-1.233-3.59,18.9,18.9,0,0,1,1.233,3.59" transform="translate(-158.449 -182.174)" fill="#263238"/>
        <path id="Path_48566" data-name="Path 48566" d="M292.7,264.028a1.244,1.244,0,0,1-.193.3,7.538,7.538,0,0,1-.619.738,6.228,6.228,0,0,1-2.707,1.642,14.663,14.663,0,0,1-3.142.442,9.4,9.4,0,0,1-1.31.039,1.265,1.265,0,0,1,.347-.066c.225-.031.55-.066.952-.107a17.864,17.864,0,0,0,3.1-.491,6.579,6.579,0,0,0,2.667-1.555c.575-.56.877-.962.907-.938" transform="translate(-180.257 -167.154)" fill="#263238"/>
        <path id="Path_48567" data-name="Path 48567" d="M294.389,275.448a3.72,3.72,0,0,1-.711.667,11.807,11.807,0,0,1-4.168,2.136,3.721,3.721,0,0,1-.956.188,7.267,7.267,0,0,1,.917-.317,15.305,15.305,0,0,0,4.126-2.114,7.189,7.189,0,0,1,.793-.559" transform="translate(-182.681 -174.383)" fill="#263238"/>
        <path id="Path_48568" data-name="Path 48568" d="M156.4,329.679a1.273,1.273,0,0,1-.031-.354c-.01-.229,0-.559.017-.967a16.443,16.443,0,0,1,1.585-6.151c.178-.368.334-.659.452-.855a1.266,1.266,0,0,1,.2-.295c.027.015-.205.462-.528,1.206a19.87,19.87,0,0,0-1.573,6.105c-.077.808-.09,1.311-.121,1.311" transform="translate(-98.994 -203.258)" fill="#eb996e"/>
        <path id="Path_48569" data-name="Path 48569" d="M295.949,302.338q6.153-.931,12.2-2.436a3.608,3.608,0,0,1-1.664,3.924,9.9,9.9,0,0,1-4.36,1.272,8.006,8.006,0,0,1-6.732,6.456" transform="translate(-187.012 -189.866)" fill="#455a64"/>
        <path id="Path_48570" data-name="Path 48570" d="M295.395,311.363a8.715,8.715,0,0,0,2.611-.909,8.13,8.13,0,0,0,2.383-1.992,7.659,7.659,0,0,0,1.65-3.569l.011-.065.065-.008a15.551,15.551,0,0,0,2.736-.527,5.119,5.119,0,0,0,2.472-1.541,3.2,3.2,0,0,0,.739-3.011l.111.061c-3.457.856-6.515,1.452-8.706,1.825-1.1.188-1.974.322-2.579.407l-.695.092a1.3,1.3,0,0,1-.243.021,1.348,1.348,0,0,1,.237-.054l.69-.124,2.568-.462c2.183-.405,5.232-1.024,8.682-1.888l.084-.021.027.081a2.926,2.926,0,0,1,.037,1.67,4.015,4.015,0,0,1-.805,1.524,5.283,5.283,0,0,1-2.562,1.6,15.45,15.45,0,0,1-2.771.524l.077-.073a7.755,7.755,0,0,1-1.71,3.636,8.107,8.107,0,0,1-2.447,1.992,7.421,7.421,0,0,1-1.934.711c-.233.054-.419.066-.541.087a.894.894,0,0,1-.188.017" transform="translate(-187.012 -189.673)" fill="#263238"/>
      </g>
    </g>
  </g>
</svg>
