<svg xmlns="http://www.w3.org/2000/svg" xmlns:xlink="http://www.w3.org/1999/xlink" width="614.078" height="319.842" viewBox="0 0 614.078 319.842">
  <defs>
    <clipPath id="clip-path">
      <rect id="Rectangle_7075" data-name="Rectangle 7075" width="44.009" height="35.284" fill="none"/>
    </clipPath>
    <clipPath id="clip-path-2">
      <rect id="Rectangle_7076" data-name="Rectangle 7076" width="18.038" height="12.147" fill="none"/>
    </clipPath>
    <clipPath id="clip-path-3">
      <rect id="Rectangle_7077" data-name="Rectangle 7077" width="12.185" height="4.549" fill="none"/>
    </clipPath>
    <clipPath id="clip-path-4">
      <rect id="Rectangle_7078" data-name="Rectangle 7078" width="35.788" height="40.296" fill="none"/>
    </clipPath>
    <clipPath id="clip-path-5">
      <rect id="Rectangle_7079" data-name="Rectangle 7079" width="5.933" height="12.72" fill="none"/>
    </clipPath>
    <clipPath id="clip-path-6">
      <rect id="Rectangle_7080" data-name="Rectangle 7080" width="3.021" height="6.604" fill="none"/>
    </clipPath>
    <clipPath id="clip-path-7">
      <rect id="Rectangle_7081" data-name="Rectangle 7081" width="0.786" height="4.184" fill="none"/>
    </clipPath>
    <clipPath id="clip-path-8">
      <rect id="Rectangle_7085" data-name="Rectangle 7085" width="15.591" height="20.335" fill="none"/>
    </clipPath>
    <clipPath id="clip-path-9">
      <rect id="Rectangle_7086" data-name="Rectangle 7086" width="39.325" height="24.073" fill="none"/>
    </clipPath>
  </defs>
  <g id="Group_54513" data-name="Group 54513" transform="translate(-78 -1013.567)">
    <path id="Path_65765" data-name="Path 65765" d="M708.236,467.457S587.379,381.3,655.446,264.84C688.1,208.967,775.07,195.855,801.434,207.29c34.759,15.076,80.856-25.652,180.517-53.617,74.9-21.018,244.441,21.837,189.228,153.651-33.494,79.957,95.431,58.923,75.436,161.11Z" transform="translate(-556.655 864.974)" fill="rgba(88,133,122,0.1)"/>
    <g id="Group_54373" data-name="Group 54373" transform="translate(162.215 1284.702)" opacity="0.08">
      <g id="Group_54385" data-name="Group 54385" transform="translate(0 0)">
        <path id="Path_65671" data-name="Path 65671" d="M259.245,429.361c-106.222,0-193.134,4.994-197.177,17.718s70.151,22.433,197.177,22.433,219.362-8.759,218.469-22.433S348.1,429.361,259.245,429.361" transform="translate(-61.912 -429.361)" fill="#47acac"/>
      </g>
    </g>
    <g id="Group_54378" data-name="Group 54378" transform="translate(177.993 1081.991)">
      <path id="Path_65568" data-name="Path 65568" d="M289.139,318.317h50.787c5.356,0,9.7,3.679,9.7,8.218v6.232H279.44v-6.232c0-4.539,4.342-8.218,9.7-8.218" transform="translate(-173.295 -170.148)" fill="#655c51"/>
      <path id="Path_65569" data-name="Path 65569" d="M317.988,205.139c28.307,0,30.089,14.649,27.515,31.276s-11.877,22.962-18.212,22.962H308.684c-6.335,0-15.638-6.335-18.211-22.962s-.792-31.276,27.515-31.276" transform="translate(-177.567 -122.69)" fill="#564b44"/>
      <path id="Path_65570" data-name="Path 65570" d="M381.39,406.593h4.072l-5.09-66.46h-5.6Z" transform="translate(-213.27 -179.296)" fill="#6e6659"/>
      <path id="Path_65571" data-name="Path 65571" d="M287.825,406.593h-4.072l5.09-66.46h5.6Z" transform="translate(-175.103 -179.296)" fill="#6e6659"/>
      <rect id="Rectangle_7073" data-name="Rectangle 7073" width="3.167" height="18.607" transform="translate(150.863 131.937)" fill="#dbd4f5"/>
      <rect id="Rectangle_7074" data-name="Rectangle 7074" width="3.167" height="18.607" transform="translate(126.812 131.937)" fill="#dbd4f5"/>
      <path id="Path_65572" data-name="Path 65572" d="M357.369,310.13c-3.435,1.444-9.877,2.807-13.836,3.566-1.936.367-3.274.6-3.386.616h-.006l-15.423-5.832-13.544,5.925h-.006l-2.421-.274-2.875-.323.037-.909.461-10.948.361-8.49.081-1.948s17.589-1.8,34.288-2.714a16.976,16.976,0,0,0,4.681,4.357c.746.466,1.5.921,2.247,1.394a36.918,36.918,0,0,1,4.046,5.67c2.489,3.977,5.147,8.732,5.3,9.909" transform="translate(-184.378 -157.771)" fill="#375c78"/>
      <path id="Path_65573" data-name="Path 65573" d="M378.627,242.325l-5.645-22.281,3.052-9.951,8.677,5.379a187.43,187.43,0,0,1,5.314,26.921c0,3.223-2.087,19.062-10.251,42.39l-4.735-6.024Z" transform="translate(-212.519 -124.767)" fill="#e5b7ac"/>
      <path id="Path_65574" data-name="Path 65574" d="M364.971,290.769c2.477,1.593,17.081,6.138,15.527,23.419l-21.717-.786,4.23-16.5Z" transform="translate(-206.564 -158.597)" fill="#375c78"/>
      <path id="Path_65575" data-name="Path 65575" d="M377.936,201.641l10.843,20.437L373.317,228.1,368.6,216.719s2.479-18.82,9.341-15.078" transform="translate(-210.68 -121.017)" fill="#c34420"/>
      <path id="Path_65576" data-name="Path 65576" d="M339.1,241l.186,3.28c-5.433,5.278-21.69,6.672-21.69,6.672s-16.886-1-22.319-6.28c0,0,1.07-19.076,1.587-29v-.013c.186-3.417.3-5.751.28-5.844l-.709-1.661-1.189-3.168-5.1-13.556s13.724-12.965,27.454-14.627c13.724,1.662,27.441,14.627,27.441,14.627l-7.68,18.385h-.006Z" transform="translate(-177.78 -110.807)" fill="#d25a30"/>
      <g id="Group_54342" data-name="Group 54342" transform="translate(117.492 104.864)" style="mix-blend-mode: multiply;isolation: isolate">
        <g id="Group_54341" data-name="Group 54341" transform="translate(0 0)">
          <g id="Group_54340" data-name="Group 54340" clip-path="url(#clip-path)">
            <path id="Path_65577" data-name="Path 65577" d="M342.99,272.352c-5.434,5.278-21.691,6.672-21.691,6.672s-16.886-1-22.32-6.28c0,0,1.071-19.076,1.588-29,.336,2.981,4.206,27.1,42.235,25.331Z" transform="translate(-298.98 -243.74)" fill="#e5e5e6"/>
          </g>
        </g>
      </g>
      <path id="Path_65578" data-name="Path 65578" d="M335.236,234.25l-7.686-4.041-7.685,4.041,1.467-8.558-6.217-6.06,8.592-1.249,3.843-7.786,3.842,7.786,8.593,1.249-6.218,6.06Zm-16.109-13.315,4.211,4.105-.994,5.8,5.206-2.736,5.206,2.736-.995-5.8,4.211-4.105-5.82-.845-2.6-5.274-2.6,5.274Z" transform="translate(-188.254 -124.979)" fill="#c34420"/>
      <path id="Path_65579" data-name="Path 65579" d="M295.935,291.527c-2.477,1.593-14.9,5.1-12.341,22.979l21.748-.786Z" transform="translate(-174.892 -158.914)" fill="#375c78"/>
      <path id="Path_65580" data-name="Path 65580" d="M320.5,174.221a11.339,11.339,0,0,0,10.1,7.3c7.731.293,10.58-6.746,10.58-6.746l-.7-3.42-1.413-6.936-7.859.942-7.765-1.535-.575,2.034Z" transform="translate(-190.513 -105.365)" fill="#e5b7ac"/>
      <g id="Group_54345" data-name="Group 54345" transform="translate(131.479 58.459)" opacity="0.5">
        <g id="Group_54344" data-name="Group 54344" transform="translate(0 0)">
          <g id="Group_54343" data-name="Group 54343" clip-path="url(#clip-path-2)">
            <path id="Path_65581" data-name="Path 65581" d="M323.068,172.589c.53,1.541,3.528,8.446,18.038-3.509l-.949-4.664-7.859.942-7.766-1.535Z" transform="translate(-323.068 -163.824)" fill="#ca7e86"/>
          </g>
        </g>
      </g>
      <path id="Path_65582" data-name="Path 65582" d="M267.018,239.493c1.73-14.584,13.591-37.252,13.591-37.252l2.921,4.56,5.108,9.95S281.9,229.4,277.522,236.927c5.433,5.729,20.986,19.584,20.986,19.584l-2.068,5.113c-17.394-9.77-27.608-18.009-28.14-18.642a3.18,3.18,0,0,1-1.283-3.489" transform="translate(-168.058 -121.475)" fill="#e5b7ac"/>
      <path id="Path_65583" data-name="Path 65583" d="M288.959,201.652l-1.668,3.144,8.654,15.236,3.074-2.583s-3.2-19.538-10.06-15.8" transform="translate(-176.587 -121.028)" fill="#d25a30"/>
      <g id="Group_54348" data-name="Group 54348" transform="translate(163.287 102.288)" opacity="0.6">
        <g id="Group_54347" data-name="Group 54347" transform="translate(0 0)">
          <g id="Group_54346" data-name="Group 54346" clip-path="url(#clip-path-3)">
            <path id="Path_65584" data-name="Path 65584" d="M377.844,243.853l11.675-4.549.51,2.324Z" transform="translate(-377.844 -239.304)" fill="#ca7e86"/>
          </g>
        </g>
      </g>
      <path id="Path_65585" data-name="Path 65585" d="M312.6,427.838s1.351,6.37,1.6,7.432,1.472,9.423,0,10.617-11.956,1.194-12.487,0,3.09-11.694,3.45-13.005a7.686,7.686,0,0,0-.132-3.053c0-.531,7.564-1.991,7.564-1.991" transform="translate(-182.614 -216.073)" fill="#e5b7ac"/>
      <path id="Path_65586" data-name="Path 65586" d="M306.563,380.763c-4.45-2.3-11.166.261-11.166.261s-12.878-43.219-11.9-61.169a19.266,19.266,0,0,1,.628-4.232c2.509-8.795,8.72-9.1,12.84-5.652a11.072,11.072,0,0,1,3.716,6.249,19.589,19.589,0,0,1,.486,2.172c.124.678.243,1.469.373,2.347.075.529.149,1.1.224,1.686.909,7,1.892,18.268,2.732,29.048,1.176,15.13,2.067,29.29,2.067,29.29" transform="translate(-174.974 -165.791)" fill="#375c78"/>
      <g id="Group_54351" data-name="Group 54351" transform="translate(123.946 145.386)" style="mix-blend-mode: multiply;isolation: isolate">
        <g id="Group_54350" data-name="Group 54350" transform="translate(0 0)">
          <g id="Group_54349" data-name="Group 54349" clip-path="url(#clip-path-4)">
            <path id="Path_65587" data-name="Path 65587" d="M345.883,321.244l-.578,2.819-6.131,29.757c.84-10.83,1.83-22.151,2.744-29.141h-.006l-15.423-5.832-13.543,5.925h-.006c.909,7,1.892,18.267,2.732,29.048L310.518,324.5l-.23-1.326-.193-1.1,2.247-1.338,2.651-1.581,11.183-5.635,16.47,6.45Z" transform="translate(-310.095 -313.525)" fill="#e5e5e6"/>
          </g>
        </g>
      </g>
      <path id="Path_65588" data-name="Path 65588" d="M357.7,427.838s-1.351,6.37-1.6,7.432-1.471,9.423,0,10.617,11.956,1.194,12.487,0-3.09-11.694-3.45-13.005a7.686,7.686,0,0,1,.132-3.053c0-.531-7.565-1.991-7.565-1.991" transform="translate(-205.138 -216.073)" fill="#e5b7ac"/>
      <path id="Path_65589" data-name="Path 65589" d="M316.8,447.894c0,.055,0,.11,0,.165a9.091,9.091,0,0,1-.082,1.721c-6.134,4.51-17.723-.563-17.723-.563s.026-.232.052-.582c.057-.619.149-1.589.212-2.245v-.019c.088-1.016,3.91-7.737,3.91-7.737a3.583,3.583,0,0,1,.907-1.153l.033-.04a6.523,6.523,0,0,1,4.231-1.882,6.934,6.934,0,0,1,4.364,2.6,7.879,7.879,0,0,1,.685.941c2.428,3.362,3.407,8.795,3.407,8.795" transform="translate(-181.497 -219.31)" fill="#272425"/>
      <path id="Path_65590" data-name="Path 65590" d="M316.844,453.39a9.087,9.087,0,0,1-.083,1.721c-2.113,1.024-5.932.1-9.535.317a21.076,21.076,0,0,1-8.137-1.462c.057-.618.149-1.589.213-2.245a10.74,10.74,0,0,1,9.1-3.4,10.922,10.922,0,0,1,8.444,5.066" transform="translate(-181.535 -224.641)" fill="#434244"/>
      <path id="Path_65591" data-name="Path 65591" d="M316.889,457.925c-9.145,4.751-17.876-.888-17.876-.888s.163-1.82.255-2.848a21.339,21.339,0,0,0,17.431,1.56.586.586,0,0,1,.113-.035Z" transform="translate(-181.503 -227.122)" fill="#fff"/>
      <path id="Path_65592" data-name="Path 65592" d="M305.968,439.17s.339-2.913.738-3.226,1.685.875,2.341,1,3.8.5,4.283.188,1.883-1.65,2.2-1.575.718,3.156.661,3.656-5.913.732-5.913.732Z" transform="translate(-184.419 -219.308)" fill="#272425"/>
      <path id="Path_65593" data-name="Path 65593" d="M350.137,447.894c0,.055,0,.11,0,.165a9.091,9.091,0,0,0,.082,1.721c6.134,4.51,17.723-.563,17.723-.563s-.026-.232-.052-.582c-.057-.619-.149-1.589-.212-2.245v-.019c-.087-1.016-3.91-7.737-3.91-7.737a3.585,3.585,0,0,0-.907-1.153l-.033-.04a6.523,6.523,0,0,0-4.231-1.882,6.936,6.936,0,0,0-4.365,2.6,7.882,7.882,0,0,0-.685.941c-2.428,3.362-3.407,8.795-3.407,8.795" transform="translate(-202.935 -219.31)" fill="#272425"/>
      <path id="Path_65594" data-name="Path 65594" d="M350.132,453.39a9.085,9.085,0,0,0,.082,1.721c2.113,1.024,5.932.1,9.535.317a21.076,21.076,0,0,0,8.137-1.462c-.057-.618-.149-1.589-.213-2.245a10.74,10.74,0,0,0-9.1-3.4,10.922,10.922,0,0,0-8.444,5.066" transform="translate(-202.935 -224.641)" fill="#434244"/>
      <path id="Path_65595" data-name="Path 65595" d="M350,457.925c9.145,4.751,17.876-.888,17.876-.888s-.163-1.82-.255-2.848a21.338,21.338,0,0,1-17.431,1.56.588.588,0,0,0-.113-.035Z" transform="translate(-202.884 -227.122)" fill="#fff"/>
      <path id="Path_65596" data-name="Path 65596" d="M366.451,439.17s-.339-2.913-.738-3.226-1.684.875-2.341,1-3.8.5-4.283.188-1.883-1.65-2.2-1.575-.718,3.156-.66,3.656,5.912.732,5.912.732Z" transform="translate(-205.493 -219.308)" fill="#272425"/>
      <path id="Path_65597" data-name="Path 65597" d="M367.779,381.023s-6.716-2.558-11.166-.261c0,0,.89-14.16,2.067-29.29.84-10.83,1.83-22.151,2.744-29.141.25-1.935.492-3.535.728-4.705.119-.579.23-1.052.343-1.406,1.12-5.49,6.367-9.48,10.855-7.98,2.334.785,4.469,3.05,5.7,7.382,4.064,13.941-11.272,65.4-11.272,65.4" transform="translate(-205.655 -165.789)" fill="#375c78"/>
      <path id="Path_65598" data-name="Path 65598" d="M297.905,219.134S296.42,203.4,291.966,199.8l.91-.767s6.29,3.918,5.029,20.1" transform="translate(-178.548 -120.129)" fill="#c64d2a"/>
      <path id="Path_65599" data-name="Path 65599" d="M284.962,207.035c.095.814,9.934,12.529,9.934,12.529a20.641,20.641,0,0,0,.037-3.415,33.283,33.283,0,0,0-3.3-12.916c-1.1-1.532-1.882-2.97-3.266-3.165-.546-.077-.92.356-1.17.915a7.231,7.231,0,0,0-.511,2.025l-.012-.006a4.588,4.588,0,0,0-1.388.677c-.79.493-.416,2.538-.321,3.357" transform="translate(-175.538 -120.559)" fill="#c34420"/>
      <g id="Group_54354" data-name="Group 54354" transform="translate(111.145 80.423)" style="mix-blend-mode: multiply;isolation: isolate">
        <g id="Group_54353" data-name="Group 54353" transform="translate(0 0)">
          <g id="Group_54352" data-name="Group 54352" clip-path="url(#clip-path-5)">
            <path id="Path_65600" data-name="Path 65600" d="M288.05,203.674a51.6,51.6,0,0,1,5.933,10.695c-.125-.481-2.15-8.236-5.422-12.72a7.212,7.212,0,0,0-.511,2.025" transform="translate(-288.05 -201.649)" fill="#e5e5e6"/>
          </g>
        </g>
      </g>
      <path id="Path_65601" data-name="Path 65601" d="M317.879,120.911l-2.06-.891s-4.093,1.564-4.55,10.062c-.016,8.77,1.917,11.081,1.917,11.081,1.27-.023.435-.1.549-.168,0,0-.346-9.016,1.434-12.652a41.766,41.766,0,0,0,2.709-7.431" transform="translate(-186.641 -86.997)" fill="#564b44"/>
      <path id="Path_65602" data-name="Path 65602" d="M324.767,122.922v-.007s9.252-2.326,14.146,8.809c0,0,2.911,7.2-.086,14.19,0,0-6.476,9.251-14.06,11.868-5.321,1.639-9.608-7.926-10.816-17.469-.747-8.793,4.755-16.608,10.815-17.391" transform="translate(-187.737 -88.127)" fill="#e5b7ac"/>
      <path id="Path_65603" data-name="Path 65603" d="M355.724,153.083V157.4c3.65,1.313,6.644-2.286,7.189-5.227.272-1.484-.077-2.8-1.271-3.249-2.524-.938-4.426,1.518-5.33,3.044a10.3,10.3,0,0,0-.588,1.117" transform="translate(-205.282 -99.029)" fill="#e5b7ac"/>
      <path id="Path_65604" data-name="Path 65604" d="M361.026,153.422a5.14,5.14,0,0,0-4.076,2.358.213.213,0,0,0,.068.293.207.207,0,0,0,.113.033.212.212,0,0,0,.181-.1,5.551,5.551,0,0,1,1.527-1.5c.88.575.429,2.063.423,2.078a.214.214,0,0,0,.138.268.214.214,0,0,0,.268-.138c.023-.073.5-1.639-.429-2.438a3.734,3.734,0,0,1,1.714-.429h.066a.21.21,0,0,0,.217-.209.214.214,0,0,0-.21-.217" transform="translate(-205.783 -101.003)" fill="#ca7e86"/>
      <path id="Path_65605" data-name="Path 65605" d="M342.556,159.044c.029.2.555.3,1.174.21s1.1-.325,1.068-.529-.555-.3-1.173-.21-1.1.325-1.069.529" transform="translate(-199.76 -103.125)" fill="#ca7e86"/>
      <path id="Path_65606" data-name="Path 65606" d="M342.372,161.383c.029-.2.555-.3,1.174-.21s1.1.325,1.068.529-.555.3-1.173.21-1.1-.325-1.069-.529" transform="translate(-199.683 -104.24)" fill="#ca7e86"/>
      <path id="Path_65607" data-name="Path 65607" d="M314.959,161.383c-.029-.2-.555-.3-1.174-.21s-1.1.325-1.068.529.554.3,1.173.21,1.1-.325,1.069-.529" transform="translate(-187.248 -104.24)" fill="#ca7e86"/>
      <path id="Path_65608" data-name="Path 65608" d="M315.142,159.044c-.029.2-.555.3-1.174.21s-1.1-.325-1.068-.529.555-.3,1.174-.21,1.1.325,1.069.529" transform="translate(-187.325 -103.125)" fill="#ca7e86"/>
      <path id="Path_65609" data-name="Path 65609" d="M336.094,152.757c0,1.46.342,2.644.764,2.644s.764-1.184.764-2.644-.342-2.644-.764-2.644-.764,1.184-.764,2.644" transform="translate(-197.051 -99.616)" fill="#434244"/>
      <path id="Path_65610" data-name="Path 65610" d="M320.25,153.464c0,1.447.3,2.62.678,2.62s.679-1.173.679-2.62-.3-2.62-.679-2.62-.678,1.173-.678,2.62" transform="translate(-190.407 -99.923)" fill="#434244"/>
      <path id="Path_65611" data-name="Path 65611" d="M326.919,159.052c-.026,0-.052,0-.078,0-.321-.028-1.075-.3-1.154-2.228a16.428,16.428,0,0,1,.4-4.969.213.213,0,1,1,.408.123,16.385,16.385,0,0,0-.384,4.829c.053,1.3.43,1.791.766,1.821.49.049,1.232-.791,1.544-2.216a.215.215,0,0,1,.254-.163.213.213,0,0,1,.162.254c-.329,1.5-1.128,2.552-1.92,2.552" transform="translate(-192.678 -100.281)" fill="#ca7e86"/>
      <path id="Path_65612" data-name="Path 65612" d="M315.374,148.094c.237,0,.947-1.513,1.929-1.986a2.815,2.815,0,0,1,2.21.008.568.568,0,1,0,.381-1.07,3.9,3.9,0,0,0-3.1.045c-1.423.692-1.484,3-1.424,3" transform="translate(-188.357 -97.367)" fill="#564b44"/>
      <path id="Path_65613" data-name="Path 65613" d="M340.407,148.148c.335-.113-.2-2.57-1.806-3.348a4.386,4.386,0,0,0-3.485-.05.639.639,0,1,0,.429,1.2,3.166,3.166,0,0,1,2.5,0,10.924,10.924,0,0,1,2.365,2.2" transform="translate(-196.463 -97.227)" fill="#564b44"/>
      <path id="Path_65614" data-name="Path 65614" d="M324.765,130.646l-2.155-3.577s6.884,3.754,13.832,1.964c0,0-1.884,7.894.451,12.275,0,0,.872-5.8,2.342-7.177a5.7,5.7,0,0,1,2.542-1.568s4.925-8.73-1.267-16.823-19.214-6.2-24.922-1.446c-8.646.931.243,14.113,9.178,16.351" transform="translate(-186.975 -82.879)" fill="#564b44"/>
      <path id="Path_65615" data-name="Path 65615" d="M330.792,166.15s-4.191,3.609-7.534.634" transform="translate(-191.669 -106.341)" fill="none" stroke="#ca7e86" stroke-linecap="round" stroke-linejoin="round" stroke-width="0.5"/>
      <path id="Path_65616" data-name="Path 65616" d="M327.5,301.445c.209-.765-1.167-5.612-1.929-5.869a53.841,53.841,0,0,0-5.228-1.98,33.456,33.456,0,0,0-4.8-.714c-.635-.61-2.735-2.158-4-3.44-1.553,1.857-2.34,3.535-3.862,5.42,1.3.858,4.276,2.921,4.357,3.06,2.191,3.755,6.469,3.35,6.684,3.607s.336,3.85,1.5,4.107c.566.049,1.03-.908,1.03-.908.327,1.691.826,1.973,1.274,1.74s.51-1.49.51-1.49c.078,1.29,1.508,2.056,1.988,1.456s-.067-6.053-.507-6.733a30.967,30.967,0,0,0-3.046-2.911l2.688.937s.875,2.676,1.856,4.952c.916,1.268,1.467.235,1.491-1.234" transform="translate(-185.136 -158.04)" fill="#e5b7ac"/>
      <g id="Group_54357" data-name="Group 54357" transform="translate(134.986 140.146)" opacity="0.6">
        <g id="Group_54356" data-name="Group 54356" transform="translate(0 0)">
          <g id="Group_54355" data-name="Group 54355" clip-path="url(#clip-path-6)">
            <path id="Path_65617" data-name="Path 65617" d="M332.126,311.105a18.714,18.714,0,0,0-.077-1.96,17.366,17.366,0,0,0-.267-1.947,7.7,7.7,0,0,0-.258-.967l-.108-.243a1.164,1.164,0,0,0-.177-.239,3.325,3.325,0,0,0-.4-.31,10.538,10.538,0,0,0-1.729-.939c.526.39,1.064.759,1.561,1.164.12.1.242.207.348.315a1.076,1.076,0,0,1,.181.366,8.36,8.36,0,0,1,.226.924c.255,1.264.433,2.553.7,3.834" transform="translate(-329.108 -304.501)" fill="#ca7e86"/>
          </g>
        </g>
      </g>
      <g id="Group_54360" data-name="Group 54360" transform="translate(135.263 142.356)" opacity="0.6">
        <g id="Group_54359" data-name="Group 54359" transform="translate(0 0)">
          <g id="Group_54358" data-name="Group 54358" clip-path="url(#clip-path-7)">
            <path id="Path_65618" data-name="Path 65618" d="M330.35,312.491a9.73,9.73,0,0,0-.109-2.142,9.13,9.13,0,0,0-.222-1.05,2.6,2.6,0,0,0-.433-.992,6.439,6.439,0,0,1,.158,1.046c.034.352.088.7.138,1.052a13.733,13.733,0,0,0,.469,2.086" transform="translate(-329.585 -308.306)" fill="#ca7e86"/>
          </g>
        </g>
      </g>
      <path id="Path_65619" data-name="Path 65619" d="M342.871,165.224c-2.572,0-4.13-.745-4.633-2.219-.7-2.053,1.028-4.784,1.7-5.276,1.078-.781,9.737-5.9,10.081-6.1l-.586.911c-.085.049-8.161,4.8-9.221,5.571-.542.393-2.169,2.9-1.537,4.748.451,1.32,1.823,2.129,4.359,2.071l5.465-6.2.69.141-5.793,6.352-.1,0q-.22.007-.431.007" transform="translate(-197.881 -100.25)" fill="#fff"/>
      <path id="Path_65620" data-name="Path 65620" d="M331.115,160.311s-7.817-2.306-9.5-2.16-6.523,2.8-6.523,2.8,1.851,8.445,6.11,11.339c4.557,2.867,12.665-4.439,12.665-4.439a8.081,8.081,0,0,1-2.705-3c-.568-1.564-.05-4.547-.05-4.547" transform="translate(-188.246 -102.984)" fill="#fff"/>
      <path id="Path_65621" data-name="Path 65621" d="M241.233,205.612s4.692.123,5.284-.316,3.638-3.354,4.474-3.5,4.976-.953,5.37-.956.887,1.366-.237,2.15a7.43,7.43,0,0,1-2.676,1.028c-.221.072-.933.693-.841.884a14.585,14.585,0,0,0,3.954.073c.836-.147,5.043-1.518,5.772-1.17s.155,1.885-1.6,2.432-2.858.908-2.858.908a19.213,19.213,0,0,1-.919,3.921c-.441.668-2.8,1.471-4.851,1.819a8.052,8.052,0,0,1-5.141-.851l-5.13.591Z" transform="translate(-157.274 -120.887)" fill="#97b6f7"/>
      <path id="Path_65622" data-name="Path 65622" d="M259.055,213.764a7.96,7.96,0,0,0-1.126-.516,9.979,9.979,0,0,0-1.2-.343,7.453,7.453,0,0,0-1.239-.171,7.331,7.331,0,0,0-1.256.042l.1.264a10.766,10.766,0,0,0,.989-.8,10.184,10.184,0,0,0,.882-.909,9.246,9.246,0,0,0,.75-1.019,6.185,6.185,0,0,0,.54-1.138,7.727,7.727,0,0,1-.659,1.058,9.3,9.3,0,0,1-.8.949c-.29.294-.584.585-.9.854a11.519,11.519,0,0,1-.968.765l-.47.328.571-.064a7.464,7.464,0,0,1,1.206-.056,9.421,9.421,0,0,1,1.209.115,10.442,10.442,0,0,1,1.194.259,10.813,10.813,0,0,1,1.169.382" transform="translate(-162.504 -124.382)" fill="#678ed8"/>
      <path id="Path_65623" data-name="Path 65623" d="M269.387,208.418l1.366-1.315,5.363,5.671a3.318,3.318,0,0,1-.557.741,2.109,2.109,0,0,1-.71.474Z" transform="translate(-169.079 -123.513)" fill="#dbd4f5"/>
      <path id="Path_65624" data-name="Path 65624" d="M274.495,212.381l.717-.623,2.862,2.916a1.935,1.935,0,0,1-1.459,1.432l-2.924-2.979Z" transform="translate(-170.884 -125.465)" fill="#df922f"/>
      <path id="Path_65625" data-name="Path 65625" d="M270.444,206.341l-1.819,1.751,5.817,5.933a2.336,2.336,0,0,0,1.016-.607,3.606,3.606,0,0,0,.716-1.017Zm4.8,6.854a2.111,2.111,0,0,1-.711.474l-5.461-5.572,1.366-1.315,5.364,5.672a3.368,3.368,0,0,1-.557.74" transform="translate(-168.76 -123.194)" fill="#fff"/>
      <path id="Path_65626" data-name="Path 65626" d="M268.427,205.587a.841.841,0,0,1-.489.535l-2.146-2.189.555-.534Z" transform="translate(-167.572 -121.961)" fill="#fff"/>
      <path id="Path_65627" data-name="Path 65627" d="M280.255,217.579l.728.778a1.432,1.432,0,0,1-.81.75l-.714-.728q.407-.391.8-.8" transform="translate(-173.303 -127.906)" fill="#fff"/>
      <rect id="Rectangle_7082" data-name="Rectangle 7082" width="3.841" height="0.781" transform="translate(98.898 84.806) rotate(-44.075)" fill="#fff"/>
      <rect id="Rectangle_7083" data-name="Rectangle 7083" width="2.188" height="0.445" transform="translate(97.494 82.319) rotate(-44.075)" fill="#fff"/>
      <path id="Path_65628" data-name="Path 65628" d="M268.875,207.237a2.525,2.525,0,0,1,.689-.331l3.126,3.186-.555.534Z" transform="translate(-168.864 -123.431)" fill="#fff"/>
      <rect id="Rectangle_7084" data-name="Rectangle 7084" width="2.188" height="0.445" transform="translate(102.67 87.517) rotate(-44.075)" fill="#fff"/>
      <path id="Path_65629" data-name="Path 65629" d="M281.374,219.349l2.077,2.34-2.243-2.166Z" transform="translate(-174.036 -128.648)" fill="#fff"/>
      <path id="Path_65630" data-name="Path 65630" d="M269.191,212.143a6.241,6.241,0,0,0,.938-1.146,3.571,3.571,0,0,0,.091-1.419c-.012-.313-1.171-2.292-1.651-2.324s-1,.89-.468,2.238,1.089,2.651,1.089,2.651" transform="translate(-168.447 -123.576)" fill="#7ea4eb"/>
      <path id="Path_65631" data-name="Path 65631" d="M267.625,214.41a2.684,2.684,0,0,0,1.584-.657c.485-.573-.158-3.106-.5-3.638s-1.305-.6-1.563.823a8.409,8.409,0,0,0,.484,3.472" transform="translate(-168.115 -124.63)" fill="#8aaeee"/>
      <path id="Path_65632" data-name="Path 65632" d="M264.634,215.559c.152.351.56.7,1.294.33s.96-.482,1.054-.725a5.171,5.171,0,0,0,.036-2.043c-.174-.4-.837-2.138-1.372-2.185s-1.108.926-.652,1.987a13.591,13.591,0,0,1,.519,1.3s-1.406.121-.879,1.338" transform="translate(-167.037 -125.12)" fill="#97b6f7"/>
      <path id="Path_65633" data-name="Path 65633" d="M266.01,211.257a.637.637,0,0,0-.433-.375.733.733,0,0,0-.58.171,1.239,1.239,0,0,0-.385.472,1.419,1.419,0,0,0-.12.6,2.97,2.97,0,0,0,.285,1.133,6.369,6.369,0,0,0,.564.991l.135-.148a1.348,1.348,0,0,0-.32-.086,1.057,1.057,0,0,0-.329,0,.793.793,0,0,0-.305.118.648.648,0,0,0-.2.24.651.651,0,0,1,.519-.234,1.31,1.31,0,0,1,.548.152l.3.155-.163-.3a10.917,10.917,0,0,1-.483-.992,3.173,3.173,0,0,1-.264-1.029,1.114,1.114,0,0,1,.351-.914.537.537,0,0,1,.887.052" transform="translate(-166.953 -125.093)" fill="#678ed8"/>
      <path id="Path_65634" data-name="Path 65634" d="M230.319,203.973l.721,12.474-17.709,1.613.391-15.03Z" transform="translate(-145.574 -121.805)" fill="#f0f1f1"/>
      <path id="Path_65635" data-name="Path 65635" d="M196.118,442.759c-.064-.053-.109-.108-.178-.159-1.78-1.316-15.345-5.882-15.578-6.578-.011-.034-.2-1.632-.2-1.632l-10.343-1.037s-.283,3.827-.355,5.289l-.8,8.8,4.818.348,2.671-2.24,7.049,1.833,14.893-.445a5.157,5.157,0,0,0-1.983-4.176" transform="translate(-126.846 -218.385)" fill="#302e2f"/>
      <path id="Path_65636" data-name="Path 65636" d="M139.853,442.759c-.063-.053-.109-.108-.178-.159-1.78-1.316-15.346-5.882-15.578-6.578-.011-.034-.2-1.632-.2-1.632l-10.344-1.037s-.283,3.827-.355,5.289l-.8,8.8,4.818.348,2.671-2.24,7.049,1.833,14.893-.445a5.155,5.155,0,0,0-1.983-4.176" transform="translate(-103.253 -218.385)" fill="#302e2f"/>
      <path id="Path_65637" data-name="Path 65637" d="M111.059,361.29l15.235,1.678s10.065-45.8,10.5-48.356c.589-3.485,4.8-34.677,4.559-35.605l.217,29.961,1.52,54h15.7s2.876-53.621,2.536-56.606c-.442-3.913-1.7-39.113-4.777-45.075-.3-.589-.472-.914-.472-.914l-31.725-1.193s-4.913,11.359-4.913,18.9c.752,2-8.383,83.214-8.383,83.214" transform="translate(-102.689 -145.35)" fill="#434244"/>
      <path id="Path_65638" data-name="Path 65638" d="M171.021,143.124s-13.26-4.713-18.239-3.171-17.715,8.2-19.325,19.908-1.284,29.178-1.122,32.653-5.536,24.643-5.373,26.76,33.5,8.956,47.282,2.768c0,0,2.707-60.511,1.078-67.543a41.437,41.437,0,0,0-4.3-11.375" transform="translate(-109.355 -95.226)" fill="#678ac2"/>
      <path id="Path_65639" data-name="Path 65639" d="M190.745,273.876l15.987-2.94s-1.19-74.22.113-80.169c2.285-15.13.46-35.2-.818-36.827S197,142.6,197,142.6l1.488.735c.132.625-1.414,18.959-1.481,28.821-.014,2.461-6.247,52.484-6.247,52.484Z" transform="translate(-136.103 -96.464)" fill="#fff"/>
      <path id="Path_65640" data-name="Path 65640" d="M198.976,185.071l2.128.6,6.63-23.4-4.546-7.729,4.125-3.828-5.482-7.338c.132.625-1.877,36.514-2.854,41.7" transform="translate(-139.555 -96.791)" fill="#e5e5e6"/>
      <path id="Path_65641" data-name="Path 65641" d="M191.523,131.215a18.8,18.8,0,0,1-5.346,9.559,63.36,63.36,0,0,1-11.839-14.722l5.766-16.106,4.6,10.265,7.98.793Z" transform="translate(-129.223 -82.773)" fill="#e5b7ac"/>
      <g id="Group_54363" data-name="Group 54363" transform="translate(48.424 26.251)" opacity="0.5">
        <g id="Group_54362" data-name="Group 54362" transform="translate(0 0)">
          <g id="Group_54361" data-name="Group 54361" clip-path="url(#clip-path-8)">
            <path id="Path_65642" data-name="Path 65642" d="M194.327,128.693c-1.1-.4-6.979.771-14.29-12.582l2.768-7.753,5.094,11.377,7.729,2.137-.4,2.1Z" transform="translate(-180.037 -108.358)" fill="#ca7e86"/>
          </g>
        </g>
      </g>
      <path id="Path_65643" data-name="Path 65643" d="M201.377,75.949v-.008s-9.365-4.877-17.489,5.857c0,0-4.981,7.008-3.546,15.3,0,0,4.6,11.62,12.095,16.383,5.309,3.129,13.651-5.647,16.124-16.034,2.341-9.826-.861-19.1-7.184-21.5" transform="translate(-131.631 -68.05)" fill="#e5b7ac"/>
      <path id="Path_65644" data-name="Path 65644" d="M200.9,108.723a3.671,3.671,0,0,1,1.216-.9,2.217,2.217,0,0,1,1.355-.1,1.886,1.886,0,0,1,1.128.689,3.213,3.213,0,0,1,.522,1.4,2.135,2.135,0,0,0-.084-1.668,2.051,2.051,0,0,0-1.425-1.055,2.283,2.283,0,0,0-1.731.292,2.35,2.35,0,0,0-.981,1.341" transform="translate(-140.359 -81.552)" fill="#564b44"/>
      <path id="Path_65645" data-name="Path 65645" d="M222.3,113.11a1.912,1.912,0,0,0-1.495-2.268,1.7,1.7,0,0,0-2.138,1.606,2.85,2.85,0,0,1,.921-.858,1.6,1.6,0,0,1,1.079-.113,1.891,1.891,0,0,1,.987.534,3.257,3.257,0,0,1,.646,1.1" transform="translate(-147.81 -83.129)" fill="#564b44"/>
      <path id="Path_65646" data-name="Path 65646" d="M177.956,102.185l-1.107,4.646c-4.266.478-6.566-4.165-6.4-7.472.087-1.667.8-2.992,2.2-3.172,2.959-.362,4.376,2.769,4.958,4.645a11.449,11.449,0,0,1,.347,1.354" transform="translate(-127.589 -76.991)" fill="#e5b7ac"/>
      <path id="Path_65647" data-name="Path 65647" d="M174.994,101.38a5.689,5.689,0,0,1,3.784,3.585.236.236,0,0,1-.148.3.242.242,0,0,1-.13.006.238.238,0,0,1-.169-.154,6.145,6.145,0,0,0-1.26-2.006c-1.095.393-.989,2.111-.988,2.129a.235.235,0,0,1-.217.253.23.23,0,0,1-.073-.005.234.234,0,0,1-.181-.211c-.006-.084-.117-1.892,1.086-2.515a4.125,4.125,0,0,0-1.734-.9l-.071-.016a.232.232,0,0,1-.18-.28.236.236,0,0,1,.281-.181" transform="translate(-129.378 -79.179)" fill="#ca7e86"/>
      <path id="Path_65648" data-name="Path 65648" d="M195.042,112.608c-.084.212-.674.178-1.318-.076s-1.1-.631-1.015-.844.674-.178,1.318.075,1.1.632,1.015.844" transform="translate(-136.923 -83.445)" fill="#ca7e86"/>
      <path id="Path_65649" data-name="Path 65649" d="M194.588,115.3c.021-.227-.521-.463-1.21-.527s-1.265.068-1.286.295.521.463,1.21.527,1.265-.069,1.286-.3" transform="translate(-136.667 -84.789)" fill="#ca7e86"/>
      <path id="Path_65650" data-name="Path 65650" d="M224.156,122.2c.084-.213.674-.178,1.318.075s1.1.632,1.015.844-.674.179-1.318-.075-1.1-.632-1.015-.844" transform="translate(-150.109 -87.854)" fill="#ca7e86"/>
      <path id="Path_65651" data-name="Path 65651" d="M224.506,119.761c-.021.227.521.463,1.21.527s1.265-.069,1.286-.3-.521-.463-1.21-.527-1.265.069-1.286.3" transform="translate(-150.259 -86.758)" fill="#ca7e86"/>
      <path id="Path_65652" data-name="Path 65652" d="M210.316,116.832c.028.007.056.012.085.016.352.052,1.235-.049,1.814-2.1a18.188,18.188,0,0,0,.841-5.454.236.236,0,0,0-.471.027,18.091,18.091,0,0,1-.825,5.3c-.39,1.384-.923,1.818-1.291,1.764-.541-.073-1.124-1.167-1.095-2.781a.236.236,0,0,0-.472-.008c-.03,1.7.56,3.037,1.413,3.24" transform="translate(-143.716 -82.405)" fill="#ca7e86"/>
      <path id="Path_65653" data-name="Path 65653" d="M223.377,104.748a2.854,2.854,0,0,0-2.158-.606.576.576,0,1,1-.075-1.15,3.959,3.959,0,0,1,3.008.9c1.2,1.07,1.058,3.333.74,3.347a9.875,9.875,0,0,0-1.516-2.494" transform="translate(-148.624 -79.852)" fill="#564b44"/>
      <path id="Path_65654" data-name="Path 65654" d="M199.073,101.774c-.322-.221,1-2.673,2.936-3.017a4.852,4.852,0,0,1,3.724,1,.708.708,0,1,1-.821,1.153,3.5,3.5,0,0,0-2.657-.761,12.11,12.11,0,0,0-3.183,1.623" transform="translate(-139.574 -78.054)" fill="#564b44"/>
      <path id="Path_65655" data-name="Path 65655" d="M178.158,75.808a4.655,4.655,0,0,1,4.725-.989c2.421-4.786,5.912-7.75,12.521-6.736s12.938,8.213,13.962,11.184.579,4.834-.8,4.408a12.978,12.978,0,0,1-.956,6.57,27.7,27.7,0,0,0-.564-7.222,72.882,72.882,0,0,0-7.556-4.148,15.292,15.292,0,0,0-6.358-1.237,14.1,14.1,0,0,1,8.107,4.312c-6.9-5.1-16.1-2.313-16.1-2.313a6.235,6.235,0,0,1-3.489,5.518c.776,3.982-1.017,10.2-1.017,10.2a15.174,15.174,0,0,1-.674-6.378,8.913,8.913,0,0,0-3.906-4.625s.1-6.519,2.1-8.542" transform="translate(-129.944 -65.135)" fill="#564b44"/>
      <path id="Path_65656" data-name="Path 65656" d="M182.326,102.57s7.526,7.164,8.424,8.3,2.464,9.2-5.753,6.608l-4.243-7.787" transform="translate(-131.913 -79.68)" fill="none" stroke="#fff" stroke-miterlimit="10" stroke-width="0.75"/>
      <path id="Path_65657" data-name="Path 65657" d="M193.007,115.91s8.849-.1,10.56.544,5.991,4.854,5.991,4.854-4.426,8.28-9.731,10.047c-5.608,1.652-12.262-8.109-12.262-8.109s2.992-1.131,4.047-2.6,1.394-4.738,1.394-4.738" transform="translate(-134.769 -85.271)" fill="#fff"/>
      <path id="Path_65658" data-name="Path 65658" d="M96.644,265.533l42.024,5.527L151.3,221.577s.11-21.445.088-37.533v-.008c-.008-6.659-.037-12.391-.1-15.316-.235-10-9.153-32.842-9.153-32.842s-17.171,6.975-20.383,14.023c-5.49,6.636-13.155,31.964-13.037,38.049s-12.069,77.582-12.069,77.582" transform="translate(-96.644 -93.647)" fill="#fff"/>
      <path id="Path_65659" data-name="Path 65659" d="M173.49,148.973l-6.188,4.687,13.149,30.378c-.008-6.658-.037-12.39-.1-15.315-.235-10-9.153-32.842-9.153-32.842l-5.245,7.017Z" transform="translate(-125.706 -93.647)" fill="#e5e5e6"/>
      <path id="Path_65660" data-name="Path 65660" d="M173.652,199c1.905-1.648,2.294-4.853,1.521-7.628-.076-.2-.186-.437-.318-.736-1.044-2.124-7.979-10.776-7.979-10.776L151.616,159.9s-5.68-5.368-11.038-1.719c-3.976,1.948-2.6,8.922-2.6,8.922s19.844,28,28.023,31.876l.12.054c3.579,1.611,6.029,1.271,7.526-.034" transform="translate(-113.88 -102.466)" fill="#e5b7ac"/>
      <path id="Path_65661" data-name="Path 65661" d="M183.92,222.455c1.179,2.464,20.342,10.1,41.373,14.087l3.068-6.746s-33.628-14.361-34.846-14.462c-4.523-.36-4.648,3.461-7.589,5.249a11.81,11.81,0,0,0-1.977,1.428.361.361,0,0,0-.03.444" transform="translate(-133.215 -126.955)" fill="#e5b7ac"/>
      <path id="Path_65662" data-name="Path 65662" d="M174.292,93.969c1.4-3.211,4.657-8.219,5.634-8.754s3.856-3.582,12.167-3.8a12.246,12.246,0,0,1,11.4,6.37,6.843,6.843,0,0,0,1.615-1.739c3.55-5.373,1.244-16.114-2.729-17.657-4.481-1.733-13.437-8.031-23.206-3.8a21.9,21.9,0,0,0-7.425,5.3v.006h-.007V69.9a23.9,23.9,0,0,0-5.862,11.3c-1.146,7.438,8.409,12.773,8.409,12.773" transform="translate(-125.638 -63.151)" fill="#72c7b5"/>
      <path id="Path_65663" data-name="Path 65663" d="M149.747,154.3l25.567,34.285,30,10.846-4.768,12.8s-33.706-10.194-36.637-11.985-28.653-32.419-29.146-35.057,1.809-8.876,5.524-11.935,9.456,1.043,9.456,1.043" transform="translate(-112.602 -100.458)" fill="#fff"/>
      <path id="Path_65664" data-name="Path 65664" d="M252.388,244.98q.4-.975.788-1.956c.613-1.351,1.484-3.022,2.045-4.4,2.018.7,3.678,1.19,4.987,1.629a22.913,22.913,0,0,1,4.331-1c1.565-.208,4.7-.945,5.483-1.038s4.607,3.68,4.745,4.45,1.087,2.6-1,1.36c-1.834-1.612-3.363-3.086-3.363-3.086l-3.519.684a30.5,30.5,0,0,1,3.94,1.3c.679.42,3.469,5.043,3.295,5.78s-1.77.659-2.384-.457c0,0,.476,1.146.176,1.542s-.863.356-1.87-1.012c0,0-.008,1.048-.533,1.243-1.14.261-2.766-2.887-3.066-3.025s-3.7,2.5-7.233.087c-.131-.089-.239-.182-.354-.273-2.26-.261-4.569-.552-6.865-.873.134-.322.265-.643.395-.956" transform="translate(-161.785 -136.556)" fill="#97b6f7"/>
      <path id="Path_65665" data-name="Path 65665" d="M282.516,252.364a16.685,16.685,0,0,0-.759-1.578,15.513,15.513,0,0,0-.911-1.5,6.941,6.941,0,0,0-.555-.7l-.174-.16a1.035,1.035,0,0,0-.231-.133,2.893,2.893,0,0,0-.439-.11,9.407,9.407,0,0,0-1.751-.155c.57.132,1.142.244,1.693.4.135.043.272.084.4.135a.958.958,0,0,1,.278.236,7.292,7.292,0,0,1,.514.677c.658.944,1.262,1.937,1.937,2.892" transform="translate(-172.564 -140.673)" fill="#678ed8"/>
      <path id="Path_65666" data-name="Path 65666" d="M281.554,254.13a8.726,8.726,0,0,0-.85-1.716,8.024,8.024,0,0,0-.556-.781,2.309,2.309,0,0,0-.708-.659,5.682,5.682,0,0,1,.5.8c.153.276.322.544.487.813a12.268,12.268,0,0,0,1.125,1.542" transform="translate(-173.295 -141.91)" fill="#678ed8"/>
      <g id="Group_54366" data-name="Group 54366" transform="translate(40.151 6.746)" style="mix-blend-mode: multiply;isolation: isolate">
        <g id="Group_54365" data-name="Group 54365" transform="translate(0 0)">
          <g id="Group_54364" data-name="Group 54364" clip-path="url(#clip-path-9)">
            <path id="Path_65667" data-name="Path 65667" d="M174.292,98.84c1.4-3.211,4.657-8.219,5.634-8.754s3.856-3.582,12.167-3.8a12.246,12.246,0,0,1,11.4,6.37,6.843,6.843,0,0,0,1.615-1.739s-5.047-7.191-12.212-7.484a28.089,28.089,0,0,0-16.114,4.67c-2.2,1.713-5.784-2.377-6.917-4.69-1.114-2.247,1.726-8.324,1.876-8.643a23.9,23.9,0,0,0-5.862,11.3c-1.146,7.438,8.409,12.773,8.409,12.773" transform="translate(-165.788 -74.768)" fill="#e5e5e6"/>
          </g>
        </g>
      </g>
      <path id="Path_65668" data-name="Path 65668" d="M186.045,215.528c-2.569-.884-5.152-1.716-7.708-2.622-2.564-.88-5.127-1.77-7.632-2.757-.624-.25-1.245-.508-1.841-.789-.3-.139-.592-.283-.866-.437a3.612,3.612,0,0,1-.363-.234,2.384,2.384,0,0,1-.315-.3c-.894-.943-1.795-1.992-2.68-3.006l-5.339-6.135c-3.572-4.083-7.139-8.172-10.762-12.213l-2.719-3.029a12.928,12.928,0,0,1-1.27-1.525,11.509,11.509,0,0,1-.969-1.717,8.559,8.559,0,0,1-.8-3.849,8.96,8.96,0,0,1,1.078-3.848,8.459,8.459,0,0,0-1.406,3.825,9.038,9.038,0,0,0,.563,4.1,10.649,10.649,0,0,0,.927,1.879,14.048,14.048,0,0,0,1.248,1.667l2.588,3.144c3.457,4.185,6.982,8.313,10.535,12.418,1.79,2.042,3.579,4.082,5.4,6.1.924,1.008,1.812,2,2.809,3a3.076,3.076,0,0,0,.433.386,4.484,4.484,0,0,0,.5.307c.322.171.641.321.962.458.642.274,1.284.512,1.929.743a158.451,158.451,0,0,0,15.7,4.425" transform="translate(-115.835 -109.241)" fill="#e5e5e6"/>
      <path id="Path_65669" data-name="Path 65669" d="M131.79,280.221l-1.463,20.151,17.858,2.4,3.8-20.152Z" transform="translate(-110.768 -154.174)" fill="#e5e5e6"/>
    </g>
    <g id="Group_54380" data-name="Group 54380" transform="translate(100.439 1158.007)">
      <path id="Path_65766" data-name="Path 65766" d="M70.7,521.793l-4.472,32.048s-1.642,4.652-16.524,5.008l-.914.016-.914-.016c-14.888-.356-16.524-5.008-16.524-5.008l-4.472-32.048Z" transform="translate(-20.77 -383.464)" fill="#fcbf02"/>
      <path id="Path_65767" data-name="Path 65767" d="M70.714,516.455c0,2.952-9.814,5.345-21.92,5.345s-21.92-2.393-21.92-5.345,9.814-5.344,21.92-5.344,21.92,2.393,21.92,5.344" transform="translate(-20.77 -378.45)" fill="#fcbf02"/>
      <path id="Path_65768" data-name="Path 65768" d="M43.8,291.072c-.313,7.032,9.735,19.66,10.88,26.914s-4.008,34.358-4.008,34.358-4.008,0-3.817-.573-1.527-15.843-6.3-38.557,3.054-44.666,2.672-52.11c0,0,2.736,3.181,2.927,10.625s-2.227,16.479-2.354,19.342" transform="translate(-26.465 -261.104)" fill="#58857a"/>
      <path id="Path_65769" data-name="Path 65769" d="M64.6,300.313c1.527,4.963-1.145,23.8-1.527,29.523s-.127,7.508-1.4,11.835-6.108,21.887-3.181,39.829,4.963,19.979,4.963,19.979,5.981-41.23,6.362-53.828-1.145-15.143-1.527-24.56S64.6,300.313,64.6,300.313" transform="translate(-35.176 -279.507)" fill="#76a699"/>
      <path id="Path_65770" data-name="Path 65770" d="M74.943,316.86c4.2,6.363,6.617,21.887,10.307,28s-.764,59.554-10.18,79.787c0,0-11.071-4.963-11.707-26.978s9.671-40.848,11.2-48.483.382-32.322.382-32.322" transform="translate(-37.884 -287.274)" fill="#58857a"/>
      <path id="Path_65771" data-name="Path 65771" d="M16.036,298.634c-.509,5.345,9.289,21.633,13.871,30.159s7.889,20.869,8.144,32.7.382,11.07,2.291,16.67,1.272,24.687.127,29.141-3.69,10.944-3.69,10.944-11.58-11.58-12.726-25.7-.509-34.358-1.145-40.847S18.2,323.321,16.29,317.086s-.255-18.452-.255-18.452" transform="translate(-15.37 -278.719)" fill="#76a699"/>
      <path id="Path_65772" data-name="Path 65772" d="M93.627,310.625c-6.744,12.6-6.49,16.416-7,28.632s-.764,19.724-4.072,25.832S67.922,395.375,80.392,422.1c0,0,6.235-7.126,8.271-13.616s-.254-13.871,2.927-23.414,8.017-27.741,5.727-39.321-5.345-16.8-4.963-22.142,1.272-12.98,1.272-12.98" transform="translate(-43.206 -284.348)" fill="#76a699"/>
    </g>
    <g id="Group_54381" data-name="Group 54381" transform="translate(361.204 1045.887)">
      <path id="Path_44718" data-name="Path 44718" d="M1527.484,167.293a.383.383,0,0,0-.383.383v1.892a.383.383,0,0,0,.383.383h6.589a.8.8,0,0,1,.8.8v7.742a.383.383,0,0,0,.383.383h4.047a.383.383,0,0,0,.383-.383v-7.742a.8.8,0,0,1,.8-.8h22.583a.8.8,0,0,1,.8.8v7.742a.383.383,0,0,0,.383.383h4.047a.383.383,0,0,0,.383-.383v-7.742a.8.8,0,0,1,.8-.8h6.589a.383.383,0,0,0,.383-.383v-1.892a.383.383,0,0,0-.383-.383Z" transform="translate(-1527.101 -148.127)" fill="#d16a4b"/>
      <path id="Path_44719" data-name="Path 44719" d="M1541.793,159.253h-3.956a2.484,2.484,0,0,1-2.484-2.484v-6.908h8.924v6.908a2.484,2.484,0,0,1-2.484,2.484" transform="translate(-1530.974 -139.945)" fill="#fffffb"/>
      <path id="Path_44720" data-name="Path 44720" d="M1541.558,159.284H1537.6a2.752,2.752,0,0,1-2.749-2.749v-7.174h9.455v7.174a2.752,2.752,0,0,1-2.749,2.749m-6.176-9.392v6.643a2.221,2.221,0,0,0,2.219,2.219h3.957a2.221,2.221,0,0,0,2.218-2.219v-6.643Z" transform="translate(-1530.739 -139.71)" fill="#5597c4"/>
      <path id="Path_44721" data-name="Path 44721" d="M1543.117,148.228H1534.5a1.29,1.29,0,0,1-1.29-1.29v-.494a1.29,1.29,0,0,1,1.29-1.291h8.616a1.291,1.291,0,0,1,1.291,1.291v.494a1.291,1.291,0,0,1-1.291,1.29" transform="translate(-1529.969 -137.735)" fill="#9cc4d8"/>
      <path id="Path_44722" data-name="Path 44722" d="M1599.071,159.253h-3.956a2.484,2.484,0,0,1-2.484-2.484v-6.908h8.924v6.908a2.484,2.484,0,0,1-2.484,2.484" transform="translate(-1557.859 -139.945)" fill="#fffffb"/>
      <path id="Path_44723" data-name="Path 44723" d="M1598.836,159.284h-3.957a2.752,2.752,0,0,1-2.749-2.749v-7.174h9.455v7.174a2.752,2.752,0,0,1-2.749,2.749m-6.175-9.392v6.643a2.221,2.221,0,0,0,2.219,2.219h3.957a2.221,2.221,0,0,0,2.218-2.219v-6.643Z" transform="translate(-1557.624 -139.71)" fill="#5597c4"/>
      <path id="Path_44724" data-name="Path 44724" d="M1600.4,148.228h-8.616a1.29,1.29,0,0,1-1.29-1.29v-.494a1.29,1.29,0,0,1,1.29-1.291h8.616a1.291,1.291,0,0,1,1.29,1.291v.494a1.291,1.291,0,0,1-1.29,1.29" transform="translate(-1556.854 -137.735)" fill="#9cc4d8"/>
      <path id="Path_44725" data-name="Path 44725" d="M1544.078,150.71H1536.5a.192.192,0,1,1,0-.385h7.574a.192.192,0,0,1,0,.385" transform="translate(-1531.424 -140.162)" fill="#5597c4"/>
      <path id="Path_44726" data-name="Path 44726" d="M1601.129,150.848h-7.623a.192.192,0,1,1,0-.385h7.623a.192.192,0,0,1,0,.385" transform="translate(-1558.18 -140.227)" fill="#5597c4"/>
      <path id="Path_44727" data-name="Path 44727" d="M1571.761,136.118l-2.144-2.149v-.424h.569a.912.912,0,0,0,.912-.912v-.047a.912.912,0,0,0-.912-.912h-6.064a.912.912,0,0,0-.912.912v.047a.912.912,0,0,0,.912.912h.573v.424l-2.148,2.149a5.51,5.51,0,0,0-1.614,3.9v9.107a1.6,1.6,0,0,0,1.6,1.595h9.249a1.6,1.6,0,0,0,1.594-1.595v-9.107a5.51,5.51,0,0,0-1.614-3.9" transform="translate(-1542.981 -131.408)" fill="#fffffb"/>
      <path id="Path_44728" data-name="Path 44728" d="M1571.546,150.746H1562.3a1.864,1.864,0,0,1-1.864-1.86v-9.108a5.811,5.811,0,0,1,1.692-4.083l2.07-2.07v-.049h-.308a1.2,1.2,0,0,1,0-2.4h6.064a1.2,1.2,0,0,1,0,2.4h-.3v.049l2.066,2.071a5.811,5.811,0,0,1,1.692,4.083v9.108a1.862,1.862,0,0,1-1.86,1.86m-7.658-19.042a.647.647,0,0,0-.647.647.659.659,0,0,0,.647.694h.839v.8l-2.225,2.226a5.279,5.279,0,0,0-1.537,3.708v9.108a1.333,1.333,0,0,0,1.333,1.329h9.249a1.331,1.331,0,0,0,1.329-1.329v-9.108a5.278,5.278,0,0,0-1.537-3.708l-2.222-2.226v-.8h.835a.647.647,0,0,0,.646-.646.659.659,0,0,0-.646-.695Z" transform="translate(-1542.746 -131.173)" fill="#9cc4d8"/>
      <path id="Path_44730" data-name="Path 44730" d="M1571.781,153.514h-3.445a1.215,1.215,0,0,1-1.215-1.215v-3.445a1.216,1.216,0,0,1,1.215-1.215h3.445a1.215,1.215,0,0,1,1.215,1.215V152.3a1.215,1.215,0,0,1-1.215,1.215" transform="translate(-1545.885 -138.901)" fill="#acd9ea"/>
    </g>
    <g id="Group_54383" data-name="Group 54383" transform="translate(625.614 1272.452)">
      <path id="Path_65773" data-name="Path 65773" d="M1891.584,364.029c-.068,0-.132,0-.2,0s-.132,0-.2,0c-6.012-.185-6.636-4.679-6.232-7.03.414-2.4,2.4-6.548.248-10.526h12.366c-2.157,3.978-.165,8.121.249,10.526.4,2.352-.219,6.845-6.231,7.03" transform="translate(-1870.576 -306.53)" fill="#feae65"/>
      <path id="Path_65774" data-name="Path 65774" d="M1898.278,317.681l-.484-.05c.419-4.041,2.434-7.69,4.767-11.917,3.214-5.823,6.857-12.422,7.29-22l.486.022c-.438,9.695-4.11,16.347-7.35,22.217-2.307,4.18-4.3,7.789-4.708,11.732" transform="translate(-1876.649 -277.071)" fill="#76a699"/>
      <path id="Path_65775" data-name="Path 65775" d="M1878.13,335.823c-.314-.323-.674-.656-1.069-.991a27.829,27.829,0,0,0-4.309-2.535c-4.145-2.173-9.3-4.878-10.921-8.574l.446-.2c1.549,3.54,6.623,6.2,10.7,8.339a27.969,27.969,0,0,1,4.4,2.595c.406.344.777.688,1.1,1.023Z" transform="translate(-1859.77 -295.76)" fill="#76a699"/>
      <path id="Path_65776" data-name="Path 65776" d="M1858.035,316.058c-.373,2.61.29,5.469,4.516,7.251a9.966,9.966,0,0,0-1.45-4.516,5.728,5.728,0,0,0-3.066-2.735" transform="translate(-1857.946 -292.254)" fill="#76a699"/>
      <path id="Path_65777" data-name="Path 65777" d="M1876.208,338.623c-.66,2.063-3.761,4.007-5.646,3.23,0,0-.173-1.576,1.812-2.932a3.745,3.745,0,0,1,3.834-.3" transform="translate(-1863.865 -302.661)" fill="#76a699"/>
      <path id="Path_65778" data-name="Path 65778" d="M1925.312,291.912c-.629,2.5-4.165,5.04-6.462,4.26,0,0-.323-1.858,1.931-3.617a4.456,4.456,0,0,1,4.531-.643" transform="translate(-1886.525 -280.756)" fill="#76a699"/>
      <path id="Path_65779" data-name="Path 65779" d="M1865.687,333.081a4.815,4.815,0,0,0-6.29,3,6.393,6.393,0,0,0,3.842-.041,4.133,4.133,0,0,0,2.447-2.963" transform="translate(-1858.627 -300.109)" fill="#76a699"/>
      <path id="Path_65780" data-name="Path 65780" d="M1888.8,335.487c1.809-.947,5.161-3.821,3.793-9.564a8.41,8.41,0,0,0-4.57,4.45c-1.591,3.546.777,5.114.777,5.114" transform="translate(-1871.806 -296.884)" fill="#76a699"/>
      <path id="Path_65781" data-name="Path 65781" d="M1870.2,320.812a4.785,4.785,0,0,0,.459,6.665,4.692,4.692,0,0,0,1.2-3.555,3.717,3.717,0,0,0-1.659-3.11" transform="translate(-1863.165 -294.485)" fill="#76a699"/>
      <path id="Path_65782" data-name="Path 65782" d="M1883.171,343.179c-2.751-1.506-6.363.318-7.336,3.2a4.978,4.978,0,0,0,4.058,0,6.274,6.274,0,0,0,3.279-3.2" transform="translate(-1866.342 -304.729)" fill="#76a699"/>
      <path id="Path_65783" data-name="Path 65783" d="M1922.369,309.338c-3.181,3.724-6.732,2.9-9.015,1.27a8.933,8.933,0,0,1,3.889-2.422c2.3-.619,5.125,1.151,5.125,1.151" transform="translate(-1883.953 -288.497)" fill="#76a699"/>
      <path id="Path_65784" data-name="Path 65784" d="M1903.21,317.468c.7-2.223.871-6.548-4.631-7.621,0,0-1.033,1.261.21,4.3a5.583,5.583,0,0,0,4.422,3.321" transform="translate(-1876.829 -289.339)" fill="#76a699"/>
      <path id="Path_65785" data-name="Path 65785" d="M1916.1,321.174c-1.7,2.421-5.758,3.308-8.71,1.712a6.393,6.393,0,0,1,4.4-3.294,4.515,4.515,0,0,1,4.315,1.582" transform="translate(-1881.155 -293.887)" fill="#76a699"/>
      <path id="Path_65786" data-name="Path 65786" d="M1908.531,296.594c-2.424,2.777-1.241,7.383,1.821,9.228a5.851,5.851,0,0,0,1.029-4.656,7.377,7.377,0,0,0-2.85-4.572" transform="translate(-1881.08 -283.118)" fill="#76a699"/>
      <path id="Path_65787" data-name="Path 65787" d="M1919.1,281.329c-2.238-2.237-2.238-5.718-.311-10.131,0,0,2.548,2.611,2.113,5.594a9.278,9.278,0,0,1-1.8,4.537" transform="translate(-1885.843 -271.198)" fill="#76a699"/>
      <path id="Path_65788" data-name="Path 65788" d="M1910.2,284.551c.062,3.667.994,6.215,4.413,8.328a11.425,11.425,0,0,0-1.243-5.1,6.466,6.466,0,0,0-3.169-3.232" transform="translate(-1882.471 -277.465)" fill="#76a699"/>
      <path id="Path_65789" data-name="Path 65789" d="M1898.249,340.667c2.4-3.812,5.677-4.309,8.452-2.527,0,0-1.077,1.823-4.557,2.569s-3.895-.041-3.895-.041" transform="translate(-1876.863 -302.153)" fill="#76a699"/>
      <path id="Path_65790" data-name="Path 65790" d="M1903.481,331.8a11.289,11.289,0,0,0,9.2.7,6.588,6.588,0,0,0-3.771-1.823,10.8,10.8,0,0,0-5.428,1.119" transform="translate(-1879.319 -299.091)" fill="#76a699"/>
    </g>
    <g id="Group_54512" data-name="Group 54512">
      <g id="Group_54511" data-name="Group 54511" transform="translate(523.321 1080.94)">
        <g id="Group_15977" data-name="Group 15977" transform="translate(1.05 65.544)">
          <path id="Path_44585" data-name="Path 44585" d="M683.931,1029.753s.372,17.614-.492,22.752,1.131,29.043,1.131,29.043l4.124-.518s10.324-39.045,9.269-44.057S683.931,1029.753,683.931,1029.753Z" transform="translate(-683.222 -1029.753)" fill="#aa6550"/>
          <g id="Group_15976" data-name="Group 15976" transform="translate(0.078 51.277)">
            <path id="Path_44586" data-name="Path 44586" d="M712.029,1188.593s-1.592,5.347-1.212,6.369,2.408,3.156,4.081,4.456.2-3.422-.119-4.953,2.145-1.641,1.759-4.016l-.385-2.374Z" transform="translate(-710.758 -1188.075)" fill="#aa6550"/>
            <path id="Path_44587" data-name="Path 44587" d="M713.077,1195.405s-.01,4.425.037,5.3-.871.078-1-.692a3.8,3.8,0,0,0-1.309-2.162C710.415,1197.742,713.077,1195.405,713.077,1195.405Z" transform="translate(-707.297 -1193.031)" fill="#aa6550"/>
          </g>
        </g>
        <path id="Path_44588" data-name="Path 44588" d="M660.467,1220.524c-1.483,14.929-6.844,37.869-6.844,37.869l-4.165-3s-7.335-51.478-8.532-55.664c-8.319-29.093-9.268-57.674-9.268-57.674L656,1134.869c2.482,4.172,4.408,11.035,3.821,18.8C657.263,1187.542,662.244,1202.64,660.467,1220.524Z" transform="translate(-628.292 -1035.28)" fill="#263238"/>
        <path id="Path_44589" data-name="Path 44589" d="M548.176,1190.979a6.358,6.358,0,0,0,1.346,3.275c.286.365,1.123,1.331,1.435.987s-.874-2.937-.172-4.531C551.037,1190.139,548.176,1190.979,548.176,1190.979Z" transform="translate(-491.404 -1072.9)" fill="#ffb27d"/>
        <path id="Path_44590" data-name="Path 44590" d="M643.655,1504.307a1.669,1.669,0,0,1,1.1-1,12.646,12.646,0,0,0,5.943-2.715c1.264-1.141,6.1-4.2,6.1-4.2l.026-.006c.106,0,.612.157,2.813,2.016,1.138.958,3.077-1.354,3.077-1.354a2.758,2.758,0,0,1,.636.862,2.914,2.914,0,0,1,.252,1.8,11.684,11.684,0,0,0,.841,4.351c.274.8.5,1.376.5,1.376s.132.664-2.244.961H659.94c-.925-.146-1.608-.414-2.557-.538a2.558,2.558,0,0,0-2.236.538.373.373,0,0,0-.026.028H643.389C643.094,1506,643.377,1505.026,643.655,1504.307Z" transform="translate(-636.139 -1279.707)" fill="#37598c"/>
        <path id="Path_44591" data-name="Path 44591" d="M618.651,1217.077c-1.483,14.929-6.522,38.359-6.522,38.359l-3.681,1.187s-8.141-56.158-9.338-60.344c-8.319-29.093-9.607-63.634-9.607-63.634l24.681-1.224c2.482,4.173,4.407,11.035,3.821,18.8C615.447,1184.095,620.427,1199.193,618.651,1217.077Z" transform="translate(-572.822 -1032.949)" fill="#455a64"/>
        <path id="Path_44592" data-name="Path 44592" d="M600.71,1504.307a1.669,1.669,0,0,1,1.1-1,12.646,12.646,0,0,0,5.943-2.715c1.264-1.141,6.1-4.2,6.1-4.2l.026-.006c.106,0,.612.157,2.813,2.016,1.138.958,2.977-1.415,2.977-1.415a2.842,2.842,0,0,1,.988,2.723,11.679,11.679,0,0,0,.841,4.351c.273.8.5,1.376.5,1.376s.132.664-2.244.961H617c-.925-.146-1.608-.414-2.557-.538a2.56,2.56,0,0,0-2.237.538l-.026.028H600.444C600.149,1506,600.432,1505.026,600.71,1504.307Z" transform="translate(-579.285 -1279.707)" fill="#466aa5"/>
        <path id="Path_44603" data-name="Path 44603" d="M568.823,1022.924c2.149,2.512,20.911,2.029,25.138,1.089q4.346-.965,6.738-9.153c.528,3.807,1.718,8.273,4.38,8.551,4.361.453,6.166-.3,6.69-1.954.086-.269-.8-11.781-1.568-23.359-.532-7.981-1.007-16-1.071-20.379-.008-.551-.008-1.041,0-1.471a66.781,66.781,0,0,1,9.624-.079,59.738,59.738,0,0,0-10.841-19.293c-6.989-7.985-23.648-5.615-30.4-3.62-4.256,1.258-8.273,5.829-6.2,15.505,1.221,5.694-.52,14.832-1.216,28.3C569.43,1010.005,568.359,1022.385,568.823,1022.924Z" transform="translate(-565.794 -911.17)" fill="#2a83e8"/>
        <path id="Path_44604" data-name="Path 44604" d="M711.473,963.216s-5.217,4.253-8.212,23.469c0,0,1.685,2.324,6.676,1.7S711.473,963.216,711.473,963.216Z" transform="translate(-703.261 -919.222)" fill="#2a83e8"/>
        <path id="Path_44605" data-name="Path 44605" d="M613.876,843.785s12.1-13.743,18.048-4.567c0,0,4.571,2.047,6.024,9.965,1.482,8.078-4.028,14.033-6.748,12.448-1.744-1.017-3.171,2.045-3.171,2.045Z" transform="translate(-599.869 -833.249)" fill="#233862"/>
        <path id="Path_44606" data-name="Path 44606" d="M596.455,831.886s1.75-6.253,10.943-4.027c0,0-4.412-.681-5.673.99,0,0,3.554-1.509,5.714-.1s2.395,5.942,2.028,7.31-2.908,5.4-4.515,5.355a7.4,7.4,0,0,1-3.47-1.508Z" transform="translate(-565.639 -827.38)" fill="#233862"/>
        <path id="Path_44607" data-name="Path 44607" d="M654.2,927.089c.248-1.367-1.116-3.766-.877-11.382l-.592.1-9.96,1.685s-.232,8.1-.308,11.034C642.4,930.973,654.384,929.263,654.2,927.089Z" transform="translate(-625.156 -887.1)" fill="#aa6550"/>
        <path id="Path_44608" data-name="Path 44608" d="M647.251,917.7s-.088,2.936-.164,5.872c5.547,0,8.845-4.788,10.124-7.557Z" transform="translate(-629.64 -887.308)" opacity="0.2"/>
        <path id="Path_44609" data-name="Path 44609" d="M648.466,869.941s3.032-4.508,3.839-8.413c.576-2.787-.561-13.213-11.039-12.008a14.186,14.186,0,0,0-5.942,2.059c-2.308,1.467-5.671,4.68-2.267,13.844l.864,3.088Z" transform="translate(-619.842 -842.284)" fill="#233862"/>
        <path id="Path_44610" data-name="Path 44610" d="M645.516,883.71s13.108.582,13.344-7.586,2.088-13.594-6.27-14.311-10.076,2.353-10.818,5.059S642.113,883.348,645.516,883.71Z" transform="translate(-629.834 -850.59)" fill="#aa6550"/>
        <path id="Path_44611" data-name="Path 44611" d="M628.826,857.619s3.323,9.684,8.794,11.254,7.9.161,7.9.161a15.611,15.611,0,0,1-4.846-9.361S631.661,853.133,628.826,857.619Z" transform="translate(-612.037 -846.762)" fill="#233862"/>
        <path id="Path_44612" data-name="Path 44612" d="M684.474,859.98s-2.741,2.065-3.453,4.127-1.125,6.336-2.369,6.156c0,0-2.523-6.589.62-10.189C682.6,856.255,684.474,859.98,684.474,859.98Z" transform="translate(-666.817 -848.321)" fill="#233862"/>
        <path id="Path_44613" data-name="Path 44613" d="M651.036,858.956s2.278,10.107,9.141,13.515c0,0-6.781-6.36-7.186-13S651.036,858.956,651.036,858.956Z" transform="translate(-633.885 -846.987)" fill="#233862"/>
        <path id="Path_44614" data-name="Path 44614" d="M539.46,1170.624s3.277,3.816,3.632,5.8.169,7.283-.838,7.472c-1.076.2-1.712-3.474-2.059-4.2-1.17-2.436-3.473-1.294-3.78-2.168a42.829,42.829,0,0,1-.613-5.071Z" transform="translate(-479.644 -1059.454)" fill="#aa6550"/>
        <path id="Path_44615" data-name="Path 44615" d="M563.69,1008.842s8.857,17.264,9.356,24.5,1.73,27.9,1.73,27.9l-3.658,1.837s-7.591-27.243-8.054-31.365c-.516-4.6-15.536-19.84-15.536-19.84Z" transform="translate(-514.959 -950.07)" fill="#aa6550"/>
        <path id="Path_44616" data-name="Path 44616" d="M574.636,988.338h13.226l6.755,12.867s-10.774,8.914-21.505,5.3S574.636,988.338,574.636,988.338Z" transform="translate(-541.661 -936.207)" fill="#2a83e8"/>
      </g>
      <path id="Path_66319" data-name="Path 66319" d="M704.578,273.369a.126.126,0,0,1,.24-.032c2.285,5,4.461-1.813,7.067,1.552,3.778,4.879,6.853,2.451,8.695-.789l1.563-1.694a6.775,6.775,0,0,0-.11.678l-1.1,1.187a19.538,19.538,0,0,1,.858,5.027l.816-1.314a.482.482,0,0,0,.5-.125l-1.381,2.121c-.917,4.679-3.748,5.824-5.51,7.1-2.823,2.051-4.352,1.971-6.906-.417-4.371-4.085-5.009-10.767-4.728-13.3" transform="translate(-169.805 829.782)" fill="#f0f1f1"/>
    </g>
    <g id="Group_54388" data-name="Group 54388" transform="translate(421.121 1092.063)">
      <path id="Path_65793" data-name="Path 65793" d="M231.334,252.4a41.825,41.825,0,0,1-.427,8.74c-1.795,14.379-7.653,37.342-7.653,37.342l-7.339.89c.536-4.06-.992-19.61-3.021-36.842-3.06-26-7.266-55.825-7.266-55.825s15.977-13.205,25.392-9.557-.791,45.176.314,55.251" transform="translate(-199.497 -92.486)" fill="#ffb27d"/>
      <path id="Path_65794" data-name="Path 65794" d="M229.954,295.144c-1.794,14.379-7.653,37.342-7.653,37.342l-7.339.89c.536-4.06-.992-19.61-3.02-36.842,2.612.459,9.7,1.371,15.626-.86a7.417,7.417,0,0,1,2.386-.529" transform="translate(-198.544 -126.485)" fill="#efcdaf"/>
      <path id="Path_65795" data-name="Path 65795" d="M237.6,48.775a10.67,10.67,0,0,0-8.211,0c-4.343,1.857-7.5,9.763-5.559,17.149s-4.62,7.509-1.581,13.432c1.078,2.1,15.35,3.887,15.837-4.293.3-5.067-4.286-5.318-2.948-10.825S237.6,48.775,237.6,48.775" transform="translate(-212.912 -41.272)" fill="#2c3a64"/>
      <path id="Path_65796" data-name="Path 65796" d="M217.492,250.18c.43,2.484.314,6.646-.1,11.5-1.248,14.657-5.231,35.605-5.231,35.605l-7.259,1.678c.278-4.008-2.094-19.092-5.085-35.966-4.651-26.248-10.8-56.838-10.8-56.838s15.135-14.168,24.757-11.1,2,45.137,3.717,55.124" transform="translate(-172.311 -91.833)" fill="#ffc299"/>
      <path id="Path_65797" data-name="Path 65797" d="M228.586,350.71a8.58,8.58,0,0,1-5.067,3.947,8.321,8.321,0,0,0-4.989,3.1,1.952,1.952,0,0,0,1.587,3.1l16.885-.1a2.428,2.428,0,0,0,2.4-2.685c-.133-1.25-.273-2.706-.337-3.823-.139-2.438-2.78-4.628-2.78-4.628a17.318,17.318,0,0,1-3.212,1.487,11.952,11.952,0,0,1-4.489-.406" transform="translate(-212.079 -145.267)" fill="#212d4c"/>
      <path id="Path_65798" data-name="Path 65798" d="M245.889,103.028s-11.033,18.6-13.258,33.769c0,0,5.366,7.241,7.549,2.157s17.847-32.3,5.709-35.926" transform="translate(-232.599 -60.259)" fill="#ffb27d"/>
      <path id="Path_65799" data-name="Path 65799" d="M190.22,47.507c.119-.2,5.055-8,14.284-9.561a13.649,13.649,0,0,1,15.624,11.515c1.155,7.53-.023,17.289-12.31,20.8Z" transform="translate(-174.83 -37.759)" fill="#2c3a64"/>
      <path id="Path_65800" data-name="Path 65800" d="M206.367,93.838l13.9,8.259,3.513-9.788a30.632,30.632,0,0,1-2.08-9.271,38.05,38.05,0,0,1,.224-8.226l-12.09,5.251a22.357,22.357,0,0,1,.3,2.71,19.511,19.511,0,0,1-.6,6.253,8.686,8.686,0,0,1-3.166,4.812" transform="translate(-188.722 -50.532)" fill="#ffb27d"/>
      <path id="Path_65801" data-name="Path 65801" d="M209.534,93.214c6.669.246,12.171-5.987,12.171-5.987l-11.57-.265a19.529,19.529,0,0,1-.6,6.253" transform="translate(-188.717 -54.72)" fill="#ed975d"/>
      <path id="Path_65802" data-name="Path 65802" d="M205.045,76.34s13.059,4.352,18.312-5.918c5.67-11.083.774-19.733-3.7-20.58-8.922-1.689-14.365,1.408-16.176,4.933S197.836,74,205.045,76.34" transform="translate(-187.222 -41.761)" fill="#ffb27d"/>
      <path id="Path_65803" data-name="Path 65803" d="M230.675,80.886s-.643,1.335-4.1.343c0,0-2.9-.832-2.468-2.36a9.688,9.688,0,0,1,6.566,2.017" transform="translate(-207.209 -51.919)" fill="#fff"/>
      <path id="Path_65804" data-name="Path 65804" d="M230.354,208.725c-3.775,3.606-31.648,11.061-47.357,5.7-2.814-.96,1.69-87.819,4.375-104.592a10.563,10.563,0,0,1,9-8.8q1.171-.162,2.537-.3c-.193,2.064.511,4,4.106,4.706,4.784.934,9.306-2.082,11.633-4.181,3.746.781,5.924,1.068,8.9,2.309a7.819,7.819,0,0,1,4.73,8.257l-.9,6.622-2.862,21.1a27.9,27.9,0,0,0,.061,7.983c1.219,8.021,3.156,27.557,4.454,42.418.913,10.454,1.51,18.6,1.32,18.778" transform="translate(-179.428 -59.467)" fill="#f9ddbf"/>
      <path id="Path_65805" data-name="Path 65805" d="M209.852,49.062s-1.238,12.25,10.384,16.591c4.62,1.727,7.027-16.985-2.63-20.721s-19.179.7-20.316,7.232-.272,7.893-.272,7.893,4.519-12.425,12.834-11" transform="translate(-182.88 -39.762)" fill="#2c3a64"/>
      <path id="Path_65806" data-name="Path 65806" d="M205.2,110.886s-5.33,21.08-5.537,29.465c0,0-11.7,20.429-12.384,21.881s4.223,3.439,4.223,3.439,14.674-15.649,17.5-22.226,12.862-27.963,8.847-34.346-12.651,1.786-12.651,1.786" transform="translate(-171.169 -61.511)" fill="#ffb27d"/>
      <path id="Path_65807" data-name="Path 65807" d="M242.1,154.553s-1.048,14.36,9.171,25.673c0,0,2.79-3.358,2.438-4.4s-4.352-17.047-7.274-19.324-4.336-1.949-4.336-1.949" transform="translate(-242.066 -78.015)" fill="#ffb27d"/>
      <path id="Path_65808" data-name="Path 65808" d="M235.8,191.467s-6.54-.047-6.905,1.49,1.681,6.351,6.465,4.673,4.663-2.725,4.663-2.725Z" transform="translate(-219.692 -90.745)" fill="#ffb27d"/>
      <path id="Path_65809" data-name="Path 65809" d="M238.76,187.025s5.255,2.428,3.469,5.016-5.355,1.04-5.907-.615,2.438-4.4,2.438-4.4" transform="translate(-227.12 -89.214)" fill="#ffb27d"/>
      <path id="Path_65810" data-name="Path 65810" d="M184.853,121.849a23.9,23.9,0,0,0,17.435,5.392s5.212-18.472-3.146-20.739-15.264,8.68-14.289,15.347" transform="translate(-154.672 -61.352)" fill="#f9ddbf"/>
      <path id="Path_65811" data-name="Path 65811" d="M248.884,108l-6.047,10.338s.779,4.8,5.3,5.274.744-15.613.744-15.613" transform="translate(-239.197 -61.971)" fill="#f9ddbf"/>
      <path id="Path_65812" data-name="Path 65812" d="M172.533,48.878a9.587,9.587,0,0,1,8.211,0c4.343,2.091,7.5,10.994,5.559,19.31s4.62,8.455,1.581,15.124c-1.079,2.365-15.35,4.377-15.837-4.833-.3-5.706,4.286-5.989,2.948-12.189s-2.461-17.411-2.461-17.411" transform="translate(-131.137 -41.272)" fill="#2c3a64"/>
      <path id="Path_65813" data-name="Path 65813" d="M208.659,296.959c-1.248,14.657-5.23,35.605-5.23,35.605l-7.26,1.678c.278-4.008-2.094-19.092-5.084-35.966,3.874.4,11.005.715,17.575-1.317" transform="translate(-163.581 -127.111)" fill="#f9ddbf"/>
      <path id="Path_65814" data-name="Path 65814" d="M204.358,350.71a8.58,8.58,0,0,1-5.067,3.947,8.322,8.322,0,0,0-4.989,3.1,1.952,1.952,0,0,0,1.587,3.1l16.885-.1a2.428,2.428,0,0,0,2.4-2.685c-.133-1.25-.273-2.706-.337-3.823-.139-2.438-2.78-4.628-2.78-4.628a17.321,17.321,0,0,1-3.211,1.487,11.954,11.954,0,0,1-4.489-.406" transform="translate(-171.975 -145.267)" fill="#2c3a64"/>
      <path id="Path_65815" data-name="Path 65815" d="M336.094,152.757c0,1.46.342,2.644.764,2.644s.764-1.184.764-2.644-.342-2.644-.764-2.644-.764,1.184-.764,2.644" transform="translate(-309.322 -129.681)" fill="#434244"/>
      <path id="Path_65816" data-name="Path 65816" d="M320.25,153.464c0,1.447.3,2.62.678,2.62s.679-1.173.679-2.62-.3-2.62-.679-2.62-.678,1.173-.678,2.62" transform="translate(-302.678 -129.988)" fill="#434244"/>
      <path id="Path_65817" data-name="Path 65817" d="M326.919,159.052c-.026,0-.052,0-.078,0-.321-.028-1.075-.3-1.154-2.228a16.428,16.428,0,0,1,.4-4.969.213.213,0,1,1,.408.123,16.385,16.385,0,0,0-.384,4.829c.053,1.3.43,1.791.766,1.821.49.049,1.232-.791,1.544-2.216a.215.215,0,0,1,.254-.163.213.213,0,0,1,.162.254c-.329,1.5-1.128,2.552-1.92,2.552" transform="translate(-304.95 -130.346)" fill="#ca7e86"/>
      <path id="Path_65818" data-name="Path 65818" d="M315.374,148.094c.237,0,.947-1.513,1.929-1.986a2.815,2.815,0,0,1,2.21.008.568.568,0,1,0,.381-1.07,3.9,3.9,0,0,0-3.1.045c-1.423.692-1.484,3-1.424,3" transform="translate(-300.628 -127.432)" fill="#564b44"/>
      <path id="Path_65819" data-name="Path 65819" d="M340.407,148.148c.335-.113-.2-2.57-1.806-3.348a4.386,4.386,0,0,0-3.485-.05.639.639,0,1,0,.429,1.2,3.166,3.166,0,0,1,2.5,0,10.924,10.924,0,0,1,2.365,2.2" transform="translate(-308.735 -127.292)" fill="#564b44"/>
      <g id="Group_54390" data-name="Group 54390" transform="translate(12.222 21.052)">
        <path id="Path_65690" data-name="Path 65690" d="M13.281,5.709A14.532,14.532,0,0,0,12.148,4.4,11.742,11.742,0,0,0,10.827,3.23,9.653,9.653,0,0,0,9.31,2.287a8.473,8.473,0,0,0-1.72-.635,7.562,7.562,0,0,0-1.866-.219,9.506,9.506,0,0,0-1.879.2A12.705,12.705,0,0,0,2,2.174,16.946,16.946,0,0,0,.23,2.954c.314.175.695.381,1.123.6s.905.448,1.412.673,1.046.446,1.6.644a16.751,16.751,0,0,0,1.676.512,14.71,14.71,0,0,0,2.017.332c.692.069,1.388.1,2.048.11s1.282-.005,1.826-.029,1.008-.057,1.352-.086" transform="translate(5.512 2.863)" fill="#6fd5dd"/>
        <path id="Path_65691" data-name="Path 65691" d="M7.441,4.706a21.411,21.411,0,0,0,2.721.4,22.943,22.943,0,0,0,2.391.072c.727-.016,1.374-.064,1.92-.123s.989-.127,1.306-.183q-.106-.169-.218-.338T15.333,4.2q-.117-.169-.239-.337t-.25-.334c-.344.029-.808.062-1.352.086s-1.167.038-1.826.029S10.309,3.6,9.618,3.53A14.71,14.71,0,0,1,7.6,3.2a16.761,16.761,0,0,1-1.676-.512c-.551-.2-1.09-.419-1.6-.644s-.984-.455-1.412-.673S2.106.947,1.792.771q-.191.1-.379.2t-.373.2q-.185.1-.366.209T.315,1.6c.289.206.662.457,1.113.729s.981.565,1.584.856a19.943,19.943,0,0,0,2.017.841,19.48,19.48,0,0,0,2.413.684" transform="translate(3.949 5.046)" fill="#12aab5"/>
        <path id="Path_65694" data-name="Path 65694" d="M.265,5.768q.165.172.322.349t.308.355q.15.179.294.361t.279.365c.271-.2.622-.465,1.024-.756S3.35,5.828,3.828,5.5s.982-.659,1.481-.97.994-.6,1.458-.843c.126-.329.24-.632.341-.9s.187-.507.258-.7.126-.35.164-.456l.057-.162a13.38,13.38,0,0,0-1.943.857c-.688.36-1.4.778-2.079,1.2s-1.331.859-1.9,1.249-1.052.738-1.4.993" transform="translate(18.918 0.422)" fill="#c2f2f1"/>
        <path id="Path_65696" data-name="Path 65696" d="M20.385,7.62l-.249.188-.186.143-.117.09-.041.032.041-.032.117-.09.186-.143.249-.188q-.136-.184-.279-.365t-.293-.361q-.15-.179-.308-.355t-.322-.349l-.248.182-.185.138-.116.087-.04.03.04-.03.116-.087.185-.138.248-.182a13.294,13.294,0,0,0-1.151-1.074,11.955,11.955,0,0,0-1.316-.946,11.171,11.171,0,0,0-1.491-.776,11.049,11.049,0,0,0-1.675-.563,11.162,11.162,0,0,0-2.191-.32,11.7,11.7,0,0,0-2.1.094,13.178,13.178,0,0,0-1.978.426,15.352,15.352,0,0,0-1.832.674c.026.092.05.175.07.246s.037.133.05.183l.03.114.01.039L5.6,4.248l-.03-.114c-.013-.05-.03-.111-.05-.183s-.043-.154-.07-.246q-.182.08-.359.163t-.351.17q-.173.086-.343.175t-.335.18l.071.2.052.15.032.094.011.032-.011-.032-.032-.094-.052-.15-.071-.2c-.369.2-.723.413-1.059.626s-.656.429-.957.644-.584.428-.847.635-.506.408-.728.6q.045.262.1.527t.114.532q.061.267.131.535t.148.537l.163-.135.169-.138.175-.141.181-.143L1.481,8.32l-.123-.113-.075-.071-.025-.025.025.025.075.071.123.113.169.152q.28-.221.586-.45t.634-.461q.328-.232.678-.463t.717-.456c-.116-.083-.219-.159-.307-.226s-.163-.125-.223-.173-.105-.085-.136-.11l-.046-.039.046.039c.03.025.076.063.136.11s.134.106.223.173.191.143.307.226q.177-.108.358-.214t.366-.209q.185-.1.373-.2t.38-.2c-.15-.083-.284-.16-.4-.229s-.219-.128-.3-.177L4.848,5.3l-.066-.041.066.041.19.115c.083.049.184.109.3.177s.253.145.4.229a16.941,16.941,0,0,1,1.769-.779A12.705,12.705,0,0,1,9.357,4.5a9.506,9.506,0,0,1,1.879-.2,7.56,7.56,0,0,1,1.867.219,8.47,8.47,0,0,1,1.719.635,9.654,9.654,0,0,1,1.517.943A11.745,11.745,0,0,1,17.66,7.261a14.535,14.535,0,0,1,1.133,1.311l.271-.024.2-.02.126-.013.044,0-.044,0-.126.013-.2.02-.271.024q.128.166.25.334t.239.337q.117.169.229.338t.218.338l.239-.045.175-.036.108-.024.037-.009-.037.009-.108.024-.175.036-.239.045q.2.324.389.645t.35.632q.166.311.313.61t.277.581l.15-.05.11-.038.068-.024.023-.008-.023.008-.068.024-.11.038-.15.05.078.171.074.166.071.162.068.158h0q.138-.175.279-.376t.284-.424q.143-.223.287-.466t.289-.5c-.124-.282-.26-.574-.409-.873s-.31-.6-.484-.913-.362-.621-.563-.934-.416-.625-.646-.935" fill="#c2f2f1"/>
        <path id="Path_65697" data-name="Path 65697" d="M9.472,7.6a16,16,0,0,0,3.368.355,21.358,21.358,0,0,0,3.1-.223,24.908,24.908,0,0,0,2.5-.49c.695-.173,1.232-.34,1.557-.447q-.129-.282-.277-.581t-.313-.61q-.166-.311-.351-.632t-.389-.645c-.317.056-.761.125-1.306.183s-1.194.107-1.92.123a22.943,22.943,0,0,1-2.391-.072,21.411,21.411,0,0,1-2.721-.4,19.486,19.486,0,0,1-2.413-.684A19.942,19.942,0,0,1,5.9,2.641c-.6-.291-1.132-.584-1.584-.856S3.492,1.262,3.2,1.056q-.368.225-.718.456t-.678.463q-.328.232-.634.461t-.586.45c.281.248.707.608,1.254,1.022A23.817,23.817,0,0,0,3.83,5.259,21.153,21.153,0,0,0,6.418,6.6a16.9,16.9,0,0,0,3.054,1" transform="translate(1.061 5.586)" fill="#6fd5dd"/>
        <path id="Path_65699" data-name="Path 65699" d="M10.44,5.724a16.9,16.9,0,0,1-3.054-1A21.153,21.153,0,0,1,4.8,3.379,23.817,23.817,0,0,1,2.81,2.027C2.262,1.612,1.837,1.253,1.556,1l-.181.143L1.2,1.288l-.169.138-.163.135q.091.311.193.621T1.28,2.8q.115.308.243.613t.27.605c.405.281.883.59,1.431.908s1.166.645,1.852.963a23.276,23.276,0,0,0,2.258.9,23.566,23.566,0,0,0,2.649.735,24.559,24.559,0,0,0,2.918.448,23.965,23.965,0,0,0,2.571.1c.791-.012,1.512-.063,2.151-.134s1.2-.16,1.659-.25q.285-.254.55-.517t.512-.529q.247-.267.474-.535t.437-.534l-.067-.158-.071-.162-.074-.166-.078-.171c-.324.107-.862.274-1.557.447a24.907,24.907,0,0,1-2.5.49,21.358,21.358,0,0,1-3.1.223,16,16,0,0,1-3.369-.355" transform="translate(0.094 7.467)" fill="#12aab5"/>
        <path id="Path_65700" data-name="Path 65700" d="M1.048.655A13.783,13.783,0,0,0,2.26,2.744a11.362,11.362,0,0,0,1.607,1.83A10.058,10.058,0,0,0,5.908,6.022a10.281,10.281,0,0,0,2.515.942,11.837,11.837,0,0,0,3.136.323,10.228,10.228,0,0,0,2.72-.466A10.772,10.772,0,0,0,16.6,5.767a12.915,12.915,0,0,0,1.937-1.439c-.463.09-1.02.18-1.659.251s-1.36.122-2.151.134a23.964,23.964,0,0,1-2.571-.1,24.568,24.568,0,0,1-2.919-.448A23.549,23.549,0,0,1,6.588,3.43a23.271,23.271,0,0,1-2.258-.9c-.686-.317-1.3-.645-1.852-.963S1.453.936,1.048.655" transform="translate(0.839 10.831)" fill="#6fd5dd"/>
      </g>
    </g>
  </g>
</svg>
